<svg xmlns="http://www.w3.org/2000/svg" xmlns:xlink="http://www.w3.org/1999/xlink" viewBox="0 0 299.1 321.29"><defs><style>.cls-1{fill:url(#linear-gradient);}.cls-2{fill:#0032a0;}.cls-3{fill:#001b60;}.cls-4{fill:#d6d8d8;}.cls-5{fill:#b70f53;}.cls-6{fill:#fcbf95;}.cls-7{fill:#f9b180;}.cls-8{fill:#ceccca;}.cls-9{fill:#afafaf;}.cls-10{fill:#2d2d2d;}.cls-11{fill:#eed275;}.cls-12{fill:#548b8c;}.cls-13{fill:#6dbfbf;}.cls-14{fill:#dd9666;}.cls-15{fill:#371806;}.cls-16{fill:#fff;}.cls-17{fill:#512c10;}.cls-18{fill:#4c2301;}</style><linearGradient id="linear-gradient" x1="20.23" y1="48.31" x2="148.44" y2="242.53" gradientUnits="userSpaceOnUse"><stop offset="0.22" stop-color="#393d8b"/><stop offset="0.49" stop-color="#dff022"/><stop offset="0.81" stop-color="#be1e2d"/></linearGradient></defs><title>Andorra</title><g id="Layer_2" data-name="Layer 2"><g id="infographic"><g id="Andorra"><path class="cls-1" d="M144.45,85c-14.11-10.63-28.73-8.42-39.09-15.49C95.89,63,90.19,52.67,81.67,45.08s-23-11.73-31.29-3.94c-6.76,6.34-5.76,16.72-7,25.71-2.07,15.5-11.81,28.88-19,42.9C12.09,133.82,7,160.63,2.11,187,.58,195.24-.95,203.67.74,211.85c2.13,10.32,9.1,19,14.3,28.27,6.05,10.78,9.89,22.75,17.43,32.63,14.5,19,39.73,26.82,63.26,33.55,27.49,7.85,55.56,15.78,84.22,14.93s58.57-12,74.25-35c10.22-15,13.48-33.45,13.44-51.35,0-12.94-2.56-27.46-13.5-35.05-11.95-8.3-29.81-5.3-41.26-14.23-8.46-6.6-11-18.34-8.92-28.59.92-4.48,2.61-8.86,2.59-13.42-.06-14.81-16.78-23.65-31.08-29.27s-26.65-17-31-29.31"/><path class="cls-2" d="M112.16,200.53l-5.84,4.24a96.91,96.91,0,0,1-10.7,7.06c-6.45,3.49-13.73,5.55-19.49,10.08C72.23,225,69.23,229,66.28,233L31.91,279.33c14.65,8.72,31.74,12.2,48.47,15.44,22.07,4.26,44.24,8.33,66.68,9.59s45.25-.33,66.65-7.19c11.85-3.79,23.49-9.41,31.84-18.64a9,9,0,0,0,2.49-4.24c.39-2.18-.71-4.33-1.79-6.27-12.46-22.43-27.4-45-50.14-56.92-7.05-3.69-15.64-7.33-17.45-15.08a275,275,0,0,0-65.6,3"/><path class="cls-2" d="M110.62,200.24c-5.93,4.3-11.76,9-18.4,12.17-6.11,2.93-12.65,5.16-18,9.47-5.61,4.55-9.64,10.92-13.91,16.67L46.11,257.73l-16,21.58c-.29.39-.13.72.25.94,9.73,5.75,20.55,9.27,31.5,11.9,11.59,2.79,23.37,4.87,35.1,7,24.34,4.37,49.09,7.68,73.87,6.43a176.19,176.19,0,0,0,35.89-5.34c10.45-2.76,20.91-6.52,30-12.55,4.27-2.85,8.63-6.26,11.74-10.39a7.1,7.1,0,0,0,1-7.36,62.75,62.75,0,0,0-3.86-7.12,212.71,212.71,0,0,0-16.83-25.6A106.08,106.08,0,0,0,207,215.94a102.93,102.93,0,0,0-12.61-7.43c-3.91-2-8-4.14-10.93-7.5a13,13,0,0,1-2.88-5.51c-.12-.48-.79-.52-1.17-.55a280.61,280.61,0,0,0-51.6,1q-7.27.82-14.48,2c-.66.11-2.09.45-2.21,1.29s1.12.87,1.66.78a274.59,274.59,0,0,1,50.74-3.66q7.2.16,14.37.69l-1.18-.55c2.17,8.72,11.83,12.2,18.9,16a89.65,89.65,0,0,1,23.06,18.51,161.06,161.06,0,0,1,17.87,24.15c2.67,4.31,5.21,8.69,7.67,13.12,1.32,2.39,2.78,5.16,1.31,7.83a24.68,24.68,0,0,1-5.29,5.79c-7.63,6.8-17.13,11.17-26.78,14.26A157.24,157.24,0,0,1,178.93,303c-24,2.09-48.18-.57-71.88-4.55q-17.44-2.94-34.8-6.54c-10.8-2.25-21.58-5-31.61-9.67-2.46-1.15-4.86-2.42-7.19-3.79l.25.94,28.15-38q3.5-4.72,7-9.44a60.42,60.42,0,0,1,6.83-8c4.93-4.59,11.29-6.8,17.29-9.6,7.52-3.52,14-8.63,20.74-13.48.68-.49.34-1.14-.36-1.32a3.55,3.55,0,0,0-2.73.74Z"/><path class="cls-3" d="M114.81,181.24a34.46,34.46,0,0,1-5.19,19.87c23.82,7.07,49.47,12.22,73.29,5.17-4.33-3.38-5.37-9.53-5-15s1.81-11,1.12-16.41c-21.68,3.25-43.5,6.51-65.41,5.69"/><path class="cls-3" d="M112.88,181.75a34.5,34.5,0,0,1-5.17,19.67c-.15.24.17.43.33.47,18.92,5.61,38.8,10.06,58.65,8.17a87.9,87.9,0,0,0,16.4-3.11c.2,0,2.34-.78,1.64-1.35-3.87-3.13-5-8.29-4.95-13,0-6.11,1.89-12.08,1.18-18.22-.06-.5-1.35-.3-1.59-.27-16.63,2.5-33.3,5-50.12,5.62-4.79.17-9.59.19-14.39,0a4.45,4.45,0,0,0-2.73.73c-.55.42-.56.93.26,1,17.28.62,34.51-1.2,51.61-3.6,4.9-.68,9.79-1.41,14.69-2.15l-1.59-.27c.72,6.25-1.22,12.35-1.19,18.58,0,4.8,1.31,9.87,5.19,13l1.63-1.36c-18.27,5.35-37.66,3.22-55.91-1.08-5.25-1.24-10.45-2.67-15.63-4.2l.34.47a35.21,35.21,0,0,0,5.21-20.07c0-.79-3.91-.14-3.86,1Z"/><path class="cls-4" d="M270.2,44.62c-4,7.68-4.85,16.44-8.46,24.25-.28.6,1,.62,1.24.59a2,2,0,0,0,1.65-1c3.55-7.66,4.38-16.31,8.26-23.83.61-1.2-2.27-.86-2.69,0Z"/><path class="cls-4" d="M251.31,67.43l21.18,7.74c1.17.42,3.4-1.25,1.7-1.87L253,65.56c-1.17-.43-3.4,1.25-1.7,1.87Z"/><path class="cls-5" d="M273.94,3.91a32.39,32.39,0,0,1-5.49,13.73l2.76-.31a102.18,102.18,0,0,0,4.42-12.71c.22-.81-2.54-.16-2.87.47Q270,10.57,267.67,16.3c-.33.83,2.46,0,2.75-.31a23.66,23.66,0,0,0,4.74-7.11c.26-.61-2.51-.27-2.87.47a37.09,37.09,0,0,0-3,9c-.16.84,2.59.18,2.87-.48l2.75-6.32L272,12l-1.57,7.14c-.19.84,2.57.15,2.87-.48a24.8,24.8,0,0,0,2.09-6.39l-2.87.47-.78,5.78c-.12.85,2.63.22,2.87-.47l.84-2.53-2.89.62L275,22.63c.28.77,2.87,0,2.89-.78a9.54,9.54,0,0,0-.89-4.46c-.33-.73-3.12.07-2.89.78a19.86,19.86,0,0,0,2.38,5.39,8.72,8.72,0,0,0,4.21,3.14c1.7.66,4,1.13,4.95,2.89,1.07,2-2.78,4.05-4.19,4.88l2.25.19a19,19,0,0,0,3.75-3.8c.62-.85-2.19-.42-2.65.15l-2.63,3.25c-.71.89,2.09.31,2.45,0L288.73,31l-2.45,0-3,3.94a23.51,23.51,0,0,1-2.81,3.48c-1.1,1-2.58.23-3.8-.21a14.13,14.13,0,0,0-4-1l.39.56c3.42-3.34,8.56-4.37,11.44-8.36.37-.51-.33-.58-.71-.57a3.11,3.11,0,0,0-1.94.72L275,36.24c-.43.42.26.56.55.57a3.2,3.2,0,0,0,1.9-.55l6.26-4.77-2.56.15a30.87,30.87,0,0,1-5.7,6.63c-.45.41.29.56.56.57a3.26,3.26,0,0,0,1.89-.55l3.64-2.63-2.24-.18c-1.34,1-2.72,2-4.15,2.87-.49.3-.34.54.07.71a2.82,2.82,0,0,0,1.9-.36l2.06-1.16-2.29,0-1.32,2c-.37.58,1.53.3,1.58.28a19.66,19.66,0,0,0,13.47-10.57c.09-.19-.11-.31-.26-.36q-6.84-2.43-13.84-4.38l-2.11,1.24c3.15.38,6.27.86,9.38,1.47l-.14-.52A3.62,3.62,0,0,1,282,27.87c-.23.08-1,.4-.93.78s.95.25,1.2.22l2.23-.27-1.2-.21c-.25.63-.14.64.31,0a5.84,5.84,0,0,1-.53-.33c-.48-.3-.95-.63-1.42-.95l-2.48-1.67-5.38-3.62a10.71,10.71,0,0,1-2.19-1.58,3.33,3.33,0,0,1-.48-2.85c.29-2,.72-4,1.08-5.92.15-.82-2.61-.22-2.87.48l-1.93,5.37,2.87-.47.65-2.09c.25-.82-2.46-.1-2.76.31a14,14,0,0,0-2.59,6.2c-.15,1,2.54,0,2.87-.47a10.3,10.3,0,0,0,1.79-5.47c0-.72-2.33.11-2.58.3a5.77,5.77,0,0,0-2.45,4.26c-.06.57,1.87,0,2,0a6.8,6.8,0,0,0,4.28-3.75l-2.87.47a16.41,16.41,0,0,0-.15,4.59c.08.75,2.28-.08,2.57-.3a8.65,8.65,0,0,0,2.11-2.2l-2.88.62.8,3.5c.18.82,2.64-.12,2.88-.63a9.28,9.28,0,0,0,.87-3.88l-2.9.78,1.55,3.69c.31.75,3.13-.07,2.9-.77a14.45,14.45,0,0,1-.68-3.57l-2.8.9a27.34,27.34,0,0,1,4.65,4.14l2.54-1.11a17,17,0,0,1-8.59-4.73c-.53-.54-2.73.13-2.81.9a13.5,13.5,0,0,1-1.34,4.77c-.66,1.31-1.46,2.43-1.26,4,.35,2.74,2.49,5.33,4.62,6.94.5.38,3.18-.37,2.81-.9a33.8,33.8,0,0,0-4.6-5.32c-.45-.42-3.1.21-2.81.9a24.13,24.13,0,0,0,4.5,7c.54.6,2.47-.18,2.79-.75a1,1,0,0,0-.19-1.29c-.49-.53-2.79.13-2.81.9,0,2.19,2.53,2.53,4.19,2.54l-.51-.4a1.77,1.77,0,0,0,.66,2.35,3.53,3.53,0,0,0,3.12,0L276,39l-.74.69c-.72.67,1.26.51,1.47.44a9.92,9.92,0,0,0,4.53-2.62,9.47,9.47,0,0,0,2.22-5.08,5.6,5.6,0,0,1,1-2.68c.57-.63,1.81-.53,2.6-.9A8.13,8.13,0,0,0,289,27.52a7.22,7.22,0,0,1,.6-.5c-.55,0-.62.08-.21.14.27.35.5.31.53.83l2.37-1A17.3,17.3,0,0,1,278.2,13c-.15-.83-2.65.14-2.89.62l-.48,1c-.25.52,1,.4,1.18.37.53-.08,1.43-.3,1.69-.84l.48-1-2.88.63a18.07,18.07,0,0,0,15.1,14.43c.54.09,2.41-.24,2.37-1-.09-1.78-2.76-1.48-3.89-1.14a6.69,6.69,0,0,0-2.43,1.48,2.17,2.17,0,0,1-1.14.63,9.3,9.3,0,0,0-1.7.46c-2.21.91-2.74,2.94-3.17,5.09s-1.66,4.63-4,5.32l1.46.45.74-.68c.8-.75-1.65-.4-1.84-.33,1.06-.38.32-.25,0-.94a1.09,1.09,0,0,1,.09-1.09c.17-.29-.35-.41-.51-.41-1.41,0-3.17-.26-3.14-2l-2.81.9a.49.49,0,0,1,0,.75l2.8-.75A23.22,23.22,0,0,1,269,28.13l-2.81.9a32.94,32.94,0,0,1,4.43,5.08l2.8-.9c-2.11-1.6-4.59-4.46-4.46-7.3.06-1.46,1.15-2.72,1.68-4a14.46,14.46,0,0,0,.94-4.1l-2.81.9a17.78,17.78,0,0,0,8.95,4.91c.41.08,3.2-.38,2.54-1.11a26.51,26.51,0,0,0-4.65-4.14c-.54-.38-2.87,0-2.81.9a14.92,14.92,0,0,0,.67,3.56l2.9-.77-1.55-3.7c-.32-.75-2.89,0-2.9.78a8.32,8.32,0,0,1-.84,3.57l2.88-.62-.8-3.5c-.2-.89-2.6.21-2.88.63a6.6,6.6,0,0,1-1.48,1.55l2.57-.3a15,15,0,0,1,.12-4.28c.15-.86-2.59-.18-2.87.47a4.09,4.09,0,0,1-2.45,2.48h2a4.6,4.6,0,0,1,1.8-3.3l-2.57.3a9.86,9.86,0,0,1-1.76,5.16l2.87-.47a13.19,13.19,0,0,1,2.36-5.87l-2.75.31-.65,2.08c-.22.7,2.59.29,2.87-.47l1.93-5.38-2.87.48-.8,4.39a11.37,11.37,0,0,0-.39,3.33c.15,1.3,1.1,1.94,2.1,2.62l3.93,2.65,3.73,2.5a18.22,18.22,0,0,0,3.54,2.24c1.51.56,4.75,0,4.75-2.07,0-.38-1-.23-1.2-.22l-2.23.27.27,1a7.12,7.12,0,0,0,3.24-2.08c.18-.2.17-.46-.14-.52-3.27-.65-6.57-1.17-9.88-1.56a3.17,3.17,0,0,0-1.92.47c-.25.16-.77.6-.19.77q7,1.95,13.84,4.37l-.25-.36a16.29,16.29,0,0,1-10.88,9.07l1.57.28,1.32-2.05c.43-.66-2.08-.13-2.28,0l-2.06,1.16,2,.35a47.89,47.89,0,0,0,4.15-2.88c.48-.36.34-.62-.19-.73a3.07,3.07,0,0,0-2.05.55l-3.65,2.63,2.45,0a32.65,32.65,0,0,0,5.92-7c.25-.39-.71-.41-.82-.41a3.24,3.24,0,0,0-1.74.56l-6.26,4.77,2.44,0,6.89-6.69-2.65.15c-2.83,3.93-8,5-11.43,8.36-.34.33.08.55.4.57,1.86.1,3.5,1,5.29,1.47a7.79,7.79,0,0,0,4.93-.37,9.9,9.9,0,0,0,3.87-3.51l4-5.26c.69-.92-2.1-.3-2.45,0l-4.13,3.3,2.45,0,2.63-3.26-2.65.15a16.91,16.91,0,0,1-3.35,3.46c-.47.37-.33.62.2.74a3.33,3.33,0,0,0,2.05-.55,22.3,22.3,0,0,0,2.92-2.07c.75-.63,1.92-1.45,2.13-2.46.41-1.88-2-3.18-3.38-3.77-1.93-.8-3.93-1.25-5.4-2.86s-2.29-4-3-6.11l-2.89.78a9.64,9.64,0,0,1,.89,4.46l2.89-.78-2.37-6.47c-.28-.76-2.68,0-2.88.63l-.84,2.53,2.87-.47.78-5.78c.11-.82-2.74-.28-2.87.47a24.87,24.87,0,0,1-2.09,6.4l2.87-.48,1.57-7.13c.18-.83-2.59-.19-2.87.47l-2.75,6.33,2.87-.48a37.16,37.16,0,0,1,3-9l-2.87.47a22.43,22.43,0,0,1-4.51,6.79l2.76-.31q2.28-5.73,5.09-11.21l-2.87.47a102.18,102.18,0,0,1-4.42,12.71c-.3.72,2.43.16,2.76-.31a33.17,33.17,0,0,0,5.71-14.06c.12-.8-2.75-.29-2.87.48Z"/><path class="cls-5" d="M282,30.12a1.53,1.53,0,0,0-.3,2.15c.39.52,1.47.2,1.92,0a10,10,0,0,0,3.81-2.38c.61-.6.1-1.07-.6-1.1a6.67,6.67,0,0,0-3.72,1c-.58.34-.83,1.08,0,1.25a3.13,3.13,0,0,0,3.05-1c.71-1,.09-2.08-.36-3a44.29,44.29,0,0,0-3.7-6.36c-.29-.41-1.17-.28-1.55-.18l-3.44.86a10.87,10.87,0,0,0-2.86.92,2,2,0,0,0-1.17,2c.12,1.13.51,2.22.6,3.37a14.66,14.66,0,0,1-.18,3.44c-.14.79-.81,2.09-.47,2.86s2,1.18,2.73,1.51l3.29,1.44,1.34-1.54-7.68,1c-.33,0-2.32.76-1.54,1.39a9,9,0,0,0,6.56,1.94V38.05l-1.66.49c-.5.15-1.89.9-.95,1.46a4.5,4.5,0,0,0,4.73-.38c.42-.3.83-.8.25-1.17a2.33,2.33,0,0,0-2.06.27c-2.43,1.33-5.55-.28-7-2.36l-2.49,1.28a12.88,12.88,0,0,1,4,2.89l2.69-1.15L272,36.65l-2.49,1.29c1.26.66,2.22,1.71,3.57,2.17a22.22,22.22,0,0,0,4.25,1,2.52,2.52,0,0,0,2.05-.55c.4-.39.38-1-.28-1.06a18.75,18.75,0,0,1-4-.91c-1.16-.42-2.14-1.48-3.25-2.07a2.27,2.27,0,0,0-1.9.18c-.28.15-1.06.72-.6,1.11l3.25,2.73c.72.6,3.52-.28,2.69-1.15a14.34,14.34,0,0,0-4.4-3.16c-.64-.3-3.22.21-2.49,1.28,2.5,3.72,7.75,4.15,11.45,2.12l-1.81-.9-.21.15c.26,0,.3,0,.13-.06a4.16,4.16,0,0,1-.54-.23l-1,1.46,1.66-.49c.44-.13,1.28-.46,1.25-1s-.85-.57-1.25-.54a6.13,6.13,0,0,1-4.26-1.43l-1.54,1.39L280,37c.45-.06,2.51-1,1.34-1.54l-2.63-1.15-1.32-.57c-.31-.14-1.1-.32-1.31-.57-.41-.49.17-1.66.28-2.27a16.15,16.15,0,0,0,.25-2.78,15.58,15.58,0,0,0-.21-2.64c-.06-.35-.13-.69-.21-1s-.37-1-.25-1.2c0,0,.69-.16.87-.21l1.38-.34L281,22l-1.54-.18c.49.71,4.94,7.56,4.12,8l1.09-.37h.25l0,1.26a1.16,1.16,0,0,1,.79-.18l-.61-1.1a6.71,6.71,0,0,1-2.63,1.65l1.92.05c-.07-.1-.19-.38-.06-.49.45-.43.3-.9-.28-1.06a2.39,2.39,0,0,0-2,.55Z"/><path class="cls-5" d="M290.58,24.31a6.8,6.8,0,0,1-1.82,5.23l2.46,1a13.6,13.6,0,0,0,2-8.62c-.07-.66-1.06-.79-1.54-.71s-1.42.53-1.38,1.19a2.36,2.36,0,0,1,0,.46c0-.22-.08.15-.11.21.13-.23-.06,0-.08.08.18-.23-.11.09-.18.14s-.13.09,0,0l-.22.11c-.27.16.25-.05-.08,0-.16,0-.31.09-.48.12.37-.07-.07,0-.15,0h-.18c.15,0,.12,0-.08,0l-.66-.1L287,23.15a9.24,9.24,0,0,0-2.67-.24,1.75,1.75,0,0,0-1.51.93.92.92,0,0,0,.57,1.23,10.06,10.06,0,0,0,10.84-3.87,1,1,0,0,0-.4-1.51,1.91,1.91,0,0,0-2,.55,5.8,5.8,0,0,0-1,2.8,2.29,2.29,0,0,1-.34,1c.13-.2-.1.09-.11.1.19-.18-.12.07.06-.06s-.09,0-.13.06c.31-.17.09-.05,0,0,.17-.06.22,0,0,0l-.28,0h-.4c-.5,0-1-.08-1.52-.09a4.55,4.55,0,0,0-3.08,1c-.49.42-.72,1.15-.13,1.6a1.79,1.79,0,0,0,2.08-.15c.11-.09.31-.15.05-.05.06,0,.32-.09.11-.06s.33-.09,0,0,.08,0,.13,0h.69l.36,0a6.73,6.73,0,0,0,3.3-.36,3.64,3.64,0,0,0,2-2.61c.1-.42.17-.85.25-1.28a2,2,0,0,1,.14-.48,1.87,1.87,0,0,1,.15-.32c-.11.18.07-.08.1-.12l-2.45-1a8.37,8.37,0,0,1-.68.89l-.23.24,0,0-.45.38-.48.35c-.1.07-.14.09,0,0l-.22.13a9.48,9.48,0,0,1-1.07.51c.28-.12-.15.05-.25.08s-.38.11-.57.15l-.26.06c-.07,0-.37.05-.06,0-.18,0-.35.05-.53.06a5.72,5.72,0,0,1-.59,0H286l-.53-.07L285.1,23s-.32-.08-.11,0l-.93,2.16a4.69,4.69,0,0,1,1.27.09c.47.08.93.19,1.39.29a7.66,7.66,0,0,0,3.09.09c1.59-.34,3.56-1.61,3.45-3.46l-2.92.48a11.26,11.26,0,0,1-1.58,6.88,1,1,0,0,0,.41,1.51,1.89,1.89,0,0,0,2.05-.55,8.89,8.89,0,0,0,2.25-7c-.07-.73-1.21-.84-1.73-.68a1.38,1.38,0,0,0-1.16,1.45Z"/><path class="cls-5" d="M279.21,27.61l.85-4.33-2.92.49A5,5,0,0,0,279,26.19c.68.49,2.65.15,2.58-1L281.46,24l-2.58,1c1,.56-.07,2-.62,2.49-1.08,1-2.36,2.12-2.34,3.74,0,1.24,1.72,1.15,2.44.59a10.46,10.46,0,0,0,2.06-2.09c.78-1.06-.53-1.75-1.5-1.48l-1.73.5,1.75.93a1.92,1.92,0,0,0-.49-1.34l-.68,1.54,1.66-1-2.12-.79c-.34,1.94,2.13,2.56,3.5,3L287,33.11l-.39-1.45c-.57.67-1.11,1.36-1.61,2.08a3.85,3.85,0,0,0-.92,1.75,1.2,1.2,0,0,0,1.15,1.2,2.09,2.09,0,0,0,2.06-1.06.82.82,0,0,0-.07-.83l-.05-.08c-.64-.87-2.31-.42-2.72.46-2.11,4.55-7.64,4.67-11.84,3.5a2,2,0,0,0-2.05.54.89.89,0,0,0,.39,1.46,10.1,10.1,0,0,0,7.4.66c.5-.14,1.15-.54,1.19-1.13a1,1,0,0,0-1-1L273,38.77c-.67-.05-2.74.77-1.82,1.73a5.11,5.11,0,0,0,4.58,1.59c.64-.1,1.51-.43,1.59-1.19s-.76-1-1.35-1l-2.18.12,1.1,1.55,1.66-2.31a4.27,4.27,0,0,0,1.06-2.32c.06-1.78-2.13-2.53-3.5-1.7l2.1.51a11.3,11.3,0,0,1,0-3.53c.22-1.45-2.14-1-2.69-.35a4.11,4.11,0,0,0-.95,3.56c.23,1.18,2.14.68,2.67.06a18.3,18.3,0,0,0,3-4.79l-2.72.46c.53.93,1.9.93,2.77.55a2.7,2.7,0,0,0,1.56-2.46c.06-.59-.48-.88-1-1l-1-.19,1,.69a2.27,2.27,0,0,1,.23-1.28c.72-1.51-2.2-1.57-2.78-.37a4.23,4.23,0,0,0-.35,2.43c.06.44.6.62.95.7l1,.19-1-1a3.05,3.05,0,0,1,0,.41c-.12.53.31.53,1.31,0-.53-.93-2.37-.36-2.71.47a16.21,16.21,0,0,1-2.61,4.26l2.67.06a2.09,2.09,0,0,1,.49-1.87l-2.69-.36a13.42,13.42,0,0,0,0,4.1c.14.86,1.58.83,2.1.5-.76-.21-1-.17-.74.13a.78.78,0,0,1,0,.37,3.35,3.35,0,0,1-.6,1c-.52.73-1.05,1.45-1.57,2.17-.64.89.17,1.6,1.1,1.55l2.18-.12L276,39.9a2.34,2.34,0,0,1-2.17-.69L272,40.94l5.59.46.22-2.12a7,7,0,0,1-5.19-.6l-1.66,2a16.87,16.87,0,0,0,9.92.22,10.48,10.48,0,0,0,6.36-5.35l-2.71.46.06.08-.07-.83-.06.1.74-.71-.12.06,1.48-.11-.11,0,.62.61A12.48,12.48,0,0,1,288,34c.36-.49.74-1,1.13-1.41a.89.89,0,0,0-.39-1.46l-4.91-1.62-2.29-.76c-.4-.13-1.34-.33-1.24-.88.18-1.07-1.52-1.14-2.13-.79l-1.65,1c-.43.25-1.22,1-.67,1.53a.6.6,0,0,1,.2.25c0,.89,1,1.14,1.74.93l1.74-.5L278,28.77a7.89,7.89,0,0,1-1.56,1.6l2.44.6c0-1.63,2.06-2.54,2.8-3.86s.87-3.08-.56-3.88a1.83,1.83,0,0,0-1.58-.1c-.38.15-1,.55-1,1.06l.08,1.25,2.58-1A3.07,3.07,0,0,1,280,23c-.47-1.3-2.69-.68-2.92.49l-.85,4.33c-.3,1.47,2.67,1.14,2.94-.2Z"/><path class="cls-5" d="M275.63,12.13a3.69,3.69,0,0,1-.36-1.46v.23a3.52,3.52,0,0,1,.26-1.43l-.1.23a3.25,3.25,0,0,1,.28-.52.56.56,0,0,0,0-.65,1.16,1.16,0,0,0-.79-.3,2.61,2.61,0,0,0-1.14.22,1.76,1.76,0,0,0-.77.6,4,4,0,0,0-.27,3.86.8.8,0,0,0,.58.44,2.19,2.19,0,0,0,1.08,0,2.16,2.16,0,0,0,1-.51c.14-.15.39-.44.27-.67Z"/><path class="cls-5" d="M264.87,21l14.75,5.31L287.11,29l1.64.59c.27.1,1.39.35,1.49.62s-.57,1.12-.69,1.33c-.26.47-.55.93-.86,1.38a22.31,22.31,0,0,1-9.32,7.8c-2.1.93-4.53,1.5-6.73.56s-3-3.15-3.66-5.29a64.86,64.86,0,0,1-2.11-8.34c-.41-2.27-1.23-5.37.24-7.42l-2.69-.37a22.15,22.15,0,0,0,4.71,18.56c4.48,5.17,11.94,6.91,17.34,2,2.41-2.18,5.09-5,6.25-8.05.43-1.15.79-2.55-.27-3.48a7.44,7.44,0,0,0-2.16-1l-3.22-1.24-11-4.27c-1.7-.66-3.41-1.34-5.17-1.83s-3.56-1-5.1,0a3.58,3.58,0,0,0-1.4,3.58,32.72,32.72,0,0,0,1.29,6.28c.61,2.11,1.34,4.19,2.08,6.25a17.16,17.16,0,0,0,2.52,5.11L271.71,40l-.17,0,1,.24.14.21-.23.85.11-.14-.95.58.18,0-1.39-.18.16.09.83-1.91c-1.06.32-2.43-2.21-2.88-2.91a22.17,22.17,0,0,1-2-4.09,22.53,22.53,0,0,1-1.35-8.61c.06-1.56-2.89-1.19-2.94.19a24,24,0,0,0,2.21,11.14c1.32,2.81,3.72,7.5,7.53,6.37.66-.19,1.87-1.3.83-1.91a2.07,2.07,0,0,0-2.86.63c-.56,1,.59,1.84,1.57,1.68.67-.11,2.18-.84,1.44-1.76-1.83-2.3-2.6-5.4-3.51-8.14a36.43,36.43,0,0,1-2.1-8.65c0-.31-.14-1.37.19-1.59-.22.15,1.22.4,1.46.46a42.76,42.76,0,0,1,4.55,1.55l8.69,3.37,4.37,1.69,2.06.8c.81.31,1.75.43,1.5,1.49-.62,2.63-2.87,4.82-4.67,6.71-2,2.11-4.27,3.47-7.28,3a11.51,11.51,0,0,1-6.66-4.26,20.7,20.7,0,0,1-4.16-17.14c.28-1.4-2.18-1.08-2.69-.37-1.52,2.1-1.4,4.55-1,7a62.67,62.67,0,0,0,1.95,8.87c.75,2.52,1.47,5.41,3.63,7.12a9.28,9.28,0,0,0,7.09,1.57c5-.74,9.62-3.9,12.92-7.58a23.54,23.54,0,0,0,2.24-2.92,10,10,0,0,0,1.7-3.24c.21-1.19-.57-1.75-1.58-2.14-1.55-.59-3.13-1.12-4.69-1.68L266.53,19c-1.3-.47-3.4,1.4-1.66,2Z"/><path class="cls-5" d="M285.55,20.62a15.69,15.69,0,0,1,2.77-13.36l-12.5.07a134.12,134.12,0,0,0-9.05,14.81c-.94,1.8-2.13,3.75-1.55,5.85s2.39,3.16,3,5.09l12.19-4.91a8.42,8.42,0,0,1-3.05-2.63c-2.59-3.24-15.56,1.13-12.61,5.11a14,14,0,0,0,5.76,4.48c2.26,1,13.93-.75,12.19-4.91l-2.92-6.94C278,19,267.34,22.52,266.25,26a24.14,24.14,0,0,0-.37,13.4c1.07,4.23,14.62.72,13.52-3.62a20.48,20.48,0,0,1,.32-11.66l-13.5,2.76,2.91,6.93,12.19-4.9a9.77,9.77,0,0,1-4-3.4l-12.61,5.11a13.65,13.65,0,0,0,4.8,3.72c2.5,1.25,13.44-.62,12.19-4.91-.42-1.45-1.37-2.26-2-3.54-1.35-2.7-.56-3.62.93-6.35a134,134,0,0,1,7.7-12.31c1.79-2.56-1.55-3.46-3.54-3.5-2.9-.07-7.1,1.11-9,3.57A20.13,20.13,0,0,0,272,24.25c.93,4.19,14.51.81,13.53-3.63Z"/><path class="cls-4" d="M273.52,1.3c-4.78,5.27-7.49,12-10,18.54a22.78,22.78,0,0,0-1.86,9.65,19.63,19.63,0,0,0,2.69,8.78,16.15,16.15,0,0,0,6.72,6.56c3,1.39,6.84.78,10,.09,6.49-1.41,10.67-6.12,12.86-12.2,2.76-7.63,2.52-16,5.15-23.63.23-.68-.89-.84-1.3-.81a1.79,1.79,0,0,0-1.62,1.09c-2.19,6.38-2.42,13.15-4,19.67-1.21,5.1-3.6,10.93-8.71,13.22a16.47,16.47,0,0,1-4.19,1.14,12.82,12.82,0,0,1-5.48,0c-2.7-.83-4.94-3.44-6.41-5.75a18.73,18.73,0,0,1-1.47-16.79c2.42-6.6,5.2-13.64,10-18.9,1.2-1.32-1.6-1.56-2.38-.7Z"/><path class="cls-4" d="M273.7,1.61c3.8.59,7.38,2.28,10.94,3.65L296,9.64a2.4,2.4,0,0,0,2-.27c.35-.22.92-.88.26-1.14L286.53,3.69C282.93,2.3,279.31.63,275.47,0a2.5,2.5,0,0,0-2,.55c-.41.4-.37.93.27,1Z"/><path class="cls-6" d="M256.45,68.44c-1.16-1.17.93-2.83,2.58-3a17.29,17.29,0,0,1,13.66,5.13c1.18-3.62-1.59-7.35-4.64-9.64s-6.7-4.12-8.52-7.48a23.67,23.67,0,0,1,17,15.36L273,48.1c-.2-1.16.51-3,1.48-2.31.37,7.13,4,13.76,4.43,20.88a72,72,0,0,1-.62,10.26c-.42,5.2-.24,10.43-.23,15.65a232.58,232.58,0,0,1-13.6,78.59,6.61,6.61,0,0,1-1.75,3,5.1,5.1,0,0,1-4.81.5c-6.05-2-8.88-9-9.2-15.35-.48-9.58,2.91-18.89,6.34-27.85,4.14-10.79,8.42-21.54,11.93-32.55a6.28,6.28,0,0,0,.42-3.43c-.32-1.29-1.4-2.23-2.05-3.39-1.72-3.1-.14-7-.69-10.48a8.9,8.9,0,0,0-10-7.08c-.78-1.06.84-2.26,2.14-2.47A17.51,17.51,0,0,1,271,76.17a15.76,15.76,0,0,0-16.25-7"/><path class="cls-7" d="M257.79,67.84c-.86-1.06,1.22-1.46,1.87-1.48a15,15,0,0,1,4.21.51,16.37,16.37,0,0,1,7.48,4.34,1.89,1.89,0,0,0,2.8-.75c1.13-3.93-1.58-7.57-4.49-9.91-3.06-2.45-6.79-4.14-8.8-7.67l-2.19,1.49a23,23,0,0,1,16.44,14.86c.4,1.16,3.11.43,2.9-.78L275.54,54,275,50.6a14.38,14.38,0,0,1-.5-3.37c0-.29.3-.73.29-1l-1.67.38,0,.45a5,5,0,0,0,.09.88,33.13,33.13,0,0,0,.59,3.28c1,4.29,2.56,8.41,3.32,12.74.85,4.89-.06,9.69-.36,14.57s-.13,9.62-.13,14.42-.14,9.43-.43,14.14a232.95,232.95,0,0,1-10,54.83c-.7,2.25-1.44,4.49-2.2,6.72-.52,1.5-1.12,5-3,5.41-1.63.34-3.58-.72-4.84-1.65a12.41,12.41,0,0,1-3.19-3.62c-4.25-7-3-16.24-1.05-23.76,2.41-9.21,6.35-18,9.71-26.9,1.68-4.42,3.32-8.86,4.86-13.33.78-2.26,1.64-4.54,2.26-6.86a5.62,5.62,0,0,0-1.19-5.23,8,8,0,0,1-1.5-5.63,25.71,25.71,0,0,0,.07-6,9.63,9.63,0,0,0-6.22-7,9.9,9.9,0,0,0-5-.5l1.18.34c-.6-1.06,2.19-1.11,2.62-1.12a15.2,15.2,0,0,1,3.86.38,16.61,16.61,0,0,1,7.09,3.57c.77.66,3.46,0,2.67-1.21-3.77-5.93-11.06-8.56-17.83-7.21-.5.1-1.38.61-1.21,1.25s1.19.57,1.68.47c5.7-1.13,11.64,1.9,14.69,6.7l2.67-1.21A18.94,18.94,0,0,0,261.16,71a12.39,12.39,0,0,0-5.83.66c-1.38.64-2.84,1.94-2,3.51.19.34.86.38,1.18.34a7.91,7.91,0,0,1,8.39,5.38c1.3,4-1.08,8.37,1.27,12.15a19.42,19.42,0,0,1,1.58,2.36,5,5,0,0,1-.19,3.48c-.74,2.4-1.56,4.78-2.39,7.16-1.71,4.91-3.54,9.79-5.4,14.65-3.51,9.17-7.67,18.36-9.63,28-1.53,7.51-1.88,16.79,3.33,23.07,2.21,2.65,5.76,4.67,9.3,4.13,4.71-.72,5.55-6,6.82-9.78a230.69,230.69,0,0,0,7.52-28.47A231.35,231.35,0,0,0,279,108.46q.51-7.41.53-14.85c0-5.12-.18-10.24.14-15.36.3-5,1.21-9.86.38-14.83-.78-4.64-2.55-9-3.51-13.62-.21-1-.38-2-.49-3.07s0-1.87-1.34-2a3,3,0,0,0-3.15,2.65,9.21,9.21,0,0,0,.29,2.81l.71,4.1,1.27,7.47,1.28,7.48,2.9-.78A24.59,24.59,0,0,0,260.39,52.6c-.77-.18-2.85.33-2.2,1.49,1.81,3.18,5.06,5,7.95,7.07s6.25,5.59,5.09,9.59L274,70a18.64,18.64,0,0,0-11.49-5.44,9.75,9.75,0,0,0-5.91.83c-1.26.74-2.66,2.23-1.5,3.66.72.9,3.5-.18,2.67-1.21Z"/><path class="cls-6" d="M129.74,195.08c-2.39-2.24-6.2-.67-9.22.58a35.55,35.55,0,0,1-29-1.06c-4.41-2.21-8.34-5.34-12.93-7.14-4.18-1.64-8.75-2.12-12.86-3.93S57.77,178,58,173.47a7.86,7.86,0,0,0,0-3A5.26,5.26,0,0,0,55.64,168l-10.43-6.71a9.91,9.91,0,0,0-2.87-1.3c-5.83-1.49-8.42,4-10,8.59l-3.81,11.28a11.08,11.08,0,0,0-.85,4.93,9.1,9.1,0,0,0,2.71,4.77c5.52,5.82,13.35,8.72,20.89,11.44L75,209.55a40,40,0,0,0,10.57,2.75c3.11.22,6.26-.29,9.35.08,6.86.83,12.38,5.74,18.37,9.17a46,46,0,0,0,25.13,5.93.92.92,0,0,0,.22-1.8c-5-1.56-8.8-2.34-13.79-5.33-1.9-1.14-1.25-.73-1.9-1.14,7.29-.78,14.23,1.62,21.32,3.5a6.56,6.56,0,0,0,3.68.29c.87-.27-14.57-6-21.43-9.59-2.52-1.33,3-1.62,1.11-2.36l17.23,4.69a1.45,1.45,0,0,0,1.06-2.55,14.62,14.62,0,0,0-6-2.57A168.63,168.63,0,0,1,121,204.88a2.92,2.92,0,0,1-1.57-1.25c-1.25-2.22,2-4,4.38-4.54s5.5-2.45,4.23-4.54"/><path class="cls-7" d="M130.86,194.25c-3.74-3.22-8.94-.05-12.78,1.23a33.8,33.8,0,0,1-15.27,1.4,37.47,37.47,0,0,1-14.58-5.59c-2.19-1.33-4.36-2.71-6.67-3.84a40.24,40.24,0,0,0-7.77-2.65c-4.71-1.19-9.84-2.42-12.79-6.65a8.31,8.31,0,0,1-1.34-3,16.65,16.65,0,0,1,0-3.8c0-2-1.33-3.19-2.93-4.23-3.45-2.24-6.9-4.5-10.39-6.68s-8.09-2.5-11.3.61c-3,2.89-4,7.31-5.31,11.11-.95,2.79-1.94,5.58-2.83,8.39-.8,2.53-1,4.89.37,7.26,2.37,4.09,7.09,7.06,11.18,9.17a117.73,117.73,0,0,0,13.89,5.64l17.18,6.18c5.16,1.86,10.47,4.25,16,4.53,2.8.13,5.62-.26,8.41,0a20.21,20.21,0,0,1,7.23,2.26c4.49,2.29,8.43,5.49,12.91,7.78a47.58,47.58,0,0,0,14.69,4.68c1.83.27,13.53,2,11.86-2.36-.35-.91-1.38-1.11-2.21-1.36l-3.75-1.12a40.75,40.75,0,0,1-7-2.8c-1.21-.65-2.4-1.35-3.56-2.09l-1.25,1.89c6.13-.59,12.06,1.07,17.9,2.69,2.25.62,5.61,2.09,7.89.89,1.13-.59,1-1.5,0-2a75.76,75.76,0,0,0-8.07-3.48c-3.74-1.55-7.48-3.1-11.13-4.85-.38-.18-.76-.36-1.14-.56-.13-.06-.87-.59-1-.55.19-.05-.26,1.29-.26.71,0,0,0,0,.13-.07a3.58,3.58,0,0,0,.84-.33c1.34-.56,2.23-1.85.49-2.59L126.78,212l16.54,4.49a3.64,3.64,0,0,0,3.94-.82c2.06-2.38-1.22-4.23-3.12-5-3.29-1.36-7-1.91-10.39-2.89q-5.56-1.59-11-3.56c-1.26-.46-3-1.5-1.54-2.87,1.07-1,2.52-1.12,3.84-1.55,2.42-.79,5.85-2.95,4.33-5.9-.59-1.14-3.35-.08-2.66,1.27,1.18,2.27-3.91,3-5.11,3.52-1.81.74-4.44,2.44-3.84,4.76a3.56,3.56,0,0,0,2.09,2.25,51.84,51.84,0,0,0,5.33,1.89q4.92,1.63,9.94,3c2.88.77,6.24,1.16,8.8,2.79a3.08,3.08,0,0,1,.89.66c.11.19.07.4.15.56v.1c-.27.36,0,.39.75.07h-.06a2.9,2.9,0,0,0-.84-.23l-8.9-2.42-7.42-2a2,2,0,0,0-2.05.55.84.84,0,0,0,.37,1.4,9.41,9.41,0,0,1,.14-1.13c0-.16.29,0,0,0a2.86,2.86,0,0,0-.61.24,4.9,4.9,0,0,0-1.27.7c-1.19,1-.4,2,.71,2.58,3.12,1.65,6.4,3,9.65,4.39,3.07,1.29,6.17,2.53,9.22,3.85l1.4.62c.29.14.36.31.69.36,0,0,.07.07.1.07-.75-.11,1.07-1.31.27-1.6-.49-.18-1.22-.17-1.74-.31-1.43-.37-2.84-.77-4.26-1.16-5.87-1.62-11.84-3.08-18-2.48-.73.07-2.41,1.16-1.25,1.89a44.65,44.65,0,0,0,9.66,4.68c1.08.36,2.17.68,3.26,1l1.6.47a12,12,0,0,0,1.46.53v.1c.42-.32.45-.45.1-.38-.2-.1-.64,0-.88,0q-.88,0-1.77,0c-1.32,0-2.64-.13-4-.28A44.54,44.54,0,0,1,117,222.09c-4.29-2.05-8.06-5-12.19-7.34a25.31,25.31,0,0,0-13.52-3.55,37.08,37.08,0,0,1-8-.31,50.75,50.75,0,0,1-7.53-2.31L60,202.9c-4.81-1.74-9.68-3.38-14.42-5.31a43,43,0,0,1-12-6.88c-1.7-1.45-3.66-3.28-4.28-5.51-.73-2.62.76-5.52,1.58-8l2.7-8a27.87,27.87,0,0,1,2.08-5,6.92,6.92,0,0,1,3.19-3.22c1.77-.66,3.74.18,5.24,1.12,3.44,2.15,6.84,4.39,10.25,6.59,1.52,1,2.48,1.79,2.31,3.73a9.85,9.85,0,0,0,1,5.87c2.12,4,6.38,6.12,10.52,7.35,2.44.73,4.94,1.23,7.37,2a32.81,32.81,0,0,1,6.88,3.12c4.2,2.46,8.18,5.16,12.85,6.68a37.73,37.73,0,0,0,21.07.62c2.25-.58,4.35-1.51,6.52-2.3,1.91-.7,4-1.35,5.72.11,1,.83,3.5-.58,2.24-1.67Z"/><path class="cls-2" d="M75.36,119.14c-1.87,1.66-3.58,3.48-5.28,5.3L36.93,159.81c4.15,2.51,7.18,6.48,10.84,9.67s8.62,5.67,13.27,4.26c2.61-8.46,9.57-14.75,16.23-20.6l15-13.19c1.68-1.48,3.49-3.22,3.56-5.46s-1.77-4.22-3.56-5.71a63.26,63.26,0,0,0-16.47-9.88"/><path class="cls-2" d="M74.2,118.89c-3.34,3-6.32,6.41-9.39,9.68L55.07,139l-19.31,20.6c-.31.33-.42.68,0,.95C42,164.34,45.72,171.28,52.69,174a14,14,0,0,0,4.85,1c1.31,0,3.82,0,4.75-1.08a8.2,8.2,0,0,0,.86-2.21A28.05,28.05,0,0,1,64.4,169a34.29,34.29,0,0,1,2.82-4.34c4.55-6,10.64-10.8,16.28-15.75l9.75-8.57c2.3-2,5-4.76,3.7-8.1a11.16,11.16,0,0,0-3.5-4.19c-1.58-1.31-3.23-2.53-4.92-3.68A64.36,64.36,0,0,0,77,118.19a2.37,2.37,0,0,0-2,.27c-.36.23-.91.87-.25,1.14a63.51,63.51,0,0,1,13.87,7.85c1.86,1.4,4.08,2.92,5.23,5,1.34,2.42.15,4.62-1.66,6.36C84.29,146.3,75.36,152.65,68,160.56a35.55,35.55,0,0,0-8.37,13.36l1.25-.91c-4.6,1.28-9.27-1.83-12.5-4.8-3.39-3.1-6.32-6.67-10.26-9.11v1l19.31-20.6L67,129.25c3.12-3.34,6.15-6.81,9.56-9.87.46-.42.28-.88-.28-1a2.5,2.5,0,0,0-2,.55Z"/><path class="cls-2" d="M220.6,131.12l5.9,9.91c7.57,12.72,15.43,26.92,12.76,41.48l7.62-27.62a14.67,14.67,0,0,0,21.93,13.71L254.1,208.29c-.39,1.06-.9,2.24-2,2.63s-2.24-.18-3.23-.74c-7.13-4.05-14.29-8.29-19.94-14.22-4-4.21-7.14-9.15-10.24-14.06L199,150.64c-1-1.57-2-3.31-1.76-5.15a7.79,7.79,0,0,1,2.12-3.74c2.73-3.2,5.66-6.35,9.33-8.42s8.24-2.9,12.13-1.28"/><path class="cls-2" d="M219.15,131.51c4.84,8.13,10,16.17,14,24.78,3.78,8.26,6.31,17.35,4.71,26.46-.14.78,2.66.25,2.86-.48l7.63-27.62-2.88.63a15.16,15.16,0,0,0,7.62,13.94,17.55,17.55,0,0,0,16.59-.38h-2.28L256,199.66l-2.86,7.7c-.28.76-.61,2.41-1.31,2.92-.39.28.13.08-.32,0a4.44,4.44,0,0,1-1-.48c-.58-.31-1.15-.65-1.72-1a111.45,111.45,0,0,1-12.2-7.84,52.71,52.71,0,0,1-10.22-10.29c-3.11-4.13-5.78-8.59-8.54-13-5.86-9.27-11.84-18.48-17.59-27.82a9.47,9.47,0,0,1-1.52-3.53,5,5,0,0,1,1.21-3.76,46.43,46.43,0,0,1,5.23-5.71c4-3.69,9.09-6.39,14.5-4.26.68.27,3.29-.81,2.37-1.17-9.68-3.81-19.85,4.31-25.09,11.78-1.55,2.21-1.34,4.38,0,6.68,1.51,2.69,3.29,5.26,4.94,7.87l9.75,15.42c5.91,9.35,11.34,19.6,19.89,26.85a90.67,90.67,0,0,0,13.45,9.09c2.08,1.21,4.26,2.92,6.79,2.42s3.38-2.22,4.21-4.46l14.36-38.75c.29-.77-2.06-.12-2.28,0a12.92,12.92,0,0,1-14.09-1.42,14.94,14.94,0,0,1-5.54-12.44c0-.59-2.7,0-2.88.63l-7.62,27.62,2.86-.48c1.6-9.09-.75-18.07-4.49-26.34-4-8.78-9.23-16.94-14.15-25.2-.45-.76-3.18.3-2.9.78Z"/><path class="cls-8" d="M121.57,76.76c7,8.46,20.35,15.86,31.13,18.13s22.9-3.27,30.4-11.33c-3,5.15-5.64,16.91-6.66,22.78-.82,4.77-.56,9.65-.87,14.48-1.17,18.13-10.38,34.75-20.73,49.68-4,5.75-8.37,11.95-8.11,18.94q-8-8.13-15.39-16.89c-8.08-9.61-15.76-20.22-18-32.57-1-5.63-.87-11.4-1.16-17.12-.36-7.18-1.44-14.35-1.07-21.52S116.66,82,121.57,76.76"/><path class="cls-9" d="M159.87,118.42a43.23,43.23,0,0,0,2.15,7.67c1.41,3.56,1.28,4.56-.51,7.95-2.8,5.3-4.81,11-7,16.58l-14.67,37.14,14.43-3.08a197.11,197.11,0,0,1-15.14-44.17c-3.33-15.27-9-28.46-16.43-42.17-2.2-4.06-16.06,1-14.49,3.89a222.05,222.05,0,0,1,10,19.94c3,7.2,4.79,14.62,6.45,22.22a197.44,197.44,0,0,0,15.14,44.17c1.92,4,13.15.18,14.43-3.07l12.1-30.65c3.65-9.26,6.76-19.07,12.17-27.49l.07-.81a43.23,43.23,0,0,1-4.19-12c-.72-3.76-15.3-.34-14.49,3.88Z"/><path class="cls-10" d="M81,109.17C80.48,100.62,87.85,94,94,88a113.81,113.81,0,0,0,28.43-46.06c3.31-10.29,5.49-21.67,13.28-29.16,7.44-7.16,18.42-9.13,28.73-9.6,2.53-.12,5.17-.15,7.47.91a14.54,14.54,0,0,1,5.54,5.28C192,30.46,188,59.21,197.41,83.08c5.65,14.4,16,26.56,21.8,40.9a3.29,3.29,0,0,1,.3,2.44c-.46,1.12-1.88,1.4-3.08,1.51-32.11,3-64.3-3.07-96-9.09l-40.87-7.77"/><path class="cls-11" d="M82.45,109.06c-.29-6.31,3.64-11.38,7.78-15.72,4.5-4.71,9.24-9.1,13.36-14.17a114.44,114.44,0,0,0,19.25-34.3c4-11.48,5.8-25.61,16.16-33.45,4.9-3.71,11-5.53,17-6.42a76.57,76.57,0,0,1,9.56-.81,12.66,12.66,0,0,1,5.11.71A10.5,10.5,0,0,1,174.6,8c4,4.8,6.71,10.83,8.67,16.73a121.32,121.32,0,0,1,4.27,18.43c2.05,12.49,3.2,25.26,7.33,37.29,4.44,13,12.79,23.91,19.14,35.9.84,1.58,1.63,3.17,2.38,4.8.36.78.71,1.58,1,2.38s.95,1.79.72,2.57-1,.67-1.59.73c-1,.11-2,.18-2.93.25-2,.15-3.91.27-5.87.35a215.85,215.85,0,0,1-23.59-.33A414.56,414.56,0,0,1,137.88,121c-15.56-2.81-31.08-5.85-46.61-8.8L80.08,110c-1.43-.27-2.93,1.74-1,2.1,16.19,3.08,32.39,6.19,48.59,9.23,16,3,32,5.82,48.16,7.31,7.93.74,15.88,1.14,23.84,1.11,4.08,0,8.16-.15,12.23-.43a47.71,47.71,0,0,0,5.47-.5,4.53,4.53,0,0,0,3.53-2.25c.66-1.52-.32-3.22-.91-4.6-.72-1.67-1.51-3.32-2.33-4.95-1.56-3.1-3.28-6.11-5-9.1-3.69-6.22-7.62-12.31-10.86-18.78-6.08-12.17-8.13-25.49-10.1-38.8-1.88-12.76-3.88-25.86-10.22-37.29a31.13,31.13,0,0,0-5.78-8c-2.65-2.41-5.93-3-9.42-3A62.3,62.3,0,0,0,147,5a31.55,31.55,0,0,0-15.6,10.82c-3.8,5.13-5.93,11.2-7.77,17.24A178.07,178.07,0,0,1,117,52.3,112.44,112.44,0,0,1,106.9,70.63a113.29,113.29,0,0,1-13,15.77c-4.47,4.52-9.55,8.78-12.49,14.54a16.62,16.62,0,0,0-1.92,8.34c.06,1.51,3,1.06,2.93-.22Z"/><path class="cls-11" d="M119.7,80c-.81,5.59-1.49,11.82,1.77,16.44,1.77,2.5,4.47,4.16,7.11,5.71,5.79,3.42,11.81,6.76,16.27,11.8-.71-4.36-1.41-8.87-.27-13.14a16.54,16.54,0,0,1,4-7.12c-4.15-.12-8-2.37-11.13-5.06s-5.9-5.88-9.17-8.45a8.06,8.06,0,0,0-3.59-1.84,3.31,3.31,0,0,0-3.49,1.53"/><path class="cls-11" d="M154.09,97.14a3.24,3.24,0,0,0-3.18-2.36c3.6,2.15,4.08,7.09,4.12,11.28,0,4,.05,8-1.44,11.66,5.92-1.94,12.08-4,16.44-8.48a38.8,38.8,0,0,0,5.12-7.11l2.95-4.81c1.19-2,2.44-4.24,1.74-6.43a56,56,0,0,1-27.36,4.23"/><path class="cls-11" d="M151.79,106a2.35,2.35,0,0,0-2-.65,4.27,4.27,0,0,0-1.26.33,3.46,3.46,0,0,0-.7.39,4.15,4.15,0,0,0-.6.51,5.2,5.2,0,0,0-.46.57,3.85,3.85,0,0,0-.47,1,.54.54,0,0,0,.09.46.66.66,0,0,0,.34.36,1.27,1.27,0,0,0,.59.18,1.7,1.7,0,0,0,.71,0,3.2,3.2,0,0,0,1.46-.51l.34-.28a1.32,1.32,0,0,0,.36-.64l0-.06-.12.32a3,3,0,0,1,.38-.67l-.24.31a3,3,0,0,1,.35-.36l-.34.29a.8.8,0,0,1,.21-.15l-.43.24.14-.07-.5.18a.5.5,0,0,1,.13,0l-.53.09H149l-.44-.07a.17.17,0,0,1,.1,0l-.36-.15.14.08-.26-.22.1.11a.9.9,0,0,0,.45.29,1.61,1.61,0,0,0,.62.15,2.33,2.33,0,0,0,.75-.06,2.63,2.63,0,0,0,.77-.23l.43-.24a1.82,1.82,0,0,0,.58-.59l.13-.32a.75.75,0,0,0-.17-.61Z"/><path class="cls-11" d="M148,116.17l-1,.55a2,2,0,0,0-.49.34.88.88,0,0,0-.27.36.25.25,0,0,0,0,.31.4.4,0,0,0,.31.22l.34.08a3.46,3.46,0,0,0,.91,0l.52-.11a4.22,4.22,0,0,0,.95-.36l1-.56a2,2,0,0,0,.49-.34.85.85,0,0,0,.27-.35.26.26,0,0,0,0-.32.39.39,0,0,0-.3-.22l-.34-.07a3.46,3.46,0,0,0-.91,0l-.52.11a4.57,4.57,0,0,0-.95.37Z"/><path class="cls-11" d="M146.66,130.79h0l-.45-.1h.05l-.38-.17.06,0-.28-.25.06.08-.16-.32a.27.27,0,0,1,0,.12l0-.36a.57.57,0,0,1,0,.13l.11-.36a.25.25,0,0,1,0,.07l.24-.34,0,0,.34-.3,0,0,.42-.26,0,0,.5-.18h0l.53-.1H148l.45.09-.06,0,.37.18-.07,0,.28.26a.44.44,0,0,1-.08-.11l.16.32a.2.2,0,0,1,0-.11l0,.36a.28.28,0,0,1,0-.09l-.11.36s0,0,0,0l-.23.34,0,0-3.38.3a1.25,1.25,0,0,0,.17.16.93.93,0,0,0,.18.16l0,0a3.07,3.07,0,0,0,.41.2l.1,0,.46.1h.68l.53-.09H148c.13-.05.38-.13.51-.19l0,0,.43-.25h0a2.82,2.82,0,0,0,.36-.33l0,0h0c.06-.09.18-.25.24-.35l0,0h0s.1-.31.12-.36v-.05s0-.35,0-.37h0v0h0l-.16-.32,0,0h0l-.27-.25h0l0,0h0l-.19-.1-.19-.09h-.05l-.45-.09h-.63l-.52.09h0c-.05,0-.46.16-.51.19h0s-.42.24-.43.25h0l-.34.31a1.45,1.45,0,0,0-.25.36h0l-.12.37h0s0,.35,0,.36a0,0,0,0,1,0,0h0s.14.3.16.33v0a1,1,0,0,0,.46.34,1.43,1.43,0,0,0,.63.18,1.94,1.94,0,0,0,.76,0,2.34,2.34,0,0,0,.77-.22l.42-.26a1.85,1.85,0,0,0,.57-.64l.12-.36a.88.88,0,0,0-.19-.68v0l.16.33a.09.09,0,0,1,0-.05l0,.36v0l-.11.36a0,0,0,0,1,0,0l-.23.34v0l-.34.31,0,0-.43.26,0,0-.5.19h0l-.52.09h-.37l-.44-.1.06,0-.37-.18.05,0-.28-.25,0,0-.16-.33s0,0,0,.05l0-.36a.43.43,0,0,1,0,.05l.11-.35,0,.06.23-.34,0,0,.34-.3,0,0,.43-.26-.05,0,.5-.19-.06,0,.53-.09H148l.44.09a.21.21,0,0,1-.11,0l.37.18a.36.36,0,0,1-.12-.08l.27.26,0,0a1.38,1.38,0,0,0-.65-.43,2.29,2.29,0,0,0-.94-.1,3,3,0,0,0-1,.27,2.54,2.54,0,0,0-.77.56,3,3,0,0,0-.25.37s0,0,0,0a2.4,2.4,0,0,0-.12.38s0,0,0,.05a2,2,0,0,0,0,.42l0,.08a2.66,2.66,0,0,0,.19.38,1.93,1.93,0,0,0,.33.31,1,1,0,0,0,.25.13,1.7,1.7,0,0,0,.7.21,2.1,2.1,0,0,0,.56,0,3.21,3.21,0,0,0,1.09-.29l.23-.14.22-.13,0,0s.25-.21.35-.32v0l.12-.17.12-.18,0,0a2.19,2.19,0,0,0,.13-.43,4.19,4.19,0,0,0,0-.42.64.64,0,0,0,0-.07,1.55,1.55,0,0,0-.18-.39l-.05-.07a1.32,1.32,0,0,0-.33-.29,2.19,2.19,0,0,0-.88-.3,2.15,2.15,0,0,0-.76,0,2.48,2.48,0,0,0-.76.23,1.94,1.94,0,0,0-.6.41,1.46,1.46,0,0,0-.4.49l-.11.36a.92.92,0,0,0,.18.68l.28.26a1.81,1.81,0,0,0,.81.27Z"/><path class="cls-11" d="M146.44,140.35l-.83.84a.34.34,0,0,0-.18.27.17.17,0,0,0,.1.22.83.83,0,0,0,.4.11,1.88,1.88,0,0,0,.58,0l.48-.06a7.47,7.47,0,0,0,1-.28l.44-.18a2.81,2.81,0,0,0,.64-.39l.83-.84a.32.32,0,0,0,.17-.27.15.15,0,0,0-.09-.22.83.83,0,0,0-.4-.11,1.88,1.88,0,0,0-.58,0l-.48.06a7.47,7.47,0,0,0-1,.28l-.44.18a2.61,2.61,0,0,0-.64.39Z"/><path class="cls-11" d="M148.06,151.15l-.41,0a2.61,2.61,0,0,0-.78.18,2.25,2.25,0,0,0-.68.33,1.38,1.38,0,0,0-.46.44.93.93,0,0,0-.25.48l0,.32a.82.82,0,0,0,.42.51l.36.15a2.66,2.66,0,0,0,.93.07l.41-.05a2.61,2.61,0,0,0,.78-.18,2.25,2.25,0,0,0,.68-.33,1.38,1.38,0,0,0,.46-.44,1,1,0,0,0,.25-.48l0-.33a.83.83,0,0,0-.42-.5l-.36-.15a2.45,2.45,0,0,0-.93-.07Z"/><path class="cls-11" d="M148.45,162.26a1.88,1.88,0,0,0-.12-.18h0a1.2,1.2,0,0,0-.25-.13h0l-.34-.07h-.45l-.5,0h0l-.52.11h0a5.05,5.05,0,0,0-1,.37h0l-.18.11-.18.11h0l-.27.23h0l0,0h0a1.82,1.82,0,0,0-.15.23h0v0a1.64,1.64,0,0,0,0,.23.08.08,0,0,0,0,0h0l.12.19h0l.24.12h0l.35.06a1.7,1.7,0,0,0,.45,0,4.51,4.51,0,0,0,1-.16h0l.51-.16.24-.11a2.06,2.06,0,0,0,.42-.21l.2-.12h0l.14-.11.13-.12h0a2,2,0,0,0,.16-.24v0a.93.93,0,0,0,0-.23v0a.33.33,0,0,0-.24-.23.82.82,0,0,0-.46-.13,2.43,2.43,0,0,0-.66,0,3.27,3.27,0,0,0-.76.13l-.51.17a3.36,3.36,0,0,0-.8.41l-.27.23a.49.49,0,0,0-.16.44v0l0-.21a.08.08,0,0,1,0,.05l.15-.22,0,0,.27-.23,0,0,.37-.22h0l.44-.2h0l.51-.16h0l.52-.11h0l.48,0h.37l.34.07h0l.24.12a.08.08,0,0,1,0,0l.12.18a.14.14,0,0,1,0-.07v.21s0,0,0-.05l-.15.23s0,0,0,0l-.27.22,0,0-.36.22h0l-.44.2h0l-.51.16h0l-.52.11h0l-.49.05h-.38l-.34-.06h0l-.24-.12,0,0-.12-.18h0a.33.33,0,0,0,.24.23.82.82,0,0,0,.46.13,2.92,2.92,0,0,0,.66,0,3.37,3.37,0,0,0,.77-.14l.5-.16a3.36,3.36,0,0,0,.8-.41l.27-.23a.49.49,0,0,0,.16-.44Z"/><path class="cls-12" d="M116.77,83.94c-2,7.77-.18,15.93,1.6,23.74,2.15,9.46,4.35,19,8.85,27.63a79.91,79.91,0,0,1,4.43,8.7c1.51,4.06,1.86,8.45,2.95,12.64,3,11.43,11.43,21.79,10.21,33.53-2-6.65-7.81-11.4-13.67-15.15s-12.22-7-16.63-12.4c-4.07-5-6.09-11.24-8.69-17.12a88.5,88.5,0,0,0-13.38-21.4c-4.12-4.87-9-9.41-14.93-11.64a176.35,176.35,0,0,1,38.83-28.08"/><path class="cls-12" d="M181.92,94.65a182.12,182.12,0,0,1-22.3,60.4c-6.54,11.11-14.58,22.75-13.23,35.57-.9-3.13,1-6.33,3.1-8.82,11.22-13.38,29.36-19.27,41-32.3,6.8-7.63,11.07-17.4,18.66-24.24,1.23-1.11,2.59-2.2,3.17-3.75,1.5-4-2.84-7.59-6.46-9.87a113.72,113.72,0,0,1-22.4-18.58"/><path class="cls-13" d="M199.46,110.43a24.88,24.88,0,0,0-16.46,4.8c-5.17,3.9-7.45,9.69-9.41,15.66-4.51,13.76-10.94,26.33-20.28,37.47-1.51,1.81,1.35,2,2.58,2,2.1-.08,5.63-.86,7.09-2.6a111.17,111.17,0,0,0,16.1-25.31,138.4,138.4,0,0,0,5.28-14.12c.95-2.89,4.13-13.57,8.28-13.3,2.31.15,5.71-.45,7.51-2,1.41-1.22,1.63-2.41-.69-2.56Z"/><path class="cls-13" d="M107.19,115.1l-1.07.43-5.28,1c4.18.06,8,11.32,9.43,14.57,2.15,5,4,10.18,6.07,15.23a108.76,108.76,0,0,0,16.81,28c2,2.43,11.25-2.09,10.62-2.85-10-12.11-15.74-25.62-21.55-40-2.2-5.46-4.91-14.43-10-17.94-4-2.8-11.32-.52-14.64,2.53-1.75,1.61,1.57,1.63,2.46,1.57,2.24-.16,5.4-.91,7.12-2.49Z"/><path class="cls-11" d="M71.6,117a82,82,0,0,1,18.73,17.17c6,7.66,9.77,16.33,13.87,25.09,3.43,7.34,7.57,14.86,14.15,19.85,5.42,4.11,15.23,4.68,18.48,11,1.54,3,11.77-.62,10.62-2.85-3.47-6.76-11.44-7-17.31-10.72-7.91-5-12.33-13.6-16.1-21.84-7.68-16.8-16.86-31.06-32.48-41.54-2.71-1.81-12,2.44-10,3.83Z"/><path class="cls-11" d="M154.13,187.55c9.47-12.05,23.45-18.87,34.48-29.26,10.6-10,19.47-21.63,28.24-33.2l-9.88,2,4.29,6.14,1.62-3.7c-6.51,3.58-11.54,8.91-16.8,14.06q-8.66,8.47-17.67,16.55-18,16.17-37.43,30.71c-1.95,1.47-.84,3.22,1,3.83,2.46.79,5.59-.57,7.51-2q18.61-14,36-29.46,8.34-7.44,16.38-15.2c5.56-5.36,10.73-11.48,17.56-15.24,1.33-.73,2.64-2.25,1.62-3.71l-4.29-6.15c-2-2.82-8.33-.09-9.88,2-9.07,11.94-18.19,24-29.43,34-11.07,9.85-24,16.64-33.3,28.47-1.59,2,1.37,3.1,2.9,3.19a8.68,8.68,0,0,0,7-2.92Z"/><path class="cls-11" d="M115.52,174.7c4.53,3.36,10.36,4.64,14.38,8.61a35.07,35.07,0,0,1,4.73,6.05c1.3,2,2.07,4,4.4,5a8.49,8.49,0,0,0,7.54-.94c1.31-.86,3.32-3.37.87-4.37-1.79-.73-2.69-3.55-3.74-5.08a29.67,29.67,0,0,0-5-5.81c-4-3.51-9.16-4.55-13.36-7.67-2-1.51-4.84-1.2-7.07-.22-1,.45-4.8,3-2.78,4.46Z"/><g id="face"><path class="cls-7" d="M142.88,62.19c-.2,5.12-.65,10.24-1.34,15.32-.55,4.11-1.16,5.35-4.48,7.84,5.24,8.84,16.09,11.18,26.33,10.28-1.84-11.41-4-20.58,2.61-30.08-7.86-1.62-11.49.08-19.31-1.72-1.54-.35-3.35-1-3.66-2.53"/><path class="cls-7" d="M141.43,62.57c-.21,5-.62,10-1.29,14.95A14.34,14.34,0,0,1,139.08,82a10,10,0,0,1-3.14,3.33c-.06,0-.43.3-.33.45,5.63,9.29,17.1,11.34,27.16,10.5.39,0,2.18-.32,2.07-1C164,90.09,163,84.91,163,79.67a25.4,25.4,0,0,1,4.44-14.37c.12-.17-.12-.31-.24-.33a66.45,66.45,0,0,0-11.87-.84,36.26,36.26,0,0,1-6.06-.58c-1.71-.33-4.24-.66-4.78-2.64-.19-.68-3.09.09-2.9.78.46,1.68,2.23,2.3,3.76,2.68a34.93,34.93,0,0,0,6.66.94c4.31.21,8.55,0,12.82.81l-.25-.32a25.88,25.88,0,0,0-4.48,14.28c-.09,5.36,1,10.67,1.85,15.94L164,95c-9.49.8-20.21-1.32-25.5-10l-.34.45a13.58,13.58,0,0,0,3.41-3.31A11.64,11.64,0,0,0,143,77.45c.72-5.19,1.16-10.42,1.38-15.65,0-.48-2.86-.11-2.9.77Z"/><path class="cls-7" d="M156.67,10.72c-4.35,1.63-8.64,3.67-12,6.88S139,25.34,139.31,30a15.69,15.69,0,0,1,.14,3.06,8.32,8.32,0,0,1-.75,2.36c-1.43,3.22-3.41,6.42-3.25,10,.12,2.74-.27,6.88,1,9.34,3.22,6.49,12.89,15.14,19.19,15.12a10.19,10.19,0,0,0,5.83-1.6c3.59-2.44,6.4-4.62,10.3-7.74,1.49-1.19,4.22-2.67,5.13-4.35.77-1.44-.17-2.88.1-4.49,1.52-9.21,3-19.15-1.24-27.5-3.47-6.92-10.36-11.6-17.63-14.28"/><path class="cls-14" d="M156.1,10.13c-5.41,2-10.85,4.75-14.53,9.36a17.08,17.08,0,0,0-3.5,7.33,14.36,14.36,0,0,0-.17,4,8.66,8.66,0,0,1-.57,4.59c-1.19,2.77-2.85,5.43-3.25,8.47a25.31,25.31,0,0,0-.05,3.59c0,1.41,0,2.82.11,4.22.43,4.65,4,8.57,7.19,11.67s7.18,6.13,11.6,7.06a13.19,13.19,0,0,0,7.25-.66c2.6-1,4.9-3,7.11-4.66s4.53-3.67,6.92-5.33c1.8-1.25,4.38-2.79,4.4-5.26a24.15,24.15,0,0,1-.07-3.9q.39-2.36.72-4.74a66.26,66.26,0,0,0,.66-8.9c0-6.45-1.59-12.75-5.76-17.8-3.86-4.68-9.29-7.9-14.92-10a2.46,2.46,0,0,0-2.06.28c-.33.21-.92.87-.25,1.12a35.63,35.63,0,0,1,12.76,7.79,24.27,24.27,0,0,1,6.88,13.43c.92,5.58.29,11.28-.55,16.83a25.84,25.84,0,0,0-.56,4c0,1.26.58,2.57-.11,3.74-1.08,1.83-3.56,2.91-5.18,4.21-2.15,1.71-4.3,3.41-6.51,5s-4.25,3.29-7.09,3.41c-4,.16-8-2.84-10.94-5.33a38.72,38.72,0,0,1-4.75-4.83,18.7,18.7,0,0,1-3.28-5.12c-.81-2.21-.67-4.72-.68-7a20,20,0,0,1,.15-3.79,18.17,18.17,0,0,1,1.36-4c.61-1.36,1.31-2.69,1.88-4.07a8.56,8.56,0,0,0,.53-4.37,14.24,14.24,0,0,1,1.85-8.6c3.14-5.47,8.86-8.4,14.56-10.54.41-.16,1.16-.66.77-1.16s-1.47-.2-1.92,0Z"/><path class="cls-15" d="M162.5,31.28c2.93-.9,6-.3,8.9.38a8.17,8.17,0,0,1,3.68,1.5,12.46,12.46,0,0,1,2.33,3.06c.21.35,1.11,0,.88-.41l-.18-.36c-.19-.35-1.11,0-.89.41l.19.36.88-.41a12.11,12.11,0,0,0-2.46-3.18,9,9,0,0,0-4.1-1.64c-3.08-.71-6.3-1.28-9.39-.33-.59.18-.43.8.16.62Z"/><path class="cls-15" d="M155.51,30.08a13.61,13.61,0,0,0-17.41-.78c-.41.3.55.24.75.08a12.26,12.26,0,0,1,15.76,1.05c.21.2,1.1-.16.9-.35Z"/><path d="M155.28,48a.63.63,0,0,1,.88-.35c.21.11.38.28.58.4a.89.89,0,0,0,.74.12c.08,0,.23-.09.21-.19s-.21-.08-.28-.06-.42-.2-.55-.29a1.37,1.37,0,0,0-.71-.33,1.31,1.31,0,0,0-1.32.68c-.1.22.38.17.45,0Z"/><path d="M160,48.6c.19-.53,1.27.12,1.67.11a1.48,1.48,0,0,0,1-.47,2.8,2.8,0,0,0,.28-2.92c-.86-2.14-3.7-4-2.88-6.63.06-.19-.43-.13-.49.05-.79,2.49,1.74,4.35,2.72,6.34a3.81,3.81,0,0,1,.44,1.81c0,.66-.39,1.65-1.23,1.48-.44-.09-.79-.35-1.26-.28a.89.89,0,0,0-.77.56c-.07.18.42.13.49,0Z"/><path d="M145.27,52.69a3.79,3.79,0,0,0-1.43.82c-.12.11.33.07.4,0,.25-.21,1,.8,1.15.93a15.21,15.21,0,0,0,1.17,1.1,16.75,16.75,0,0,0,8.07,3.8A17,17,0,0,0,166.56,57a4.94,4.94,0,0,0,2-2.23c.26-.72-.31-1.15-.95-.82,0,0-.14.08-.09.13l.46.37c.11.09.54-.09.46-.17l-.46-.37-.09.13c.18-.1.26.57.25.62a1.79,1.79,0,0,1-.28.63,4.81,4.81,0,0,1-1.08,1.21A11.35,11.35,0,0,1,164.21,58,16.09,16.09,0,0,1,158,59.37a16.45,16.45,0,0,1-10.54-3.6,26.53,26.53,0,0,1-2.17-2.07,1,1,0,0,0-1.44-.21h.41a3.07,3.07,0,0,1,1.16-.67c.33-.11,0-.2-.17-.13Z"/><path d="M162.75,36.56c2.67-.72,5.71-1.5,8.36-.26,2.28,1.08,3.91,3.53,6.69,3.27.22,0,.41-.26.08-.23-1.66.16-3-.92-4.28-1.87a9.14,9.14,0,0,0-3.4-1.83c-2.49-.61-5.1.06-7.51.71-.28.08-.23.28.06.21Z"/><path d="M154.69,36.28a8.21,8.21,0,0,0-6.46-3.54c-3.22-.18-6.32,1.58-9.53.87-.17,0-.57.22-.29.28,3,.67,5.8-.72,8.75-.85a8,8,0,0,1,7.08,3.44c.1.15.57,0,.45-.2Z"/><path d="M170,36a2,2,0,0,0-2.76.81,2,2,0,0,0,1.09,2.56,4,4,0,0,0,1.74.38,4.8,4.8,0,0,0,1.89-.23,1.84,1.84,0,0,0,.92-2.19,2.83,2.83,0,0,0-2.73-1.71c-.11,0-.27,0-.32.15A.14.14,0,0,0,170,36a2.75,2.75,0,0,1,2.2,1,1.68,1.68,0,0,1-.07,2,1.65,1.65,0,0,1-1.18.4,5.54,5.54,0,0,1-1.52,0,2.19,2.19,0,0,1-1.83-1.67,1.46,1.46,0,0,1,.52-1.32,1.32,1.32,0,0,1,1.53-.07c.17.11.6-.13.37-.27Z"/><path d="M151.41,33.47a5.08,5.08,0,0,0-3.28.47,1.39,1.39,0,0,0-.77,1.24,2.3,2.3,0,0,0,1,1.38,3.73,3.73,0,0,0,3.13,1,2,2,0,0,0,1.72-2.08c-.23-1.47-1.89-1.92-3.11-2.18a.44.44,0,0,0-.35.09c-.06.07-.06.15.05.18a3.83,3.83,0,0,1,2.66,1.35,1.51,1.51,0,0,1-.61,2.24,2.71,2.71,0,0,1-2.7-.53c-.71-.5-1.93-1.49-1-2.36s2-.61,3-.52c.19,0,.52-.25.19-.28Z"/><path d="M152.52,36.76a3,3,0,0,0,0-1.45,2.79,2.79,0,0,0-.69-1.22,2.75,2.75,0,0,0-2-.88,2.83,2.83,0,0,0-2.67,3.58,2.59,2.59,0,0,0,.9,1.3,1.1,1.1,0,0,0,.55.32,1.88,1.88,0,0,0,1,.22c.3,0,.6.09.9.11a2.86,2.86,0,0,0,2.34-1.1,2.78,2.78,0,0,0,.21-3,2.64,2.64,0,0,0-1-1,2.76,2.76,0,0,0-1.26-.34,2.44,2.44,0,0,0-.76.1,2.63,2.63,0,0,0-1.49,1.15,2.5,2.5,0,0,0,2.82,3.67l.05,0-.66.09h0l-1.26-.34,0,0-.51-.39,0,0-.39-.51,0,.05-.25-.6a.36.36,0,0,1,0,.11l-.08-.67V36l.09-.67v0l.25-.59,0,0,.39-.51-.05,0,.5-.39,0,0,.59-.25a.5.5,0,0,1-.13,0l.67-.09a6.1,6.1,0,0,1-1-.1L152,35.47v-.06l.08.66V36l-.09.66a.27.27,0,0,1,0-.12l-.25.6,0-.06-.39.51,0-.05-.5.39a.24.24,0,0,1,.11-.06l-.6.25h.06l-.66.09h.06l-.67-.09.06,0-.59-.25.05,0-.51-.39.09.09-.39-.5,0,.05-.25-.59v.06l-.08-.67V36l.09-.66v.06a2.65,2.65,0,0,0,.25,1.93,2.48,2.48,0,0,0,3.42.89,2.46,2.46,0,0,0,1.15-1.49Z"/><path d="M171.9,36.48l-.15-.16c-.16-.13-.36-.29-.53-.41l-.05,0,0,0-.6-.26h0l0,0-.67-.09h-.07l-.67.09h0c-.09,0-.54.21-.62.25l0,0c-.08,0-.46.34-.52.4a2.69,2.69,0,0,0-.22.28,1.39,1.39,0,0,0-.34.59,1.6,1.6,0,0,0-.15.35c0,.1-.06.47,0,.36a3.48,3.48,0,0,0,0,.35c0,.12,0,.33,0,.36a2.44,2.44,0,0,0,0,.35,2.69,2.69,0,0,0,.13.32c-.05-.12.09.23.14.32a2,2,0,0,0,.2.26,2.09,2.09,0,0,0,.21.27l.52.4.61.26a2.66,2.66,0,0,0,.35.05,2.13,2.13,0,0,0,.36,0,2.69,2.69,0,0,0,1.77-.73,2,2,0,0,0,.52-.81,1.85,1.85,0,0,0,.21-1l-.09-.66a2.39,2.39,0,0,0-.64-1.11l-.5-.39a2.57,2.57,0,0,0-1.27-.34h0l.67.09h0l.6.25h0l.5.39v0l.39.51a.05.05,0,0,1,0,0l.25.6a.06.06,0,0,1,0,0l.09.66v0l-.09.66a.14.14,0,0,1,0-.07l-.25.59s0,0,0,0l-.39.51,0,0-.51.39,0,0-.6.25h0l-.66.08h.07l-.66-.08.07,0-.6-.26.1.06-.51-.39a.91.91,0,0,1,.17.17,1.85,1.85,0,0,0,.81.52,1.78,1.78,0,0,0,1,.21,1.74,1.74,0,0,0,1-.21,1.85,1.85,0,0,0,.81-.52l.39-.5a2.44,2.44,0,0,0,.34-1.27l-.09-.66a2.5,2.5,0,0,0-.64-1.1Z"/><path class="cls-16" d="M173.24,37.4l-.06-.1,0,0,0,0a.5.5,0,0,0-.14-.08l-.16,0h0l-.18,0h0l-.21,0h0l-.21,0h0l-.2.07h0l-.18.09h0l-.15.1,0,0a.94.94,0,0,0-.1.1h0s0,0,0,0l-.07.12a.12.12,0,0,0,0,.13.16.16,0,0,0,.11.1.52.52,0,0,0,.21,0,.82.82,0,0,0,.27,0l.19,0a1.58,1.58,0,0,0,.36-.14l.13-.09a.4.4,0,0,0,.15-.19v0l-.05.1,0,0-.1.09,0,0-.13.09,0,0-.16.08h0l-.19.06h0l-.2,0h-.21l-.13,0,.07,0-.1-.06.07.06-.05-.08v0a.15.15,0,0,0,.09.11.45.45,0,0,0,.18.07h.25a.93.93,0,0,0,.29-.05l.19-.06a1.11,1.11,0,0,0,.3-.17l.09-.09a.23.23,0,0,0,.06-.19Z"/><path class="cls-16" d="M153,35.53a2.38,2.38,0,0,0-.78.21l-.09,0-.24.15a3.22,3.22,0,0,0-.28.24l-.09.13,0,.14v.13a.28.28,0,0,0,.11.17.27.27,0,0,0,.12.09l.16.05a.47.47,0,0,0,.17,0,.92.92,0,0,0,.29,0,1.88,1.88,0,0,0,.59-.28l.16-.15.06-.06a1,1,0,0,0,.16-.24.28.28,0,0,0,0-.2.27.27,0,0,0-.06-.19.38.38,0,0,0-.18-.13.48.48,0,0,0-.23-.07,1,1,0,0,0-.57.1l-.16.09a.65.65,0,0,0-.22.25l0,0,.08-.13-.1.12.12-.11-.12.09.16-.1a.34.34,0,0,1-.12.06l.18-.07h0l.74.69,0,0-.12.12a.9.9,0,0,1,.19-.15l-.16.1.2-.1-.19.07.21-.05-.2,0h.09a1,1,0,0,0,.29-.07.91.91,0,0,0,.26-.13.73.73,0,0,0,.17-.18.44.44,0,0,0,.08-.2v-.14a.37.37,0,0,0-.16-.21l-.14-.07a.84.84,0,0,0-.35,0Z"/><g id="hair"><path class="cls-17" d="M160.06,10.85c-2.27-4.63-9.79-1.89-14.5.23-9,4.05-13.83,13.82-17.91,22.85-1.72,3.8-3.46,7.66-4.13,11.79s-.17,8.6,2.28,12c-3.61,1.18-5.48,5.42-5.18,9.2s2.23,7.22,4.12,10.52c-1.69-1.78-5-.78-6.12,1.42s-.43,4.9.87,7,3.17,3.74,4.72,5.65c-1.15-1.86-4.37-.93-5.13,1.11s.19,4.32,1.42,6.12,2.76,3.47,3.34,5.57c-1-2.16-4.76-.87-5.24,1.48s1,4.59,2.45,6.5,3,4.09,2.65,6.45c-.62-2.48-4.16-3.31-6.24-1.83s-2.7,4.4-2.16,6.9a19.74,19.74,0,0,0,3.48,6.77c-2.15-2.15-6.2-.07-6.9,2.88s.84,5.95,2.5,8.48c-.91-1.73-3.74-1.5-4.93.05s-1.1,3.75-.56,5.63a46.51,46.51,0,0,1,1.78,5.59c-.9-1.62-3.64-1.27-4.57.33s-.38,3.72.76,5.18a7.62,7.62,0,0,0,3.81,2.59L105.54,157a13,13,0,0,0,3.51,4.82,17.12,17.12,0,0,0-8.37,9.67L105,172l3.36,1.9A3.35,3.35,0,0,0,109,172a13.18,13.18,0,0,1,3.76,2c-.43-1.15,1.23-1.92,2.46-1.92s2.88-.17,3.06-1.38a2.49,2.49,0,0,0-.83-1.8l-6.64-7.59a15.22,15.22,0,0,0,9.46-9.21,1.89,1.89,0,0,0,0-1.7,1.87,1.87,0,0,0-1.7-.53,11.1,11.1,0,0,0-6.16,2.37,29.76,29.76,0,0,0,12-7.87c.93-1,1.85-2.27,1.63-3.63-.3-1.75-2.46-2.66-4.19-2.26a9.85,9.85,0,0,0-4.37,2.93,86.88,86.88,0,0,0,9.92-7.6A17.66,17.66,0,0,0,132,128.3a6.88,6.88,0,0,0-.26-6.81c-1.38-1.94-4.5-2.6-6.23-1a17.17,17.17,0,0,0,11.13-11.43,5.42,5.42,0,0,0,0-3.64c-.79-1.8-3.12-2.5-5-2.06a12.94,12.94,0,0,0-5.05,3c1.41-2.61,3.78-4.54,5.71-6.79s3.48-5.23,2.73-8.1-4.83-4.69-6.84-2.51c4.49-1.69,9.69-4.22,10.29-9A6.63,6.63,0,0,0,128,73.77a13.25,13.25,0,0,0,9-4.22,8.81,8.81,0,0,0,1.45-9.48c-1.56-3-5.64-4.62-8.63-3,2.35-10.09,1.64-21.25,7.19-30,3.37-5.31,8.69-9,14.07-12.31,2.69-1.63,6.21-3.16,8.78-1.35"/><path class="cls-18" d="M161.51,10.47c-2-3.83-6.82-3.33-10.39-2.37a31.15,31.15,0,0,0-12.24,6.2,39.94,39.94,0,0,0-8.63,11.39,106.86,106.86,0,0,0-6.75,14.82c-2.07,5.79-2.73,12.5,1,17.79L125.2,57a9.61,9.61,0,0,0-6,8.37c-.4,4.59,2,8.8,4.23,12.64l2.67-1.19c-2.87-2.73-8.08-.65-9.2,2.88-1.58,5,3.19,9,6,12.36.69.83,3.44-.11,2.68-1.19-2-2.76-7-.92-7.93,1.87-1.63,4.62,3.55,8,4.77,11.92l2.78-1c-1.7-3.1-7-.85-7.92,1.84-1.73,5.19,5.51,8.33,5,13.34l2.91-.55c-1.31-4.35-7.61-3.62-10-.7-3.49,4.34-.39,9.7,2.25,13.52l2.67-1.19c-2.48-2.27-6.5-1-8.48,1.34-2.89,3.42-.66,8,1.42,11.21.59.92,3.37-.06,2.67-1.18-1.68-2.72-6.22-1.52-7.75.72-2.48,3.64.58,7.86,1.25,11.52l2.79-1c-1.73-2.65-6.38-1.22-7.49,1.29-1.63,3.73,2.07,7.22,5.29,8.27.55.18,3.17-.66,2.2-1.45l-5.13-4.25c-.6-.49-3.3-.17-2.79,1a14.32,14.32,0,0,0,3.62,5l.74-1.28a18.72,18.72,0,0,0-9.22,10.52c-.18.51.59.72.91.76a20,20,0,0,1,3.8.38,18.25,18.25,0,0,1,3.23,1.79,2.12,2.12,0,0,0,2.51-.67,4.4,4.4,0,0,0,.77-2.16l-2.32,1a13.69,13.69,0,0,1,3.49,1.88c.66.49,2.84-.09,2.59-1.14s2.39-.72,3-.9c1.21-.33,2.68-1.22,2.49-2.68a4.12,4.12,0,0,0-1.25-2.08c-.68-.79-1.37-1.57-2-2.35l-4.27-4.89L111,162.07a16.92,16.92,0,0,0,10.34-9.26c.38-.9.89-2,.31-3a2.84,2.84,0,0,0-2.6-.95,13.24,13.24,0,0,0-7.57,2.76c-.42.32-.76.75-.32,1.19s1.35.2,1.84,0a31.88,31.88,0,0,0,8-4.19c2.24-1.63,5.18-3.81,6.24-6.46s-1-4.48-3.43-4.76c-3-.35-5.47,1.61-7.51,3.58a.63.63,0,0,0,.18,1.12,2.16,2.16,0,0,0,1.92-.29,87.41,87.41,0,0,0,9.13-6.9c2.5-2.15,5.13-4.49,6.21-7.71.88-2.66.43-6-2-7.6a6.27,6.27,0,0,0-7.44.55c-1,.89.72,1.36,1.4,1.14a18.75,18.75,0,0,0,12.42-12.61,5.2,5.2,0,0,0-.45-4.44,5.07,5.07,0,0,0-3.37-1.86c-3.46-.56-6.39,1.54-8.92,3.61l2.54.39c2.66-4.72,9-8,8.71-14.06-.23-4.69-6.31-7-9.65-3.73-1.18,1.16,1.13,1.25,1.78,1,4.55-1.73,11-4.68,11.19-10.38a7.37,7.37,0,0,0-4.06-6.85,9.07,9.07,0,0,0-8.81.82c-1,.71-.26,1.52.75,1.42,6-.59,12.72-4.4,12.85-11.16a7.91,7.91,0,0,0-11.49-7.14l2.06.54c1.64-7.18,1.75-14.64,3.68-21.75a27.86,27.86,0,0,1,4.71-9.83A35.63,35.63,0,0,1,147.81,18a56.32,56.32,0,0,1,5.05-3.18c1.83-1,3.92-1.83,5.84-.61.89.58,3.53-.7,2.27-1.5-3.43-2.2-7.72-.28-10.84,1.58a56.58,56.58,0,0,0-9.89,7.22,28.17,28.17,0,0,0-6.84,9.9,50.39,50.39,0,0,0-2.89,11.8c-.67,4.69-1.11,9.42-2.17,14-.23,1,1.61.76,2,.54a4.81,4.81,0,0,1,5.14,1,6.64,6.64,0,0,1,2.19,5.84c-.51,5-4.88,7.84-9.55,8.3l.75,1.42c4.5-3,9.16,2.54,7.83,7-1.16,3.91-5.74,5.71-9.19,7l1.78,1c1-1,2.82.36,3.51,1.22,1.3,1.63,1,4,.18,5.74-1.77,3.94-5.73,6.3-7.83,10-.31.54.17.87.66,1a2.36,2.36,0,0,0,1.88-.58c1.67-1.36,3.86-3.26,6.12-2.14,2.48,1.23,1.56,4.38.7,6.39a15.7,15.7,0,0,1-9.3,8.78l1.4,1.13c1.56-1.33,3.8,1,4.29,2.36.87,2.42,0,5-1.53,7a33.34,33.34,0,0,1-5.81,5.51,81.82,81.82,0,0,1-7,5.14l2.1.83c1.24-1.19,3-3.13,4.82-2.09,2.42,1.34.31,3.89-1,5.18a28.52,28.52,0,0,1-10.72,6.74l1.52,1.21c1.29-1,3.16-2.08,4.86-2s0,3-.57,3.89a13.56,13.56,0,0,1-7,5.8c-.42.14-1.7.75-1.12,1.42l4.11,4.7c.47.54,3.87,3.94,3.18,4.48-.24.18-1.3.08-1.66.11a6.61,6.61,0,0,0-1.95.51c-1.08.49-2.15,1.39-1.84,2.69l2.59-1.14a15.38,15.38,0,0,0-4-2.1c-.65-.23-2.24.16-2.32,1a3.34,3.34,0,0,1-.59,1.69l2.5-.67a16.62,16.62,0,0,0-3.8-2,34.28,34.28,0,0,0-4.43-.46l.92.76a15.91,15.91,0,0,1,7.51-8.83c.33-.17,1.28-.81.74-1.28a13,13,0,0,1-3.4-4.62l-2.79,1,5.14,4.24,2.2-1.45a6.31,6.31,0,0,1-4.38-4.66c-.24-1.35.85-4,2.17-2,.56.85,3,.09,2.79-1-.49-2.65-2.09-5.09-2.15-7.82,0-1,.17-2.55,1.13-3.16a1.42,1.42,0,0,1,2,.69l2.67-1.18c-1.51-2.34-3.25-5.45-2.3-8.33.52-1.58,2.49-3.24,4-1.85.73.67,3.47,0,2.67-1.19-2-2.91-4.26-6.28-3.3-10,.3-1.21,1.11-2.77,2.5-2.9a2.87,2.87,0,0,1,2.94,2c.32,1.07,2.8.43,2.9-.54.4-3.83-2.74-6.23-4.36-9.31-.68-1.28-1.38-3.31-.28-4.56.7-.8,1.48-.74,2,.19s3.1.05,2.79-1c-.91-2.94-3.41-4.94-4.53-7.76-.49-1.23-.88-3.06.09-4.18a1.17,1.17,0,0,1,2,.12l2.68-1.19c-2.15-2.58-5-4.9-5.83-8.31a4.8,4.8,0,0,1,.8-4.4A1.94,1.94,0,0,1,123.4,78c.74.71,3.37,0,2.67-1.19-1.91-3.34-4.1-7.09-4-11.08,0-3,1.37-6.29,4.35-7.35.48-.17,1.11-.75.73-1.29-6-8.61.22-20,4.19-28a52.21,52.21,0,0,1,6.86-11,25,25,0,0,1,10-7.1c2.86-1.16,8.49-3.4,10.45.32.57,1.08,3.4.17,2.9-.77Z"/><path class="cls-17" d="M158.08,9.85c-.11-.57,1.8,1.55,2,1a4.5,4.5,0,0,1,4.18-2.77,9.28,9.28,0,0,1,5,1.64,40,40,0,0,1,8.15,7.45,30.47,30.47,0,0,1,5.29,7.06c2,4.09,2,8.79,2,13.32,0,6.39,0,12.91-2,19-.38,1.15-.83,2.43-.33,3.54s1.68,1.59,2.62,2.32c2.79,2.17,3.18,6.42,1.86,9.7s-4,5.81-6.55,8.24c3.25-.89,5.91,3.48,4.85,6.68s-4.18,5.18-7.09,6.89c1.95-.66,3.91,1.6,3.72,3.65s-1.75,3.7-3.34,5-3.35,2.56-4.27,4.4c2.19-.79,4.45,1.62,4.45,3.94s-1.44,4.36-2.83,6.23c1.52-1.31,3.73,1.09,3.47,3.07s-1.68,3.7-1.81,5.7c.1-3,4.77-4.23,6.92-2.06s1.75,6-.05,8.41c2.22-1.51,5.62-.44,6.89,1.92a6.3,6.3,0,0,1-1.48,7.35,4.86,4.86,0,0,1,4.62,7.69l-4.17,1a20.78,20.78,0,0,1,13.55,13.48c-1.33.7-2.94.09-4.45,0s-3.35,1.29-2.65,2.62a5,5,0,0,0-5-1,9.58,9.58,0,0,1-2.8,1,7.47,7.47,0,0,1-2.16-.47,7.1,7.1,0,0,0-6.16,1.29,19,19,0,0,1-1.09-6.17,6.46,6.46,0,0,1,2.82-5.34c2.32-1.37,5.94-1,7.06-3.42a4.29,4.29,0,0,0-3.45-1.25,1.61,1.61,0,0,0,2.52-.12,22.09,22.09,0,0,1-10.15-10.15,7.94,7.94,0,0,1,4.77-.8,12.17,12.17,0,0,1-11.6-6.41,5.77,5.77,0,0,1-.49-4.94c.71-1.56,2.93-2.43,4.24-1.33a16.73,16.73,0,0,1-9.42-8.1,2.78,2.78,0,0,1-.41-1.41c.11-1.9,3-1.81,4.73-1.1a10.49,10.49,0,0,1-6.11-7.66c-.32-1.78-.08-3.82,1.26-5s3.93-.93,4.49.78a12.37,12.37,0,0,1-7.8-7.2,4.53,4.53,0,0,1-.39-2.23c.24-1.9,2.41-3,4.32-2.88a11.44,11.44,0,0,1,5.16,2.38A19.94,19.94,0,0,1,168,88.64a6.85,6.85,0,0,1,1.67-6.38c1.7-1.56,4.77-1.58,6.08.31-2.09-2.84-4.26-5.92-4.39-9.44s2.8-7.38,6.28-6.76c-2-1.32-2.74-4-2.48-6.36a25.32,25.32,0,0,1,2.22-6.8c3-7.38,4.54-15.61,2.81-23.4s-7.07-15-14.58-17.71c-1.49-.53-4.26,1.68-5.81,1.32"/><path class="cls-18" d="M159.54,9.7V9.63l-.54.67,0,0-1.79.34c-.22,0,.38.34.54.46a4.62,4.62,0,0,0,.8.57,2.34,2.34,0,0,0,2.84-.71c.4-.6.51-1.14,1.18-1.55a2.92,2.92,0,0,1,1.9-.36,10.53,10.53,0,0,1,4.64,2.16,44.74,44.74,0,0,1,6.9,6.58c2.22,2.44,4.49,4.94,5.68,8.06a29,29,0,0,1,1.46,10.12c0,3.4,0,6.82-.18,10.21a44.3,44.3,0,0,1-1.85,10.54c-.42,1.3-.88,2.68-.22,4s2.12,1.79,3.13,2.77c2.14,2.07,2.35,5.47,1.47,8.17-1.13,3.42-4,6-6.51,8.42-1,1,.73,1.28,1.4,1.13,1.11-.25,2.18,1,2.67,1.87a5.2,5.2,0,0,1,.59,3.85c-.82,3.14-4.05,5-6.64,6.51-1.4.83.19,1.59,1.14,1.34,1.17-.29,2,2,2,2.76a5.44,5.44,0,0,1-1.89,3.73c-1.9,1.91-4.31,3.23-5.62,5.68-.52,1,1,1.07,1.58.91,1.82-.53,2.86,2.62,2.74,3.87-.2,2-1.51,3.78-2.7,5.38-.32.44.11.83.5.94a2.24,2.24,0,0,0,1.79-.34q-.65,0-.12.18a1.55,1.55,0,0,1,.36.31,2.92,2.92,0,0,1,.68,3c-.46,1.69-1.45,3.14-1.65,4.91l2.91-.31c.17-2.18,2.65-2.71,4.13-1.3,2.14,2,1.43,5.57-.08,7.73-.3.44.1.82.5.94a2.32,2.32,0,0,0,1.79-.34c1.73-1.07,4.07.67,4.74,2.27a5.7,5.7,0,0,1-1.43,6.17c-.8.78.29,1.28,1,1.21,3.63-.39,5.22,4,3.43,6.71l1.14-.75-4.17,1c-.78.18-1.92,1.28-.65,1.68a20.16,20.16,0,0,1,13,13L203,163c-.95.41-2.3-.16-3.31-.17a5.72,5.72,0,0,0-2.44.48c-1.31.57-2.82,1.85-2.2,3.43l2.79-1a6.61,6.61,0,0,0-4.32-1.56,7.48,7.48,0,0,0-2.25.38,10.1,10.1,0,0,1-2.33.9,16.66,16.66,0,0,1-2.62-.58,9.16,9.16,0,0,0-2.28,0,9.8,9.8,0,0,0-4.6,1.84l2.38.13c-.91-3.11-2.46-8.84,1.41-10.71,2.51-1.21,5.83-.9,7.29-3.75a.57.57,0,0,0,0-.67,6,6,0,0,0-4.62-1.56c-.48,0-2.22.75-1.51,1.49,1.47,1.53,4,.89,5.22-.63a.58.58,0,0,0-.22-.84,21.62,21.62,0,0,1-9.84-9.78l-.86,1.08a6.24,6.24,0,0,1,3.63-.58l.72-1.81a11,11,0,0,1-8.8-3.74A9.11,9.11,0,0,1,172,131c-.18-1.09.28-4.07,1.94-2.87l2-1.61a16,16,0,0,1-7.23-5.17c-.61-.77-2.4-2.82-2-3.89.25-.64,1.82,0,2.38.16.83.31,3.28-1,2-1.61a10,10,0,0,1-5.65-6.58,5.82,5.82,0,0,1,.34-4.45,1.27,1.27,0,0,1,2.36.27l2.32-1.24a11.65,11.65,0,0,1-7.22-6.74c-.56-1.46-.59-3.49,1.34-3.8s3.77,1.26,5.16,2.21c.73.51,3.14-.23,2.47-1.34-1.59-2.67-3.35-5.67-2.76-8.91a4.23,4.23,0,0,1,2-3.18,2.52,2.52,0,0,1,3,1c.67.87,3.45-.14,2.68-1.19-2-2.71-4.3-5.82-4.28-9.34,0-2.28,1.57-5.74,4.29-5.36.7.09,2.83-.84,1.68-1.66-4.5-3.21-1.09-9.58.4-13.4A43.59,43.59,0,0,0,182.4,37c.13-8.9-3.37-17.85-10.78-23.13-1.6-1.13-3.86-2.66-5.87-2.78a7.29,7.29,0,0,0-3,.66c-.7.27-1.59.86-2.36.74-1.24-.18-3,1.53-1.09,1.82,1.72.26,3.28-.73,4.84-1.25.76-.26,1.33.13,2.07.47A20.53,20.53,0,0,1,169,15.19,23.71,23.71,0,0,1,177,25c4.18,9.19,2.57,19.78-1.22,28.8-1.78,4.25-3.88,10.08.74,13.37l1.68-1.66c-3.76-.52-7.11,2.32-8.05,5.84-1.16,4.35,1.86,8.56,4.28,11.87L177.12,82c-2.41-3.14-7.64-1.79-9.59,1.16-2.66,4-.16,8.75,2,12.35L172,94.14c-2.12-1.45-4.42-2.81-7.09-2.5-2,.23-4.43,1.46-4.93,3.6s1.22,4.93,2.64,6.54a13.58,13.58,0,0,0,6.08,3.9c.57.18,2.71-.28,2.32-1.24-.74-1.84-2.83-2.29-4.62-1.93a5.09,5.09,0,0,0-4.06,4.17c-.82,4.5,2.5,9,6.45,10.8l2-1.61c-3.05-1.14-8.76-.14-6.41,4.19a17.66,17.66,0,0,0,9.77,8.14c.78.27,3.23-.72,2-1.61-1.82-1.32-4.61-.51-6.06,1-1.83,1.93-1.17,4.83,0,6.91a13.33,13.33,0,0,0,12.59,6.4c1.11-.08,2.53-1.59.72-1.81a10.66,10.66,0,0,0-5.91,1c-.29.14-1.08.63-.85,1.08a23.07,23.07,0,0,0,10.46,10.52l-.23-.83c.5-.06.57-.19.19-.4l-1.51,1.5a3.13,3.13,0,0,1,2.28.95l0-.68c-.69,1.34-2.29,1.45-3.61,1.8a8.93,8.93,0,0,0-4.4,2.31c-2.93,3.16-2,7.58-.87,11.29.26.88,1.87.5,2.37.12a5,5,0,0,1,3.19-1.11c1.32,0,2.51.73,3.85.68a8.87,8.87,0,0,0,3.24-1,3.39,3.39,0,0,1,3.59.62c.61.5,3.26.21,2.79-1-.64-1.61,1.45-1.24,2.33-1.13a7.19,7.19,0,0,0,3.92-.45c.35-.15,1-.59.85-1.08A21.65,21.65,0,0,0,191,149.37l-.65,1.68,3-.72a3.77,3.77,0,0,0,2.31-1,5.52,5.52,0,0,0,.92-4.26c-.57-3.15-3.77-4.72-6.73-4.41l1,1.21c2.33-2.27,3.36-6.18,1.19-8.92s-6-2.85-8.71-1.17l2.29.59c2.09-3,2.55-8.44-1.5-10.08-2.91-1.18-7.9.16-8.19,3.8-.1,1.3,2.79.78,2.91-.31.29-2.57,2.71-5.09,1.46-7.71a3.6,3.6,0,0,0-5.49-1.42l2.29.6c1.6-2.18,3.62-5,2.71-7.91a4.72,4.72,0,0,0-5.92-3.16l1.59.9c1.77-3.31,5.89-4.59,7.32-8.19a4.23,4.23,0,0,0-5-5.79l1.14,1.34c3.27-1.93,7.81-4.75,7.87-9.07.05-3.76-3-6.68-6.77-5.84l1.4,1.13c4.07-3.83,8.79-8.74,7.29-14.86a7.47,7.47,0,0,0-1.7-3.29c-.92-1-2.53-1.51-3.19-2.7-.79-1.4.3-3.37.69-4.75a39.07,39.07,0,0,0,1.09-5.48,85.88,85.88,0,0,0,.53-10.76,58.4,58.4,0,0,0-.47-10c-1.11-6.55-5.83-11.48-10.43-16-2.44-2.38-5.42-4.94-8.88-5.55a8,8,0,0,0-4.76.59,6.32,6.32,0,0,0-1.74,1.19,10.08,10.08,0,0,0-1.17,1.75l1.15-.74c1.53-.5,1.24.32.78-.14a5.12,5.12,0,0,0-.44-.34,4.79,4.79,0,0,0-.82-.6c-.71-.34-2.69-.1-2.69,1,0,1.32,2.9.77,2.91-.31Z"/></g></g></g></g></g></svg>