<svg xmlns="http://www.w3.org/2000/svg" xmlns:xlink="http://www.w3.org/1999/xlink" viewBox="0 0 274.33 287.77"><defs><style>.cls-1{fill:url(#linear-gradient);}.cls-2{fill:#eaba94;}.cls-3{fill:#e8e8e8;}.cls-4{fill:#fdfeff;}.cls-5{fill:#f7cca4;}.cls-6{fill:#e0ae85;}.cls-7{fill:#e29000;}.cls-8{fill:#0f0909;}.cls-9{fill:#fff;}.cls-10{fill:#d6d8d8;}.cls-11{fill:#b70f53;}.cls-12{fill:#f7bc8b;}.cls-13{fill:#d13845;}.cls-14{fill:#f03048;}.cls-15{fill:#ec3147;}.cls-16{fill:#fddd6d;}.cls-17{fill:#050505;}.cls-18{fill:#9b9a9a;}</style><linearGradient id="linear-gradient" y1="143.88" x2="260.76" y2="143.88" gradientUnits="userSpaceOnUse"><stop offset="0" stop-color="#9c1e44"/><stop offset="0.27" stop-color="#fff"/><stop offset="0.95" stop-color="#9c1e44"/></linearGradient></defs><title>Denmark</title><g id="Layer_2" data-name="Layer 2"><g id="infographic"><g id="Denmark"><path class="cls-1" d="M104.79,49.47C91.15,42.94,82.41,29.54,72,18.54,65.15,11.27,57.1,4.75,47.57,1.69S26.82-.46,19.09,5.89C12.23,11.51,9,20.37,6.73,28.93c-9,33.87-8.16,69.79-2.17,104.34C12,176.08,28.15,219,59.67,248.91A143.4,143.4,0,0,0,164.28,287.6c11.63-.59,23.29-2.66,34-7.28,13.39-5.78,24.87-15.43,34.17-26.67a125.44,125.44,0,0,0,25.95-54.26c3.81-18.31,3.42-37.9-3.91-55.11s-22.25-31.66-40.49-35.8c-5.87-1.34-11.93-1.61-17.83-2.8-10.35-2.09-19.92-6.93-29.12-12.11a372.87,372.87,0,0,1-64.94-46.36"/><g id="denmark-2" data-name="denmark"><path class="cls-2" d="M104.52,117.49c.69-6.42.41-24.15,10.39-19.77a75.83,75.83,0,0,0,10.26,3.65c2.33.65,7.24.66,8.94,2.41,1.56,1.6,1.57,6.5,2,8.6l2.1,10.28a1,1,0,0,1,0,.6,1.09,1.09,0,0,1-.76.54c-7.06,2.38-14.68,4.78-21.83,2.68a35,35,0,0,1-8.83-4.52,5,5,0,0,1-2.13-2.11A5.07,5.07,0,0,1,104.52,117.49Z"/><path class="cls-3" d="M80,134.65a62.56,62.56,0,0,1,1.76,15.66L104,146.08a38.93,38.93,0,0,0-7.71-14.69c-4.07-4.88-15.79-1.94-19.29,2.28C69,143.41,60.8,153.15,55.9,164.93c-5.19,12.47-5.88,26.34-7.56,39.6-.77,6-2.89,13.11,1.33,18.26,3.88,4.74,11,7.7,16.11,10.83L102.41,256c4.47,2.73,11.73.77,15.78-1.88,3.5-2.3,6.18-6.59,1.75-9.42-11.13-7.11-21.09-14.43-30.06-24.17A63.35,63.35,0,0,0,83.1,214c-2-1.63-4.61-2.94-6.35-4.89-3.75-4.21-1.29-10,1.31-14.09,3.38-5.34,7-10,9.24-16.06,1.87-5.15,2.65-10.6,3.89-15.92,1.11-4.83,2.55-9.18,5.64-13.12,3.74-4.78,7.29-8.47,6.55-14.93-.93-8.12-23.25-3.06-22.21,6,.24,2.13-1.84,3.92-3.09,5.41a37.07,37.07,0,0,0-5,7.07c-2.63,5.21-3.94,10.82-5.12,16.5s-2.26,11.16-5.3,16.1c-3.41,5.56-7.76,10.39-9.54,16.82-1.45,5.24-.67,11.15,3.08,15.25,2,2.2,4.72,3.6,7,5.42a65.76,65.76,0,0,1,7.27,7.28C79.8,241,90.84,248.6,102.41,256l17.53-11.3L87.47,224.87c-5.06-3.1-10.63-5.89-15.39-9.42-4.55-3.38-1.83-10.45-1.21-15.32,1.45-11.37,2-23.52,6-34.36,3.83-10.35,11.21-19.28,18.17-27.68l-19.29,2.28A29.88,29.88,0,0,1,81.8,152c2.15,7.84,22.09,3.05,22.25-4.22a76.66,76.66,0,0,0-1.83-19.11c-1.94-8.36-24.22-2.66-22.22,6Z"/><path class="cls-3" d="M213,132.74a165,165,0,0,1-9.86,24.93c-3.36,6.76-7,15.07-12.82,20.08-6.1,5.25-10.88,2.5-14.28-3.67-4.31-7.81-6.94-16.56-8.8-25.24l-12.53,7.29a191.54,191.54,0,0,1,16.65,22c6.2,9.18,14.58,5.57,22.12.18A88.82,88.82,0,0,0,211.82,161a91.62,91.62,0,0,0,7.27-10.53c1.25-2.15,3.64-8.9,4.86-9.6l-10.26-2.69c2.47,4.75-1.27,10.23-3.84,14.09-3.87,5.82-8,11.48-12,17.2-5.55,7.93,7.45,15.43,13,7.57,9.25-13.19,24.79-29.3,15.87-46.43-1.88-3.61-6.88-4.63-10.26-2.69-4.39,2.52-5.86,6.59-8,10.87a74.17,74.17,0,0,1-7.63,12.22,77.65,77.65,0,0,1-9.61,10.17,64.43,64.43,0,0,1-5.8,4.61c-1.26.89-4,3.38-5.33,3.24l3.79,1c1.62,1-.39-1-.82-1.71-.63-1-1.26-1.95-1.91-2.91q-2.43-3.6-5.06-7.07c-3.36-4.45-6.89-8.74-10.64-12.87-5.33-5.88-14,.42-12.53,7.29,3.9,18.21,14.71,51.52,39.86,40.93,10.19-4.29,16-14.42,21-23.72a184.7,184.7,0,0,0,13.85-33.3c2.85-9.24-11.62-13.2-14.46-4Z"/><path class="cls-4" d="M90.56,153.48c1.15,8-3.1,12.24-6.31,19-4,8.44-8.77,16.34-13.43,24.42-1.52,2.64-2.85,4.71-1.53,7.68,1.24,2.77,3.71,5.46,5.73,7.68,5.08,5.58,11.24,10,17.52,14.15s13,8.13,19.14,12.71c2.87,2.14,6.28,4.54,7.37,8.13a8,8,0,0,1-.56,5.81l-1.5,2.12-10.4,2.6a14.43,14.43,0,0,1-3.31-1c-9-3.37-15.58-10.58-23.81-15.2-7-4-13.7-7.39-20-12.52C54.09,224.74,46.5,219,46.85,211.33c.19-4.07,1.77-8.18,2.54-12.18.83-4.29,1.68-8.57,2.67-12.83,3.35-14.35,8.14-28.61,16.5-40.87,5.21-7.65,12.31-17.06,21.56-19.43s19.28,1.79,28.88,1.4a59.6,59.6,0,0,0,11.05-1.51c3.45-.81,7.27-3.15,10.66-3.55,6.33-.74,8.92,3.85,12,8.38,2.53,3.74,5,7.55,7.52,11.3,4.87,7.17,10.06,14.42,16.66,20.12,4.69,4,9.81,4.88,15.24,1.72,13.71-8,18.27-26.6,21.64-40.83l-2.8.75c3.65,2.19,7.5,4,11.31,5.85,1.55.77,4.88,1.68,5.92,3.09,1.25,1.7-.51,4.6-1.07,6.3-3,9.14-5,18.62-8.57,27.57s-9.73,14.78-16.88,21c-5.57,4.86-12.65,8.69-20.27,6.48a16.11,16.11,0,0,1-10.79-9.94c-.27-.73-2.9,0-2.89.78l.39,27.53c.13,9.15.75,18.47,0,27.6-.14,1.69.09,5.84-1.12,7.35-1.54,1.92-4,.8-6.13.52q-7.05-.94-14.07-2.08c-9.4-1.52-18.75-3.33-28.05-5.36-.71-.16-3.25,1-2.37,1.18,10.68,2.33,21.42,4.36,32.22,6,5.16.8,11.15,2.49,16.37,2.19a5.62,5.62,0,0,0,4.26-1.73c2-2.44,1.74-7.68,1.9-10.69.29-5.63.06-11.29,0-16.93l-.53-36.38-2.89.78c2.82,7.6,10.51,11.58,18.4,11s14.06-4.87,19.84-10c7.52-6.63,12.82-12.59,16.32-22.12,3.76-10.25,5.86-21,9.82-31.21a.2.2,0,0,0-.07-.27c-5.93-3.56-12.41-6.06-18.35-9.62-.56-.33-2.61,0-2.79.75-1.85,7.81-3.88,15.64-7.24,22.95a48.29,48.29,0,0,1-6.84,11.12c-1.42,1.67-3.39,4-5.3,5.05-4.68,2.53-8.24,1.65-11.9-1.51-7.17-6.19-12.68-14.17-17.91-22-2.35-3.53-4.65-7.1-7.06-10.59-1.88-2.73-3.91-6-7.09-7.31a9.16,9.16,0,0,0-6-.26c-5.6,1.33-10.6,4-16.43,4.75-10.41,1.4-20.11-2.36-30.38-1.86C80.73,124.57,70.5,138,63.7,149,55,163.14,50.53,179.38,47.32,195.54c-1.33,6.7-5.46,16-2,22.45s10.21,11.23,15.88,15.55c7.25,5.53,15.75,8.74,23.06,14.22,6.42,4.81,13.75,10.52,22,11.59,5.23.68,11.16-.91,14.35-5.39,4.44-6.22-.56-11.61-5.5-15.36-7.33-5.56-15.36-10.09-22.93-15.29a93,93,0,0,1-11.22-8.84c-3.15-3-7.51-7-8.92-11.19-1.5-4.46,3.83-10.38,6-14,2.84-4.8,5.64-9.63,8-14.68,3.53-7.51,8.75-13.21,7.5-21.87-.09-.65-3,0-2.9.78Z"/><g id="face"><path class="cls-5" d="M151.51,259.15c3.41.11,8.2.94,11.62,1.05.86,0,2.05-.28,2-1.13-.07-.55-.67-.87-1.21-1-11.09-3.21-17.28-4.84-24.88-6.17,2.52-1.84,7.72-3.53,8.3-6.59a1.18,1.18,0,0,0-.16-1c-.43-.44-1.15-.05-1.64.32-4.75,3.66-10.84,5.05-16.78,5.88-2.23.31-4.69.51-6.54-.77a29.1,29.1,0,0,1-4.94,8c5.36,1.48,10,4.75,15,7.2a52.26,52.26,0,0,0,26.06,5.2,13.72,13.72,0,0,0,4.59-.9.37.37,0,0,0,0-.68c-3.87-1.9-9.06-.45-12.63-3,5.29-2.05,11.82,1.11,16.84-1.06a.8.8,0,0,0,0-1.46,11.51,11.51,0,0,0-5-.53,37.09,37.09,0,0,1-9.57-.95,1.12,1.12,0,0,1-.72-.37c-.41-.59.33-1.71-.33-2"/><path class="cls-5" d="M150.57,259.75c4,.16,7.94,1.13,11.92,1.05,1.13,0,3.82-.38,4-1.85.11-.86-.8-1.25-1.46-1.47-1.12-.37-2.27-.66-3.41-1a214.35,214.35,0,0,0-21.47-5.19l-.08.62c2.31-1.63,5.1-2.55,7.16-4.53a4.12,4.12,0,0,0,1.52-2.86c-.14-1.73-2.61-1-3.58-.49-1.62.78-3,2-4.62,2.83a29.1,29.1,0,0,1-5.38,1.89,54.56,54.56,0,0,1-5.81,1.1c-2,.29-4,.48-5.85-.66-.6-.38-2.51.07-2.8.75a29.62,29.62,0,0,1-4.82,7.8c-.19.22-.18.38.12.47,4.48,1.28,8.43,3.73,12.51,5.92a55.76,55.76,0,0,0,12.59,5,53.43,53.43,0,0,0,13.56,1.63,30.3,30.3,0,0,0,6.52-.56c.61-.14,4.39-1,3.07-2.2a6.65,6.65,0,0,0-2.82-.91,29,29,0,0,0-3.09-.37c-2.34-.2-4.71-.35-6.73-1.69l-.86.84c3.08-1.12,6.68-.16,9.85,0a18.35,18.35,0,0,0,4.85-.37c1-.23,3.11-.58,3.49-1.74.86-2.57-7-1.83-8.09-1.86a35.91,35.91,0,0,1-6.2-.71c-.76-.16-1.56-.17-1.52-1.11,0-.56.23-1-.3-1.39s-3.16.69-2.73,1c.78.55-.42,1.78.87,2.32a18.67,18.67,0,0,0,4.89.88,38.07,38.07,0,0,0,5.12.22c1.26,0,4.33-.49,5.08.8.09.17-.13.69.18.38a2.85,2.85,0,0,1-1,.27,12.15,12.15,0,0,1-2.17.12c-1.52,0-3-.2-4.55-.32a20.2,20.2,0,0,0-8.77.85c-.14.05-1.3.55-.86.84,2.88,1.91,6.35,1.62,9.61,2.12a11.45,11.45,0,0,1,2.44.6c.2.08.39.18.59.25.49.18.55,0,0,.13a8.18,8.18,0,0,1-1.57.27,41.7,41.7,0,0,1-6.12.12,53.31,53.31,0,0,1-23.39-6.77c-3.91-2.13-7.77-4.41-12.08-5.64l.12.47a30.7,30.7,0,0,0,5.06-8.1l-2.79.74c3,1.89,6.89,1,10.13.45a45,45,0,0,0,10.37-2.93,26.06,26.06,0,0,0,4.62-2.57c.23-.16.78-.42.93-.68-.82,0-1.15.29-1,.85a2.45,2.45,0,0,1-.16.7,3.79,3.79,0,0,1-.88,1.38c-1.9,2-4.74,2.86-7,4.43-.22.15-.57.53-.08.62,5.8,1,11.51,2.41,17.19,4l5.39,1.52a10.57,10.57,0,0,1,2.76.86.87.87,0,0,1,.49.65c.5.11.58.16.26.13a5.36,5.36,0,0,1-1.26-.07c-3.4-.25-6.77-.84-10.19-1a3.27,3.27,0,0,0-2,.55c-.39.32-.46.63.17.65Z"/><path class="cls-5" d="M92.79,43.57a166,166,0,0,0-1.88,32.88l14.45-4.89c-3.82-4.68-5.2-10.68-4.85-16.65a49.72,49.72,0,0,1,1.58-9.29c.63-2.52,1.27-7.15,3-9.09l-6,3.5c-4.26,1.1,1.22.81,2.65,1q2.7.39,5.38.85c3.81.64,7.64,1.32,11.39,2.23,7.51,1.82,12.49,5.77,13.73,13.72,1.16,7.42-1.21,15.38-2.72,22.61-.76,3.62-1.57,7.23-2.56,10.8-.64,2.33-1.64,8.84-4,10l5.67-1.91c1.3,0,1.14-.34-.47-.92-1.08-.7-2.15-1.43-3.19-2.19-1.36-1-2.7-2-4-3.08A91.17,91.17,0,0,1,113,85.76c-5.08-5.3-11.7-12-11.76-19.73L87.77,71.58c8.77,4.28,15.91,12.21,23.15,18.64,2.8,2.48,16.94-.51,14.45-4.9a31.57,31.57,0,0,0-6.76-8.53c-3.49-3.07-17.83,1.5-13.93,5.77l9.86,10.79c3.35,3.67,17.64-1.61,13.93-5.78L116.69,74.35c-3.13-3.51-17,.61-13.93,5.77a145.14,145.14,0,0,0,10.48,15.1c3,3.74,17.13-.77,13.92-5.77L114.24,69.24,100.31,75l16.26,19.86,13.92-5.77a159.56,159.56,0,0,1-17.3-25.27l-14.45,4.9L117.08,87c3.27,3.25,17.38-.79,13.93-5.77L116,59.55l-13.93,5.77a165.43,165.43,0,0,0,14,15.22c3.3,3.15,17.36-.69,13.93-5.77L117.36,56,103.43,61.8l16.91,14.32c3.41,2.88,17.78-1.1,13.93-5.77L118.59,51.28l-13.93,5.78,12.75,11.13c3.37,2.94,17.69-1,13.92-5.78L117,44.33,103.1,50.1l14.94,14c3.54,3.31,17.79-1.72,13.93-5.77a186.53,186.53,0,0,1-14-16.61L105,48.14a98.2,98.2,0,0,1,14.26,9.5c3.74,3,17.94-2.12,13.92-5.78L120.36,40.2l-13,6.43a60.38,60.38,0,0,0,19,3.85l-4.54-2.1a79.35,79.35,0,0,1-2.59,49.29l8.54-5-1.09.11,4.92.45c-.91,0-1.33-.5-1.24-1.44-.92-4.88-16-1.27-15,4,.92,4.84,6.23,5.26,10.26,4.85,3-.31,7.36-1.87,8.54-5a83.33,83.33,0,0,0,2.61-51.34c-.48-1.82-3.05-2-4.53-2.1a41.43,41.43,0,0,1-13-2.72c-3.1-1.17-6.87-.42-9.74,1-1.48.75-5.44,3.36-3.2,5.39l12.84,11.66,13.92-5.78A112.17,112.17,0,0,0,117,41.06c-3.09-1.7-16.58,1.55-12.94,6.42a185.12,185.12,0,0,0,14,16.61L132,58.32,117,44.33c-3.36-3.15-17.63,1.09-13.93,5.77l14.31,18.09,13.92-5.78L118.59,51.28c-3.4-3-17.75,1.14-13.93,5.78l15.68,19.06,13.93-5.77L117.36,56c-3.34-2.83-17.45.56-13.93,5.78l12.66,18.74L130,74.77a165.32,165.32,0,0,1-14-15.22c-3-3.73-17.28.93-13.93,5.77l15,21.65L131,81.2,112.67,63c-2.81-2.78-16.81.6-14.45,4.89a169.62,169.62,0,0,0,18.35,27c3.15,3.79,17.52-1.38,13.92-5.77L114.24,69.24c-3-3.68-17.14.76-13.93,5.78l12.93,20.2,13.92-5.77a146.6,146.6,0,0,1-10.47-15.1l-13.93,5.77,11.78,13.23,13.93-5.78-9.86-10.78-13.93,5.77a25.75,25.75,0,0,1,5.71,6.77l14.45-4.89c-7.87-7-15.55-15.28-25.12-19.94C96,62.66,86.22,64.92,86.26,70c.06,7.35,5.88,13.8,10.52,19a91.23,91.23,0,0,0,17.59,15.22c6.33,4.23,14.07,4.54,20.33-.36,5.48-4.28,6.89-12.77,8.42-19.11,3.06-12.71,9.92-33.45-2.62-43.3C134.79,37,126.92,35.9,120,34.62s-15.69-3.78-22.76-1.76c-8.87,2.55-10.32,13.19-11.39,21.2-1.12,8.37.15,16.61,5.59,23.28,3,3.68,14.65,0,14.45-4.9a156,156,0,0,1,1.85-30.83c.89-5.56-14.16-3-14.94,2Z"/><path class="cls-5" d="M149.14,58.14a4.63,4.63,0,0,1,6.24.71,6.24,6.24,0,0,1,.68,6.56A9.74,9.74,0,0,1,151,70c-1.79.78-4,1.38-4.73,3.19"/><path class="cls-5" d="M85.1,48.59a2.93,2.93,0,0,0-3.49-1.94,4.25,4.25,0,0,0-2.92,3.05,8.12,8.12,0,0,0,.16,4.37,8.47,8.47,0,0,0,2.39,4.25c1.17,1,2.71,1.56,4,2.45a8.15,8.15,0,0,1,3,3.84.2.2,0,0,1-.29.23A.19.19,0,0,1,88,64.5"/><path class="cls-6" d="M94.91,83.48a41.91,41.91,0,0,1-4.46-35.81,40,40,0,0,1,9.7-15.76,33,33,0,0,1,8.32-6.16c4-2,8.8-.19,12.8,1.2,7.24,2.53,14.18,6.6,19.11,12.57,4.51,5.47,6.66,12.34,7.11,19.35s-.65,14.26-2.13,21.21c-1.58,7.38-3,15.6-7.64,21.77-2.33,3.11-5.68,5.82-9.57,6.59-4.15.83-8.19-.87-11.58-3.15a80.33,80.33,0,0,1-9.08-7.6,94.77,94.77,0,0,1-8.7-9,59.65,59.65,0,0,1-3.88-5.21c-.27-.4-1.61.14-1.45.39,4.84,7.3,11.32,13.44,18,19,3.1,2.61,6.55,5.12,10.56,6a15.09,15.09,0,0,0,10.22-1.37c7.57-3.81,10.75-12,12.7-19.75a122.82,122.82,0,0,0,4-22.34c.46-7.38-.34-15-3.9-21.61-3.75-7-10.23-12.06-17.29-15.4a54,54,0,0,0-12-4.06c-3.92-.8-7.17.32-10.46,2.42A39.31,39.31,0,0,0,91.92,41.2a42.36,42.36,0,0,0-1,38.29,41.13,41.13,0,0,0,2.49,4.38C93.72,84.27,95.07,83.73,94.91,83.48Z"/><path class="cls-7" d="M147.24,48.45c.66,2.43,1.33,4.85,2,7.29a4.19,4.19,0,0,1,0,3.15c-.06.11-.38.36-.4.46-.18.11-.08.1.3,0a.14.14,0,0,1-.11-.13,8.23,8.23,0,0,0,.26-1.8c.53-4.09.44-8.84-3-11.72l-2,.78,1.42.85a10.24,10.24,0,0,1,1.32.79c.43.37.32,1.15.36,1.69s.08,1,.13,1.58c.2,2.2.48,4.38.85,6.56.09.54,2.28.05,2.17-.59q-.57-3.39-.87-6.82c-.05-.52-.09-1-.12-1.58,0-.31-.05-.62-.06-.92s0-.41-.31-.63c-.9-.63-1.91-1.14-2.85-1.71a1.77,1.77,0,0,0-1.42.08c-.17.06-.95.42-.62.7,3.91,3.28,3.26,8.86,2.57,13.34a.19.19,0,0,0,.06.22,3.51,3.51,0,0,0,3.32-.29,3,3,0,0,0,1.5-2.83,19.9,19.9,0,0,0-1-4.3l-1.26-4.71c-.16-.58-2.33,0-2.18.58Z"/><path class="cls-7" d="M96.08,36.18c-2.34,3-3,7-2.94,10.85s.62,7.63.39,11.44a1.41,1.41,0,0,1-.31,1,1.43,1.43,0,0,1-.93.29c-1.35.08-2.7.1-4,.07a1.18,1.18,0,0,1-.85-.25,1.23,1.23,0,0,1-.25-.72Q86.07,48.77,85,38.71c-.09-.88,0-2,.81-2.31a2.19,2.19,0,0,1,1.26.12,12.26,12.26,0,0,0,7.82-.42,8.08,8.08,0,0,1-4.54.74,6.74,6.74,0,0,0,3.43.79L92.08,38"/><path class="cls-7" d="M95.18,35.89c-4.74,6.35-2.55,14.26-2.71,21.54,0,.27.11,1.29-.07,1.48s-.67.09-.9.1c-.72,0-2.74.41-3.22-.23-.21-.27-.13-1.06-.17-1.42L88,56c-.12-1.17-.25-2.33-.37-3.5q-.69-6.31-1.34-12.63A14,14,0,0,1,86.08,38a3.83,3.83,0,0,1,0-.47c.06-.31.07-.38.24-.41a8,8,0,0,1,1.36.39,13.89,13.89,0,0,0,7.66-.81l-.94-1.19a6.85,6.85,0,0,1-3.68.58c-.51-.06-2.25.83-1.23,1.35a8.73,8.73,0,0,0,4.17.94l-.08-1.44-1.72.35c-1.36.28-1,1.67.38,1.39L94,38.33c1.13-.24,1.17-1.46-.08-1.45a5.6,5.6,0,0,1-2.69-.65L90,37.58a10.12,10.12,0,0,0,5.39-.88c.4-.18.81-.62.53-1.06s-1.08-.28-1.47-.13a12,12,0,0,1-7.13.2c-1.64-.34-3.22.39-3.4,2.17a15,15,0,0,0,.22,3c.13,1.25.26,2.5.4,3.74.26,2.5.53,5,.79,7.48.13,1.17.25,2.34.38,3.51a27.86,27.86,0,0,0,.41,3.77c.46,1.76,3.4,1.2,4.73,1.16,2-.07,3.7-.27,3.82-2.61a64.06,64.06,0,0,0-.24-7.06C94.09,46,93.92,40.56,97,36.47c.81-1.09-1.24-1.32-1.8-.58Z"/><path class="cls-8" d="M122.6,66.79a7.73,7.73,0,0,0,1.68,2.75,18.74,18.74,0,0,0,2.42,1.83c.77.58,1.45,1.54.73,2.45-.86,1.07-2.39.67-3.52.38a.48.48,0,0,0-.51.13c-.09.13-.08.3.09.35,1.31.34,2.76.66,4-.14a1.92,1.92,0,0,0,.73-2.64c-.57-.94-1.7-1.39-2.54-2.05a7.26,7.26,0,0,1-2.33-3.26c-.11-.32-.83-.12-.72.2Z"/><path class="cls-7" d="M125.13,99.05v6.07l.73-.13a32.34,32.34,0,0,0-1.11-5.92c-.09-.28-.75-.15-.73.13l.22,4.21.7-.19a6.54,6.54,0,0,1-.88-2.88l-.73.13.31,3.67.72-.2-1.1-3.45c-.1-.32-.79-.13-.73.19l.52,2.77c.06.32.78.14.72-.19l-.51-2.77-.73.19,1.11,3.46c.1.32.75.12.72-.2l-.3-3.67c0-.29-.75-.15-.73.13a6.88,6.88,0,0,0,.94,3.13c.13.21.72.07.7-.19l-.22-4.2-.73.13a31.22,31.22,0,0,1,1.11,5.92c0,.29.73.14.73-.13V99c0-.37-.74-.25-.74.06Z"/><path class="cls-8" d="M115.16,60c-.78-3-4-4.29-6.82-4.18a11.51,11.51,0,0,0-5,1.57,27.64,27.64,0,0,0-2.53,1.6l-1.29.91-.7.5-.23.16c-.14.21-.26.22-.37,0l-.38.21H98c.38,0,.59-.49.09-.44-.34,0-.84.33-.55.74s1.11,0,1.44-.2a42.45,42.45,0,0,1,5.79-3.71,8.27,8.27,0,0,1,5.92-.59,5.28,5.28,0,0,1,3.75,3.6c.07.28.8.09.73-.19Z"/><path class="cls-8" d="M109.06,56.77a1.86,1.86,0,0,1,1,1.62,1.78,1.78,0,0,1-.24,1,1.13,1.13,0,0,1-.64.48,1.58,1.58,0,0,1-.88,0,1.68,1.68,0,0,1-.75-.51,1.3,1.3,0,0,1,.15-1.78,1.13,1.13,0,0,1,1.58-.13,1.47,1.47,0,0,1,.2,1.64,1.23,1.23,0,0,1-.51.58.43.43,0,0,1-.27.06,1.5,1.5,0,0,1-.71-.21,1.82,1.82,0,0,1-.82-2.11,1.11,1.11,0,0,1,1.75-.51c.47.45.48,1.51-.15,1.77l.37,0a1.19,1.19,0,0,1-.86-1.12,1.52,1.52,0,0,1,.09-.73.87.87,0,0,1,.45-.47l-.49,0a2.22,2.22,0,0,1,.46,1.12,2,2,0,0,1-.16,1.17c0,.08,0,.07-.09.06a.69.69,0,0,1-.33-.14.59.59,0,0,1-.26-.67.5.5,0,0,1,.2-.25.56.56,0,0,1,.24-.07.68.68,0,0,1,.61.34c.24.45,0,1.3-.55,1.33a1,1,0,0,1-1-1.19.82.82,0,0,1,.47-.54.59.59,0,0,1,.26-.07.7.7,0,0,1,.37.11.93.93,0,0,1,0,1.35.29.29,0,0,1-.2.11h-.09l-.12,0a.93.93,0,0,1-.43-.61.65.65,0,0,1,.19-.7.37.37,0,0,1,.28,0,1,1,0,0,1,.42.21,1.07,1.07,0,0,1-.51,1.76l.34,0a1.53,1.53,0,0,1-.18-2.42l-.52,0a1.56,1.56,0,0,1,.67,1.53l.49-.28a.63.63,0,0,1-.5-.74.36.36,0,0,1,.52-.28.49.49,0,0,0,.52-.05c.1-.08.2-.26,0-.35a1.32,1.32,0,0,0-1.74.54,1,1,0,0,0,.9,1.38c.18,0,.47-.08.5-.28a1.9,1.9,0,0,0-.84-1.87.49.49,0,0,0-.52.05,1.94,1.94,0,0,0-.38,2.7,1.18,1.18,0,0,0,.63.47,1.55,1.55,0,0,0,1-.39,1.61,1.61,0,0,0,.63-1.62,1.41,1.41,0,0,0-1.17-.94,1.29,1.29,0,0,0-1.39.69,1.25,1.25,0,0,0,.23,1.28,1.23,1.23,0,0,0,1.41.32c.88-.35,1.27-1.78.33-2.3a1.62,1.62,0,0,0-2.34,1.37,1.46,1.46,0,0,0,1,1.15,1.63,1.63,0,0,0,1.7-.31,1.46,1.46,0,0,0,.44-1.45,1.17,1.17,0,0,0-1.19-.8,1.44,1.44,0,0,0-1.33.75,1,1,0,0,0,.49,1.21,1.33,1.33,0,0,0,.78.16,1,1,0,0,0,.76-.43,2.63,2.63,0,0,0-.29-2.72c-.11-.15-.35-.1-.49,0a1.72,1.72,0,0,0-.79,2.35,1.4,1.4,0,0,0,1,.83,1.09,1.09,0,0,0,.88-.44,1.7,1.7,0,0,0,.33-.69,1.57,1.57,0,0,0-.37-1.39,1.78,1.78,0,0,0-1.64-.4,2.15,2.15,0,0,0-1.4,1,1.91,1.91,0,0,0,0,1.77,2.06,2.06,0,0,0,3.15.78,1.93,1.93,0,0,0,.29-2.53c-.77-.93-2.25-.55-3,.23a1.65,1.65,0,0,0,.36,2.65,2.34,2.34,0,0,0,3-.43,2.27,2.27,0,0,0-.25-2.87,2,2,0,0,0-.68-.44c-.28-.12-.84.28-.42.46Z"/><path class="cls-8" d="M126.31,59.4c3.07-1.6,6.55-3.17,10.1-2.64a7.79,7.79,0,0,1,6.32,4.66c.08.22.8,0,.72-.19-1.09-2.92-4.07-4.59-7.07-4.88-3.71-.36-7.29,1.21-10.5,2.88-.43.23.22.28.43.17Z"/><path class="cls-8" d="M134.17,57.07c.28,0,.56.29.68.54a.9.9,0,0,1,0,1l.11-.11c-.09.07,0,0,0,0s.05,0,0,0l-.16-.07a.66.66,0,0,1-.27-.36.38.38,0,0,1,.07-.37.19.19,0,0,1,.11-.09h.11c.78,0,.8,1.13.31,1.52l.44-.08c-.62-.16-.7-1.08-.39-1.56a.71.71,0,0,1,.12-.13l.05,0c-.06,0,.1,0,0,0l.07,0h.07l.15,0a1.12,1.12,0,0,1,.56.76,1.14,1.14,0,0,1,0,.55.59.59,0,0,1-.27.37l.51-.06a1.3,1.3,0,0,1-.14-2.17h-.56a2.8,2.8,0,0,1,.18,2.38l.5-.27a1.09,1.09,0,0,1-.46-1.75h-.57a1.36,1.36,0,0,1,.09,1.75l.51-.13a.79.79,0,0,1-.44-1.21l-.43.15a.88.88,0,0,1,.68,1.34.6.6,0,0,1-1.07-.17,1,1,0,0,1,.29-1.29.48.48,0,0,1,.24-.06,1.23,1.23,0,0,1,.42.07,1.26,1.26,0,0,1,.62.52,1.52,1.52,0,0,1-.44,1.88h.56a1.18,1.18,0,0,1-.28-1.19,1.23,1.23,0,0,1,.27-.52.79.79,0,0,1,.22-.19.52.52,0,0,1,.16-.06l-.24,0c.72.57.68,2.11-.28,2.36A1.39,1.39,0,0,1,135,60a1.45,1.45,0,0,1-.33-1.49A2.63,2.63,0,0,1,136,57c.18-.1.32-.3.06-.4a2,2,0,0,0-2.43,1,2,2,0,0,0-.29,1.28A1.69,1.69,0,0,0,134,60a2.79,2.79,0,0,0,2.7.18,2.37,2.37,0,0,0,1.5-2.55,1.53,1.53,0,0,0-1.11-1.2,1.73,1.73,0,0,0-1.7.4.18.18,0,0,0,.08.31A.58.58,0,0,0,136,57a.65.65,0,0,1,.77-.1,1.2,1.2,0,0,1,.7.87,1.86,1.86,0,0,1-1,2,1.92,1.92,0,0,1-1.8-.07,1.41,1.41,0,0,1-.56-1.75,1.72,1.72,0,0,1,.65-.85A.68.68,0,0,1,135,57c.12-.06-.06,0,.06,0l.1,0a.82.82,0,0,1,.48.07l.06-.4a3,3,0,0,0-1.77,2.49,1.8,1.8,0,0,0,1.85,1.69,1.89,1.89,0,0,0,2-1.7,1.83,1.83,0,0,0-.37-1.26,1.75,1.75,0,0,0-.23-.24.57.57,0,0,0-.49-.06,1.6,1.6,0,0,0-.62.29,1.64,1.64,0,0,0-.31,2.41.47.47,0,0,0,.56,0,1.81,1.81,0,0,0,.38-2.76,1.77,1.77,0,0,0-2.7.41,1.44,1.44,0,0,0,.07,1.28,1.23,1.23,0,0,0,1.25.59,1.57,1.57,0,0,0,1.31-1,1.22,1.22,0,0,0-.56-1.36,1,1,0,0,0-1.08-.08.94.94,0,0,0-.31.72,1.14,1.14,0,0,0,.88,1.13A.55.55,0,0,0,136,59a1.68,1.68,0,0,0,0-2.22.5.5,0,0,0-.57,0,1.42,1.42,0,0,0,.66,2.5.5.5,0,0,0,.5-.27,3.07,3.07,0,0,0-.24-2.61c-.11-.18-.45-.05-.57,0a1.66,1.66,0,0,0-.75,1.79,1.53,1.53,0,0,0,.46.82.8.8,0,0,0,.57.26.92.92,0,0,0,.56-.34,1.39,1.39,0,0,0,0-1.68,1.31,1.31,0,0,0-1.83-.29,1.49,1.49,0,0,0-.54,1.59,1.15,1.15,0,0,0,.47.67.86.86,0,0,0,.53.17,1,1,0,0,0,.62-.46,1.17,1.17,0,0,0-.53-1.85,1.49,1.49,0,0,0-1.2.19.83.83,0,0,0-.39.94,1,1,0,0,0,.91.67,1.11,1.11,0,0,0,.7-.21,1,1,0,0,0,.31-.59,1.44,1.44,0,0,0-.31-1.06,1.36,1.36,0,0,0-1.13-.49c-.14,0-.38.11-.4.27s.2.2.32.2Z"/><g id="blick"><path class="cls-9" d="M133.52,58.86c.57,0,1.63-.2,1.92-.78s-.25-.79-.77-.79-1.63.2-1.92.77.24.8.77.8Z"/><path class="cls-9" d="M106.21,58.62c.65,0,1.59-.17,1.89-.86s-.23-1.11-.85-1.11-1.59.18-1.9.86.24,1.11.86,1.11Z"/></g><path class="cls-7" d="M127.81,48.64c5.45-2.28,11.4-.57,15.44,3.53.53.53,3-.43,2.49-1-5-5.07-12.45-6-18.89-3.34-1.73.72-.12,1.21,1,.76Z"/><path class="cls-7" d="M114,46.47a16.73,16.73,0,0,0-13.16-2.26c-3,.73-9,3.09-8.66,6.87.11,1.2,2.77.56,2.66-.71-.25-2.95,6.94-4.55,8.69-4.67A13.52,13.52,0,0,1,111.9,48c1,.64,3.31-.71,2-1.52Z"/><path class="cls-8" d="M111.44,82.79a27.36,27.36,0,0,0,6.3,4.59c2.34,1.28,4.9,2.71,7.6,3,4.62.45,7.4-3.39,9.49-6.92.17-.29-.55-.22-.67,0a21,21,0,0,1-3.4,4.64,6.86,6.86,0,0,1-7.32,1.37,30.22,30.22,0,0,1-11.32-6.93c-.18-.17-.86.09-.68.28Z"/></g><path class="cls-10" d="M238.8,73.81c-3,9-9.3,16.49-12.68,25.36-.34.9,2.54.56,2.9-.38,3.38-8.87,9.66-16.32,12.68-25.36.31-.94-2.58-.57-2.9.38Z"/><path class="cls-10" d="M239,105.26,216.37,94.38a2.06,2.06,0,0,0-2.07.2c-.4.3-.85,1.1-.18,1.42l22.64,10.88a2,2,0,0,0,2.07-.2c.4-.3.85-1.09.18-1.42Z"/><path class="cls-11" d="M268.63,38.8a36.65,36.65,0,0,0-6.85,15.43c-.15.84,2.6.18,2.87-.47a113.5,113.5,0,0,1,6.71-13.42l-2.87.48c-1.46,4.33-3.12,8.6-5,12.78l2.88-.63A25.14,25.14,0,0,1,268.32,44l-2.86.47a41.55,41.55,0,0,1-4.84,9.39l2.87-.47,2.91-7.11c.22-.53-1-.4-1.18-.37a2.51,2.51,0,0,0-1.69.84l-4.47,6.8,2.87-.47a26.77,26.77,0,0,1,3.36-6.48c.62-.86-2.19-.42-2.64.15l-4,5.11,2.75-.31L262.77,49c.39-.76-2.11-.1-2.29,0l-7,3.13,2.17.18A8.52,8.52,0,0,1,259.1,50l-1.37-.66c-2.45,1.22-5.09,2.57-7.88,1.73-2.17-.66-4-2.1-6.29-2.48-1.71-.29-4.2,0-5.42,1.36-.73.83-.55,2.19-.5,3.2a22.82,22.82,0,0,0,.64,4.27c.17.73,3,0,2.89-.77a19.5,19.5,0,0,1,.13-5.5l-2.87.47-.55,4.63,2.88-.63-.58-5.85c-.07-.68-2.79,0-2.88.62l-1.11,7.3c-.29,1.94-.7,4.1.41,5.87,1.68,2.67,5.31,3.07,7.53,5.14.52.49,2.81-.1,2.81-.9,0-5.25-3.15-10.18-2.23-15.46l-2.89.62,0,10.69,2.9-.78-1.06-8.7c-.09-.72-2.74,0-2.89.62a35.93,35.93,0,0,0-.92,10.07l2.9-.77-.74-5c-.1-.68-3-.06-2.9.78a55,55,0,0,0,.94,5.55l2.9-.78-.68-2.54c-.2-.75-2.74,0-2.88.62l-.61,2.65,2.88-.63A19.77,19.77,0,0,1,240,47.56l-2.8.75q7.26,3.57,14.25,7.64c.62.36,3.33-.54,2.72-1q-4.22-3.41-8.69-6.5c-.61-.42-2.74,0-2.81.9a6,6,0,0,0,.61,3.2l2.81-.9-1.52-2c-.47-.61-2.27.2-2.68.59a1.64,1.64,0,0,0-.2,2.24c.74,1,2.3,1.17,3.44,1.41l10,2.07c2.68.56,5.42,1.42,7.87-.31a11.54,11.54,0,0,0,2.5-2.93l2.93-4.14-2.75.31-2.78,5.72c-.25.51,1,.39,1.18.36a2.35,2.35,0,0,0,1.69-.84L266.91,52l-2.86.47a14.75,14.75,0,0,1-2.78,6.5l2.76-.31a10.67,10.67,0,0,1,2.74-5.38l-2.77.46a5.36,5.36,0,0,1-1.23,4.33l2.77-.47a5.8,5.8,0,0,1-.15-4.95c.31-.72-2.43-.15-2.75.31a16.76,16.76,0,0,1-3.23,3.39L262,56a7.88,7.88,0,0,1,.08-2.74c.2-.94-2.28,0-2.55.14l-3.41,2.08,2.55-.14a9.15,9.15,0,0,1,2.2-3.41c.77-.77-1.62-.41-1.84-.33l-4.15,1.63,1.37.65a17.5,17.5,0,0,0,3.83-2.55.29.29,0,0,0-.14-.53,32.4,32.4,0,0,0-7.49-.54c-.27,0-2.63.71-2,1.15a20.48,20.48,0,0,0,11.41,3.39l-.71-.57A16.11,16.11,0,0,0,259,57.49c-.63,1.24-.92,2.56-1.42,3.84-1.18,3-5.32,3.18-8.06,2.77l-1.17,1.24a34,34,0,0,1,7-.4l.41-1a22.91,22.91,0,0,1-7.8,1.6l.82.4v-.2l-1.46.4h.32l-.71-.57c.55,0,.55-.07,0-.17a3.86,3.86,0,0,1-.83-.49,10.66,10.66,0,0,1-1.16-1.07c-.48-.49-2.62.08-2.79.75a1.08,1.08,0,0,1-.17.45c.62,0,.77-.12.46-.21,0-.09-.5-.42-.58-.62-.32-.74-2.92,0-2.9.78l0,1.12,2.9-.78a8,8,0,0,1-.07-7.56c1.09-2,3.59-4.27,2.53-6.84-.45-1.1-1.3-1.71-1.45-3-.13-1.08,0-2.22-.63-3.15-1.22-1.68-3.66-1.31-5.07-.08-.12.11-.19.33,0,.44,7.21,5.5,17.76,5.21,25.13.19l-2.56.14-.41,1.15c-.23.65,2.59.33,2.87-.47l.41-1.15c.31-.87-2.31,0-2.55.14-6.1,4.16-14.4,3.37-20.17-1l0,.44c-1.41.08-1.74.27-1,.55a3.39,3.39,0,0,1,.45.4,2.37,2.37,0,0,1,.55,1.29,23.32,23.32,0,0,0,.27,2.65c.28,1,1.19,1.61,1.45,2.6a4.21,4.21,0,0,1-.5,2.88c-1,1.93-2.51,3.34-2.93,5.56a8.51,8.51,0,0,0,.84,5.6c.38.72,2.92,0,2.9-.78l0-1.12-2.9.78c.94,2.21,5.53,1.23,6.06-.87l-2.8.74a5.29,5.29,0,0,0,3.63,2,5.07,5.07,0,0,0,3.73-1.4c.47-.49-.42-.58-.71-.57-1.07,0-2.61.41-2.95,1.58-.12.42.59.41.83.41a29.75,29.75,0,0,0,10.06-2.1c.43-.17,1.54-1,.4-1a41.49,41.49,0,0,0-8.33.48c-.44.07-2.65,1-1.18,1.25a15.72,15.72,0,0,0,10.81-2.08c1.47-1,1.93-2.36,2.45-4a14.81,14.81,0,0,1,2.9-5.2c.43-.51-.38-.57-.71-.57a18.18,18.18,0,0,1-9.91-3.12l-2,1.16a27.06,27.06,0,0,1,6.35.45l-.14-.53a13.35,13.35,0,0,1-2.9,1.91c-.37.18-.77.46-.41.81s1.45,0,1.78-.16l4.16-1.63-1.85-.33a10.12,10.12,0,0,0-2.41,3.74c-.33.88,2.33,0,2.55-.14l3.41-2.08-2.55.14a8.69,8.69,0,0,0-.12,3.05c.1.74,2.27-.06,2.57-.3a18,18,0,0,0,3.63-3.72l-2.76.31a6.24,6.24,0,0,0,.12,5.26c.37.76,2.4,0,2.77-.46A6.14,6.14,0,0,0,266.9,53c-.11-.82-2.49.16-2.77.46a11.46,11.46,0,0,0-3,5.71c-.18.91,2.46.08,2.76-.31a15.44,15.44,0,0,0,3-6.83c.16-.91-2.56-.1-2.86.47l-1.16,2.14,2.87-.48,2.78-5.72c.31-.65-2.41-.18-2.76.31-1.35,1.91-2.63,3.9-4.07,5.73a4,4,0,0,1-.74.84c-.47.28-1.26-.06-1.79-.17l-3.4-.71L249,53a28.54,28.54,0,0,1-3.18-.68c-.82-.26-2.22-1.28-1.23-2.22l-2.68.59,1.52,2c.41.54,3.09-.31,2.81-.9a5.9,5.9,0,0,1-.61-3.2l-2.81.91q4.47,3.07,8.69,6.5l2.72-1q-7-4.05-14.25-7.63c-.66-.33-2.49,0-2.79.74a20.17,20.17,0,0,0,1.61,17.5c.4.65,2.72.08,2.89-.63l.61-2.64-2.89.62.68,2.55c.19.73,3.07,0,2.9-.78A54.48,54.48,0,0,1,242,59.1l-2.9.78.74,4.95c.1.69,2.94.06,2.9-.77a34.51,34.51,0,0,1,.89-9.77l-2.88.62,1.06,8.71c.08.68,2.9.05,2.9-.78l0-10.69c0-.62-2.76,0-2.88.63-1,5.43,2.2,10.39,2.2,15.77l2.81-.9c-2.13-2-5.7-2.4-7.35-4.9-1.18-1.79-.66-4.08-.37-6l1-6.81-2.88.63.58,5.85c.07.68,2.81,0,2.88-.62l.56-4.63c.1-.83-2.75-.28-2.87.47a20.5,20.5,0,0,0-.15,5.8l2.89-.77a23.15,23.15,0,0,1-.61-3.8,17.59,17.59,0,0,1-.05-1.92,2.16,2.16,0,0,1,.2-1c-.18-.19-.06-.23.37-.12a7.25,7.25,0,0,1,3.16,1.07c.83.39,1.65.82,2.51,1.15,4.31,1.67,8.81-.24,12.68-2.15.37-.18.78-.46.42-.81s-1.45,0-1.79.16A12.63,12.63,0,0,0,253,52.4c-.35.36.09.51.39.57a3.34,3.34,0,0,0,1.78-.39l7-3.13-2.29,0-1.36,2.64c-.25.46.85.4,1,.38a2.75,2.75,0,0,0,1.75-.69l4-5.12-2.64.15a27.85,27.85,0,0,0-3.59,6.8c-.28.78,2.51.07,2.87-.47l4.47-6.8-2.87.47-2.91,7.11c-.22.53,1,.4,1.18.37a2.53,2.53,0,0,0,1.69-.84A41.11,41.11,0,0,0,268.32,44c.24-.67-2.55-.29-2.86.47a26,26,0,0,0-2,9.24c0,.72,2.65-.11,2.89-.63q2.79-6.27,5-12.78c.26-.77-2.52-.12-2.87.48a113.36,113.36,0,0,0-6.71,13.41l2.87-.47a36,36,0,0,1,6.63-15.11c.61-.82-2.19-.46-2.65.15Z"/><path class="cls-11" d="M241.16,53.46c-.09.43.14.47.68.12l1.26.43a8.89,8.89,0,0,1-.89-3.92l-2.8.75a3.86,3.86,0,0,1,1.19,2l2.6-1.1c-.76-.49.89-1,1-1,.79-.28,1.6-.53,2.41-.76a48.55,48.55,0,0,1,4.92-1.1l-1.15-.25c.86,1.49,1.73,3,2.59,4.45a3.39,3.39,0,0,1,.52,1.16c0,.52-.17.54-.52.75a20.08,20.08,0,0,0-1.81,1.18A18.06,18.06,0,0,0,247,60.55c-.26.38-.76,1.5-1,1.64l1.46-.39a4,4,0,0,1-1.13-.44l-1.67-.67-3.14-1.29c-.6-.24-3.29.23-2.5,1.29l5.2,6.89,1.9-1.42a7.37,7.37,0,0,1-4.76-2.74c-.55-.66-3.25.1-2.79,1l.9,1.71,2.33-1.19a2.07,2.07,0,0,1-1.42-1.82l-2.89.78c1.2,4.34,5.87,6.83,10.2,6a2.32,2.32,0,0,0,1.45-.68c.2-.27.32-.69-.11-.86a17.22,17.22,0,0,0-6.27-1.13,2.3,2.3,0,0,0-1.91.8c-.35.61.29.84.79.88l4.7.47c.81.08,3-1.13,1.44-1.64-1.31-.42-2.86-.37-4.08-1a22.68,22.68,0,0,1-3.78-2.42,2,2,0,0,0-1.92,0c-.29.13-1.3.77-.77,1.19a24.59,24.59,0,0,0,4,2.62c1.51.78,3.18.74,4.79,1.26l1.44-1.65-4.7-.47-1.12,1.68a13.82,13.82,0,0,1,5.09.88L248,68.25c-3.43.63-6.78-1.91-7.69-5.17-.28-1-3.05-.29-2.89.78A3.23,3.23,0,0,0,240,66.5c.46.13,2.78-.33,2.33-1.19l-.91-1.7-2.79,1a9.36,9.36,0,0,0,6.33,3.27c.57.07,2.55-.55,1.91-1.41l-5.2-6.89-2.49,1.29L243,62.41c1.12.46,2.37,1.22,3.61,1.06s1.92-1.07,2.57-2.13a15.54,15.54,0,0,1,2.17-2.8A15,15,0,0,1,254,56.42c.82-.53,2-1,2.37-1.92.48-1.13-.5-2.31-1-3.23l-2.19-3.76c-.18-.31-.87-.3-1.15-.25a50.49,50.49,0,0,0-8.31,2.07c-1.1.37-2.52.74-3.2,1.78a1.45,1.45,0,0,0,.45,2.11c.62.39,2.84-.1,2.6-1.1a4.82,4.82,0,0,0-1.4-2.43c-.56-.53-2.79-.22-2.8.75a9.9,9.9,0,0,0,.9,4.35c.21.44.83.5,1.26.43,1.12-.18,2.59-.77,2.61-2.12s-2.9-.63-2.91.36Z"/><path class="cls-11" d="M239.87,40.46a9.91,9.91,0,0,0-3.77,7.18c0,.72.72,1.1,1.36,1A1.65,1.65,0,0,0,239,47.46a12.56,12.56,0,0,1,1.57-3.63,12.33,12.33,0,0,1,2.72-3l-2-1.45c-1.62,1.4-1.45,3.62-.23,5.24s3.21,2.15,4.4,3.6L248,46.67a8.29,8.29,0,0,1-3.82-8.81l-2.95.18a2.37,2.37,0,0,1-.44,1.09c-.34.51-.71,1-1,1.52a3.22,3.22,0,0,0-.15,3.22,8,8,0,0,0,1.93,2.1l.47.45c-.17-.17.08.09.11.13l.23.27.17.25s.15.31.05.08c0,.09.07.18.1.27s.07.45.05.2a1.16,1.16,0,0,0,1.37,1c.56,0,1.63-.48,1.58-1.22a4.09,4.09,0,0,0-1.45-2.77c-.33-.33-.69-.64-1-1a3.53,3.53,0,0,1-.73-.82,1.65,1.65,0,0,1-.15-.25c0-.08,0-.06,0,0a1.07,1.07,0,0,1-.07-.19c0-.09,0-.19-.07-.28s0,.15,0-.12a2.41,2.41,0,0,1,.4-1.08,7.23,7.23,0,0,0,1.59-3.16c.07-.72-.75-1.1-1.37-1A1.66,1.66,0,0,0,241.21,38a10,10,0,0,0,4.55,10.38,1.82,1.82,0,0,0,1.93-.05c.44-.29.93-1,.5-1.49-1.14-1.38-2.79-2.06-4.09-3.25-.18-.15.08.1-.06-.05s-.12-.13-.17-.2a4.14,4.14,0,0,1-.34-.48,3,3,0,0,1-.34-.86c0-.11-.07-.38-.08-.4s0-.31,0-.45,0-.16,0,0l.09-.21c.12-.31-.06.08,0-.07s-.23.19.05-.06c.49-.42.73-1.15.13-1.6a1.81,1.81,0,0,0-2.08.15,15.15,15.15,0,0,0-5.28,8.28l2.94-.18a7.83,7.83,0,0,1,.84-3.18,7.25,7.25,0,0,1,2-2.37,1,1,0,0,0,.13-1.6,1.81,1.81,0,0,0-2.09.15Z"/><path class="cls-11" d="M250.16,56l2.79-4c.9-1.31-.91-1.78-1.88-1.34a2.52,2.52,0,0,1-1.56.14l.48,1.78,1.06-.9c.55-.48.77-1.43-.14-1.7a3.77,3.77,0,0,0-4.61,2.51,7,7,0,0,0-.31,2.7c0,.72.16,2-.43,2.6L248,58a9.38,9.38,0,0,1,.09-2.59l-2.8.75.95,1.77c.4.73,1.81.47,2.3,0l-.19.07c.7,0,1.77-.66,1.57-1.49l-.51-2.07c-.27-1.1-2.17-.79-2.67-.07.24-.34.72,0,.13-.22-.32-.14-.64-.27-1-.44l-2.44-1.27-5.06-2.63c-.76-.4-2.22.19-2.3,1.1-.06.67-.14,1.34-.25,2q-.08.49-.18,1c-.09.42-.43.79.23.47l1.48-.11-.11,0,.5.36-.06-.1.15.54,0,.09-1.51.91h.09l-1.27-1.28a10.83,10.83,0,0,0,.95,9.29,18.17,18.17,0,0,0,6.82,6.32l1.94-1.86a8.57,8.57,0,0,1-4.91-4.17l-2.43,1.5L242.2,70l1.23-2a2.87,2.87,0,0,1-2.33-1.35L238.46,68l1.59,1.83a1.72,1.72,0,0,0,2.79-.75c.19-1,.37-2.08.55-3.12.07-.36.21-.73.27-1.09s.36-.23-.21-.16c-.1,0-.42,0-.4.12.21,1.07,1.84.72,2.42.31a15,15,0,0,0,3.31-3.19l-2.69-.35A2.31,2.31,0,0,1,245,63.46l2.44.6a18.19,18.19,0,0,1,1.37-5.45c.45-1.06-.9-1.42-1.66-1.22.51.28.79.23.85-.17a5.45,5.45,0,0,1,.37-.47l-2.33.4.91.63a1.88,1.88,0,0,0,2.09-.17,4.72,4.72,0,0,0,1.66-2.18c.58-1.59-2.32-1.63-2.78-.37a2.33,2.33,0,0,1-.82,1.17l2.08-.16-.91-.63a1.88,1.88,0,0,0-2.33.4c-.64.75-1.26,1.73-.77,2.71a2.11,2.11,0,0,0,2.53.9L246,58.24a20.2,20.2,0,0,0-1.53,6c-.12,1.32,1.78,1,2.44.59A4.63,4.63,0,0,0,249,61.37c.12-1.4-2.13-1.1-2.69-.36a12.25,12.25,0,0,1-2.81,2.71L246,64c-.37-1.89-3.07-1.66-4.21-.72a3.94,3.94,0,0,0-1.21,2.37c-.24,1.18-.42,2.39-.63,3.58l2.8-.75-1.6-1.83c-.85-1-3.55,0-2.64,1.29a5.47,5.47,0,0,0,4.73,2.25c.94,0,2.19-1.11,1.23-2l-4.71-4.1c-.9-.78-3.11.25-2.43,1.5a10.37,10.37,0,0,0,5.89,4.89,2,2,0,0,0,1.93-.43c.37-.37.59-1.09,0-1.43-4.6-2.66-9.4-7.75-7.21-13.53.34-.9-.53-1.28-1.27-1.28h-.09a1.8,1.8,0,0,0-1.51.91,1.06,1.06,0,0,0,.57,1.49,2.16,2.16,0,0,0,2.34-.6,4.79,4.79,0,0,0,.72-2.26,26.58,26.58,0,0,0,.37-2.66l-2.3,1.1,7,3.65c1.64.86,4.08,1.72,5.41-.18l-2.67-.07.51,2.08,1.57-1.49a3,3,0,0,0-2,.75l2.29,0-1-1.77c-.58-1.07-2.63-.24-2.79.75a11.22,11.22,0,0,0,0,3.17c.12,1,1.92.78,2.42.31a5,5,0,0,0,1.43-4A7.8,7.8,0,0,1,249,53a2.64,2.64,0,0,1,.37-.86c.33-.49.27-.12-.13-.23l-.14-1.7-1.06.91a1,1,0,0,0,.48,1.77,6.47,6.47,0,0,0,3.85-.53L250.51,51l-2.79,4c-1.05,1.53,1.66,2,2.44.91Z"/><path class="cls-11" d="M264,47.34a6,6,0,0,0,2.6-1.55,4.67,4.67,0,0,0,1.22-2.19.54.54,0,0,0-.31-.57,1.66,1.66,0,0,0-1-.13,2.45,2.45,0,0,0-1.09.38,1.15,1.15,0,0,0-.54.65,3.93,3.93,0,0,1-.19.58l.1-.23a4.47,4.47,0,0,1-.61,1l.18-.22a4.27,4.27,0,0,1-.61.59l.26-.21a3.9,3.9,0,0,1-.54.36l.32-.18a3.32,3.32,0,0,1-.51.23l.37-.13-.11,0a2.35,2.35,0,0,0-1,.51.59.59,0,0,0,.3,1.11,2.08,2.08,0,0,0,1.08,0Z"/><path class="cls-11" d="M265.29,58.1l-18.83-9.17-4.71-2.29c-1.32-.64-3-1.85-4.51-1.93-3-.15-3.46,3.94-3.85,6.12-1,5.73-.28,12.35,2.81,17.39a10.27,10.27,0,0,0,6.57,4.88c3,.61,5.75-.74,8.34-2a74.72,74.72,0,0,0,9.18-5.49c2.48-1.74,5.14-3.7,5.67-6.87.24-1.39-2.18-1.12-2.69-.37a22.44,22.44,0,0,1-13.63,9.3c-5.73,1.25-13.15-.42-14.6-7a25.12,25.12,0,0,1,.27-9.5,11.33,11.33,0,0,1,.74-2.49,6.47,6.47,0,0,1,.36-.75c.42-.76,0-.3.65-.27a9.69,9.69,0,0,1,2.23,1L242,49.9l9.82,4.49c2.92,1.33,6.44,2.51,8.9,4.64,1.71,1.48-1.62,3.21-2.7,3.92a48.59,48.59,0,0,1-4.67,2.63c-1.58.8-3.18,1.55-4.79,2.29a16.84,16.84,0,0,1-5.36,1.82c-.75.08-2.09.84-1.44,1.77a2,2,0,0,0,2.79.17,1.2,1.2,0,0,0-.42-2.15c-1-.27-2.78.38-2.15,1.67.8,1.65,2.88,2,4.53,1.87a23,23,0,0,0,6.46-1.41,28,28,0,0,0,11-7.15.91.91,0,0,0-.39-1.48,2,2,0,0,0-2,.55,24.1,24.1,0,0,1-8.35,5.71,23,23,0,0,1-4.75,1.36c-1.25.21-3.1.64-3.77-.75l-2.15,1.66-.38-.49.82-1-.17.09,1.14-.19-.2,0,.83.45-.11-.17-1.44,1.77c3.91-.39,7.63-2.51,11.1-4.23,1.76-.88,3.48-1.81,5.15-2.86s3.51-2.07,4.51-3.7c2.15-3.5-3.64-5.68-6-6.81-4-1.91-8-3.69-12.06-5.53l-6.25-2.86c-1.68-.77-3.5-1.21-4.92.34C232,49,232,53.66,231.85,57.06c-.13,3.71.62,7.1,3.41,9.7a14.48,14.48,0,0,0,9.89,3.52,25.38,25.38,0,0,0,20.56-11L263,58.89c-.4,2.38-2.65,3.84-4.49,5.13a68.94,68.94,0,0,1-6.9,4.28c-2,1.06-4.53,2.79-6.86,2.74-2.51-.06-4.56-2-5.82-4-2.67-4.22-3.41-9.81-2.87-14.69a25.28,25.28,0,0,1,.7-3.77,7.56,7.56,0,0,0,.53-1.7l.05-.14c-.7.1-.83.22-.4.36.22.29,1,.49,1.34.65l7.85,3.82,17.49,8.52c1.26.61,3.32-1.21,1.65-2Z"/><path class="cls-11" d="M244,52.74a6.57,6.57,0,0,0-2.26,5.07c.06,1.6,2.3,1,2.87.1l.82-1.37c.81-1.35-1.95-1.62-2.62-.67a2.36,2.36,0,0,0,.72,3.48,3.8,3.8,0,0,0,4.18,0c1.61-1,5-6.76,1.27-7.08a1.88,1.88,0,0,0-1.88.91c-1,2-4.38,8.93-.27,9.8,2.08.44,3.67-1.33,4.85-2.78a18,18,0,0,0,3-5.44c.52-1.48-1.58-1.47-2.37-.92a14.25,14.25,0,0,0-6,10.5c-.09,1.08,1.43,1.21,2.13.82a10.21,10.21,0,0,0,5.41-9c0-1.9-1-3.52-3.14-3-2,.47-2.93,2.27-3.7,3.95s-1.74,3.49-1.21,5.23,2.57,1.86,3.91,1c3.25-2.17,4.95-6.62,4.72-10.4-.06-1.16-1.71-1.33-2.44-.63a18.31,18.31,0,0,0-5.64,15.07c.09.92,1.6.79,2.11.53a14,14,0,0,0,6.69-7.17,5.67,5.67,0,0,0,.38-4.1,2.66,2.66,0,0,0-3.37-1.57c-1.67.49-2.65,2.24-3.52,3.62a16.63,16.63,0,0,0-2.37,4.84,3.23,3.23,0,0,0,.79,3.31c1.31,1,3.09.28,4.15-.73A17.57,17.57,0,0,0,256.3,55.3c.14-1.34-1.79-1.06-2.45-.62a10,10,0,0,0-4.46,9.49c.11,1.12,1.88.68,2.42.33a12.67,12.67,0,0,0,5.52-12.1c-.16-1.25-2.16-.66-2.68-.09a12,12,0,0,0-2.9,6c-.31,1.8-.38,4.47,2.16,4.31,2.06-.12,3.5-2.07,4.29-3.79a9.36,9.36,0,0,0,.5-6.34c-.31-1.14-2.12-.79-2.68-.08a12,12,0,0,0-2.36,4.9c-.34,1.53-.66,3.83,1.11,4.59,3.6,1.56,6-4,6.19-6.65.09-1.44-.64-2.83-2.23-2.84-1.88,0-2.76,1.83-3.48,3.28-1,2-4.06,9.17.31,9.28,4.56.12,5.45-6.47,4.68-9.72-.21-.88-1.5-.83-2.11-.53a12,12,0,0,0-6.7,10.49c0,.93,1,1.14,1.76,1a8.52,8.52,0,0,0,6.59-7.27c.16-1.5-2.45-1.15-2.86-.1-.58,1.47,1,2.12,2.23,1.94a2.66,2.66,0,0,0,1.79-.94c.56-.71.32-1.65.76-2.35.92-1.47-1.23-2-2.2-1.19a2.94,2.94,0,0,0-1.14,3.11c.31,1.28,2.43.72,2.84-.19,1.46-3.26,2.14-8.59-.53-11.49a3.61,3.61,0,0,0-4.54-.73c-1.29.75-2.28,2.4-1.23,3.75a1.68,1.68,0,0,0,2,.26A6.73,6.73,0,0,0,261.2,44c-.08-.92-1.6-.78-2.11-.53a4.14,4.14,0,0,0-1.92,5.79c.43.74,1.79.52,2.3.07a9,9,0,0,0,3.07-8.25c-.14-.87-1.57-.84-2.11-.52a5,5,0,0,0-2.42,6c.37,1,1.72.86,2.42.33a8.32,8.32,0,0,0,3.11-4.41c.38-1.39.39-3.14-1.33-3.51s-3.25,1.3-3.79,2.84A6,6,0,0,0,259,47c.37.61,1.46.56,2,.26a6,6,0,0,0,3.29-5.37c0-1.25-1.7-1.2-2.45-.63a5.41,5.41,0,0,0-1.47,7c.45.78,1.75.46,2.3.06C266,45.89,267.1,41.84,268,38c.83-3.64,1.5-8,4.91-10.17l-1.95-1.44a26.53,26.53,0,0,0-9.33,16.77l2.94-.18.26-2.9c.12-1.37-2.16-1.22-2.7-.38L260.63,42c-1,1.57,1.65,2.12,2.45.94a7.47,7.47,0,0,0,1.34-3.64c.14-1.56-2.82-1.21-2.95.19a5.11,5.11,0,0,1-.84,2.51l2.45.94,1.48-2.35-2.69-.38-.26,2.9c-.14,1.58,2.76,1.18,2.94-.18a23.94,23.94,0,0,1,8.34-15.15,1,1,0,0,0,.13-1.59,1.86,1.86,0,0,0-2.08.15c-3.48,2.22-4.63,6.26-5.51,10s-1.45,8.11-4.72,10.47L263,47a3.35,3.35,0,0,1,.78-4.29L261.34,42a3.61,3.61,0,0,1-1.66,3.36l2,.26a4.12,4.12,0,0,1-.61-2.44c0-.67.26-1.94,1-2.22l-1.14.19c-.14-.2-.16-.13-.05.19a3.74,3.74,0,0,1-.09.66,5.34,5.34,0,0,1-.45,1.29,5.69,5.69,0,0,1-1.82,2.16l2.43.33a2.77,2.77,0,0,1,.84-3.38l-2.11-.53a6.69,6.69,0,0,1-2.12,6l2.3.06a2,2,0,0,1,.59-2.65l-2.11-.52a4.21,4.21,0,0,1-2.74,4.3l2,.26a.46.46,0,0,1,.13-.75c-.11,0,.53.55.68.74a6.15,6.15,0,0,1,1,2.69,11.44,11.44,0,0,1-.91,6.7l2.85-.19a.79.79,0,0,1,.19-.9l-2.2-1.19a4,4,0,0,0-.54,1.16,5.43,5.43,0,0,0-.13.68c-.22.61.15.89,1.12.85l-2.86-.1a5.6,5.6,0,0,1-4.22,5l1.76,1a9.39,9.39,0,0,1,5.07-8.47L257.34,56a8.52,8.52,0,0,1,.11,3.59,7.27,7.27,0,0,1-.59,1.87,4.28,4.28,0,0,1-.39.73,1.46,1.46,0,0,1-.33.37c-.17.13-.17.14,0,0s.12-.57.13-.7a9.53,9.53,0,0,1,.17-1.07,16.83,16.83,0,0,1,.46-1.86,20.36,20.36,0,0,1,1.57-3.69,8.18,8.18,0,0,0,.45-.74l-1,0,.08.25c-.1.43,0,1-.11,1.51a7.47,7.47,0,0,1-1.43,3.27c-.39.44-.11,0,0-.26a7.79,7.79,0,0,0,0-.84,9.25,9.25,0,0,1,.34-1.89,9.87,9.87,0,0,1,1.74-3.28l-2.67-.08a7.64,7.64,0,0,1,.11,3.71,6.9,6.9,0,0,1-.66,1.79,6.57,6.57,0,0,1-.61,1c-.12.15-.55.48-.58.61-.21.11-.14.12.19,0s.43-.13.29-.47a6.37,6.37,0,0,0,.05-1,8.73,8.73,0,0,1,.41-2,9.9,9.9,0,0,1,2.1-3.6l-2.67-.09a10.37,10.37,0,0,1-4.57,9.89l2.42.33a7.83,7.83,0,0,1,3.52-7.28l-2.45-.62a15.59,15.59,0,0,1-3.21,8.09c-.2.26-.42.52-.64.77a7.18,7.18,0,0,0-.78.78h.49a.4.4,0,0,1-.09-.2c0-.14-.09-.41-.09-.58-.05-1.28.81-2.58,1.41-3.66.36-.66.76-1.31,1.18-1.93.24-.36.49-.72.75-1.06l.21-.27c.3-.22.31-.29,0-.21s-.25.06-.06.22l.09.27a2.37,2.37,0,0,1,.11.88,5.07,5.07,0,0,1-.4,1.62,11,11,0,0,1-5.29,5.9l2.11.53a16,16,0,0,1,4.69-12.86l-2.45-.63a10.17,10.17,0,0,1-2.72,7.9,5.22,5.22,0,0,0-.58.56l.59.19-.08-.17c.08-.35-.1-.84,0-1.24a11.82,11.82,0,0,1,.67-1.8A19.08,19.08,0,0,1,251,55.49c.2-.3-.14.18-.17.29a5.21,5.21,0,0,0,.06,1,7.74,7.74,0,0,1-3.79,6.62l2.13.82a11.86,11.86,0,0,1,5.05-8.87l-2.37-.92A16.35,16.35,0,0,1,250.16,58c-.34.51-.71,1-1.1,1.48-.15.18-1.35,1.33-1,1.42-.74-.19,0-2.66.1-3a24.28,24.28,0,0,1,1.69-4.25l-1.88.91c-.56-.05-.27-.28-.37.33a3.45,3.45,0,0,1-.2.62,6.77,6.77,0,0,1-.81,1.72c-.28.37-.39.62-.78.48-.19-.07-.79-.57-.59-.85l-2.62-.67-.82,1.37,2.87.1a4.38,4.38,0,0,1,1.26-3.44c1.43-1.34-.83-2.49-1.95-1.44Z"/><path class="cls-10" d="M270.62,37.82c-.46,7.5-3.55,14.45-6.58,21.21a25.43,25.43,0,0,1-5.37,8.32,18.94,18.94,0,0,1-7.76,4.45,16.25,16.25,0,0,1-9.14.21c-3.19-1-5.53-4.51-7.17-7.27-3.88-6.51-1.87-13.75,1.78-19.87,4-6.75,9.67-12.4,13.22-19.45.7-1.38-2.22-1.24-2.74-.22-3.49,6.93-9,12.5-13,19.08-3.89,6.37-6.15,14-2.37,20.93,1.64,3,4.11,6.64,7.32,8.11,3,1.38,6.76,1.38,10,.83a23,23,0,0,0,16-11,88.51,88.51,0,0,0,5.54-12.42,45,45,0,0,0,3.17-13.22c.08-1.37-2.85-.88-2.92.28Z"/><path class="cls-10" d="M274.18,36.57c-3.45-2.59-7.54-4.18-11.43-6L250,24.76A2.33,2.33,0,0,0,248,25c-.38.24-.89.85-.25,1.14L260,31.81c3.87,1.78,8.06,3.32,11.48,5.89a2,2,0,0,0,1.92,0c.27-.12,1.31-.77.77-1.17Z"/><path class="cls-5" d="M224.46,89.05c2,.84,3.95,1.76,5.87,2.76.92.48,1.83,1,2.74,1.5a7.47,7.47,0,0,1,2.29,1.55,1,1,0,0,1,.15,1c-.21.33.13.24,1-.28l-.17-.07c-.19-.12-.39-.21-.57-.35-.82-.63-1.55-1.4-2.31-2.11l-5-4.58-2.73,1,8.54,7.74c.48.43,3.15-.34,2.81-.9a3.84,3.84,0,0,1-.55-2.68l-1.69.84,2.38-.28c.37-.05,2.4-.77,1.44-1.2l-10.8-4.83a2.77,2.77,0,0,0-1.7.2c-.16.06-1.14.49-.93.79a10.24,10.24,0,0,0,4,3.39,2.51,2.51,0,0,0,1.88-.11c.13,0,1.34-.67.84-.91a9.89,9.89,0,0,1-3.81-3.15l-2.63,1,10.79,4.82,1.44-1.2-2.39.28c-.38,0-1.59.34-1.68.84a4.17,4.17,0,0,0,.52,3l2.81-.9-8.53-7.74c-.61-.55-3.26.53-2.73,1l4.71,4.35c.75.7,1.49,1.41,2.26,2.09a3.44,3.44,0,0,0,2.47.95c1.5-.08,4.49-1.32,2.74-3.15a9.5,9.5,0,0,0-2.27-1.47q-1.31-.75-2.64-1.44c-2-1.07-4.11-2-6.22-2.93a2.82,2.82,0,0,0-2,.34c-.34.18-.92.6-.33.85Z"/><path class="cls-5" d="M234.45,93.34a.75.75,0,0,1,.16-.15l-.2.15.13-.09-.27.15.1-.05-.33.14.08,0-.38.12.09,0-.39.08h.09l-.36.05H233a.86.86,0,0,1,.16,0l-.25,0,.17,0a1.42,1.42,0,0,0,.41,0,2.22,2.22,0,0,0,.51-.06,3.77,3.77,0,0,0,.58-.14,3.39,3.39,0,0,0,.53-.2l.27-.15a.89.89,0,0,0,.32-.29l0-.13a.28.28,0,0,0-.25-.17l-1.55-.49a1.13,1.13,0,0,0-.41,0,2.21,2.21,0,0,0-.51.05,2.74,2.74,0,0,0-.58.15,3.35,3.35,0,0,0-.53.19l-.27.15a.77.77,0,0,0-.32.3l0,.13a.31.31,0,0,0,.25.17l1.55.48,2.39-1.11a2,2,0,0,0-.59-.08,5.33,5.33,0,0,0-1.32.19,5,5,0,0,0-1.24.51,1.84,1.84,0,0,0-.46.36.25.25,0,0,0-.13.22c0,.07,0,.12.07.16a.52.52,0,0,0,.3.08,1.3,1.3,0,0,0,.44,0,4.42,4.42,0,0,0,1.13-.26l.33-.13a2.41,2.41,0,0,0,.48-.3Z"/><path class="cls-5" d="M238.32,96.92a49.48,49.48,0,0,0-12.64-2.34c-1.43-.09-3.7.52-4.46,1.86s.68,2,1.84,2a44.05,44.05,0,0,1,11.13,2.16c2.18.71,7.91-2.48,4.13-3.71Z"/><path class="cls-5" d="M240.53,99.92a15.17,15.17,0,0,0-8.36,1.76,10.43,10.43,0,0,0-1.31.84c-.2.15-1.24.83-.31.3l2.57-.82c.83-.16-.89.37-.53-.54.49-1.24-2.26-.94-2.76-.86-1.13.18-3.43.7-3.93,2-1,2.5,3,2.46,4.46,2.43a9.9,9.9,0,0,0,4.17-1,3.77,3.77,0,0,0,1.47-1,.59.59,0,0,0,.35-.3c-.87.11-.92.18-.15.2a7.48,7.48,0,0,0,4.79-1.28c1-.78.91-1.58-.46-1.72Z"/><path class="cls-5" d="M233.89,104a196.29,196.29,0,0,0-11,26.57l6.1-1.94c-1.68-.7-7.85-2.66-8.41-4.63-.18-.63,3.1-4.19,3.48-5.39,1.73-5.58-2.24-11.38-1-16.92l-6.52,1.75c2.89,3.64,5.24,6.21,4.87,11.13a63.11,63.11,0,0,1-2.07,11.89c-.55,2,5.91,0,6.69-1.13,3.38-4.85,3.81-10.63,6.61-15.66,2.41-4.33-2.36-4-4.78-7.13-1.06-1.37-7.51.87-6.36,2.37s2.76,2,4.09,3.2c2,1.75-.12,2.83-1.06,4.83-2.16,4.57-2.16,9.18-5.19,13.52l6.69-1.13a67,67,0,0,0,2.22-13.28c.32-4.8-2.53-7.43-5.36-11-1-1.2-6.21.32-6.52,1.75-.81,3.66.47,7.1.93,10.75.64,5.11-.15,8-4.16,11.34-.26.22-.47.75-.1,1a65.29,65.29,0,0,0,10.44,5.48c1.35.56,5.57-.32,6.1-1.94a197.64,197.64,0,0,1,11.05-26.57c.59-1.16-5.78-.68-6.69,1.13Z"/><path class="cls-5" d="M223.93,86.12l-2.54,4.49a22,22,0,0,0-2.06,3.93c-.82,2.65,1.27,4.93,1.7,7.44l1.72-.81a3.75,3.75,0,0,0-2.3-.77,5.72,5.72,0,0,0-2.42.76c-1.91.82-.7-4.42-.49-5.28a7.4,7.4,0,0,1,3-4.51,11.83,11.83,0,0,0,3.79-3.27c.2-.32-.07-.64-.36-.75a1.37,1.37,0,0,0-1.19.22,11.23,11.23,0,0,0-4.67,12.54c.27.89,1.75.33,1.94-.34a11.34,11.34,0,0,0,.17-5.4c-.19-.89-2-.36-1.94.52a49,49,0,0,0,1.06,6.24c.2.82,1.91.41,1.95-.33a15.36,15.36,0,0,0-.35-4c-.18-.8-2-.42-1.94.34a10.47,10.47,0,0,1-.24,2.84l1.94-.34-1.3-2.77c-.32-.7-1.93-.51-1.94.33l0,3.34,1.95-.33-.62-1.29c-.38-.82-1.72-.41-1.94.33a3.23,3.23,0,0,0-.15,1l1.95-.33a2.61,2.61,0,0,1-.27-1.34l-1.94.34.32,2.27,1.71-.81-.93-.67c-.43-.32-1.76-.07-1.72.62a15.42,15.42,0,0,0,.64,3.81c.27.89,2,.36,1.93-.52a3.3,3.3,0,0,1,.38-2.31c.54-.68,1.51-.28,2.11.12,1.41.92,2.23,2.54,3.61,3.53a9.12,9.12,0,0,0,8.6.9c.36-.14.72-.6.46-1s-.94-.28-1.31-.13a6.66,6.66,0,0,1-5.25-.3c-1.82-.88-2.75-2.64-4.27-3.87a4.29,4.29,0,0,0-4.58-.63c-1.58.83-1.85,2.57-1.68,4.18l1.93-.52a14.37,14.37,0,0,1-.62-3.44l-1.72.62.92.68c.56.41,1.83,0,1.72-.81l-.32-2.27c-.12-.83-1.9-.4-1.94.34a3.28,3.28,0,0,0,.29,1.69c.31.7,1.94.5,1.94-.33a3.19,3.19,0,0,1,.15-1l-1.95.33.62,1.29c.32.7,1.93.51,1.94-.33l0-3.34-1.95.33,1.3,2.78c.37.78,1.76.43,1.94-.34A9.67,9.67,0,0,0,221,97l-1.94.34a13.42,13.42,0,0,1,.32,3.63l1.94-.34a46.71,46.71,0,0,1-1-6.24l-1.94.52a10.37,10.37,0,0,1-.19,5l1.95-.34a9.92,9.92,0,0,1,4-11.17l-1.56-.53c-1,1.61-3,2.29-4.38,3.53a9.51,9.51,0,0,0-2.68,5.19c-.37,1.69-1.21,4.4.45,5.66a2.52,2.52,0,0,0,2.49.23c.42-.17.78-.49,1.21-.63a1.76,1.76,0,0,1,1.65.4c.54.41,1.85,0,1.72-.81-.42-2.4-2.64-4.8-1.58-7.3a37.52,37.52,0,0,1,2-3.67l2.36-4.17c.52-.92-1.44-.92-1.85-.2Z"/><path class="cls-12" d="M213.94,125.6a103.2,103.2,0,0,0,16.53,7.56c.24.09.59-.06.56-.35-.94-9,5.56-16.24,8.7-24.11a24.7,24.7,0,0,0,1.55-5.51c.17-1.16.59-2.94-.93-3.28a12.35,12.35,0,0,0-2.85,0c-1.14,0-2.28,0-3.41.09q-3.54.14-7.06.36a.46.46,0,0,0-.38.23c-1,2.71,1.56,4.57,3.93,5a10.71,10.71,0,0,0,8.21-2.08c.39-.29-.18-.59-.49-.36a9.72,9.72,0,0,1-6.68,2c-2.21-.18-5.34-1.67-4.27-4.43l-.38.23q3.17-.19,6.33-.32c1.14,0,2.27-.08,3.41-.11a14.27,14.27,0,0,1,2.92,0c1.6.33,1,2.11.84,3.24a22,22,0,0,1-.77,3.08,38.42,38.42,0,0,1-2.22,5.25c-3.31,6.63-8,13.22-7.17,21l.57-.35a104.86,104.86,0,0,1-16.39-7.48c-.29-.17-.92.23-.55.43Z"/><path class="cls-12" d="M231.93,100q-4.92-1.67-9.8-3.45l.16.21c.06-1.74,3.7-.72,4.78-.57l4.57.64c1.51.21,3,.41,4.52.69a8,8,0,0,1,2.35.64c.51.29,1.23,1.32.43,1.75-.43.24,0,.6.32.41,1.28-.71.68-2.19-.44-2.7a11.66,11.66,0,0,0-2.74-.66c-1.22-.23-2.45-.4-3.67-.57l-7.11-1c-1.25-.17-3.68-.49-3.75,1.42a.21.21,0,0,0,.16.21q4.88,1.77,9.79,3.44c.3.1.85-.32.43-.47Z"/><path class="cls-12" d="M237.71,97.17a3.31,3.31,0,0,0,.62-4.76,6,6,0,0,0-2.68-1.47l-3.88-1.41-3.89-1.41-1.94-.7A3.51,3.51,0,0,0,224.5,87a1.08,1.08,0,0,0-1,1.38c.24.91,1.27,1.62,2,2.13A24.2,24.2,0,0,1,228.69,93a13.94,13.94,0,0,1,2.4,3.21c.13.23.83,0,.67-.3a14.5,14.5,0,0,0-4.64-5,8.24,8.24,0,0,1-2.73-2.31c-.11-.19-.33-.72-.1-.94s.81.08,1.08.18l1.94.71,7.77,2.82c1.19.43,2.45.82,3,2.07a2.94,2.94,0,0,1-.85,3.5c-.39.3.21.47.46.27Z"/><path class="cls-12" d="M223.78,89.36c.25,2-2,3.26-2.89,4.86-1.07,2,.11,3.91,1.25,5.55,3.11,4.5,5.73,9.74,4.74,15.37,0,.33.68.23.74-.07.91-5.22-1.25-10.27-4.09-14.54-1.55-2.33-3.41-4.59-1.28-7.19,1-1.26,2.48-2.38,2.26-4.17,0-.3-.77-.13-.73.19Z"/><path class="cls-12" d="M214.53,125.35c1.14-2,2.3-3.94,3.44-5.91a7.29,7.29,0,0,0,1.24-5.31c-.41-2.09-1.3-4.14-1.9-6.2s-1.18-4.25-1.65-6.41c-.91-4.11-.93-8.11,2.47-11.06,2.45-2.12,5.49-3.41,7.78-5.74l-.67-.09a9.43,9.43,0,0,1-2.42,7c-.3.34.39.47.61.22A9.82,9.82,0,0,0,226,84.58c0-.35-.49-.26-.67-.08-2.4,2.44-5.68,3.72-8.15,6.07s-3.13,5.64-2.62,9.06a82.68,82.68,0,0,0,3.48,13,8.33,8.33,0,0,1,.59,3.34,8.11,8.11,0,0,1-1.21,3.18c-1.16,2-2.37,4.07-3.56,6.1-.2.35.53.37.7.09Z"/></g><path class="cls-13" d="M127.42,13.5c-2.48-7-6.17-11.17-13.5-9.85s-13.54,6-19.4,10.54c-4.9,3.81-9.8,7.71-13.69,12.54S74.09,37.47,74,43.67c-.1,5.27,1.7,11.86-.56,16.62,1.29-7,2.6-14.15,5.45-20.71a47.46,47.46,0,0,1,21.34-22.95c9.43-4.94,15.58-6.54,26-4.46,1,.2,2.29.74,2.24,1.79"/><path class="cls-13" d="M128.87,13.11c-1.66-4.61-4.32-9.32-9.55-10.28-6.12-1.12-12.78,2.09-17.79,5.26-3,1.88-5.75,4-8.51,6.17s-5.59,4.39-8.19,6.81c-5,4.67-9.51,10.27-11.41,17a30.48,30.48,0,0,0-.61,11.18C73.13,53,73.57,57,72,60.49l2.89-.4A111.45,111.45,0,0,1,79,42.63,46.74,46.74,0,0,1,86.64,29,46.07,46.07,0,0,1,97.72,19a47.46,47.46,0,0,1,13.75-6.19,26.67,26.67,0,0,1,7.61-.68,38.19,38.19,0,0,1,4.51.51c1.13.18,3.32.24,3.44,1.75.07.85,3,.26,2.9-.78-.2-2.49-4.88-2.56-6.63-2.77a35.79,35.79,0,0,0-7.81-.13c-5.38.53-10.4,2.63-15.17,5.06A49.24,49.24,0,0,0,77.74,39.06C74.66,45.84,73.31,53.21,72,60.49c-.21,1.14,2.56.33,2.89-.4,2.54-5.64.16-12,.61-17.88.5-6.5,3.86-12.38,8.12-17.16,4.4-4.95,9.81-9,15.09-13,4.78-3.57,10.54-7.58,16.72-7.88,5.82-.28,8.83,4.88,10.56,9.7.34.95,3.21.1,2.9-.78Z"/><path class="cls-13" d="M76.7,64l.19-.19A4.1,4.1,0,0,0,78,62a4.05,4.05,0,0,0,.47-2.12A4.1,4.1,0,0,0,78,57.75,4.1,4.1,0,0,0,76.89,56l-1.11-.86A5.62,5.62,0,0,0,73,54.37l-1.46.2A5.44,5.44,0,0,0,69.12,56l-.2.19a4.17,4.17,0,0,0-1.13,1.77,4.11,4.11,0,0,0-.48,2.12,4.06,4.06,0,0,0,.48,2.12A4.17,4.17,0,0,0,68.92,64l1.12.86a5.41,5.41,0,0,0,2.77.75l1.47-.19A5.46,5.46,0,0,0,76.7,64Z"/><path class="cls-14" d="M148.24,44.13c1.81-5.2-1.79-10.62-5.42-14.75-6.08-6.91-8.26-12.47-15.59-18-.44-.34-5.5-1.41-6-1.57a4.66,4.66,0,0,0-2.1,0C111.57,11,104,13.09,97.71,17.35s-11.3,11-12.12,18.54a1.93,1.93,0,0,0,.18,1.32c.4.61,1.29.61,2,.54,19.35-1.84,39.59-2.26,57.43,5.49"/><path class="cls-14" d="M149.69,44c1.74-5.37-1.64-10.62-5-14.55s-6.25-8.29-9.55-12.3a39.22,39.22,0,0,0-5.37-5.41,7,7,0,0,0-2-1.38c-.69-.23-1.4-.4-2.11-.57a37.36,37.36,0,0,0-4.31-1,15.09,15.09,0,0,0-4.22.49c-1.44.26-2.87.55-4.28.89-10.34,2.49-20.74,7.72-26,17.42a24.12,24.12,0,0,0-2.5,7c-.18,1-.57,2.39.08,3.26s1.89.92,2.87.86c6-.33,11.86-1,17.83-1.1,13.23-.24,26.69,1.15,39,6.43a2.23,2.23,0,0,0,2.06-.24c.37-.25.89-1,.22-1.26-10-4.31-20.8-6.2-31.64-6.65-5.42-.23-10.86-.11-16.27.2-2.76.16-5.52.37-8.27.61-1,.09-3,.78-3.16-.57a9.8,9.8,0,0,1,.57-3.33c2.57-10,11.6-16.59,21-19.65a65.13,65.13,0,0,1,7.69-2,11.64,11.64,0,0,1,4-.52c.48.08,1,.23,1.44.34A22.53,22.53,0,0,1,126,12a13.85,13.85,0,0,1,2.23,1.81c.88.79,1.72,1.62,2.53,2.49,3.54,3.81,6.25,8.3,9.57,12.29,3.6,4.32,8.43,9.54,6.45,15.65-.36,1.12,2.56.76,2.91-.31Z"/><path class="cls-13" d="M83.45,46c1.23-2,3.91-2.3,6.23-2.4A227.22,227.22,0,0,1,149,48.93c1.31-2.12.3-5-1.6-6.66s-4.44-2.21-6.88-2.71a185.61,185.61,0,0,0-55.4-2.79,3.52,3.52,0,0,0-1.44.36c-2.27,1.33.48,5.11-.76,7.44"/><path class="cls-15" d="M88.69,125.65c8.5,8.17,6.4,21.92,5.06,33.63a147.75,147.75,0,0,0,7,64.47,21.44,21.44,0,0,0,3.22,6.58,20.18,20.18,0,0,0,6.58,4.84,82.7,82.7,0,0,0,50.54,8.38,4.56,4.56,0,0,0,4.7-4.35c1.83-8,2-16.3,2.08-24.52.25-29-1-59.45-15.4-84.67-1.44-2.51-3.07-5-5.52-6.57s-5.91-1.81-8.09.09c-4.28,3.73-.82,12.25-5.42,15.59-2.81,2-6.91.55-9.4-1.89s-4.07-5.67-6.63-8c-6.79-6.29-17.51-4.43-26.49-2.17"/><path class="cls-16" d="M138.46,149.7c3.22,0,3.22-5,0-5s-3.22,5,0,5Z"/><path class="cls-16" d="M143,160.13c3.22,0,3.22-5,0-5s-3.22,5,0,5Z"/><path class="cls-16" d="M145.63,172.51c3.21,0,3.22-5,0-5s-3.23,5,0,5Z"/><path class="cls-16" d="M149.54,182.49h-.41c-3.21,0-3.22,5,0,5h.41c3.21,0,3.22-5,0-5h-.41c-3.21,0-3.22,5,0,5h.41c3.21,0,3.22-5,0-5Z"/><path class="cls-16" d="M152.14,201.83c3.22,0,3.23-5,0-5s-3.22,5,0,5Z"/><path class="cls-16" d="M155.4,217.47c3.22,0,3.22-5,0-5s-3.22,5,0,5Z"/><path class="cls-16" d="M157.36,234.41c3.21,0,3.22-5,0-5s-3.23,5,0,5Z"/><path class="cls-16" d="M122.28,143.94v.66a2.43,2.43,0,0,0,1.53,2.28,1.9,1.9,0,0,0,1,.22l.66-.09a2.52,2.52,0,0,0,1.1-.65l.39-.5a2.54,2.54,0,0,0,.35-1.26v-.66a1.88,1.88,0,0,0-.22-1,2.3,2.3,0,0,0-1.32-1.32,1.88,1.88,0,0,0-1-.22l-.67.09a2.52,2.52,0,0,0-1.1.65l-.39.5a2.43,2.43,0,0,0-.34,1.26Z"/><path class="cls-16" d="M130,158.82c3.22,0,3.22-5,0-5s-3.22,5,0,5Z"/><path class="cls-16" d="M132.05,172v.65a2.83,2.83,0,0,0,.73,1.77,2.75,2.75,0,0,0,1.77.73l.66-.09a2.39,2.39,0,0,0,1.11-.64l.39-.5a2.57,2.57,0,0,0,.34-1.27V172a1.88,1.88,0,0,0-.22-1,2.16,2.16,0,0,0-1.32-1.32,1.86,1.86,0,0,0-1-.22l-.66.09a2.48,2.48,0,0,0-1.11.64l-.39.51a2.43,2.43,0,0,0-.34,1.26Z"/><path class="cls-16" d="M136.5,190.75c3.22,0,3.23-5,0-5s-3.22,5,0,5Z"/><path class="cls-16" d="M139.76,200.09h-.65a1.88,1.88,0,0,0-1,.21,1.85,1.85,0,0,0-.81.52,2.83,2.83,0,0,0-.73,1.77l.09.66a2.5,2.5,0,0,0,.64,1.1l.51.4a2.53,2.53,0,0,0,1.26.34h.65a1.9,1.9,0,0,0,1-.22,1.82,1.82,0,0,0,.8-.52,1.85,1.85,0,0,0,.52-.8,1.88,1.88,0,0,0,.21-1l-.09-.67a2.5,2.5,0,0,0-.64-1.1l-.51-.39a2.43,2.43,0,0,0-1.26-.34Z"/><path class="cls-16" d="M141.72,215.72h-.41c-3.21,0-3.22,5,0,5h.41c3.21,0,3.22-5,0-5h-.41c-3.21,0-3.22,5,0,5h.41c3.21,0,3.22-5,0-5Z"/><path class="cls-16" d="M141.72,237.67c3.21,0,3.22-5,0-5s-3.23,5,0,5Z"/><path class="cls-17" d="M127.41,133.31a11.13,11.13,0,0,1,5.28-1.31l-.89,8.2a46.74,46.74,0,0,0-6.91-4.36,7.34,7.34,0,0,1,4.49-2.23"/><path class="cls-3" d="M133,118.78a11,11,0,0,1-4.15,8.47l10.55,2.22c2.43.51,5,1.09,6.8,2.8a46.05,46.05,0,0,1,2.51-12.83l-13.94-.72"/><path class="cls-18" d="M132.66,118.88a11,11,0,0,1-4.07,8.32c-.12.1-.09.2.06.23l9.42,2c2.74.58,5.67,1,7.81,3,.13.12.69,0,.7-.18a47.61,47.61,0,0,1,2.51-12.83c0-.11-.15-.13-.21-.13l-13.94-.73c-.25,0-.78.35-.29.37l13.93.73-.21-.14a47.23,47.23,0,0,0-2.51,12.83l.7-.19c-2-1.83-4.7-2.38-7.29-2.92l-10.17-2.14.06.22a11.36,11.36,0,0,0,4.22-8.61c0-.19-.72-.07-.72.2Z"/><path class="cls-3" d="M129.84,127.43a33,33,0,0,0-9.28,11.11,2.11,2.11,0,0,1-1,1.12,2,2,0,0,1-1.39-.13,48.76,48.76,0,0,1-13-6.18c-3.88-2.82-7.11-6.79-8.21-11.46a1.27,1.27,0,0,1,.08-1,1.36,1.36,0,0,1,1-.34,10.29,10.29,0,0,0,8.8-7c1,.72,1.29,2,1.9,3.05a10.29,10.29,0,0,0,3.4,3.19,46.12,46.12,0,0,0,18.48,7.15"/><path class="cls-18" d="M129.6,127.28a34,34,0,0,0-7.6,8.17c-.53.81-1,1.65-1.49,2.5-.19.35-.4,1.05-.73,1.27-.67.43-1.53,0-2.18-.21-1.92-.68-3.83-1.4-5.69-2.24a29.62,29.62,0,0,1-10.36-7.25,19.58,19.58,0,0,1-3.14-4.8,10.19,10.19,0,0,1-.9-2.55c-.24-1.59,1.23-1.44,2.27-1.7a10.85,10.85,0,0,0,7.49-6.94l-.63.17a9,9,0,0,1,1.76,2.84,8.45,8.45,0,0,0,2.1,2.36,34.59,34.59,0,0,0,6.32,3.86,47.16,47.16,0,0,0,13.75,4.37c.34.06.75-.42.26-.5A46.07,46.07,0,0,1,116.61,122a31.8,31.8,0,0,1-5.7-3.59,8.43,8.43,0,0,1-2.3-3.08,5.61,5.61,0,0,0-1.41-2,.48.48,0,0,0-.62.17,10.12,10.12,0,0,1-3.69,5A10,10,0,0,1,100,119.9a17.84,17.84,0,0,0-2.75.54c-1.41.69-.13,3.15.28,4.12a19.51,19.51,0,0,0,3,4.83,29.23,29.23,0,0,0,10.12,7.45,64.28,64.28,0,0,0,6.15,2.49c1.3.46,2.8,1.2,3.79-.16.62-.85,1-1.88,1.57-2.78a31,31,0,0,1,2.36-3.34,33.26,33.26,0,0,1,5.59-5.47c.38-.3-.21-.51-.48-.3Z"/></g></g></g></svg>