<svg xmlns="http://www.w3.org/2000/svg" xmlns:xlink="http://www.w3.org/1999/xlink" viewBox="0 0 274.33 303.85"><defs><style>.cls-1{fill:url(#linear-gradient);}.cls-2{fill:#eaba94;}.cls-3{fill:#f2f2f2;}.cls-4{fill:#95c5e8;}.cls-5{fill:#fab65f;}.cls-6{fill:#98653d;}.cls-7{fill:#da8f4c;}.cls-8{fill:#b98150;}.cls-9{fill:#f7cca4;}.cls-10{fill:#ef0000;}.cls-11{fill:#0f0909;}.cls-12{fill:#e0ae85;}.cls-13{fill:#b70000;}.cls-14{fill:#231f20;}.cls-15{fill:#7c0a0a;}.cls-16{fill:#fff;}.cls-17{fill:#d6d8d8;}.cls-18{fill:#b70f53;}.cls-19{fill:#f7bc8b;}</style><linearGradient id="linear-gradient" y1="143.88" x2="260.76" y2="143.88" gradientUnits="userSpaceOnUse"><stop offset="0.02" stop-color="#2e3192"/><stop offset="0.53" stop-color="#f1f2f2"/><stop offset="1" stop-color="#be1e2d"/></linearGradient></defs><title>France</title><g id="Layer_2" data-name="Layer 2"><g id="infographic"><g id="France"><path class="cls-1" d="M104.79,49.47C91.15,42.94,82.41,29.54,72,18.54,65.15,11.27,57.1,4.75,47.57,1.69S26.82-.46,19.09,5.89C12.23,11.51,9,20.37,6.73,28.93c-9,33.87-8.16,69.79-2.17,104.34C12,176.08,28.15,219,59.67,248.91A143.4,143.4,0,0,0,164.28,287.6c11.63-.59,23.29-2.66,34-7.28,13.39-5.78,24.87-15.43,34.17-26.67a125.44,125.44,0,0,0,25.95-54.26c3.81-18.31,3.42-37.9-3.91-55.11s-22.25-31.66-40.49-35.8c-5.87-1.34-11.93-1.61-17.83-2.8-10.35-2.09-19.92-6.93-29.12-12.11a372.87,372.87,0,0,1-64.94-46.36"/><g id="french"><path class="cls-2" d="M104.52,117.49c.69-6.42.41-24.15,10.39-19.77a75.83,75.83,0,0,0,10.26,3.65c2.33.65,7.24.66,8.94,2.41,1.56,1.6,1.57,6.5,2,8.6l2.1,10.28a1,1,0,0,1,0,.6,1.09,1.09,0,0,1-.76.54c-7.06,2.38-14.68,4.78-21.83,2.68a35,35,0,0,1-8.83-4.52,5,5,0,0,1-2.13-2.11A5.07,5.07,0,0,1,104.52,117.49Z"/><path class="cls-3" d="M214.21,132.61a102.14,102.14,0,0,1-12.66,36.95c-3.17,5.47-6.85,11-11.4,15.46-2.31,2.25-3.16,3.4-6.22,2.38a13.92,13.92,0,0,1-7.16-5.73c-2.4-3.71-15.22,1.44-13.77,3.69,10.17,15.74,32.26,8,42.25-3.74,12.27-14.41,19.94-32.56,22.59-51.22.56-4-13.11-1.48-13.63,2.21Z"/><path class="cls-3" d="M210,130.52a68,68,0,0,1-15.13,32.62c-3.22,3.73-8.71,10.25-13.82,11.22s-10.57-3.08-13-7.1c-2-3.3-14.82,1.92-13.76,3.69,8.89,15,31.22,8.64,42.64.53,14.23-10.09,23.59-26.42,26.59-43.43.54-3-13-.82-13.56,2.47Z"/><path class="cls-3" d="M136.57,127.08c6.78,11,12.55,23.12,22,32.23,8.28,8,20.43,14.82,31.38,7.93.67-.43,1.69-1.32,1.55-2.26l-.08-.55c-.49-3.19-14.36-.21-13.77,3.69l.09.55,1.55-2.26-.67.43,8.23-2.62c-2.19.16-8.12-3.87-10.57-5.68a54.47,54.47,0,0,1-9.58-9.31c-6.46-7.9-11-17.17-16.35-25.84-2.24-3.65-15.14,1.45-13.77,3.69Z"/><path class="cls-3" d="M185.12,170.44c0,3.34-.84,8.71-4.8,9.67-1.74.43-9.93-1.42-11-2.84-3.29-4.38-16.52.64-12.69,5.74,2.45,3.26,7.46,3.73,11.13,4.75,4.91,1.36,9.78,1.86,14.76.57,9-2.33,16.48-9.64,16.46-19.26,0-6.52-13.87-4-13.86,1.37Z"/><path class="cls-3" d="M185.94,170.94c-23.37-.28-34.34-25.58-41.65-43.92-1-2.43-7.95-.16-9.25.32a11.14,11.14,0,0,1-6.09.23L120.3,133a58.53,58.53,0,0,0,25.6-8.2c2.31-1.41,1.63-2.73-.79-3a17.69,17.69,0,0,0-9.74,2.61,19.83,19.83,0,0,1-9.09,3.08A17.89,17.89,0,0,0,118,130c-1,.7-2.7,2.44-.4,2.82a43,43,0,0,0,22.15-2.47l-9.25.32c8.37,21,20.41,45.48,46.47,45.79a17.63,17.63,0,0,0,9.73-2.61c2-1.38,2.05-2.92-.79-2.95Z"/><path class="cls-3" d="M186.11,168.18A80.18,80.18,0,0,1,167.77,156a20.6,20.6,0,0,1-5.44-7.3c-1.25-2.82-2.39-5.46-4.68-7.6-3.78-3.51-16.77,1.8-12.74,5.56,2.69,2.51,3.5,5.92,5.26,9a26,26,0,0,0,6.07,6.92,91.68,91.68,0,0,0,19,12.54c3,1.47,7.13.61,9.78-1.17,1.88-1.27,4.11-4.31,1.09-5.81Z"/><path class="cls-3" d="M113,126.09a61.26,61.26,0,0,1-14.12,2.12c-5,.12-10-1-14.49,1.64-3.47,2-5.07,5.42-6.87,8.82Q74,145.27,70.71,152c-8.44,17.34-16.45,35.48-21.92,54-2.8,9.49,3.91,14,10.39,19.58,7,6.11,14.14,12.14,21.59,17.75,3.58,2.71,7.25,5.32,11,7.79s7.85,5.65,12.08,7c7.12,2.27,17.78-3.21,14.57-11.73-1.67-4.44-7-7.47-10.5-10.28L95,225.76q-6.85-5.47-13.72-10.95c-3.32-2.66-8.19-6-8.18-10.71l-13.85,2.39c1.32,8.74,7.53,15.1,14.48,20,8,5.64,16.16,10.7,23.73,16.89,3.93,3.2,16.24-2.46,11.63-6.92-7.38-7.17-15.11-14.28-21.62-22.27-6.26-7.68-11.62-18-8.4-28.11,2.37-7.48-11.33-7.16-13.13-1.47-7.74,24.34,15,42.81,30.54,57.85l11.62-6.92a252.68,252.68,0,0,0-20.82-14.92c-6.72-4.44-13-9.42-14.27-17.85-.88-5.83-13.84-2.94-13.84,2.4,0,10.81,10.8,16.92,18.33,22.92L92,239.67l7.63,6.09c1,.8,2.08,1.57,3,2.43a5.7,5.7,0,0,1,1.86,1.86c.44,1.09,1.11,1,2-.24l5.43-.95c-3-.39-7-4-9.48-5.58q-4.52-3-8.85-6.17C88.24,233.2,83.1,229,78,224.79c-2.76-2.32-5.5-4.68-8.22-7-2.32-2-6.27-4.29-7.57-7.14s.93-7,1.87-9.73c1.23-3.52,2.51-7,3.83-10.53q7.59-20.11,17.12-39.4,2.28-4.6,4.66-9.16c.14-.27,2.82-4.76,2.64-4.95Q86.94,138,90.06,138c1,.06,1.9.1,2.86.11a80.24,80.24,0,0,0,22.5-2.78c2.64-.71,6.52-3.18,5.65-6.45s-5.53-3.45-8.12-2.76Z"/><path class="cls-3" d="M74.64,135.89c-15.24,25-28.2,52.36-26.74,82.31.25,5.23,14.05,2.24,13.76-3.69-1.37-28.16,11.69-54.34,26-77.74,1.75-2.87-1.53-4.61-4-4.85-3.16-.31-7.31,1.15-9,4Z"/><path class="cls-3" d="M122.2,134.7c8.89,31,8.87,63.54,15.82,94.92,1.29,5.82,2.26,13.44,7.2,17.45,5.24,4.24,13,3.54,18.4-.06,5.64-3.77,6.28-9.76,5.32-15.95-1.27-8.25-3-16.45-4.79-24.61-4.09-18.67-9-37.14-14-55.6-1.36-5.07-14.48-1.52-13.76,3.69l6.28,45.63c1.83,13.25,2.91,26.78,10.06,38.44,2.57,4.19,12-.12,13.27-3.56a58.26,58.26,0,0,0,2.17-33.19c-2.79-12.37-6.15-23.51-5.17-36.39L149.75,169a10.83,10.83,0,0,1,2.09,4.52l13.76-3.69-1.4-3.78c-1.85-5-15.37-1.21-13.77,3.69,7.59,23.13,0,49.1-3.91,72.3-1,6.16,12.19,2.35,13.8-1.61,5.48-13.49,0-28,4-41.59,1.72-5.8,6.17-7.92,11-10.94s8.63-6.33,10.87-11.59L172.35,179l3.84,12.72c1.53,5.06,15.27,1.29,13.76-3.69l-3.84-12.72c-1.68-5.57-12.3-.82-13.78,2.65-1.94,4.57-7.86,6.61-11.68,9.26-4.85,3.37-8.53,7.47-10.14,13.27-3.79,13.66,1.49,28.13-4,41.59l13.8-1.61c4-23.85,11.68-50.58,3.88-74.38l-13.77,3.69,1.41,3.78c1.82,4.92,15,1.45,13.76-3.69a16.22,16.22,0,0,0-3.1-6.33c-2.51-3.25-12.95-.71-13.27,3.56-.93,12.14,1.26,23.18,4.3,34.86s2.95,23.22-1.3,34.72l13.27-3.55c-6.95-11.34-7.54-25.73-9.31-38.57l-6-43.69-13.76,3.69c4.69,17.52,9.39,35.05,13.35,52.76,1.84,8.21,3.53,16.46,5,24.76a30.29,30.29,0,0,1,.85,7.09l-.2,1.53q-1.49,2.94,2,.45a51.27,51.27,0,0,1-2.84-4.54c-.62-1.71-1.05-3.49-1.5-5.25-8.31-33-7.68-67.55-17.09-100.33-1.45-5-15.21-1.34-13.76,3.69Z"/><path class="cls-3" d="M108.89,134.83l9.17,62.62,13.76-3.69c-3-9-6.09-17.94-9.07-26.92-2.83-8.52-7.17-17.87-6-27,.71-5.48-7-5-10.07-3.74-1.6.63-3.28-.49-4.5-1.34L96.32,144a22.69,22.69,0,0,1,8,0c3,.54,6.93-1,8.54-3.63a4.09,4.09,0,0,0-2.26-6.27c-4.76-1.46-10.11-4-15.16-2.54-5.42,1.58-6.85,6-7.29,11a153,153,0,0,0,1.15,34.81l13.76-3.69-4.89-31.07-13.77,3.68A323.55,323.55,0,0,0,100,180.84c2.8,5.35,14.21.91,13.17-4.92l-5.67-31.52c-1.18-6.58-14.91-3-13.77,3.69a212.25,212.25,0,0,0,12,42.82c2.47,6.22,15.73,2.88,13.76-3.69-1.89-6.28-3.57-12.62-5-19-.68-3.05-1.29-6.12-1.86-9.19-.15-.82-2-7.89-1.38-8.49l-4.49,2.73c-.87.33,1.59.59,2.14.69a18.74,18.74,0,0,0,4.3.34,15,15,0,0,0,8-3.05,20.25,20.25,0,0,0,4.3-4.84,18.76,18.76,0,0,0,1.69-2.58c.81-1.86,2.18-1.18-.94-.8l-6.42-4.72c-5.4,32.38,9.22,63.13,10.71,95.13l13.27-3.55A217.15,217.15,0,0,1,122,172.24l-13.77,3.69a111.5,111.5,0,0,1,6.94,37.29l13.27-3.56-18-34.36c-2.51-4.77-13.06-1.44-13.28,3.56A44.32,44.32,0,0,0,99,194.13c2,6.49,15.78,2.75,13.77-3.69a35.57,35.57,0,0,1-1.71-12.54l-13.27,3.56,18,34.35c2.43,4.64,13.32,1.55,13.27-3.55a119.5,119.5,0,0,0-7.13-40c-2.31-6.32-15.29-3-13.77,3.69A227.05,227.05,0,0,0,131.33,236c2.49,4.46,13.52,1.65,13.28-3.56-1.49-31.88-16.07-63-10.71-95.13.56-3.37-3.79-5-6.42-4.72-6.25.75-9.85,4-13.18,9.05-.18.27-2.38,3.2-2.37,3.22,3.35-.59,4-1,2-1.16l-1.6-.39c-3.69-.77-7.37-.79-10.68,1.29-7,4.4-3.65,13.36-2.4,19.92a262.37,262.37,0,0,0,6.51,26.38l13.76-3.69a212.23,212.23,0,0,1-12-42.82l-13.77,3.69,5.67,31.52,13.17-4.92a300,300,0,0,1-14.41-32c-2.44-6.37-14.83-3.06-13.77,3.68l4.9,31.08c1,6.57,14.73,3.05,13.76-3.69a139,139,0,0,1-1.47-18.68q0-4.32.19-8.62c.07-1.28.16-2.55.26-3.83.11-1.45,1.35-4.77-.69-2.87l-5.17,1.92c1.69-.25,4.9,1.47,6.54,2l6.29-9.9a34.51,34.51,0,0,0-11.56-.13c-3.6.58-11.36,5.43-5.85,9.25,6.57,4.57,14,4.52,21.25,1.66l-10.07-3.73c-1.25,9.65,2.6,18.87,5.58,27.86q4.77,14.43,9.69,28.79c2.21,6.51,14.74,3,13.76-3.69l-9.16-62.62c-1-6.54-14.76-3.08-13.77,3.69Z"/><path class="cls-4" d="M210.17,134.64a17.6,17.6,0,0,0,14,7.81,2.33,2.33,0,0,0,1.92-.78c.36-.59-.31-.83-.79-.85a15.91,15.91,0,0,1-12.46-7.31c-.52-.8-3.33.14-2.69,1.13Z"/><path class="cls-4" d="M204.87,149.3a18.76,18.76,0,0,0,13.92,10.37,3.4,3.4,0,0,0,2-.35c.22-.11,1-.71.34-.81a18.06,18.06,0,0,1-13.39-10c-.36-.75-3.16.23-2.9.78Z"/><path class="cls-4" d="M197.36,158.93a19.72,19.72,0,0,0,12.12,16.2c1.18.48,3.37-1.21,1.69-1.9a18.19,18.19,0,0,1-10.91-15.07c-.06-.7-1.25-.69-1.71-.57a1.38,1.38,0,0,0-1.19,1.34Z"/><path class="cls-4" d="M186.07,164.91a21.18,21.18,0,0,0,7.3,23.15c1,.77,3.56-.68,2.24-1.68a19.6,19.6,0,0,1-6.77-21.14c.51-1.59-2.38-1.56-2.77-.33Z"/><path class="cls-4" d="M173.51,159.15a26.14,26.14,0,0,0-5.72,24.16c.35,1.27,3.25.49,2.9-.78a24.39,24.39,0,0,1,5.22-22.6.78.78,0,0,0-.36-1.33,2,2,0,0,0-2,.55Z"/><path class="cls-4" d="M47.82,202.4c4,2.93,11,1.46,13.34-3,.63-1.16-2.25-.82-2.68,0a5.89,5.89,0,0,1-1.69,2,2.82,2.82,0,0,1-.39.26l-.34.19c.17-.1,0,0-.09,0l-.31.13s-.37.14-.18.08-.15,0-.19.05l-.39.1c-.28.08.12,0-.06,0l-.33,0-.33,0c-.15,0,.16,0-.1,0a6.4,6.4,0,0,1-1.19-.07,5.67,5.67,0,0,1-2.37-1,2,2,0,0,0-1.91,0c-.25.1-1.32.73-.79,1.11Z"/><path class="cls-4" d="M47.09,217.18A24.18,24.18,0,0,0,73,209.56c.42-.53-.36-.68-.74-.69a2.67,2.67,0,0,0-1.92.75,19.05,19.05,0,0,1-20.91,6.28,2.72,2.72,0,0,0-2,.32c-.3.17-1,.74-.3,1Z"/><path class="cls-4" d="M59.11,229.48a25.16,25.16,0,0,0,23.66-7.06c1.17-1.26-1.64-1.3-2.35-.55a20.48,20.48,0,0,1-19.55,6,2.32,2.32,0,0,0-2,.55c-.43.43-.34,1,.29,1.09Z"/><path class="cls-4" d="M69.65,236.81a26.72,26.72,0,0,0,21.48-9.45c.31-.38-1.07-.23-1.14-.22a2.89,2.89,0,0,0-1.71.76,20.62,20.62,0,0,1-16.73,7.8,3.81,3.81,0,0,0-2,.55c-.44.29-.42.54.15.56Z"/><path class="cls-4" d="M83.22,245.72a20.36,20.36,0,0,0,16.83-10.26c.34-.62-.31-1.06-.86-1.12a2,2,0,0,0-1.89.86,16.59,16.59,0,0,1-13.79,8.54c-.6,0-1.53.45-1.61,1.12s.79.88,1.32.86Z"/><path class="cls-4" d="M93.7,251.84A27.4,27.4,0,0,0,104,246.78a25.37,25.37,0,0,0,2-1.82c.57-.56,1.58-1.33,1.72-2.17.22-1.25-1.65-.93-2.3-.67-.46.19-1.87,1.2-.75,1.55a2.69,2.69,0,0,0,2-.31c.3-.17,1-.78.29-1l-.17.6-1.1.36h-.51l-.45-.17c.56.48-4.49,4.3-5,4.64a22.14,22.14,0,0,1-6.46,2.77c-.39.1-1.41.46-1.28,1s1.3.31,1.61.24Z"/><path class="cls-4" d="M103.13,257.7A19.33,19.33,0,0,0,113,248c.29-.63-.26-1.12-.87-1.17a2,2,0,0,0-1.89.88,16.42,16.42,0,0,1-3.5,5,15.43,15.43,0,0,1-2.27,1.85c-.21.15-.43.29-.64.42l-.18.11c.1-.06.1-.06,0,0l-.31.17a16,16,0,0,1-1.5.73c-.51.23-1.12.89-.7,1.45s1.4.43,2,.19Z"/><path class="cls-4" d="M80.13,131.79c5.8,5.7,15.44,6.08,23.07,6.08,4.08,0,8.15-.25,12.23-.46a87.71,87.71,0,0,0,16.78-2.83c3.13-.78,6.33-1.3,9.31-2.6,1.43-.62,2.8-1.4,4.17-2.15.62-.34,1.57-1.12,2-1.29l-1.48.1,0,0-.58-1.24c.09-.24-.23.29-.28.35-1.17,1.44,1.56,2.06,2.46,1a3.28,3.28,0,0,0,.62-.9,1,1,0,0,0-.58-1.24,2.21,2.21,0,0,0-2.16.48,26.16,26.16,0,0,1-2.5,1.49,30.52,30.52,0,0,1-7.76,3c-5.66,1.31-11.28,2.95-17.09,3.42-4,.33-8,.49-12.06.59a69.81,69.81,0,0,1-12.6-.63c-4.12-.65-8.34-1.91-11.38-4.9-1-1-3.44.53-2.21,1.75Z"/><path class="cls-4" d="M73.27,139.26c7.79,7.64,18.43,10.85,29.05,12a132.09,132.09,0,0,0,16.76.64c6.5-.11,13.08-.67,19.25-2.84a65,65,0,0,0,18.06-10.38c1.56-1.2-.78-2.2-1.92-1.32a64.72,64.72,0,0,1-15,9.07c-5.65,2.31-11.7,3.07-17.76,3.29-10.38.36-21.26.06-31.21-3.21A37.22,37.22,0,0,1,75.92,138c-.93-.92-3.67.27-2.65,1.27Z"/><path class="cls-4" d="M70.9,163.91a104.39,104.39,0,0,0,38.69,6A96.52,96.52,0,0,0,147.53,161a83.19,83.19,0,0,0,18.37-11.87c.49-.41.28-.9-.28-1a2.47,2.47,0,0,0-2.05.55c-19.07,16.28-45.24,22.12-69.79,18.83a101.1,101.1,0,0,1-20.58-5,2.37,2.37,0,0,0-2,.27c-.33.21-.93.91-.25,1.15Z"/><path class="cls-4" d="M92.82,177c9.05,7.07,21.34,7.74,32.32,6.71,11.22-1.06,22.36-3.4,32-9.44a53,53,0,0,0,12.92-11.43c.42-.51-.36-.63-.72-.62a2.74,2.74,0,0,0-1.93.73,49.94,49.94,0,0,1-23.25,16,82.86,82.86,0,0,1-16.06,3.17,66.59,66.59,0,0,1-16.63.09A33,33,0,0,1,95.54,176c-.69-.54-3.3.59-2.72,1Z"/><path class="cls-4" d="M109.71,192.59c7.85,4.45,17.54,4.39,26.23,3a79.34,79.34,0,0,0,25.91-9c1.14-.62,2.26-1.27,3.37-1.94a9.38,9.38,0,0,0,2.91-2c1.38-1.9-2.25-2.57-3-.84-.66,1.46,2.25,1.37,2.75.27l.07-.14-1.52.86-.42-.38c-.17-.4-.37-.49-.6-.26a2.69,2.69,0,0,0-.55.35l-1.12.7c-.84.5-1.68,1-2.53,1.47-1.67.93-3.36,1.81-5.08,2.62a77,77,0,0,1-10.25,4A61.05,61.05,0,0,1,124,194.29,28,28,0,0,1,112,191a2,2,0,0,0-2.07.19c-.44.33-.82,1.06-.18,1.42Z"/><path class="cls-4" d="M119.75,207.37c3.23,1.66,6.91,1.83,10.47,1.58,4.08-.28,8.15-.87,12.21-1.33s8.41-.87,12.59-1.45a27.35,27.35,0,0,0,10.9-4c.87-.54,1.72-1.1,2.58-1.67.68-.45,1.58-1,1.51-2-.12-1.72-2.84-1.17-3.31.08a.83.83,0,0,0,.27,1l.11.07c1.1.72,3.62-.79,2.22-1.71l-.1-.07.27,1-.77.58-1.39-.18.12.1-.36-.75c0,.25-1.9,1.3-2.18,1.48-.77.49-1.54,1-2.34,1.4a20.33,20.33,0,0,1-5.44,2.05c-4.07.86-8.34,1.07-12.47,1.53s-8.32,1-12.49,1.41c-3.66.37-7.38.48-10.74-1.25-1.22-.62-3.31,1.16-1.66,2Z"/><path class="cls-4" d="M126.7,219.62c2.25,2.73,6.21,3.1,9.49,3.48a55.2,55.2,0,0,0,11.35.21,42,42,0,0,0,20.94-7.26c.49-.35.33-.61-.19-.71a3.17,3.17,0,0,0-2,.55,35.38,35.38,0,0,1-18.3,6.23,53.68,53.68,0,0,1-9.9-.27c-3-.36-6.55-.73-8.63-3.24-.48-.58-3.23.41-2.72,1Z"/><path class="cls-4" d="M135.17,230.15A32.26,32.26,0,0,0,168,224.84c1.49-1.28-.83-2.22-1.91-1.28a28.37,28.37,0,0,1-29.23,4.67c-1.2-.5-3.38,1.22-1.69,1.92Z"/><path class="cls-4" d="M139.9,236.76c3.59,2.55,8.08,2.54,12.3,2.12,5.33-.54,10.65-1.37,16-2.07.4-.05,1.65-.35,1.67-.9s-.81-.53-1.21-.48c-4.8.63-9.6,1.29-14.41,1.89-3.93.49-8.22.78-11.61-1.64-.75-.53-3.35.62-2.71,1.08Z"/><path class="cls-4" d="M90.56,153.48c1.15,8-3.1,12.24-6.31,19-4,8.44-8.77,16.34-13.43,24.42-1.52,2.64-2.85,4.71-1.53,7.68,1.24,2.77,3.71,5.46,5.73,7.68,5.08,5.58,11.24,10,17.52,14.15s13,8.13,19.14,12.71c2.87,2.14,6.28,4.54,7.37,8.13a8,8,0,0,1-.56,5.81l-1.5,2.12-10.4,2.6a14.43,14.43,0,0,1-3.31-1c-9-3.37-15.58-10.58-23.81-15.2-7-4-13.7-7.39-20-12.52C54.09,224.74,46.5,219,46.85,211.33c.19-4.07,1.77-8.18,2.54-12.18.83-4.29,1.68-8.57,2.67-12.83,3.35-14.35,8.14-28.61,16.5-40.87,5.21-7.65,12.31-17.06,21.56-19.43s19.28,1.79,28.88,1.4a59.6,59.6,0,0,0,11.05-1.51c3.45-.81,7.27-3.15,10.66-3.55,6.33-.74,8.92,3.85,12,8.38,2.53,3.74,5,7.55,7.52,11.3,4.87,7.17,10.06,14.42,16.66,20.12,4.69,4,9.81,4.88,15.24,1.72,13.71-8,18.27-26.6,21.64-40.83l-2.8.75c3.65,2.19,7.5,4,11.31,5.85,1.55.77,4.88,1.68,5.92,3.09,1.25,1.7-.51,4.6-1.07,6.3-3,9.14-5,18.62-8.57,27.57s-9.73,14.78-16.88,21c-5.57,4.86-12.65,8.69-20.27,6.48a16.11,16.11,0,0,1-10.79-9.94c-.27-.73-2.9,0-2.89.78l.39,27.53c.13,9.15.75,18.47,0,27.6-.14,1.69.09,5.84-1.12,7.35-1.54,1.92-4,.8-6.13.52q-7.05-.94-14.07-2.08c-9.4-1.52-18.75-3.33-28.05-5.36-.71-.16-3.25,1-2.37,1.18,10.68,2.33,21.42,4.36,32.22,6,5.16.8,11.15,2.49,16.37,2.19a5.62,5.62,0,0,0,4.26-1.73c2-2.44,1.74-7.68,1.9-10.69.29-5.63.06-11.29,0-16.93l-.53-36.38-2.89.78c2.82,7.6,10.51,11.58,18.4,11s14.06-4.87,19.84-10c7.52-6.63,12.82-12.59,16.32-22.12,3.76-10.25,5.86-21,9.82-31.21a.2.2,0,0,0-.07-.27c-5.93-3.56-12.41-6.06-18.35-9.62-.56-.33-2.61,0-2.79.75-1.85,7.81-3.88,15.64-7.24,22.95a48.29,48.29,0,0,1-6.84,11.12c-1.42,1.67-3.39,4-5.3,5.05-4.68,2.53-8.24,1.65-11.9-1.51-7.17-6.19-12.68-14.17-17.91-22-2.35-3.53-4.65-7.1-7.06-10.59-1.88-2.73-3.91-6-7.09-7.31a9.16,9.16,0,0,0-6-.26c-5.6,1.33-10.6,4-16.43,4.75-10.41,1.4-20.11-2.36-30.38-1.86C80.73,124.57,70.5,138,63.7,149,55,163.14,50.53,179.38,47.32,195.54c-1.33,6.7-5.46,16-2,22.45s10.21,11.23,15.88,15.55c7.25,5.53,15.75,8.74,23.06,14.22,6.42,4.81,13.75,10.52,22,11.59,5.23.68,11.16-.91,14.35-5.39,4.44-6.22-.56-11.61-5.5-15.36-7.33-5.56-15.36-10.09-22.93-15.29a93,93,0,0,1-11.22-8.84c-3.15-3-7.51-7-8.92-11.19-1.5-4.46,3.83-10.38,6-14,2.84-4.8,5.64-9.63,8-14.68,3.53-7.51,8.75-13.21,7.5-21.87-.09-.65-3,0-2.9.78Z"/><path class="cls-5" d="M176.25,293.38c-1.44,3.45-4.64,9.81-7.35,9.59s-5.14-2-7.4-3.94c-7.63-6.58-14.1-15.4-20.51-24.16l-29.34-40.09a142.7,142.7,0,0,1-9.18-13.66c-2.53-4.48-4.7-9.37-7.2-13.9-11.15-20.24-28.62-33-36.85-56.06a28.36,28.36,0,0,1-2-10c.08-3.59,1.36-7.45,3.66-9.19,2.74-2.06,5.92-.64,8.58,1,19.25,12.13,33.33,35.34,46.83,57.93q13,21.7,25.94,43.4c3.85,6.44,7.74,12.94,12.55,17.91,2.28,2.36,7.27,13.29,9.45,15.83,3.88,4.54,11.92,18.83,12.79,25.36"/><path class="cls-5" d="M174.88,293.29a31.88,31.88,0,0,1-3.85,7.1,8,8,0,0,1-1.24,1.35,2.06,2.06,0,0,1-.5.33c.27-.11,0,0-.33-.09a12.33,12.33,0,0,1-4.77-2.45c-5.92-4.53-10.78-10.58-15.3-16.45-10-12.93-19.37-26.31-29-39.48-4.7-6.43-9.64-12.76-13.91-19.49-4.08-6.44-7-13.52-10.84-20.07-6.58-11.07-15.43-20.49-23-30.87a94.59,94.59,0,0,1-10-16.84c-2.82-6.26-6-14.17-3.08-21,.58-1.35,1.57-3.15,3.15-3.49s3.49.7,4.84,1.5a62.93,62.93,0,0,1,7.88,5.67,105.3,105.3,0,0,1,14,14.44c9.17,11.23,16.69,23.7,24.12,36.11q12.72,21.24,25.41,42.51c3.92,6.55,7.69,13.34,12.76,19.1a32.4,32.4,0,0,1,3.89,5.21c1.26,2.19,2.43,4.43,3.64,6.65a40.18,40.18,0,0,0,3.13,5.25c1.21,1.58,2.39,3.14,3.47,4.82A87.56,87.56,0,0,1,173,287.76a26.82,26.82,0,0,1,1.79,6c.16,1.14,3.07.45,2.9-.78-.71-5-3.36-9.85-5.7-14.23-1.32-2.49-2.74-4.94-4.28-7.3-1.06-1.63-2.29-3.1-3.41-4.67-2.8-4-4.67-8.56-7.2-12.7-1.36-2.24-3.24-4-4.87-6.06a98,98,0,0,1-6.72-9.83c-9-14.66-17.68-29.53-26.5-44.3-7.84-13.12-15.58-26.4-25-38.51a116.3,116.3,0,0,0-14.29-15.63,78.82,78.82,0,0,0-7.9-6.22c-2.69-1.84-5.77-3.92-9.2-3.52-7.72.9-8.39,11.06-7.08,16.9,1.55,6.94,5,13.63,8.64,19.66,7,11.39,16.26,21.06,23.89,32,4.32,6.19,7.59,12.83,11.05,19.52,3.71,7.17,8.44,13.61,13.19,20.1,10.18,13.91,20.28,27.88,30.54,41.72,4.65,6.28,9.48,12.51,15.19,17.87,2.59,2.43,5.53,5.23,9.13,6,2.8.57,4.81-.88,6.44-3a32.68,32.68,0,0,0,3.94-7.23c.6-1.41-2.3-1.2-2.73-.18Z"/><path class="cls-6" d="M98.73,171.29c-1.87,1-3.82,1.93-5.59,3.11a8.89,8.89,0,0,0-3.6,4.4c-.19.53.95.41,1.18.37.47-.09,1.49-.3,1.69-.84a7.46,7.46,0,0,1,3.1-3.83c1.53-1,3.29-1.82,4.93-2.7.29-.16,1-.65.33-.86a3,3,0,0,0-2,.35Z"/><path class="cls-6" d="M111.48,195.14a20.34,20.34,0,0,0-7.7,7.73c-.31.57.28.85.79.85a2.36,2.36,0,0,0,1.91-.79,18.69,18.69,0,0,1,1.38-2.15,15.59,15.59,0,0,1,1.55-1.82,18.27,18.27,0,0,1,1.86-1.65l.28-.22.07-.05.54-.37c.36-.24.73-.47,1.11-.68s.85-.83.26-1.12a2.37,2.37,0,0,0-2,.27Z"/><path class="cls-6" d="M139.1,238.12a12.08,12.08,0,0,0-7.35,6.16c-.1.21-.17.4,0,.61a1.15,1.15,0,0,0,.78.26,2.77,2.77,0,0,0,1.14-.23c.26-.12.65-.29.77-.57a10.1,10.1,0,0,1,1.05-1.76l.29-.37L136,242c.13-.16-.06.05,0,0,.24-.25.47-.49.73-.72l.39-.33.18-.15c.21-.17,0,0,0,0s.77-.51.86-.56.34-.25.41-.23l-.08,0,.08,0,.26-.12c.14-.06.28-.13.43-.18l.26-.1h0a2.54,2.54,0,0,0,1-.49.72.72,0,0,0,.29-.63c-.16-.59-1.25-.48-1.65-.35Z"/><path class="cls-6" d="M126.77,216.48a9.52,9.52,0,0,0-9,5.94c-.08.23.14.48.32.59a1.69,1.69,0,0,0,1,.14,1.9,1.9,0,0,0,1.63-1.05,1.13,1.13,0,0,1,.13-.32c.08-.17.16-.34.25-.5a9,9,0,0,1,.59-.88c-.07.09-.05.06,0,0l.2-.23.35-.36.37-.33c.26-.23-.21.15.06-.05l.21-.15a4.38,4.38,0,0,1,.42-.28l.22-.13c.28-.17-.19.09,0,0l.51-.23.23-.1c.27-.1,0,0,0,0a3.44,3.44,0,0,1,.48-.15l.24,0c.24-.05.1,0,0,0a3.6,3.6,0,0,0,.55-.07,1,1,0,0,0,.25,0h0a2.2,2.2,0,0,0,1.9-.82c.34-.59-.29-1-.82-1Z"/><path class="cls-6" d="M154.35,260.2c-3.38.18-6.81,2.92-7,6.44,0,.67.76.85,1.3.78a2.45,2.45,0,0,0,1.09-.38c.22-.16.51-.4.53-.7a5.29,5.29,0,0,1,.15-1c0-.16.09-.32.14-.47s0,0,0,.06l.06-.14a2,2,0,0,1,.1-.21,6,6,0,0,1,.49-.85.85.85,0,0,1,.14-.19l-.07.09.08-.09a3.8,3.8,0,0,1,.33-.37l.36-.34c.18-.16-.23.18,0,0l.18-.13.42-.28c.29-.17-.27.13,0,0l.21-.1.42-.18c.26-.1-.39.13-.06,0l.26-.07.22,0c.28-.07-.39,0-.1,0l.53-.05a2.43,2.43,0,0,0,1.1-.39,1.22,1.22,0,0,0,.53-.69c.06-.71-.78-.81-1.3-.79Z"/><path class="cls-7" d="M182.87,276c-1.22,2.88-4.08,8.24-7.21,8.29s-6.13-1.15-8.95-2.5c-9.55-4.59-18.05-11.08-26.46-17.52L101.72,234.8a136.12,136.12,0,0,1-12.2-10.12c-3.46-3.35-6.54-7.07-10-10.47C64.3,199,42.72,190.33,30.46,172.62a18.13,18.13,0,0,1-3.5-7.85c-.36-2.88.62-6.08,3.05-7.66,2.87-1.88,6.68-1,9.93.08,23.52,8,42.51,25.34,60.75,42.21l35.06,32.42c5.2,4.81,10.45,9.66,16.58,13.22,2.9,1.69,10,10,12.77,11.82,5,3.29,16,14,17.77,19.15"/><path class="cls-7" d="M181.5,275.92a19.55,19.55,0,0,1-4.07,6.56,3,3,0,0,1-3,.8,20.12,20.12,0,0,1-5.76-1.86,110.29,110.29,0,0,1-18.55-11.34c-12.55-9.13-24.72-18.8-37-28.23-6.17-4.72-12.52-9.28-18.42-14.32C89.09,222.77,84.56,217,79.24,212c-9-8.47-19.68-14.86-29.52-22.28A91.28,91.28,0,0,1,36,177.42c-3.8-4.3-9.43-10.76-7.2-16.95a5.25,5.25,0,0,1,2.8-3.19,8.34,8.34,0,0,1,4.92,0,59.06,59.06,0,0,1,9.71,3.54,117.42,117.42,0,0,1,17.63,9.76c11.4,7.56,21.66,16.68,31.71,25.93q17.25,15.85,34.42,31.82c5.38,5,10.66,10.18,16.63,14.48,2.12,1.53,4.51,2.7,6.47,4.46,1.8,1.61,3.48,3.37,5.18,5.09a59.71,59.71,0,0,0,4.74,4.54c1.45,1.18,3,2.19,4.44,3.4a78.05,78.05,0,0,1,10.85,11.11,18.67,18.67,0,0,1,3.08,4.95c.42,1.15,3.3.32,2.9-.78a19.78,19.78,0,0,0-3.13-5.14,68.57,68.57,0,0,0-5.5-6.18c-1.87-1.9-3.82-3.73-5.86-5.44-1.45-1.22-3.06-2.24-4.5-3.46-3.7-3.12-6.7-7-10.44-10.08a25.89,25.89,0,0,0-2.78-1.86c-1.6-1-3.14-2.08-4.63-3.22-3-2.32-5.91-4.89-8.73-7.49-12.21-11.22-24.36-22.52-36.54-33.78-10.43-9.64-20.92-19.3-32.55-27.5a127,127,0,0,0-18.25-10.82,100.75,100.75,0,0,0-9.61-4c-3.1-1.09-6.41-2-9.71-1.34a8.3,8.3,0,0,0-6.28,5.78c-.94,3.12,0,6.37,1.47,9.16,3,5.66,7.77,10.55,12.54,14.79,9.71,8.63,21,15.15,31.12,23.28a89.36,89.36,0,0,1,7.28,6.48c2.76,2.74,5.3,5.69,8,8.49,5.48,5.68,11.86,10.34,18.11,15.12,13,10,26,20,39.13,29.93a146.84,146.84,0,0,0,18.89,12.57c3.21,1.72,6.61,3.49,10.24,4.1,3,.51,5.53,0,7.65-2.34a23.1,23.1,0,0,0,4-6.58c.6-1.4-2.3-1.2-2.74-.18Z"/><path class="cls-8" d="M152.51,246.23a9.54,9.54,0,0,0-9,7.32c-.15.71.81,1,1.34,1a1.72,1.72,0,0,0,1.6-1.18c0-.1,0-.21.07-.31s.09-.34,0-.13c.06-.2.13-.39.21-.59a9.93,9.93,0,0,1,.52-1c.14-.24-.09.13.06-.08l.18-.26c.13-.17.26-.33.4-.49a5.33,5.33,0,0,1,.4-.42l.11-.11c-.11.1-.13.12-.06.05l.24-.2c.15-.13.3-.24.46-.36l.26-.17c.08-.06.29-.26,0,0a4,4,0,0,1,1.08-.53c.18-.08-.3.1,0,0l.3-.1.61-.15c.36-.08-.34,0,0,0l.31,0c.21,0,.42,0,.64,0,.63,0,1.52-.48,1.59-1.18s-.77-1-1.34-1Z"/><path class="cls-8" d="M135.35,233.2a13.31,13.31,0,0,0-5.42,6.21,1,1,0,0,0,.9,1.3,1.85,1.85,0,0,0,1.88-.91,13,13,0,0,1,.8-1.58c.08-.13-.14.21,0,0l.12-.18.24-.36c.18-.24.37-.48.56-.71s.38-.44.58-.64l.06-.06h0l.07-.06.32-.29c.23-.2.46-.39.71-.57l.35-.25c.09-.06.55-.35.15-.11a1.64,1.64,0,0,0,.74-.71.89.89,0,0,0-.07-.85,1.64,1.64,0,0,0-2-.25Z"/><path class="cls-8" d="M116.59,216.54a8.89,8.89,0,0,0-7.91,6.22.58.58,0,0,0,.32.59,1.67,1.67,0,0,0,1,.14c.62-.08,1.45-.38,1.63-1.05,0-.17.1-.34.16-.51s.11-.28,0-.1a.88.88,0,0,1,.09-.2,6.56,6.56,0,0,1,.49-.9c.09-.14.19-.27.28-.4l0,0,.17-.2a8.38,8.38,0,0,1,.74-.72c.15-.12.1,0,0,0a.89.89,0,0,0,.22-.16l.41-.27.23-.14c.15-.09-.28.14,0,0l.49-.23.24-.1-.08,0,.47-.13.26-.06h0l.53-.06c.57,0,1.52-.4,1.63-1s-.83-.76-1.28-.73Z"/><path class="cls-8" d="M99.18,202.48a8.39,8.39,0,0,0-8.18,4.3c-.3.6.26,1,.83,1a2.09,2.09,0,0,0,1.9-.83,5.51,5.51,0,0,1,.46-.78l.1-.15c-.14.21,0,0,0,0l.3-.33a4.11,4.11,0,0,1,.3-.29,1.12,1.12,0,0,0,.2-.18c0,.06-.18.14,0,0s.52-.32.76-.5c0,0-.25.13-.08.05l.2-.1.42-.18c.15-.06.23,0-.08,0a.9.9,0,0,0,.22-.06l.39-.11s.34-.07.07,0,0,0,.07,0l.45-.05h.18c-.34,0-.15,0,0,0a4.19,4.19,0,0,1,.5,0,2,2,0,0,0,1.9-.84c.31-.63-.27-1-.83-1Z"/><path class="cls-8" d="M84.9,190.24a9,9,0,0,0-6.5,5.26.91.91,0,0,0,.88,1.23,1.87,1.87,0,0,0,1.89-.89,7,7,0,0,1,.37-.78l.12-.21,0-.06h0l0-.07.13-.19c.18-.23.36-.46.56-.67l.14-.14.07-.07c-.16.16,0,0,0,0l.18-.16c.23-.18.46-.35.7-.51l-.08.05.17-.1.42-.22.36-.16c.11,0,.37-.1-.08,0l.19-.06a6.7,6.7,0,0,1,.88-.23,1.77,1.77,0,0,0,.94-.57,1,1,0,0,0,.24-.82c-.25-.72-1.11-.74-1.72-.62Z"/><path class="cls-8" d="M71.45,177.89a10.75,10.75,0,0,0-6.64,5.61c-.29.61.25,1,.84,1.07a2,2,0,0,0,1.9-.85c.13-.27.27-.54.42-.8l.24-.39.12-.17c0-.05.17-.29,0,0A6.54,6.54,0,0,1,69.55,181c.15-.13.06,0,0,0l.2-.16.33-.25c.25-.18.51-.33.76-.5-.09.07-.26.15-.06.05l.18-.1.45-.21.38-.16c.29-.11-.36.12-.06,0l.24-.07a2.2,2.2,0,0,0,.95-.54.82.82,0,0,0,.26-.74c-.22-.63-1.16-.66-1.69-.5Z"/><path class="cls-9" d="M151.51,259.15c3.41.11,8.2.94,11.62,1.05.86,0,2.05-.28,2-1.13-.07-.55-.67-.87-1.21-1-11.09-3.21-17.28-4.84-24.88-6.17,2.52-1.84,7.72-3.53,8.3-6.59a1.18,1.18,0,0,0-.16-1c-.43-.44-1.15-.05-1.64.32-4.75,3.66-10.84,5.05-16.78,5.88-2.23.31-4.69.51-6.54-.77a29.1,29.1,0,0,1-4.94,8c5.36,1.48,10,4.75,15,7.2a52.26,52.26,0,0,0,26.06,5.2,13.72,13.72,0,0,0,4.59-.9.37.37,0,0,0,0-.68c-3.87-1.9-9.06-.45-12.63-3,5.29-2.05,11.82,1.11,16.84-1.06a.8.8,0,0,0,0-1.46,11.51,11.51,0,0,0-5-.53,37.09,37.09,0,0,1-9.57-.95,1.12,1.12,0,0,1-.72-.37c-.41-.59.33-1.71-.33-2"/><path class="cls-9" d="M150.57,259.75c4,.16,7.94,1.13,11.92,1.05,1.13,0,3.82-.38,4-1.85.11-.86-.8-1.25-1.46-1.47-1.12-.37-2.27-.66-3.41-1a214.35,214.35,0,0,0-21.47-5.19l-.08.62c2.31-1.63,5.1-2.55,7.16-4.53a4.12,4.12,0,0,0,1.52-2.86c-.14-1.73-2.61-1-3.58-.49-1.62.78-3,2-4.62,2.83a29.1,29.1,0,0,1-5.38,1.89,54.56,54.56,0,0,1-5.81,1.1c-2,.29-4,.48-5.85-.66-.6-.38-2.51.07-2.8.75a29.62,29.62,0,0,1-4.82,7.8c-.19.22-.18.38.12.47,4.48,1.28,8.43,3.73,12.51,5.92a55.76,55.76,0,0,0,12.59,5,53.43,53.43,0,0,0,13.56,1.63,30.3,30.3,0,0,0,6.52-.56c.61-.14,4.39-1,3.07-2.2a6.65,6.65,0,0,0-2.82-.91,29,29,0,0,0-3.09-.37c-2.34-.2-4.71-.35-6.73-1.69l-.86.84c3.08-1.12,6.68-.16,9.85,0a18.35,18.35,0,0,0,4.85-.37c1-.23,3.11-.58,3.49-1.74.86-2.57-7-1.83-8.09-1.86a35.91,35.91,0,0,1-6.2-.71c-.76-.16-1.56-.17-1.52-1.11,0-.56.23-1-.3-1.39s-3.16.69-2.73,1c.78.55-.42,1.78.87,2.32a18.67,18.67,0,0,0,4.89.88,38.07,38.07,0,0,0,5.12.22c1.26,0,4.33-.49,5.08.8.09.17-.13.69.18.38a2.85,2.85,0,0,1-1,.27,12.15,12.15,0,0,1-2.17.12c-1.52,0-3-.2-4.55-.32a20.2,20.2,0,0,0-8.77.85c-.14.05-1.3.55-.86.84,2.88,1.91,6.35,1.62,9.61,2.12a11.45,11.45,0,0,1,2.44.6c.2.08.39.18.59.25.49.18.55,0,0,.13a8.18,8.18,0,0,1-1.57.27,41.7,41.7,0,0,1-6.12.12,53.31,53.31,0,0,1-23.39-6.77c-3.91-2.13-7.77-4.41-12.08-5.64l.12.47a30.7,30.7,0,0,0,5.06-8.1l-2.79.74c3,1.89,6.89,1,10.13.45a45,45,0,0,0,10.37-2.93,26.06,26.06,0,0,0,4.62-2.57c.23-.16.78-.42.93-.68-.82,0-1.15.29-1,.85a2.45,2.45,0,0,1-.16.7,3.79,3.79,0,0,1-.88,1.38c-1.9,2-4.74,2.86-7,4.43-.22.15-.57.53-.08.62,5.8,1,11.51,2.41,17.19,4l5.39,1.52a10.57,10.57,0,0,1,2.76.86.87.87,0,0,1,.49.65c.5.11.58.16.26.13a5.36,5.36,0,0,1-1.26-.07c-3.4-.25-6.77-.84-10.19-1a3.27,3.27,0,0,0-2,.55c-.39.32-.46.63.17.65Z"/><path class="cls-10" d="M132.83,108.05c2.85,5.91,5.69,10.71,4.85,17.49-.39,3.18-1.16,5-3.89,6.69-1.62,1-2.23,1-3.07,2.77s5.22.5,6-.54a27,27,0,0,0,4.06-25.74c-.68-1.88-6.9,0-6.28,1.68A25.29,25.29,0,0,1,131,134.6l6-.53c.29-.61,3.21-1.55,4.08-2.4,2-1.9,2.56-4.39,2.88-7.06.88-7.09-1.78-12-4.82-18.24-.9-1.88-7,.18-6.27,1.68Z"/><path class="cls-10" d="M134.82,140.54c-.06,2.27-1.8,9.17,1.91,9.17,1.28,0,5.07-.4,5.15-2.2.07-1.5-.11-5.23.71-6.35l-4.19,1.54c.66,0,3,6.41,3.38,7.23.72,1.62,6.83-.42,6.28-1.68l-3.35-7.64-6.09,1.94a42.57,42.57,0,0,1,6.42,9.83,15.1,15.1,0,0,1,1.66,4.75c.29,3.41-1.68,4.31-3.84,6.32-3.56,3.31-6.74,7.55-3.45,12.32.93,1.36,6.34.08,6.28-1.68-.36-9.7,2.63-19.15-1.81-28.17l-6.09,1.93a9.45,9.45,0,0,1,4.07,10.54c-.38,1.5,5.79.62,6.21-1a10.42,10.42,0,0,0-4.38-11.68c-.94-.64-6.8.49-6.09,1.94,2.54,5.16,2.84,9,2.09,14.69a80.91,80.91,0,0,0-.28,13.48l6.28-1.68c-5.39-7.81,5.44-9.94,7.13-15.94s-4.73-13.59-8.29-17.8c-.89-1-6.67.64-6.09,1.94l3.34,7.64,6.28-1.68c-1.74-3.88-2.59-9.09-7.77-8.16s-4.48,4.71-4.68,9.1l5.15-2.19c.3,0,.32-7.44.34-8.14,0-1.12-6.23-.25-6.28,1.68Z"/><path class="cls-10" d="M132.54,136.65l.1-.08a1.48,1.48,0,0,0,.33-2,2.36,2.36,0,0,0-2-.89c-1.57-.07-3.82.62-4.32,2.32-.42,1.44,1.15,3.45,1.6,4.82a22.82,22.82,0,0,1,1.13,6.45c.08,2.89,6.22,1.73,6.31-.66l.07-1.6c.11-2.88-6.22-1.74-6.32.65l-.06,1.61,6.31-.66a26.55,26.55,0,0,0-.72-6,23.75,23.75,0,0,0-1-3c-.18-.43-1.15-1.9-1-2.32l-4.32,2.32h.19l-1.74-.7.11.18.33-2-.1.09c-1.11.92-.5,2.18.69,2.56a5,5,0,0,0,4.44-1.19Z"/><path class="cls-10" d="M123.11,171.33c-4.62-5.64-10.08-13.37-4.94-20.5,3.43-4.77,9.2-7.19,10.25-13.48l-6.24,1.4c.61,3.22,1.59,6.54,1.84,9.8.33,4.41-2.06,5-5,7.37-4.23,3.29-3.32,9-3.41,13.89l6.28-1.69c-1.44-5.38-2.88-11.45,1.08-16.17,2.24-2.68,4.9-4.28,4.86-8.16,0-1-6.3-.09-6.28,1.69,0,4.66-5.39,6.91-6.82,11.16s-.25,8.94.88,13.17c.37,1.38,6.25-.19,6.28-1.69.06-3.25-.7-8.26,1.09-11.08,1.29-2,4.3-2.61,5.88-4.42,3.46-4,.49-11.05-.37-15.55-.25-1.31-6,.18-6.23,1.39-1.24,7.38-9.57,9.64-11.84,16.41-2.37,7.1,2.58,13.44,6.8,18.59,1,1.17,6.86-1,5.92-2.13Z"/><path class="cls-10" d="M127.39,136.86c-.58-3.44-3.24-4.72-6.41-5.37-5.34-1.11-10.77-1.61-16.11-2.88a131.72,131.72,0,0,1-14.7-4.33c-3.26-1.18-6.08-2.4-3.89-6.34,1.21-2.17,4-4.27,5.75-6.06l5.27-5.55,3.3-3.46,1.32-1.39c.79-.81.89-.92.28-.33.31,1-1.14,5.52-1.29,6.84a42.13,42.13,0,0,0-.21,7.19c.63,9.58,6.15,14.87,14.4,18.82l4.29-3.73c-5.47-1.51-10.9-3.14-16.27-5-4.55-1.54-10.24-2.79-14.08-5.84-1.32-1-3.62-3.26-2-4.7.91-.82,4-1,5.31-1.52,4.36-1.81,8-4.83,11.6-7.88l-4.09-2.59c-4.34,3.76-20.25,16.6-10.66,22.53,1.5.93,5.52.23,5.61-2l.26-5.69L89,119.23l5.86,6.55c1.3,1.46,6.15.82,6.06-1.62a21.07,21.07,0,0,0-2-8.63l-6,2.18,3.95,5.84c1.34,2,6.58.35,6-2.19l-2-9.11-6,2.18L98.43,121c1,1.89,6.07.5,6-1.63a35.39,35.39,0,0,0-.91-7.81c-.64-2.7-6.91-1.07-6.28,1.68a38.2,38.2,0,0,0,7.21,15.15c1.36,1.75,7.2.16,6-2.18l-5.24-10.46c-1.2-2.4-7-1.14-6.28,1.68l2.29,8.29,6-2.18-1.18-1.67c-1.23-1.72-6-.63-6.06,1.63l0,2c-.07,3.09,6.28,2.05,6.34-.56l0-2-6,1.62,1.18,1.67c1.34,1.88,6.73.38,6-2.18l-2.29-8.29L99,117.39l5.24,10.47,6-2.19a35.36,35.36,0,0,1-6.7-14.15l-6.28,1.68a29.35,29.35,0,0,1,.85,6.7l6.06-1.62-3.55-6.53c-1.15-2.12-6.56-.28-6,2.19l2,9.11,6-2.18-4-5.84c-1.28-1.9-7.12-.14-6,2.18a18.63,18.63,0,0,1,1.95,7.52l6.05-1.63-5.86-6.55c-1.37-1.54-6-.78-6.05,1.62l-.25,5.68,5.61-2c-5.66-3.5,7.32-14.28,9.86-16.48,3.21-2.78-1.84-4.52-4.09-2.59a47,47,0,0,1-8.13,6.11c-2.84,1.51-6.16,1.15-8.93,2.54-3.64,1.82-3.46,6-1.29,9,2.9,3.91,8.21,5.46,12.57,7.05,7.1,2.58,14.32,4.83,21.61,6.84,1.77.49,7.37-2.26,4.28-3.73-6.14-2.95-11-6.27-12.52-13.35a30.45,30.45,0,0,1-.21-9.76c.26-2.45,1.19-5.15.86-7.62-.47-3.53-3.91-4.33-7-3.25-4.9,1.73-8.89,8-12.35,11.61-3.06,3.23-9.15,7.51-10.12,12.11-.8,3.79,2.5,5.92,5.54,7.17a114.18,114.18,0,0,0,17.84,5.38q3.87.88,7.79,1.59c3,.53,10.6.26,11.25,4.13.45,2.68,6.75,1.12,6.28-1.69Z"/><path class="cls-10" d="M97.37,108.89a5.37,5.37,0,0,1-.49,1.72c-.08.14-.16.28-.25.42s-.27.41-.16.26-.17.19-.2.22a6,6,0,0,1-.45.42,1.4,1.4,0,0,0,.67,2.52,5.16,5.16,0,0,0,4.44-1.19,8.22,8.22,0,0,0,2.74-5c.36-2.75-6-1.71-6.3.67Z"/><path class="cls-11" d="M136.79,99.69a6.93,6.93,0,0,0-4.61,6c-.24,2.9.67,5.78,1.37,8.56,1.07,4.24,1.85,8.83.5,13.1-1.13,3.55-4,6.93-7.86,7.37l.57.12c-2.39-2.34-5.54-3.46-8.56-4.78-3.43-1.51-6.26-3.45-7.94-6.92a37.16,37.16,0,0,1-3-11.66,55.83,55.83,0,0,1,0-13.67.24.24,0,0,0-.15-.26l-6.3-3.58a1.07,1.07,0,0,0-1.3.44,26.31,26.31,0,0,1-8.83,11.44c-3.38,2.64-7.49,4.41-10.43,7.61-2.7,2.93-3.29,6.79-.94,10.15,2.7,3.85,7.65,6.15,12,7.59,5,1.68,10.07,1.79,15.33,1.74,4.89,0,10.48.33,14,4.15.79.85,1.86,2.13,1.64,3.38s-1.58,2.16-2.45,2.86c-1.74,1.41-3.67,2.55-5.48,3.85-3.29,2.37-6,5.42-6.19,9.69-.16,4.89,2.62,9.55,5.94,12.94s8.82,7.07,7.55,12.41c-.14.56,1.29.28,1.44-.18,1.46-4.42-.1-9-.91-13.4a16.1,16.1,0,0,1-.14-6.77,11.26,11.26,0,0,1,3.84-5.61,19.6,19.6,0,0,0,4.24-4.53,8.08,8.08,0,0,0,.68-6.06c-.56-2.28-1.66-4.39-2.4-6.61a11.44,11.44,0,0,1-.73-3.2c0-.85.22-1,1.09-1.06a4.44,4.44,0,0,1,2,.4,6.67,6.67,0,0,1,4,5.77c.2,3.28-1.56,6.34-3.6,8.77l1.4-.07c.58-1.44,2.3-1.55,3.51-.84a5.48,5.48,0,0,1,2.25,3.65c.76,3.45,0,7.12-.26,10.58-.44,5.2,0,11.27,4.68,14.5.34.24,1.33-.06,1.3-.55-.44-6.21,5.24-10.74,7.94-15.77a10.62,10.62,0,0,0,1.13-8.46,22.79,22.79,0,0,0-6.67-9.27,28.05,28.05,0,0,0-10.84-5.95l-.15.7a18.06,18.06,0,0,0,10.61-19.75,18.69,18.69,0,0,0-3.78-7.71c-2.28-3-4.94-5.9-5.74-9.72-.1-.51-1.56-.14-1.45.39.79,3.75,3.35,6.64,5.62,9.6s3.93,6.08,4.16,9.87c.42,6.86-3.49,14.11-10,16.71-.34.14-.67.55-.15.7a27,27,0,0,1,10.09,5.48c2.84,2.45,5.65,5.73,6.85,9.34,2,6.1-3.22,11.11-6.28,15.75-1.69,2.56-3,5.35-2.79,8.48l1.3-.55c-6.86-4.69-3.87-14.41-3.82-21.2,0-2.75-.37-6.61-3.37-7.77-2-.77-4.74-.15-5.59,2-.23.57,1.22.14,1.4-.07,2.7-3.23,5.17-8.2,2.78-12.28a6.65,6.65,0,0,0-8.83-2.75c-.08,0-.27.2-.27.31,0,3.45,1.69,6.43,2.75,9.62a9.59,9.59,0,0,1,.53,5.24,8.85,8.85,0,0,1-2.71,4.24c-2.2,2.13-4.79,3.93-5.88,6.92s-.47,6.46.17,9.56c.8,3.8,1.85,7.76.6,11.58l1.44-.18c1-4.35-2.44-7.85-5.32-10.59-3.38-3.21-6.52-6.62-7.73-11.26s.48-8.83,4.21-11.81c1.74-1.38,3.67-2.52,5.47-3.83,1.37-1,3.67-2.45,4-4.26s-1.74-3.95-3.11-5a15,15,0,0,0-5.45-2.5c-5.15-1.3-10.52-.31-15.75-.83a32.51,32.51,0,0,1-15.09-5.41c-3.71-2.56-6.75-7-4-11.4,2.54-4.12,7.67-6.08,11.38-8.94a27.45,27.45,0,0,0,9.27-12l-1.3.44,5,2.86c.47.27.88.36,1,.92a5.32,5.32,0,0,1-.15,1.42q-.15,1.66-.21,3.33a55.75,55.75,0,0,0,.73,11,31.46,31.46,0,0,0,3.09,10.18A13.77,13.77,0,0,0,115.4,130c2.7,1.35,5.65,2.22,8.18,3.91.91.61,1.6,1.74,2.77,1.59a10.12,10.12,0,0,0,3.8-1.35c5.76-3.45,6.68-10.52,5.65-16.59-.88-5.17-5.31-14.36,1.57-17.23.93-.39.08-.88-.58-.61Z"/><g id="face"><path class="cls-9" d="M92.79,43.57a166,166,0,0,0-1.88,32.88l14.45-4.89c-3.82-4.68-5.2-10.68-4.85-16.65a49.72,49.72,0,0,1,1.58-9.29c.63-2.52,1.27-7.15,3-9.09l-6,3.5c-4.26,1.1,1.22.81,2.65,1q2.7.39,5.38.85c3.81.64,7.64,1.32,11.39,2.23,7.51,1.82,12.49,5.77,13.73,13.72,1.16,7.42-1.21,15.38-2.72,22.61-.76,3.62-1.57,7.23-2.56,10.8-.64,2.33-1.64,8.84-4,10l5.67-1.91c1.3,0,1.14-.34-.47-.92-1.08-.7-2.15-1.43-3.19-2.19-1.36-1-2.7-2-4-3.08A91.17,91.17,0,0,1,113,85.76c-5.08-5.3-11.7-12-11.76-19.73L87.77,71.58c8.77,4.28,15.91,12.21,23.15,18.64,2.8,2.48,16.94-.51,14.45-4.9a31.57,31.57,0,0,0-6.76-8.53c-3.49-3.07-17.83,1.5-13.93,5.77l9.86,10.79c3.35,3.67,17.64-1.61,13.93-5.78L116.69,74.35c-3.13-3.51-17,.61-13.93,5.77a145.14,145.14,0,0,0,10.48,15.1c3,3.74,17.13-.77,13.92-5.77L114.24,69.24,100.31,75l16.26,19.86,13.92-5.77a159.56,159.56,0,0,1-17.3-25.27l-14.45,4.9L117.08,87c3.27,3.25,17.38-.79,13.93-5.77L116,59.55l-13.93,5.77a165.43,165.43,0,0,0,14,15.22c3.3,3.15,17.36-.69,13.93-5.77L117.36,56,103.43,61.8l16.91,14.32c3.41,2.88,17.78-1.1,13.93-5.77L118.59,51.28l-13.93,5.78,12.75,11.13c3.37,2.94,17.69-1,13.92-5.78L117,44.33,103.1,50.1l14.94,14c3.54,3.31,17.79-1.72,13.93-5.77a186.53,186.53,0,0,1-14-16.61L105,48.14a98.2,98.2,0,0,1,14.26,9.5c3.74,3,17.94-2.12,13.92-5.78L120.36,40.2l-13,6.43a60.38,60.38,0,0,0,19,3.85l-4.54-2.1a79.35,79.35,0,0,1-2.59,49.29l8.54-5-1.09.11,4.92.45c-.91,0-1.33-.5-1.24-1.44-.92-4.88-16-1.27-15,4,.92,4.84,6.23,5.26,10.26,4.85,3-.31,7.36-1.87,8.54-5a83.33,83.33,0,0,0,2.61-51.34c-.48-1.82-3.05-2-4.53-2.1a41.43,41.43,0,0,1-13-2.72c-3.1-1.17-6.87-.42-9.74,1-1.48.75-5.44,3.36-3.2,5.39l12.84,11.66,13.92-5.78A112.17,112.17,0,0,0,117,41.06c-3.09-1.7-16.58,1.55-12.94,6.42a185.12,185.12,0,0,0,14,16.61L132,58.32,117,44.33c-3.36-3.15-17.63,1.09-13.93,5.77l14.31,18.09,13.92-5.78L118.59,51.28c-3.4-3-17.75,1.14-13.93,5.78l15.68,19.06,13.93-5.77L117.36,56c-3.34-2.83-17.45.56-13.93,5.78l12.66,18.74L130,74.77a165.32,165.32,0,0,1-14-15.22c-3-3.73-17.28.93-13.93,5.77l15,21.65L131,81.2,112.67,63c-2.81-2.78-16.81.6-14.45,4.89a169.62,169.62,0,0,0,18.35,27c3.15,3.79,17.52-1.38,13.92-5.77L114.24,69.24c-3-3.68-17.14.76-13.93,5.78l12.93,20.2,13.92-5.77a146.6,146.6,0,0,1-10.47-15.1l-13.93,5.77,11.78,13.23,13.93-5.78-9.86-10.78-13.93,5.77a25.75,25.75,0,0,1,5.71,6.77l14.45-4.89c-7.87-7-15.55-15.28-25.12-19.94C96,62.66,86.22,64.92,86.26,70c.06,7.35,5.88,13.8,10.52,19a91.23,91.23,0,0,0,17.59,15.22c6.33,4.23,14.07,4.54,20.33-.36,5.48-4.28,6.89-12.77,8.42-19.11,3.06-12.71,9.92-33.45-2.62-43.3C134.79,37,126.92,35.9,120,34.62s-15.69-3.78-22.76-1.76c-8.87,2.55-10.32,13.19-11.39,21.2-1.12,8.37.15,16.61,5.59,23.28,3,3.68,14.65,0,14.45-4.9a156,156,0,0,1,1.85-30.83c.89-5.56-14.16-3-14.94,2Z"/><path class="cls-9" d="M149.14,58.14a4.63,4.63,0,0,1,6.24.71,6.24,6.24,0,0,1,.68,6.56A9.74,9.74,0,0,1,151,70c-1.79.78-4,1.38-4.73,3.19"/><path class="cls-9" d="M85.1,48.59a2.93,2.93,0,0,0-3.49-1.94,4.25,4.25,0,0,0-2.92,3.05,8.12,8.12,0,0,0,.16,4.37,8.47,8.47,0,0,0,2.39,4.25c1.17,1,2.71,1.56,4,2.45a8.15,8.15,0,0,1,3,3.84.2.2,0,0,1-.29.23A.19.19,0,0,1,88,64.5"/><path class="cls-12" d="M94.91,83.48a41.91,41.91,0,0,1-4.46-35.81,40,40,0,0,1,9.7-15.76,33,33,0,0,1,8.32-6.16c4-2,8.8-.19,12.8,1.2,7.24,2.53,14.18,6.6,19.11,12.57,4.51,5.47,6.66,12.34,7.11,19.35s-.65,14.26-2.13,21.21c-1.58,7.38-3,15.6-7.64,21.77-2.33,3.11-5.68,5.82-9.57,6.59-4.15.83-8.19-.87-11.58-3.15a80.33,80.33,0,0,1-9.08-7.6,94.77,94.77,0,0,1-8.7-9,59.65,59.65,0,0,1-3.88-5.21c-.27-.4-1.61.14-1.45.39,4.84,7.3,11.32,13.44,18,19,3.1,2.61,6.55,5.12,10.56,6a15.09,15.09,0,0,0,10.22-1.37c7.57-3.81,10.75-12,12.7-19.75a122.82,122.82,0,0,0,4-22.34c.46-7.38-.34-15-3.9-21.61-3.75-7-10.23-12.06-17.29-15.4a54,54,0,0,0-12-4.06c-3.92-.8-7.17.32-10.46,2.42A39.31,39.31,0,0,0,91.92,41.2a42.36,42.36,0,0,0-1,38.29,41.13,41.13,0,0,0,2.49,4.38C93.72,84.27,95.07,83.73,94.91,83.48Z"/><path class="cls-10" d="M152,38.76a6.56,6.56,0,0,1,3,3.89l5.52-3.55c-.45.13-3.26-2-3.94-2.41-1.39-.86-2.68-1.87-4-2.79a58.88,58.88,0,0,0-8.84-5A89.41,89.41,0,0,0,125,22.94C111.5,20.07,98,18.86,84.7,23.49c-.87.31-4.34,1.56-3.94,3.05s4,.79,4.93.67c16.19-2.17,32.11,1.27,46.8,8,5.49,2.53,11.7,6.1,17.87,6.4,4,.19,12.38-1.14,13.65-5.84,1.42-5.27-8-10.55-11.56-12.7a127.55,127.55,0,0,0-19.86-9.7C119.22,8.2,104.84,5.75,90.56,8c-5.47.84-13.9,2.56-16.8,8-3.26,6.1,3.63,10.3,8.5,12,1.88.65,11.62-.94,11-4-.42-2.06-1.41-5.7-.09-7.63,1.2-1.75,5.11-.89,7.29-.57A79.24,79.24,0,0,1,117,20.54a134.41,134.41,0,0,1,29.74,16.19l11.37-4.14a111.91,111.91,0,0,1-20.47-14.48L127,22.55a15.41,15.41,0,0,1,5.79,3.7l10.64-4.44q-7.74-1.86-15.32-4.28c-2.31-.73-5.65.34-7.75,1.24-.67.29-4.55,2.11-2.88,3.2Q124,26.25,130.77,30l11.37-4.14a177,177,0,0,0-24.95-9.25c-2.58-.74-6.14.36-8.44,1.52-1.15.58-4.07,2.43-1.46,3.21l11.2,3.36L128.4,20l-11.72-2.24c-2.18-.41-9.19-.72-7.49-4.59,1.27-2.88-8.63-.22-9.45.2L96.2,15.2c-4.61,2.38-1.15,3.68,2.38,3.13L107.1,17l-2.38-3.13c.9-.48,5.71-.46,2.55-.91a12.46,12.46,0,0,0-2.59,0A22.92,22.92,0,0,0,98,14.49c-2.86,1.1-6.16,2.71-5.9,6.17L103.81,17l-.7-.45c-2.26-1.46-7.14.17-9.18,1.23l-.74.38c-.76.4-2.76,1.26-2.54,2.47l.15.82a1.31,1.31,0,0,0,1.09.75l.79.27-1-1.32-1.15,2c-1.29,2.25,6.17,1,6.47.87l3.58-1.11c1.74-.54,8.79-3.88,3.39-4.43L99.65,18a13.62,13.62,0,0,0-8.54,2.29c-1.78,1.39-1.73,2.47.73,2.72l4.31.44,3.39-4.43L96,20.17l6.47.88,1.16-2c.43-.76-.5-1.15-1-1.32l.14-.35-2.54,2.46.74-.38-9.18,1.22.71.46c2.06,1.33,12-.41,11.72-3.69,0,.18-8.14.64-2.77.62a22,22,0,0,0,3.43-.23,21.4,21.4,0,0,0,6.87-2.24c4.56-2.41,1.18-3.68-2.38-3.13l-8.52,1.31,2.38,3.13,3.54-1.82-9.45.2c-1.46,3.33,1.25,5.35,4.22,6.19,5.49,1.56,11.4,2.21,17,3.27a14.06,14.06,0,0,0,8.45-1.52c1.14-.57,4.06-2.43,1.46-3.21l-11.21-3.36-9.9,4.73A169,169,0,0,1,130.77,30c2.34,1.07,5.5.2,7.79-.65.58-.21,5.47-2.44,3.58-3.49q-6.78-3.8-13.27-8.06l-10.64,4.44q7.58,2.41,15.31,4.27c1.66.4,13.12-2.07,10.64-4.43a19.1,19.1,0,0,0-7.25-4.3c-1.88-.66-13,2.36-10.64,4.44a111.91,111.91,0,0,0,20.47,14.48c2.63,1.45,13.41-2.69,11.37-4.14-13.44-9.6-29.32-17.94-45.65-21.18-7.57-1.5-15.84-1.6-23.19,1.06s-9.66,7.22-8.11,14.74l11-4c-2.76-1-6.12-2.76-7-5.8-1-3.64,1.3-4.67,4.16-5a60.19,60.19,0,0,1,21.41,1.87c12.85,3.23,27.23,9.16,37.32,18,1.32,1.15,3.19,2.58,3.74,4.28l.14,2q8-1.55,4.15-2.41c-2.7-1.74-6.86-2.56-9.85-3.93a127.44,127.44,0,0,0-18.93-7.41c-12.89-3.55-26.22-3.94-39.42-2.18l1,3.72c6.63-2.31,14.46-.82,21.19.36a100.36,100.36,0,0,1,19.44,5.14c6,2.38,10.84,6.13,16.34,9.41,5.06,3,10,3.25,15.64,1.69,1-.27,6.11-1.72,5.52-3.54a8.18,8.18,0,0,0-3.65-4.79c-2-1.32-5.77-.1-7.79.65-.66.24-5.4,2.3-3.58,3.49Z"/><path class="cls-13" d="M154.88,46.12c-5.34-8.34-15-11.49-24.09-13.81-12-3.06-24.21-5.86-36.71-4.46-2.63.3-6.4,1.87-6.63,5s3.09,4.43,5.63,4.14c10.48-1.18,20.69,1.11,30.8,3.69,7.51,1.91,15.54,3.94,20,10.85,3,4.75,14.51,0,11-5.39Z"/><path class="cls-14" d="M155.36,43.55c1.43-.64,3.37.89,4.46,1.65a9.9,9.9,0,0,0,2.66,1.47,4.83,4.83,0,0,0,4.64-.57c1.92-1.66.44-4.44-.62-6.14a40.51,40.51,0,0,0-4.76-5.86,82.52,82.52,0,0,0-23.25-17.32,86.83,86.83,0,0,0-27-8.42c-9.28-1.28-19.29-1.29-28.41,1A11.43,11.43,0,0,0,76.73,13a9.7,9.7,0,0,0-2.12,6.48c.26,5,5,8.64,9.82,8.5L84,27.89c.74,2.08-.25,4.19,0,6.31s2.15,2.54,4,2.49a162.55,162.55,0,0,1,16.52.21,92.6,92.6,0,0,1,31.2,7.59,69.32,69.32,0,0,1,7.38,3.9c1.12.68,2.22,1.39,3.3,2.14a11.37,11.37,0,0,0,3.16,1.87,3.26,3.26,0,0,0,4-1.9c.87-2.22,0-4.62-1.33-6.46-3-4.23-8.39-6.61-13.1-8.41-5.6-2.15-11.39-4-17.15-5.64-12.18-3.51-25.48-5.31-37.53-.31-.94.39-.06.66.53.42,10.47-4.35,22.11-3.13,32.82-.33,5.42,1.42,10.74,3.21,16.05,5,4.87,1.65,9.79,3.5,13.91,6.65A12.07,12.07,0,0,1,152.15,47a5.67,5.67,0,0,1,.12,3.36c-.23.76-.59,1.43-1.51,1.42-.65,0-1.46-.71-2-1.06a75.09,75.09,0,0,0-12.25-7,92,92,0,0,0-28.16-7.21,128.34,128.34,0,0,0-16-.6c-2.24.05-6.4,1.05-6.83-2.09-.3-2.12.7-4.22,0-6.31-.06-.15-.3-.14-.43-.14a8.91,8.91,0,0,1-9-8.06,9.3,9.3,0,0,1,1.77-6.05c1.61-2.19,4-3.09,6.61-3.61a78.56,78.56,0,0,1,26.45-.57,84.8,84.8,0,0,1,46.68,22.69c1.75,1.69,3.42,3.47,5,5.32s4,4.59,4,7.26c0,4.17-4.94.6-6.46-.35-1.81-1.14-3.62-1.61-5.64-.71-.87.39.47.44.86.27Z"/><path class="cls-15" d="M126.41,12c2.47-.13,6-1.47,6-4.43,0-1.38-.93-2.18-1.89-3l-3.42-3a1.86,1.86,0,0,0-1.93-.07c-.31.15-1.27.77-.75,1.23l2.81,2.46c.47.41,1,.81,1.4,1.23a2.5,2.5,0,0,1,.78,1.09,2.24,2.24,0,0,1-.58,2.15,1.7,1.7,0,0,1-.48.35c.13-.08,0,0-.06,0s-.45.15-.16.07l-.35.1-.11,0-.87.09c-.55,0-1.52.39-1.63,1s.85.71,1.26.68Z"/><path class="cls-11" d="M147.24,52.45c.66,2.43,1.33,4.85,2,7.29a4.19,4.19,0,0,1,0,3.15c-.06.11-.38.36-.4.46-.18.11-.08.1.3,0a.14.14,0,0,1-.11-.13,8.23,8.23,0,0,0,.26-1.8c.53-4.09.44-8.84-3-11.72l-2,.78,1.42.85a10.24,10.24,0,0,1,1.32.79c.43.37.32,1.15.36,1.69s.08,1,.13,1.58c.2,2.2.48,4.38.85,6.56.09.54,2.28.05,2.17-.59q-.57-3.39-.87-6.82c-.05-.52-.09-1-.12-1.58,0-.31-.05-.62-.06-.92s0-.41-.31-.63c-.9-.63-1.91-1.14-2.85-1.71a1.77,1.77,0,0,0-1.42.08c-.17.06-.95.42-.62.7,3.91,3.28,3.26,8.86,2.57,13.34a.19.19,0,0,0,.06.22,3.51,3.51,0,0,0,3.32-.29,3,3,0,0,0,1.5-2.83,19.9,19.9,0,0,0-1-4.3l-1.26-4.71c-.16-.58-2.33,0-2.18.58Z"/><path class="cls-11" d="M96.08,36.18c-2.34,3-3,7-2.94,10.85s.62,7.63.39,11.44a1.41,1.41,0,0,1-.31,1,1.43,1.43,0,0,1-.93.29c-1.35.08-2.7.1-4,.07a1.18,1.18,0,0,1-.85-.25,1.23,1.23,0,0,1-.25-.72Q86.07,48.77,85,38.71c-.09-.88,0-2,.81-2.31a2.19,2.19,0,0,1,1.26.12,12.26,12.26,0,0,0,7.82-.42,8.08,8.08,0,0,1-4.54.74,6.74,6.74,0,0,0,3.43.79L92.08,38"/><path class="cls-11" d="M95.18,35.89c-4.74,6.35-2.55,14.26-2.71,21.54,0,.27.11,1.29-.07,1.48s-.67.09-.9.1c-.72,0-2.74.41-3.22-.23-.21-.27-.13-1.06-.17-1.42L88,56c-.12-1.17-.25-2.33-.37-3.5q-.69-6.31-1.34-12.63A14,14,0,0,1,86.08,38a3.83,3.83,0,0,1,0-.47c.06-.31.07-.38.24-.41a8,8,0,0,1,1.36.39,13.89,13.89,0,0,0,7.66-.81l-.94-1.19a6.85,6.85,0,0,1-3.68.58c-.51-.06-2.25.83-1.23,1.35a8.73,8.73,0,0,0,4.17.94l-.08-1.44-1.72.35c-1.36.28-1,1.67.38,1.39L94,38.33c1.13-.24,1.17-1.46-.08-1.45a5.6,5.6,0,0,1-2.69-.65L90,37.58a10.12,10.12,0,0,0,5.39-.88c.4-.18.81-.62.53-1.06s-1.08-.28-1.47-.13a12,12,0,0,1-7.13.2c-1.64-.34-3.22.39-3.4,2.17a15,15,0,0,0,.22,3c.13,1.25.26,2.5.4,3.74.26,2.5.53,5,.79,7.48.13,1.17.25,2.34.38,3.51a27.86,27.86,0,0,0,.41,3.77c.46,1.76,3.4,1.2,4.73,1.16,2-.07,3.7-.27,3.82-2.61a64.06,64.06,0,0,0-.24-7.06C94.09,46,93.92,40.56,97,36.47c.81-1.09-1.24-1.32-1.8-.58Z"/><path class="cls-11" d="M122.6,66.79a7.73,7.73,0,0,0,1.68,2.75,18.74,18.74,0,0,0,2.42,1.83c.77.58,1.45,1.54.73,2.45-.86,1.07-2.39.67-3.52.38a.48.48,0,0,0-.51.13c-.09.13-.08.3.09.35,1.31.34,2.76.66,4-.14a1.92,1.92,0,0,0,.73-2.64c-.57-.94-1.7-1.39-2.54-2.05a7.26,7.26,0,0,1-2.33-3.26c-.11-.32-.83-.12-.72.2Z"/><path class="cls-11" d="M133.85,88a12.68,12.68,0,0,1-11.79,4.76,12.81,12.81,0,0,1-5.69-2.47A13.17,13.17,0,0,1,114,87.94c-.27-.34-2-2.64-1.35-2.93h-.44l.16.09c.25.15.9-.2.56-.39-.57-.34-1.1.11-1.13.74,0,1,1.2,2.42,1.83,3.17a13.32,13.32,0,0,0,20.79-.47c.27-.35-.42-.42-.6-.18Z"/><path d="M125.64,79.89a15.75,15.75,0,0,0,18.4.24c.42-.29.83-.81.25-1.17a2.26,2.26,0,0,0-2.06.26,11.79,11.79,0,0,1-13.91-.48,1.93,1.93,0,0,0-1.92,0c-.29.12-1.3.78-.76,1.2Z"/><path d="M120.59,77.63a24.25,24.25,0,0,1-8.9,3.71,23.57,23.57,0,0,1-4.74.45c-.81,0-1.61,0-2.42-.11-.4,0-.8-.1-1.2-.16l-.68-.12a.65.65,0,0,0-.86.29l-1.1.37.15,0-1-.1-.14-.13c.31,1,3.2.2,2.9-.78-.59-1.86-5.3.63-2.62,1.73a12.92,12.92,0,0,0,3.56.57,29.23,29.23,0,0,0,4,0,29.81,29.81,0,0,0,14.84-4.9c.41-.27.83-.77.25-1.12a2.34,2.34,0,0,0-2,.27Z"/><path class="cls-11" d="M125.13,99.05v6.07l.73-.13a32.34,32.34,0,0,0-1.11-5.92c-.09-.28-.75-.15-.73.13l.22,4.21.7-.19a6.54,6.54,0,0,1-.88-2.88l-.73.13.31,3.67.72-.2-1.1-3.45c-.1-.32-.79-.13-.73.19l.52,2.77c.06.32.78.14.72-.19l-.51-2.77-.73.19,1.11,3.46c.1.32.75.12.72-.2l-.3-3.67c0-.29-.75-.15-.73.13a6.88,6.88,0,0,0,.94,3.13c.13.21.72.07.7-.19l-.22-4.2-.73.13a31.22,31.22,0,0,1,1.11,5.92c0,.29.73.14.73-.13V99c0-.37-.74-.25-.74.06Z"/><path class="cls-11" d="M130.72,51.26a6.13,6.13,0,0,1,7.09-1.76,6.69,6.69,0,0,1,3.89,6c0,.21.72.07.72-.19a6.84,6.84,0,0,0-4.89-6.47,7.39,7.39,0,0,0-7.49,2.4c-.19.24.53.18.68,0Z"/><path class="cls-11" d="M111.87,49.84c-.67-2.81-4.1-3.34-6.4-2.39a11.9,11.9,0,0,0-3.82,2.82,23.78,23.78,0,0,0-3.2,4.08l.68-.12a.57.57,0,0,1,.12-.76c.39-.31-.19-.58-.48-.35a1.07,1.07,0,0,0-.3,1.44c.14.25.56.06.68-.12a17.79,17.79,0,0,1,5.91-6.19,4.82,4.82,0,0,1,3.7-.57A3.33,3.33,0,0,1,111.14,50c.08.35.81.16.73-.19Z"/><path class="cls-11" d="M115.16,60c-.78-3-4-4.29-6.82-4.18a11.51,11.51,0,0,0-5,1.57,27.64,27.64,0,0,0-2.53,1.6l-1.29.91-.7.5-.23.16c-.14.21-.26.22-.37,0l-.38.21H98c.38,0,.59-.49.09-.44-.34,0-.84.33-.55.74s1.11,0,1.44-.2a42.45,42.45,0,0,1,5.79-3.71,8.27,8.27,0,0,1,5.92-.59,5.28,5.28,0,0,1,3.75,3.6c.07.28.8.09.73-.19Z"/><path class="cls-11" d="M109.06,56.77a1.86,1.86,0,0,1,1,1.62,1.78,1.78,0,0,1-.24,1,1.13,1.13,0,0,1-.64.48,1.58,1.58,0,0,1-.88,0,1.68,1.68,0,0,1-.75-.51,1.3,1.3,0,0,1,.15-1.78,1.13,1.13,0,0,1,1.58-.13,1.47,1.47,0,0,1,.2,1.64,1.23,1.23,0,0,1-.51.58.43.43,0,0,1-.27.06,1.5,1.5,0,0,1-.71-.21,1.82,1.82,0,0,1-.82-2.11,1.11,1.11,0,0,1,1.75-.51c.47.45.48,1.51-.15,1.77l.37,0a1.19,1.19,0,0,1-.86-1.12,1.52,1.52,0,0,1,.09-.73.87.87,0,0,1,.45-.47l-.49,0a2.22,2.22,0,0,1,.46,1.12,2,2,0,0,1-.16,1.17c0,.08,0,.07-.09.06a.69.69,0,0,1-.33-.14.59.59,0,0,1-.26-.67.5.5,0,0,1,.2-.25.56.56,0,0,1,.24-.07.68.68,0,0,1,.61.34c.24.45,0,1.3-.55,1.33a1,1,0,0,1-1-1.19.82.82,0,0,1,.47-.54.59.59,0,0,1,.26-.07.7.7,0,0,1,.37.11.93.93,0,0,1,0,1.35.29.29,0,0,1-.2.11h-.09l-.12,0a.93.93,0,0,1-.43-.61.65.65,0,0,1,.19-.7.37.37,0,0,1,.28,0,1,1,0,0,1,.42.21,1.07,1.07,0,0,1-.51,1.76l.34,0a1.53,1.53,0,0,1-.18-2.42l-.52,0a1.56,1.56,0,0,1,.67,1.53l.49-.28a.63.63,0,0,1-.5-.74.36.36,0,0,1,.52-.28.49.49,0,0,0,.52-.05c.1-.08.2-.26,0-.35a1.32,1.32,0,0,0-1.74.54,1,1,0,0,0,.9,1.38c.18,0,.47-.08.5-.28a1.9,1.9,0,0,0-.84-1.87.49.49,0,0,0-.52.05,1.94,1.94,0,0,0-.38,2.7,1.18,1.18,0,0,0,.63.47,1.55,1.55,0,0,0,1-.39,1.61,1.61,0,0,0,.63-1.62,1.41,1.41,0,0,0-1.17-.94,1.29,1.29,0,0,0-1.39.69,1.25,1.25,0,0,0,.23,1.28,1.23,1.23,0,0,0,1.41.32c.88-.35,1.27-1.78.33-2.3a1.62,1.62,0,0,0-2.34,1.37,1.46,1.46,0,0,0,1,1.15,1.63,1.63,0,0,0,1.7-.31,1.46,1.46,0,0,0,.44-1.45,1.17,1.17,0,0,0-1.19-.8,1.44,1.44,0,0,0-1.33.75,1,1,0,0,0,.49,1.21,1.33,1.33,0,0,0,.78.16,1,1,0,0,0,.76-.43,2.63,2.63,0,0,0-.29-2.72c-.11-.15-.35-.1-.49,0a1.72,1.72,0,0,0-.79,2.35,1.4,1.4,0,0,0,1,.83,1.09,1.09,0,0,0,.88-.44,1.7,1.7,0,0,0,.33-.69,1.57,1.57,0,0,0-.37-1.39,1.78,1.78,0,0,0-1.64-.4,2.15,2.15,0,0,0-1.4,1,1.91,1.91,0,0,0,0,1.77,2.06,2.06,0,0,0,3.15.78,1.93,1.93,0,0,0,.29-2.53c-.77-.93-2.25-.55-3,.23a1.65,1.65,0,0,0,.36,2.65,2.34,2.34,0,0,0,3-.43,2.27,2.27,0,0,0-.25-2.87,2,2,0,0,0-.68-.44c-.28-.12-.84.28-.42.46Z"/><path class="cls-11" d="M126.31,59.4c3.07-1.6,6.55-3.17,10.1-2.64a7.79,7.79,0,0,1,6.32,4.66c.08.22.8,0,.72-.19-1.09-2.92-4.07-4.59-7.07-4.88-3.71-.36-7.29,1.21-10.5,2.88-.43.23.22.28.43.17Z"/><path class="cls-11" d="M134.17,57.07c.28,0,.56.29.68.54a.9.9,0,0,1,0,1l.11-.11c-.09.07,0,0,0,0s.05,0,0,0l-.16-.07a.66.66,0,0,1-.27-.36.38.38,0,0,1,.07-.37.19.19,0,0,1,.11-.09h.11c.78,0,.8,1.13.31,1.52l.44-.08c-.62-.16-.7-1.08-.39-1.56a.71.71,0,0,1,.12-.13l.05,0c-.06,0,.1,0,0,0l.07,0h.07l.15,0a1.12,1.12,0,0,1,.56.76,1.14,1.14,0,0,1,0,.55.59.59,0,0,1-.27.37l.51-.06a1.3,1.3,0,0,1-.14-2.17h-.56a2.8,2.8,0,0,1,.18,2.38l.5-.27a1.09,1.09,0,0,1-.46-1.75h-.57a1.36,1.36,0,0,1,.09,1.75l.51-.13a.79.79,0,0,1-.44-1.21l-.43.15a.88.88,0,0,1,.68,1.34.6.6,0,0,1-1.07-.17,1,1,0,0,1,.29-1.29.48.48,0,0,1,.24-.06,1.23,1.23,0,0,1,.42.07,1.26,1.26,0,0,1,.62.52,1.52,1.52,0,0,1-.44,1.88h.56a1.18,1.18,0,0,1-.28-1.19,1.23,1.23,0,0,1,.27-.52.79.79,0,0,1,.22-.19.52.52,0,0,1,.16-.06l-.24,0c.72.57.68,2.11-.28,2.36A1.39,1.39,0,0,1,135,60a1.45,1.45,0,0,1-.33-1.49A2.63,2.63,0,0,1,136,57c.18-.1.32-.3.06-.4a2,2,0,0,0-2.43,1,2,2,0,0,0-.29,1.28A1.69,1.69,0,0,0,134,60a2.79,2.79,0,0,0,2.7.18,2.37,2.37,0,0,0,1.5-2.55,1.53,1.53,0,0,0-1.11-1.2,1.73,1.73,0,0,0-1.7.4.18.18,0,0,0,.08.31A.58.58,0,0,0,136,57a.65.65,0,0,1,.77-.1,1.2,1.2,0,0,1,.7.87,1.86,1.86,0,0,1-1,2,1.92,1.92,0,0,1-1.8-.07,1.41,1.41,0,0,1-.56-1.75,1.72,1.72,0,0,1,.65-.85A.68.68,0,0,1,135,57c.12-.06-.06,0,.06,0l.1,0a.82.82,0,0,1,.48.07l.06-.4a3,3,0,0,0-1.77,2.49,1.8,1.8,0,0,0,1.85,1.69,1.89,1.89,0,0,0,2-1.7,1.83,1.83,0,0,0-.37-1.26,1.75,1.75,0,0,0-.23-.24.57.57,0,0,0-.49-.06,1.6,1.6,0,0,0-.62.29,1.64,1.64,0,0,0-.31,2.41.47.47,0,0,0,.56,0,1.81,1.81,0,0,0,.38-2.76,1.77,1.77,0,0,0-2.7.41,1.44,1.44,0,0,0,.07,1.28,1.23,1.23,0,0,0,1.25.59,1.57,1.57,0,0,0,1.31-1,1.22,1.22,0,0,0-.56-1.36,1,1,0,0,0-1.08-.08.94.94,0,0,0-.31.72,1.14,1.14,0,0,0,.88,1.13A.55.55,0,0,0,136,59a1.68,1.68,0,0,0,0-2.22.5.5,0,0,0-.57,0,1.42,1.42,0,0,0,.66,2.5.5.5,0,0,0,.5-.27,3.07,3.07,0,0,0-.24-2.61c-.11-.18-.45-.05-.57,0a1.66,1.66,0,0,0-.75,1.79,1.53,1.53,0,0,0,.46.82.8.8,0,0,0,.57.26.92.92,0,0,0,.56-.34,1.39,1.39,0,0,0,0-1.68,1.31,1.31,0,0,0-1.83-.29,1.49,1.49,0,0,0-.54,1.59,1.15,1.15,0,0,0,.47.67.86.86,0,0,0,.53.17,1,1,0,0,0,.62-.46,1.17,1.17,0,0,0-.53-1.85,1.49,1.49,0,0,0-1.2.19.83.83,0,0,0-.39.94,1,1,0,0,0,.91.67,1.11,1.11,0,0,0,.7-.21,1,1,0,0,0,.31-.59,1.44,1.44,0,0,0-.31-1.06,1.36,1.36,0,0,0-1.13-.49c-.14,0-.38.11-.4.27s.2.2.32.2Z"/><g id="blick"><path class="cls-16" d="M133.52,58.86c.57,0,1.63-.2,1.92-.78s-.25-.79-.77-.79-1.63.2-1.92.77.24.8.77.8Z"/><path class="cls-16" d="M106.21,58.62c.65,0,1.59-.17,1.89-.86s-.23-1.11-.85-1.11-1.59.18-1.9.86.24,1.11.86,1.11Z"/></g></g><path class="cls-17" d="M238.8,73.81c-3,9-9.3,16.49-12.68,25.36-.34.9,2.54.56,2.9-.38,3.38-8.87,9.66-16.32,12.68-25.36.31-.94-2.58-.57-2.9.38Z"/><path class="cls-17" d="M239,105.26,216.37,94.38a2.06,2.06,0,0,0-2.07.2c-.4.3-.85,1.1-.18,1.42l22.64,10.88a2,2,0,0,0,2.07-.2c.4-.3.85-1.09.18-1.42Z"/><path class="cls-18" d="M268.63,38.8a36.65,36.65,0,0,0-6.85,15.43c-.15.84,2.6.18,2.87-.47a113.5,113.5,0,0,1,6.71-13.42l-2.87.48c-1.46,4.33-3.12,8.6-5,12.78l2.88-.63A25.14,25.14,0,0,1,268.32,44l-2.86.47a41.55,41.55,0,0,1-4.84,9.39l2.87-.47,2.91-7.11c.22-.53-1-.4-1.18-.37a2.51,2.51,0,0,0-1.69.84l-4.47,6.8,2.87-.47a26.77,26.77,0,0,1,3.36-6.48c.62-.86-2.19-.42-2.64.15l-4,5.11,2.75-.31L262.77,49c.39-.76-2.11-.1-2.29,0l-7,3.13,2.17.18A8.52,8.52,0,0,1,259.1,50l-1.37-.66c-2.45,1.22-5.09,2.57-7.88,1.73-2.17-.66-4-2.1-6.29-2.48-1.71-.29-4.2,0-5.42,1.36-.73.83-.55,2.19-.5,3.2a22.82,22.82,0,0,0,.64,4.27c.17.73,3,0,2.89-.77a19.5,19.5,0,0,1,.13-5.5l-2.87.47-.55,4.63,2.88-.63-.58-5.85c-.07-.68-2.79,0-2.88.62l-1.11,7.3c-.29,1.94-.7,4.1.41,5.87,1.68,2.67,5.31,3.07,7.53,5.14.52.49,2.81-.1,2.81-.9,0-5.25-3.15-10.18-2.23-15.46l-2.89.62,0,10.69,2.9-.78-1.06-8.7c-.09-.72-2.74,0-2.89.62a35.93,35.93,0,0,0-.92,10.07l2.9-.77-.74-5c-.1-.68-3-.06-2.9.78a55,55,0,0,0,.94,5.55l2.9-.78-.68-2.54c-.2-.75-2.74,0-2.88.62l-.61,2.65,2.88-.63A19.77,19.77,0,0,1,240,47.56l-2.8.75q7.26,3.57,14.25,7.64c.62.36,3.33-.54,2.72-1q-4.22-3.41-8.69-6.5c-.61-.42-2.74,0-2.81.9a6,6,0,0,0,.61,3.2l2.81-.9-1.52-2c-.47-.61-2.27.2-2.68.59a1.64,1.64,0,0,0-.2,2.24c.74,1,2.3,1.17,3.44,1.41l10,2.07c2.68.56,5.42,1.42,7.87-.31a11.54,11.54,0,0,0,2.5-2.93l2.93-4.14-2.75.31-2.78,5.72c-.25.51,1,.39,1.18.36a2.35,2.35,0,0,0,1.69-.84L266.91,52l-2.86.47a14.75,14.75,0,0,1-2.78,6.5l2.76-.31a10.67,10.67,0,0,1,2.74-5.38l-2.77.46a5.36,5.36,0,0,1-1.23,4.33l2.77-.47a5.8,5.8,0,0,1-.15-4.95c.31-.72-2.43-.15-2.75.31a16.76,16.76,0,0,1-3.23,3.39L262,56a7.88,7.88,0,0,1,.08-2.74c.2-.94-2.28,0-2.55.14l-3.41,2.08,2.55-.14a9.15,9.15,0,0,1,2.2-3.41c.77-.77-1.62-.41-1.84-.33l-4.15,1.63,1.37.65a17.5,17.5,0,0,0,3.83-2.55.29.29,0,0,0-.14-.53,32.4,32.4,0,0,0-7.49-.54c-.27,0-2.63.71-2,1.15a20.48,20.48,0,0,0,11.41,3.39l-.71-.57A16.11,16.11,0,0,0,259,57.49c-.63,1.24-.92,2.56-1.42,3.84-1.18,3-5.32,3.18-8.06,2.77l-1.17,1.24a34,34,0,0,1,7-.4l.41-1a22.91,22.91,0,0,1-7.8,1.6l.82.4v-.2l-1.46.4h.32l-.71-.57c.55,0,.55-.07,0-.17a3.86,3.86,0,0,1-.83-.49,10.66,10.66,0,0,1-1.16-1.07c-.48-.49-2.62.08-2.79.75a1.08,1.08,0,0,1-.17.45c.62,0,.77-.12.46-.21,0-.09-.5-.42-.58-.62-.32-.74-2.92,0-2.9.78l0,1.12,2.9-.78a8,8,0,0,1-.07-7.56c1.09-2,3.59-4.27,2.53-6.84-.45-1.1-1.3-1.71-1.45-3-.13-1.08,0-2.22-.63-3.15-1.22-1.68-3.66-1.31-5.07-.08-.12.11-.19.33,0,.44,7.21,5.5,17.76,5.21,25.13.19l-2.56.14-.41,1.15c-.23.65,2.59.33,2.87-.47l.41-1.15c.31-.87-2.31,0-2.55.14-6.1,4.16-14.4,3.37-20.17-1l0,.44c-1.41.08-1.74.27-1,.55a3.39,3.39,0,0,1,.45.4,2.37,2.37,0,0,1,.55,1.29,23.32,23.32,0,0,0,.27,2.65c.28,1,1.19,1.61,1.45,2.6a4.21,4.21,0,0,1-.5,2.88c-1,1.93-2.51,3.34-2.93,5.56a8.51,8.51,0,0,0,.84,5.6c.38.72,2.92,0,2.9-.78l0-1.12-2.9.78c.94,2.21,5.53,1.23,6.06-.87l-2.8.74a5.29,5.29,0,0,0,3.63,2,5.07,5.07,0,0,0,3.73-1.4c.47-.49-.42-.58-.71-.57-1.07,0-2.61.41-2.95,1.58-.12.42.59.41.83.41a29.75,29.75,0,0,0,10.06-2.1c.43-.17,1.54-1,.4-1a41.49,41.49,0,0,0-8.33.48c-.44.07-2.65,1-1.18,1.25a15.72,15.72,0,0,0,10.81-2.08c1.47-1,1.93-2.36,2.45-4a14.81,14.81,0,0,1,2.9-5.2c.43-.51-.38-.57-.71-.57a18.18,18.18,0,0,1-9.91-3.12l-2,1.16a27.06,27.06,0,0,1,6.35.45l-.14-.53a13.35,13.35,0,0,1-2.9,1.91c-.37.18-.77.46-.41.81s1.45,0,1.78-.16l4.16-1.63-1.85-.33a10.12,10.12,0,0,0-2.41,3.74c-.33.88,2.33,0,2.55-.14l3.41-2.08-2.55.14a8.69,8.69,0,0,0-.12,3.05c.1.74,2.27-.06,2.57-.3a18,18,0,0,0,3.63-3.72l-2.76.31a6.24,6.24,0,0,0,.12,5.26c.37.76,2.4,0,2.77-.46A6.14,6.14,0,0,0,266.9,53c-.11-.82-2.49.16-2.77.46a11.46,11.46,0,0,0-3,5.71c-.18.91,2.46.08,2.76-.31a15.44,15.44,0,0,0,3-6.83c.16-.91-2.56-.1-2.86.47l-1.16,2.14,2.87-.48,2.78-5.72c.31-.65-2.41-.18-2.76.31-1.35,1.91-2.63,3.9-4.07,5.73a4,4,0,0,1-.74.84c-.47.28-1.26-.06-1.79-.17l-3.4-.71L249,53a28.54,28.54,0,0,1-3.18-.68c-.82-.26-2.22-1.28-1.23-2.22l-2.68.59,1.52,2c.41.54,3.09-.31,2.81-.9a5.9,5.9,0,0,1-.61-3.2l-2.81.91q4.47,3.07,8.69,6.5l2.72-1q-7-4.05-14.25-7.63c-.66-.33-2.49,0-2.79.74a20.17,20.17,0,0,0,1.61,17.5c.4.65,2.72.08,2.89-.63l.61-2.64-2.89.62.68,2.55c.19.73,3.07,0,2.9-.78A54.48,54.48,0,0,1,242,59.1l-2.9.78.74,4.95c.1.69,2.94.06,2.9-.77a34.51,34.51,0,0,1,.89-9.77l-2.88.62,1.06,8.71c.08.68,2.9.05,2.9-.78l0-10.69c0-.62-2.76,0-2.88.63-1,5.43,2.2,10.39,2.2,15.77l2.81-.9c-2.13-2-5.7-2.4-7.35-4.9-1.18-1.79-.66-4.08-.37-6l1-6.81-2.88.63.58,5.85c.07.68,2.81,0,2.88-.62l.56-4.63c.1-.83-2.75-.28-2.87.47a20.5,20.5,0,0,0-.15,5.8l2.89-.77a23.15,23.15,0,0,1-.61-3.8,17.59,17.59,0,0,1-.05-1.92,2.16,2.16,0,0,1,.2-1c-.18-.19-.06-.23.37-.12a7.25,7.25,0,0,1,3.16,1.07c.83.39,1.65.82,2.51,1.15,4.31,1.67,8.81-.24,12.68-2.15.37-.18.78-.46.42-.81s-1.45,0-1.79.16A12.63,12.63,0,0,0,253,52.4c-.35.36.09.51.39.57a3.34,3.34,0,0,0,1.78-.39l7-3.13-2.29,0-1.36,2.64c-.25.46.85.4,1,.38a2.75,2.75,0,0,0,1.75-.69l4-5.12-2.64.15a27.85,27.85,0,0,0-3.59,6.8c-.28.78,2.51.07,2.87-.47l4.47-6.8-2.87.47-2.91,7.11c-.22.53,1,.4,1.18.37a2.53,2.53,0,0,0,1.69-.84A41.11,41.11,0,0,0,268.32,44c.24-.67-2.55-.29-2.86.47a26,26,0,0,0-2,9.24c0,.72,2.65-.11,2.89-.63q2.79-6.27,5-12.78c.26-.77-2.52-.12-2.87.48a113.36,113.36,0,0,0-6.71,13.41l2.87-.47a36,36,0,0,1,6.63-15.11c.61-.82-2.19-.46-2.65.15Z"/><path class="cls-18" d="M241.16,53.46c-.09.43.14.47.68.12l1.26.43a8.89,8.89,0,0,1-.89-3.92l-2.8.75a3.86,3.86,0,0,1,1.19,2l2.6-1.1c-.76-.49.89-1,1-1,.79-.28,1.6-.53,2.41-.76a48.55,48.55,0,0,1,4.92-1.1l-1.15-.25c.86,1.49,1.73,3,2.59,4.45a3.39,3.39,0,0,1,.52,1.16c0,.52-.17.54-.52.75a20.08,20.08,0,0,0-1.81,1.18A18.06,18.06,0,0,0,247,60.55c-.26.38-.76,1.5-1,1.64l1.46-.39a4,4,0,0,1-1.13-.44l-1.67-.67-3.14-1.29c-.6-.24-3.29.23-2.5,1.29l5.2,6.89,1.9-1.42a7.37,7.37,0,0,1-4.76-2.74c-.55-.66-3.25.1-2.79,1l.9,1.71,2.33-1.19a2.07,2.07,0,0,1-1.42-1.82l-2.89.78c1.2,4.34,5.87,6.83,10.2,6a2.32,2.32,0,0,0,1.45-.68c.2-.27.32-.69-.11-.86a17.22,17.22,0,0,0-6.27-1.13,2.3,2.3,0,0,0-1.91.8c-.35.61.29.84.79.88l4.7.47c.81.08,3-1.13,1.44-1.64-1.31-.42-2.86-.37-4.08-1a22.68,22.68,0,0,1-3.78-2.42,2,2,0,0,0-1.92,0c-.29.13-1.3.77-.77,1.19a24.59,24.59,0,0,0,4,2.62c1.51.78,3.18.74,4.79,1.26l1.44-1.65-4.7-.47-1.12,1.68a13.82,13.82,0,0,1,5.09.88L248,68.25c-3.43.63-6.78-1.91-7.69-5.17-.28-1-3.05-.29-2.89.78A3.23,3.23,0,0,0,240,66.5c.46.13,2.78-.33,2.33-1.19l-.91-1.7-2.79,1a9.36,9.36,0,0,0,6.33,3.27c.57.07,2.55-.55,1.91-1.41l-5.2-6.89-2.49,1.29L243,62.41c1.12.46,2.37,1.22,3.61,1.06s1.92-1.07,2.57-2.13a15.54,15.54,0,0,1,2.17-2.8A15,15,0,0,1,254,56.42c.82-.53,2-1,2.37-1.92.48-1.13-.5-2.31-1-3.23l-2.19-3.76c-.18-.31-.87-.3-1.15-.25a50.49,50.49,0,0,0-8.31,2.07c-1.1.37-2.52.74-3.2,1.78a1.45,1.45,0,0,0,.45,2.11c.62.39,2.84-.1,2.6-1.1a4.82,4.82,0,0,0-1.4-2.43c-.56-.53-2.79-.22-2.8.75a9.9,9.9,0,0,0,.9,4.35c.21.44.83.5,1.26.43,1.12-.18,2.59-.77,2.61-2.12s-2.9-.63-2.91.36Z"/><path class="cls-18" d="M239.87,40.46a9.91,9.91,0,0,0-3.77,7.18c0,.72.72,1.1,1.36,1A1.65,1.65,0,0,0,239,47.46a12.56,12.56,0,0,1,1.57-3.63,12.33,12.33,0,0,1,2.72-3l-2-1.45c-1.62,1.4-1.45,3.62-.23,5.24s3.21,2.15,4.4,3.6L248,46.67a8.29,8.29,0,0,1-3.82-8.81l-2.95.18a2.37,2.37,0,0,1-.44,1.09c-.34.51-.71,1-1,1.52a3.22,3.22,0,0,0-.15,3.22,8,8,0,0,0,1.93,2.1l.47.45c-.17-.17.08.09.11.13l.23.27.17.25s.15.31.05.08c0,.09.07.18.1.27s.07.45.05.2a1.16,1.16,0,0,0,1.37,1c.56,0,1.63-.48,1.58-1.22a4.09,4.09,0,0,0-1.45-2.77c-.33-.33-.69-.64-1-1a3.53,3.53,0,0,1-.73-.82,1.65,1.65,0,0,1-.15-.25c0-.08,0-.06,0,0a1.07,1.07,0,0,1-.07-.19c0-.09,0-.19-.07-.28s0,.15,0-.12a2.41,2.41,0,0,1,.4-1.08,7.23,7.23,0,0,0,1.59-3.16c.07-.72-.75-1.1-1.37-1A1.66,1.66,0,0,0,241.21,38a10,10,0,0,0,4.55,10.38,1.82,1.82,0,0,0,1.93-.05c.44-.29.93-1,.5-1.49-1.14-1.38-2.79-2.06-4.09-3.25-.18-.15.08.1-.06-.05s-.12-.13-.17-.2a4.14,4.14,0,0,1-.34-.48,3,3,0,0,1-.34-.86c0-.11-.07-.38-.08-.4s0-.31,0-.45,0-.16,0,0l.09-.21c.12-.31-.06.08,0-.07s-.23.19.05-.06c.49-.42.73-1.15.13-1.6a1.81,1.81,0,0,0-2.08.15,15.15,15.15,0,0,0-5.28,8.28l2.94-.18a7.83,7.83,0,0,1,.84-3.18,7.25,7.25,0,0,1,2-2.37,1,1,0,0,0,.13-1.6,1.81,1.81,0,0,0-2.09.15Z"/><path class="cls-18" d="M250.16,56l2.79-4c.9-1.31-.91-1.78-1.88-1.34a2.52,2.52,0,0,1-1.56.14l.48,1.78,1.06-.9c.55-.48.77-1.43-.14-1.7a3.77,3.77,0,0,0-4.61,2.51,7,7,0,0,0-.31,2.7c0,.72.16,2-.43,2.6L248,58a9.38,9.38,0,0,1,.09-2.59l-2.8.75.95,1.77c.4.73,1.81.47,2.3,0l-.19.07c.7,0,1.77-.66,1.57-1.49l-.51-2.07c-.27-1.1-2.17-.79-2.67-.07.24-.34.72,0,.13-.22-.32-.14-.64-.27-1-.44l-2.44-1.27-5.06-2.63c-.76-.4-2.22.19-2.3,1.1-.06.67-.14,1.34-.25,2q-.08.49-.18,1c-.09.42-.43.79.23.47l1.48-.11-.11,0,.5.36-.06-.1.15.54,0,.09-1.51.91h.09l-1.27-1.28a10.83,10.83,0,0,0,.95,9.29,18.17,18.17,0,0,0,6.82,6.32l1.94-1.86a8.57,8.57,0,0,1-4.91-4.17l-2.43,1.5L242.2,70l1.23-2a2.87,2.87,0,0,1-2.33-1.35L238.46,68l1.59,1.83a1.72,1.72,0,0,0,2.79-.75c.19-1,.37-2.08.55-3.12.07-.36.21-.73.27-1.09s.36-.23-.21-.16c-.1,0-.42,0-.4.12.21,1.07,1.84.72,2.42.31a15,15,0,0,0,3.31-3.19l-2.69-.35A2.31,2.31,0,0,1,245,63.46l2.44.6a18.19,18.19,0,0,1,1.37-5.45c.45-1.06-.9-1.42-1.66-1.22.51.28.79.23.85-.17a5.45,5.45,0,0,1,.37-.47l-2.33.4.91.63a1.88,1.88,0,0,0,2.09-.17,4.72,4.72,0,0,0,1.66-2.18c.58-1.59-2.32-1.63-2.78-.37a2.33,2.33,0,0,1-.82,1.17l2.08-.16-.91-.63a1.88,1.88,0,0,0-2.33.4c-.64.75-1.26,1.73-.77,2.71a2.11,2.11,0,0,0,2.53.9L246,58.24a20.2,20.2,0,0,0-1.53,6c-.12,1.32,1.78,1,2.44.59A4.63,4.63,0,0,0,249,61.37c.12-1.4-2.13-1.1-2.69-.36a12.25,12.25,0,0,1-2.81,2.71L246,64c-.37-1.89-3.07-1.66-4.21-.72a3.94,3.94,0,0,0-1.21,2.37c-.24,1.18-.42,2.39-.63,3.58l2.8-.75-1.6-1.83c-.85-1-3.55,0-2.64,1.29a5.47,5.47,0,0,0,4.73,2.25c.94,0,2.19-1.11,1.23-2l-4.71-4.1c-.9-.78-3.11.25-2.43,1.5a10.37,10.37,0,0,0,5.89,4.89,2,2,0,0,0,1.93-.43c.37-.37.59-1.09,0-1.43-4.6-2.66-9.4-7.75-7.21-13.53.34-.9-.53-1.28-1.27-1.28h-.09a1.8,1.8,0,0,0-1.51.91,1.06,1.06,0,0,0,.57,1.49,2.16,2.16,0,0,0,2.34-.6,4.79,4.79,0,0,0,.72-2.26,26.58,26.58,0,0,0,.37-2.66l-2.3,1.1,7,3.65c1.64.86,4.08,1.72,5.41-.18l-2.67-.07.51,2.08,1.57-1.49a3,3,0,0,0-2,.75l2.29,0-1-1.77c-.58-1.07-2.63-.24-2.79.75a11.22,11.22,0,0,0,0,3.17c.12,1,1.92.78,2.42.31a5,5,0,0,0,1.43-4A7.8,7.8,0,0,1,249,53a2.64,2.64,0,0,1,.37-.86c.33-.49.27-.12-.13-.23l-.14-1.7-1.06.91a1,1,0,0,0,.48,1.77,6.47,6.47,0,0,0,3.85-.53L250.51,51l-2.79,4c-1.05,1.53,1.66,2,2.44.91Z"/><path class="cls-18" d="M264,47.34a6,6,0,0,0,2.6-1.55,4.67,4.67,0,0,0,1.22-2.19.54.54,0,0,0-.31-.57,1.66,1.66,0,0,0-1-.13,2.45,2.45,0,0,0-1.09.38,1.15,1.15,0,0,0-.54.65,3.93,3.93,0,0,1-.19.58l.1-.23a4.47,4.47,0,0,1-.61,1l.18-.22a4.27,4.27,0,0,1-.61.59l.26-.21a3.9,3.9,0,0,1-.54.36l.32-.18a3.32,3.32,0,0,1-.51.23l.37-.13-.11,0a2.35,2.35,0,0,0-1,.51.59.59,0,0,0,.3,1.11,2.08,2.08,0,0,0,1.08,0Z"/><path class="cls-18" d="M265.29,58.1l-18.83-9.17-4.71-2.29c-1.32-.64-3-1.85-4.51-1.93-3-.15-3.46,3.94-3.85,6.12-1,5.73-.28,12.35,2.81,17.39a10.27,10.27,0,0,0,6.57,4.88c3,.61,5.75-.74,8.34-2a74.72,74.72,0,0,0,9.18-5.49c2.48-1.74,5.14-3.7,5.67-6.87.24-1.39-2.18-1.12-2.69-.37a22.44,22.44,0,0,1-13.63,9.3c-5.73,1.25-13.15-.42-14.6-7a25.12,25.12,0,0,1,.27-9.5,11.33,11.33,0,0,1,.74-2.49,6.47,6.47,0,0,1,.36-.75c.42-.76,0-.3.65-.27a9.69,9.69,0,0,1,2.23,1L242,49.9l9.82,4.49c2.92,1.33,6.44,2.51,8.9,4.64,1.71,1.48-1.62,3.21-2.7,3.92a48.59,48.59,0,0,1-4.67,2.63c-1.58.8-3.18,1.55-4.79,2.29a16.84,16.84,0,0,1-5.36,1.82c-.75.08-2.09.84-1.44,1.77a2,2,0,0,0,2.79.17,1.2,1.2,0,0,0-.42-2.15c-1-.27-2.78.38-2.15,1.67.8,1.65,2.88,2,4.53,1.87a23,23,0,0,0,6.46-1.41,28,28,0,0,0,11-7.15.91.91,0,0,0-.39-1.48,2,2,0,0,0-2,.55,24.1,24.1,0,0,1-8.35,5.71,23,23,0,0,1-4.75,1.36c-1.25.21-3.1.64-3.77-.75l-2.15,1.66-.38-.49.82-1-.17.09,1.14-.19-.2,0,.83.45-.11-.17-1.44,1.77c3.91-.39,7.63-2.51,11.1-4.23,1.76-.88,3.48-1.81,5.15-2.86s3.51-2.07,4.51-3.7c2.15-3.5-3.64-5.68-6-6.81-4-1.91-8-3.69-12.06-5.53l-6.25-2.86c-1.68-.77-3.5-1.21-4.92.34C232,49,232,53.66,231.85,57.06c-.13,3.71.62,7.1,3.41,9.7a14.48,14.48,0,0,0,9.89,3.52,25.38,25.38,0,0,0,20.56-11L263,58.89c-.4,2.38-2.65,3.84-4.49,5.13a68.94,68.94,0,0,1-6.9,4.28c-2,1.06-4.53,2.79-6.86,2.74-2.51-.06-4.56-2-5.82-4-2.67-4.22-3.41-9.81-2.87-14.69a25.28,25.28,0,0,1,.7-3.77,7.56,7.56,0,0,0,.53-1.7l.05-.14c-.7.1-.83.22-.4.36.22.29,1,.49,1.34.65l7.85,3.82,17.49,8.52c1.26.61,3.32-1.21,1.65-2Z"/><path class="cls-18" d="M244,52.74a6.57,6.57,0,0,0-2.26,5.07c.06,1.6,2.3,1,2.87.1l.82-1.37c.81-1.35-1.95-1.62-2.62-.67a2.36,2.36,0,0,0,.72,3.48,3.8,3.8,0,0,0,4.18,0c1.61-1,5-6.76,1.27-7.08a1.88,1.88,0,0,0-1.88.91c-1,2-4.38,8.93-.27,9.8,2.08.44,3.67-1.33,4.85-2.78a18,18,0,0,0,3-5.44c.52-1.48-1.58-1.47-2.37-.92a14.25,14.25,0,0,0-6,10.5c-.09,1.08,1.43,1.21,2.13.82a10.21,10.21,0,0,0,5.41-9c0-1.9-1-3.52-3.14-3-2,.47-2.93,2.27-3.7,3.95s-1.74,3.49-1.21,5.23,2.57,1.86,3.91,1c3.25-2.17,4.95-6.62,4.72-10.4-.06-1.16-1.71-1.33-2.44-.63a18.31,18.31,0,0,0-5.64,15.07c.09.92,1.6.79,2.11.53a14,14,0,0,0,6.69-7.17,5.67,5.67,0,0,0,.38-4.1,2.66,2.66,0,0,0-3.37-1.57c-1.67.49-2.65,2.24-3.52,3.62a16.63,16.63,0,0,0-2.37,4.84,3.23,3.23,0,0,0,.79,3.31c1.31,1,3.09.28,4.15-.73A17.57,17.57,0,0,0,256.3,55.3c.14-1.34-1.79-1.06-2.45-.62a10,10,0,0,0-4.46,9.49c.11,1.12,1.88.68,2.42.33a12.67,12.67,0,0,0,5.52-12.1c-.16-1.25-2.16-.66-2.68-.09a12,12,0,0,0-2.9,6c-.31,1.8-.38,4.47,2.16,4.31,2.06-.12,3.5-2.07,4.29-3.79a9.36,9.36,0,0,0,.5-6.34c-.31-1.14-2.12-.79-2.68-.08a12,12,0,0,0-2.36,4.9c-.34,1.53-.66,3.83,1.11,4.59,3.6,1.56,6-4,6.19-6.65.09-1.44-.64-2.83-2.23-2.84-1.88,0-2.76,1.83-3.48,3.28-1,2-4.06,9.17.31,9.28,4.56.12,5.45-6.47,4.68-9.72-.21-.88-1.5-.83-2.11-.53a12,12,0,0,0-6.7,10.49c0,.93,1,1.14,1.76,1a8.52,8.52,0,0,0,6.59-7.27c.16-1.5-2.45-1.15-2.86-.1-.58,1.47,1,2.12,2.23,1.94a2.66,2.66,0,0,0,1.79-.94c.56-.71.32-1.65.76-2.35.92-1.47-1.23-2-2.2-1.19a2.94,2.94,0,0,0-1.14,3.11c.31,1.28,2.43.72,2.84-.19,1.46-3.26,2.14-8.59-.53-11.49a3.61,3.61,0,0,0-4.54-.73c-1.29.75-2.28,2.4-1.23,3.75a1.68,1.68,0,0,0,2,.26A6.73,6.73,0,0,0,261.2,44c-.08-.92-1.6-.78-2.11-.53a4.14,4.14,0,0,0-1.92,5.79c.43.74,1.79.52,2.3.07a9,9,0,0,0,3.07-8.25c-.14-.87-1.57-.84-2.11-.52a5,5,0,0,0-2.42,6c.37,1,1.72.86,2.42.33a8.32,8.32,0,0,0,3.11-4.41c.38-1.39.39-3.14-1.33-3.51s-3.25,1.3-3.79,2.84A6,6,0,0,0,259,47c.37.61,1.46.56,2,.26a6,6,0,0,0,3.29-5.37c0-1.25-1.7-1.2-2.45-.63a5.41,5.41,0,0,0-1.47,7c.45.78,1.75.46,2.3.06C266,45.89,267.1,41.84,268,38c.83-3.64,1.5-8,4.91-10.17l-1.95-1.44a26.53,26.53,0,0,0-9.33,16.77l2.94-.18.26-2.9c.12-1.37-2.16-1.22-2.7-.38L260.63,42c-1,1.57,1.65,2.12,2.45.94a7.47,7.47,0,0,0,1.34-3.64c.14-1.56-2.82-1.21-2.95.19a5.11,5.11,0,0,1-.84,2.51l2.45.94,1.48-2.35-2.69-.38-.26,2.9c-.14,1.58,2.76,1.18,2.94-.18a23.94,23.94,0,0,1,8.34-15.15,1,1,0,0,0,.13-1.59,1.86,1.86,0,0,0-2.08.15c-3.48,2.22-4.63,6.26-5.51,10s-1.45,8.11-4.72,10.47L263,47a3.35,3.35,0,0,1,.78-4.29L261.34,42a3.61,3.61,0,0,1-1.66,3.36l2,.26a4.12,4.12,0,0,1-.61-2.44c0-.67.26-1.94,1-2.22l-1.14.19c-.14-.2-.16-.13-.05.19a3.74,3.74,0,0,1-.09.66,5.34,5.34,0,0,1-.45,1.29,5.69,5.69,0,0,1-1.82,2.16l2.43.33a2.77,2.77,0,0,1,.84-3.38l-2.11-.53a6.69,6.69,0,0,1-2.12,6l2.3.06a2,2,0,0,1,.59-2.65l-2.11-.52a4.21,4.21,0,0,1-2.74,4.3l2,.26a.46.46,0,0,1,.13-.75c-.11,0,.53.55.68.74a6.15,6.15,0,0,1,1,2.69,11.44,11.44,0,0,1-.91,6.7l2.85-.19a.79.79,0,0,1,.19-.9l-2.2-1.19a4,4,0,0,0-.54,1.16,5.43,5.43,0,0,0-.13.68c-.22.61.15.89,1.12.85l-2.86-.1a5.6,5.6,0,0,1-4.22,5l1.76,1a9.39,9.39,0,0,1,5.07-8.47L257.34,56a8.52,8.52,0,0,1,.11,3.59,7.27,7.27,0,0,1-.59,1.87,4.28,4.28,0,0,1-.39.73,1.46,1.46,0,0,1-.33.37c-.17.13-.17.14,0,0s.12-.57.13-.7a9.53,9.53,0,0,1,.17-1.07,16.83,16.83,0,0,1,.46-1.86,20.36,20.36,0,0,1,1.57-3.69,8.18,8.18,0,0,0,.45-.74l-1,0,.08.25c-.1.43,0,1-.11,1.51a7.47,7.47,0,0,1-1.43,3.27c-.39.44-.11,0,0-.26a7.79,7.79,0,0,0,0-.84,9.25,9.25,0,0,1,.34-1.89,9.87,9.87,0,0,1,1.74-3.28l-2.67-.08a7.64,7.64,0,0,1,.11,3.71,6.9,6.9,0,0,1-.66,1.79,6.57,6.57,0,0,1-.61,1c-.12.15-.55.48-.58.61-.21.11-.14.12.19,0s.43-.13.29-.47a6.37,6.37,0,0,0,.05-1,8.73,8.73,0,0,1,.41-2,9.9,9.9,0,0,1,2.1-3.6l-2.67-.09a10.37,10.37,0,0,1-4.57,9.89l2.42.33a7.83,7.83,0,0,1,3.52-7.28l-2.45-.62a15.59,15.59,0,0,1-3.21,8.09c-.2.26-.42.52-.64.77a7.18,7.18,0,0,0-.78.78h.49a.4.4,0,0,1-.09-.2c0-.14-.09-.41-.09-.58-.05-1.28.81-2.58,1.41-3.66.36-.66.76-1.31,1.18-1.93.24-.36.49-.72.75-1.06l.21-.27c.3-.22.31-.29,0-.21s-.25.06-.06.22l.09.27a2.37,2.37,0,0,1,.11.88,5.07,5.07,0,0,1-.4,1.62,11,11,0,0,1-5.29,5.9l2.11.53a16,16,0,0,1,4.69-12.86l-2.45-.63a10.17,10.17,0,0,1-2.72,7.9,5.22,5.22,0,0,0-.58.56l.59.19-.08-.17c.08-.35-.1-.84,0-1.24a11.82,11.82,0,0,1,.67-1.8A19.08,19.08,0,0,1,251,55.49c.2-.3-.14.18-.17.29a5.21,5.21,0,0,0,.06,1,7.74,7.74,0,0,1-3.79,6.62l2.13.82a11.86,11.86,0,0,1,5.05-8.87l-2.37-.92A16.35,16.35,0,0,1,250.16,58c-.34.51-.71,1-1.1,1.48-.15.18-1.35,1.33-1,1.42-.74-.19,0-2.66.1-3a24.28,24.28,0,0,1,1.69-4.25l-1.88.91c-.56-.05-.27-.28-.37.33a3.45,3.45,0,0,1-.2.62,6.77,6.77,0,0,1-.81,1.72c-.28.37-.39.62-.78.48-.19-.07-.79-.57-.59-.85l-2.62-.67-.82,1.37,2.87.1a4.38,4.38,0,0,1,1.26-3.44c1.43-1.34-.83-2.49-1.95-1.44Z"/><path class="cls-17" d="M270.62,37.82c-.46,7.5-3.55,14.45-6.58,21.21a25.43,25.43,0,0,1-5.37,8.32,18.94,18.94,0,0,1-7.76,4.45,16.25,16.25,0,0,1-9.14.21c-3.19-1-5.53-4.51-7.17-7.27-3.88-6.51-1.87-13.75,1.78-19.87,4-6.75,9.67-12.4,13.22-19.45.7-1.38-2.22-1.24-2.74-.22-3.49,6.93-9,12.5-13,19.08-3.89,6.37-6.15,14-2.37,20.93,1.64,3,4.11,6.64,7.32,8.11,3,1.38,6.76,1.38,10,.83a23,23,0,0,0,16-11,88.51,88.51,0,0,0,5.54-12.42,45,45,0,0,0,3.17-13.22c.08-1.37-2.85-.88-2.92.28Z"/><path class="cls-17" d="M274.18,36.57c-3.45-2.59-7.54-4.18-11.43-6L250,24.76A2.33,2.33,0,0,0,248,25c-.38.24-.89.85-.25,1.14L260,31.81c3.87,1.78,8.06,3.32,11.48,5.89a2,2,0,0,0,1.92,0c.27-.12,1.31-.77.77-1.17Z"/><path class="cls-9" d="M224.46,89.05c2,.84,3.95,1.76,5.87,2.76.92.48,1.83,1,2.74,1.5a7.47,7.47,0,0,1,2.29,1.55,1,1,0,0,1,.15,1c-.21.33.13.24,1-.28l-.17-.07c-.19-.12-.39-.21-.57-.35-.82-.63-1.55-1.4-2.31-2.11l-5-4.58-2.73,1,8.54,7.74c.48.43,3.15-.34,2.81-.9a3.84,3.84,0,0,1-.55-2.68l-1.69.84,2.38-.28c.37-.05,2.4-.77,1.44-1.2l-10.8-4.83a2.77,2.77,0,0,0-1.7.2c-.16.06-1.14.49-.93.79a10.24,10.24,0,0,0,4,3.39,2.51,2.51,0,0,0,1.88-.11c.13,0,1.34-.67.84-.91a9.89,9.89,0,0,1-3.81-3.15l-2.63,1,10.79,4.82,1.44-1.2-2.39.28c-.38,0-1.59.34-1.68.84a4.17,4.17,0,0,0,.52,3l2.81-.9-8.53-7.74c-.61-.55-3.26.53-2.73,1l4.71,4.35c.75.7,1.49,1.41,2.26,2.09a3.44,3.44,0,0,0,2.47.95c1.5-.08,4.49-1.32,2.74-3.15a9.5,9.5,0,0,0-2.27-1.47q-1.31-.75-2.64-1.44c-2-1.07-4.11-2-6.22-2.93a2.82,2.82,0,0,0-2,.34c-.34.18-.92.6-.33.85Z"/><path class="cls-9" d="M234.45,93.34a.75.75,0,0,1,.16-.15l-.2.15.13-.09-.27.15.1-.05-.33.14.08,0-.38.12.09,0-.39.08h.09l-.36.05H233a.86.86,0,0,1,.16,0l-.25,0,.17,0a1.42,1.42,0,0,0,.41,0,2.22,2.22,0,0,0,.51-.06,3.77,3.77,0,0,0,.58-.14,3.39,3.39,0,0,0,.53-.2l.27-.15a.89.89,0,0,0,.32-.29l0-.13a.28.28,0,0,0-.25-.17l-1.55-.49a1.13,1.13,0,0,0-.41,0,2.21,2.21,0,0,0-.51.05,2.74,2.74,0,0,0-.58.15,3.35,3.35,0,0,0-.53.19l-.27.15a.77.77,0,0,0-.32.3l0,.13a.31.31,0,0,0,.25.17l1.55.48,2.39-1.11a2,2,0,0,0-.59-.08,5.33,5.33,0,0,0-1.32.19,5,5,0,0,0-1.24.51,1.84,1.84,0,0,0-.46.36.25.25,0,0,0-.13.22c0,.07,0,.12.07.16a.52.52,0,0,0,.3.08,1.3,1.3,0,0,0,.44,0,4.42,4.42,0,0,0,1.13-.26l.33-.13a2.41,2.41,0,0,0,.48-.3Z"/><path class="cls-9" d="M238.32,96.92a49.48,49.48,0,0,0-12.64-2.34c-1.43-.09-3.7.52-4.46,1.86s.68,2,1.84,2a44.05,44.05,0,0,1,11.13,2.16c2.18.71,7.91-2.48,4.13-3.71Z"/><path class="cls-9" d="M240.53,99.92a15.17,15.17,0,0,0-8.36,1.76,10.43,10.43,0,0,0-1.31.84c-.2.15-1.24.83-.31.3l2.57-.82c.83-.16-.89.37-.53-.54.49-1.24-2.26-.94-2.76-.86-1.13.18-3.43.7-3.93,2-1,2.5,3,2.46,4.46,2.43a9.9,9.9,0,0,0,4.17-1,3.77,3.77,0,0,0,1.47-1,.59.59,0,0,0,.35-.3c-.87.11-.92.18-.15.2a7.48,7.48,0,0,0,4.79-1.28c1-.78.91-1.58-.46-1.72Z"/><path class="cls-9" d="M233.89,104a196.29,196.29,0,0,0-11,26.57l6.1-1.94c-1.68-.7-7.85-2.66-8.41-4.63-.18-.63,3.1-4.19,3.48-5.39,1.73-5.58-2.24-11.38-1-16.92l-6.52,1.75c2.89,3.64,5.24,6.21,4.87,11.13a63.11,63.11,0,0,1-2.07,11.89c-.55,2,5.91,0,6.69-1.13,3.38-4.85,3.81-10.63,6.61-15.66,2.41-4.33-2.36-4-4.78-7.13-1.06-1.37-7.51.87-6.36,2.37s2.76,2,4.09,3.2c2,1.75-.12,2.83-1.06,4.83-2.16,4.57-2.16,9.18-5.19,13.52l6.69-1.13a67,67,0,0,0,2.22-13.28c.32-4.8-2.53-7.43-5.36-11-1-1.2-6.21.32-6.52,1.75-.81,3.66.47,7.1.93,10.75.64,5.11-.15,8-4.16,11.34-.26.22-.47.75-.1,1a65.29,65.29,0,0,0,10.44,5.48c1.35.56,5.57-.32,6.1-1.94a197.64,197.64,0,0,1,11.05-26.57c.59-1.16-5.78-.68-6.69,1.13Z"/><path class="cls-9" d="M223.93,86.12l-2.54,4.49a22,22,0,0,0-2.06,3.93c-.82,2.65,1.27,4.93,1.7,7.44l1.72-.81a3.75,3.75,0,0,0-2.3-.77,5.72,5.72,0,0,0-2.42.76c-1.91.82-.7-4.42-.49-5.28a7.4,7.4,0,0,1,3-4.51,11.83,11.83,0,0,0,3.79-3.27c.2-.32-.07-.64-.36-.75a1.37,1.37,0,0,0-1.19.22,11.23,11.23,0,0,0-4.67,12.54c.27.89,1.75.33,1.94-.34a11.34,11.34,0,0,0,.17-5.4c-.19-.89-2-.36-1.94.52a49,49,0,0,0,1.06,6.24c.2.82,1.91.41,1.95-.33a15.36,15.36,0,0,0-.35-4c-.18-.8-2-.42-1.94.34a10.47,10.47,0,0,1-.24,2.84l1.94-.34-1.3-2.77c-.32-.7-1.93-.51-1.94.33l0,3.34,1.95-.33-.62-1.29c-.38-.82-1.72-.41-1.94.33a3.23,3.23,0,0,0-.15,1l1.95-.33a2.61,2.61,0,0,1-.27-1.34l-1.94.34.32,2.27,1.71-.81-.93-.67c-.43-.32-1.76-.07-1.72.62a15.42,15.42,0,0,0,.64,3.81c.27.89,2,.36,1.93-.52a3.3,3.3,0,0,1,.38-2.31c.54-.68,1.51-.28,2.11.12,1.41.92,2.23,2.54,3.61,3.53a9.12,9.12,0,0,0,8.6.9c.36-.14.72-.6.46-1s-.94-.28-1.31-.13a6.66,6.66,0,0,1-5.25-.3c-1.82-.88-2.75-2.64-4.27-3.87a4.29,4.29,0,0,0-4.58-.63c-1.58.83-1.85,2.57-1.68,4.18l1.93-.52a14.37,14.37,0,0,1-.62-3.44l-1.72.62.92.68c.56.41,1.83,0,1.72-.81l-.32-2.27c-.12-.83-1.9-.4-1.94.34a3.28,3.28,0,0,0,.29,1.69c.31.7,1.94.5,1.94-.33a3.19,3.19,0,0,1,.15-1l-1.95.33.62,1.29c.32.7,1.93.51,1.94-.33l0-3.34-1.95.33,1.3,2.78c.37.78,1.76.43,1.94-.34A9.67,9.67,0,0,0,221,97l-1.94.34a13.42,13.42,0,0,1,.32,3.63l1.94-.34a46.71,46.71,0,0,1-1-6.24l-1.94.52a10.37,10.37,0,0,1-.19,5l1.95-.34a9.92,9.92,0,0,1,4-11.17l-1.56-.53c-1,1.61-3,2.29-4.38,3.53a9.51,9.51,0,0,0-2.68,5.19c-.37,1.69-1.21,4.4.45,5.66a2.52,2.52,0,0,0,2.49.23c.42-.17.78-.49,1.21-.63a1.76,1.76,0,0,1,1.65.4c.54.41,1.85,0,1.72-.81-.42-2.4-2.64-4.8-1.58-7.3a37.52,37.52,0,0,1,2-3.67l2.36-4.17c.52-.92-1.44-.92-1.85-.2Z"/><path class="cls-19" d="M213.93,125.57a103.85,103.85,0,0,0,16.52,7.55c.2.07.61-.06.58-.31-.94-9,5.54-16.26,8.69-24.14a24.38,24.38,0,0,0,1.55-5.49c.2-1.29.6-3-1.05-3.25a15.73,15.73,0,0,0-2.91,0l-3.21.09c-2.35.08-4.71.2-7.06.35a.47.47,0,0,0-.4.27c-1.07,2.75,1.78,4.53,4.12,4.88a10.78,10.78,0,0,0,8-2.11c.39-.29-.21-.45-.46-.26a9.75,9.75,0,0,1-6.89,2c-2.26-.25-5.11-1.86-4.06-4.56l-.41.27q3.16-.21,6.33-.33l3.16-.1c.81,0,3.83-.47,4.24.65a6.6,6.6,0,0,1-.25,2.82,23,23,0,0,1-.75,2.94,38.8,38.8,0,0,1-2.3,5.39c-3.29,6.53-7.89,13.09-7.08,20.77l.58-.31a103.64,103.64,0,0,1-16.39-7.5c-.24-.13-.89.2-.57.38Z"/><path class="cls-19" d="M231.93,100.05q-4.92-1.67-9.8-3.44l.15.19c.07-1.75,3.69-.73,4.79-.58l4.57.64c1.59.22,3.18.43,4.76.74a7,7,0,0,1,2.11.59c.51.29,1.24,1.34.44,1.78-.44.24,0,.56.31.37,1.27-.7.68-2.16-.44-2.67a12.17,12.17,0,0,0-2.74-.66c-1.22-.22-2.44-.39-3.67-.56l-7.11-1c-1.24-.17-3.68-.49-3.75,1.4,0,.11.06.16.16.2q4.88,1.77,9.79,3.44c.28.09.85-.31.43-.45Z"/><path class="cls-19" d="M237.72,97.2a3.35,3.35,0,0,0,.6-4.8,5.87,5.87,0,0,0-2.67-1.48l-3.89-1.41-3.88-1.41-1.95-.71a3.63,3.63,0,0,0-1.44-.38,1.09,1.09,0,0,0-1,1.41c.24.91,1.28,1.64,2,2.15A24.91,24.91,0,0,1,228.7,93a14.14,14.14,0,0,1,2.39,3.2c.15.29.85,0,.66-.31A14.18,14.18,0,0,0,227.33,91a10.55,10.55,0,0,1-2.82-2.27,1.62,1.62,0,0,1-.27-.5c-.13-.28,0-.43.27-.46.44-.2.71,0,1.14.16l1.95.7,7.77,2.82c1.18.43,2.33.88,2.81,2.15a2.89,2.89,0,0,1-.94,3.27c-.39.3.2.55.48.33Z"/><path class="cls-19" d="M223.78,89.36c.25,2-2,3.26-2.89,4.86-1.07,2,.11,3.91,1.25,5.55,3.11,4.5,5.73,9.74,4.74,15.37,0,.33.68.23.74-.07.91-5.22-1.25-10.27-4.09-14.54a17.53,17.53,0,0,1-2.1-3.47,3.58,3.58,0,0,1,.82-3.72c1-1.26,2.48-2.38,2.26-4.17,0-.31-.77-.13-.73.19Z"/><path class="cls-19" d="M214.52,125.34c1.15-2,2.31-3.94,3.45-5.91a7.28,7.28,0,0,0,1.24-5.3c-.41-2.09-1.3-4.14-1.9-6.2s-1.18-4.25-1.65-6.41c-.9-4.1-.94-8.13,2.46-11.07,2.45-2.12,5.5-3.41,7.79-5.75h-.67a9.35,9.35,0,0,1-2.41,6.93c-.3.34.39.42.6.2A9.88,9.88,0,0,0,226,84.51c0-.29-.56-.11-.66,0-2.35,2.39-5.51,3.67-8,5.91-2.7,2.45-3.32,5.7-2.8,9.21a82.68,82.68,0,0,0,3.48,13,8.57,8.57,0,0,1,.6,3.35,8.19,8.19,0,0,1-1.22,3.18c-1.16,2-2.37,4.07-3.56,6.1-.19.34.54.33.69.07Z"/></g></g></g></g></svg>