<svg xmlns="http://www.w3.org/2000/svg" xmlns:xlink="http://www.w3.org/1999/xlink" viewBox="0 0 279.12 305.9"><defs><style>.cls-1{fill:url(#linear-gradient);}.cls-2{fill:#ea965e;}.cls-3{fill:#d89359;}.cls-4{fill:url(#linear-gradient-2);}.cls-5{fill:#140006;}.cls-6{fill:#3d3d3d;}.cls-7{fill:#db9667;}.cls-8{fill:#cc8a58;}.cls-9{fill:#0f0909;}.cls-10{fill:#fff;}.cls-11{fill:#440216;}.cls-12{fill:#d6d8d8;}.cls-13{fill:#b70f53;}.cls-14{opacity:0.24;}.cls-15{fill:#b2b1b1;}.cls-16{fill:#ddd;}.cls-17{fill:#777;}.cls-18{fill:#a5a5a5;}.cls-19{fill:#982830;}.cls-20{fill:#701d22;}.cls-21{fill:#630611;}.cls-22{fill:#fffdfd;}.cls-23{fill:#a8334c;}</style><linearGradient id="linear-gradient" x1="41.91" y1="143.88" x2="302.67" y2="143.88" gradientTransform="matrix(-1, 0, 0, 1, 321.03, 0)" gradientUnits="userSpaceOnUse"><stop offset="0.2" stop-color="#ce232b"/><stop offset="0.51" stop-color="#dff022"/><stop offset="0.85" stop-color="#3ca600"/><stop offset="1" stop-color="#3ca600"/></linearGradient><linearGradient id="linear-gradient-2" x1="164.28" y1="43.49" x2="164.28" y2="27.63" gradientUnits="userSpaceOnUse"><stop offset="0.02" stop-color="#fff"/><stop offset="0.72"/></linearGradient></defs><title>Portugal</title><g id="Layer_2" data-name="Layer 2"><g id="infographic"><g id="Portugal"><path class="cls-1" d="M174.33,49.47c13.64-6.53,22.38-19.93,32.76-30.93C214,11.27,222,4.75,231.55,1.69S252.3-.46,260,5.89c6.85,5.62,10.06,14.48,12.35,23,9,33.87,8.16,69.79,2.17,104.34C267.14,176.08,251,219,219.45,248.91A143.4,143.4,0,0,1,114.84,287.6c-11.63-.59-23.29-2.66-34-7.28C67.47,274.54,56,264.89,46.69,253.65a125.56,125.56,0,0,1-25.95-54.26c-3.81-18.31-3.42-37.9,3.91-55.11s22.25-31.66,40.49-35.8c5.87-1.34,11.93-1.61,17.83-2.8,10.35-2.09,19.92-6.93,29.12-12.11A372.87,372.87,0,0,0,177,47.21"/><g id="Portugal-2" data-name="Portugal"><g id="face"><path class="cls-2" d="M169.06,147c-.08-7.09,1.87-26.5-8.49-22.55A71.89,71.89,0,0,1,150,127.54c-2.38.51-7.27.1-9.13,1.87s-2.17,7-2.79,9.25L135,149.75a1.37,1.37,0,0,0-.07.66,1.16,1.16,0,0,0,.71.66c6.82,3.21,14.18,6.48,21.5,4.79a33.49,33.49,0,0,0,9.23-4.2,5.21,5.21,0,0,0,2.31-2.12A5.91,5.91,0,0,0,169.06,147Z"/><path class="cls-3" d="M169.79,146.89c0-5.45.48-11-.54-16.36-.41-2.17-1.11-4.68-2.92-6.12s-4.38-1-6.52-.22a70.26,70.26,0,0,1-8.3,2.52,41.36,41.36,0,0,1-5.87.77,10.15,10.15,0,0,0-4.86,1.33,6.13,6.13,0,0,0-2.05,3.49c-.53,1.8-.78,3.67-1.17,5.51-.51,2.41-1.28,4.78-1.93,7.16l-1.09,3.92c-.25.92-.64,1.77.26,2.42a18.94,18.94,0,0,0,3.32,1.55c1.3.59,2.61,1.15,3.95,1.66,5.24,2,11,3.15,16.48,1.45a36.59,36.59,0,0,0,7.54-3.56,9.51,9.51,0,0,0,2.83-2.08,5.13,5.13,0,0,0,.87-3.44c0-.71-1.46-.46-1.46.13a4.17,4.17,0,0,1-1,3.39,14.62,14.62,0,0,1-2.85,1.81,30,30,0,0,1-6.56,3c-4.79,1.35-9.75.33-14.32-1.34-2.29-.84-4.51-1.85-6.72-2.88-.42-.2-1.11-.38-1.17-.95a5.54,5.54,0,0,1,.45-1.72l1-3.7c.59-2.14,1.26-4.27,1.77-6.43.36-1.52.57-3.07.91-4.6.32-1.36.66-3.31,1.89-4.17s3.25-.91,4.76-1a47.78,47.78,0,0,0,12-2.69c2.18-.75,4.78-2.22,6.85-.42,1.54,1.35,2.13,3.6,2.5,5.53,1,5.35.5,10.82.55,16.22C168.34,147.74,169.8,147.49,169.79,146.89Z"/><g id="hat"><path class="cls-4" d="M139.61,42.9a14.26,14.26,0,0,0,4-9.92,1.64,1.64,0,0,1,1.18-1.58A92.19,92.19,0,0,1,159.46,28c9.74-1.2,19.58.52,29.15,2.77a1.63,1.63,0,0,1,1.24,1.91,23.51,23.51,0,0,0-.32,7.15,1.65,1.65,0,0,1-1.64,1.83l-32.11,0c-5.76,0-11.64,0-17.11,1.83"/><path class="cls-5" d="M134.63,85.38l-16.27-4.14c-5.14-1.31-10.43-2.69-14.7-5.82s-7.37-8.5-6.25-13.69c1.53-7.1,13.27-14.85,20.23-17,17.28-5.24,31.2-5.52,49.25-6.19a121.67,121.67,0,0,1,59.15,13A11.05,11.05,0,0,1,230.55,55c2.13,3.29,5.14,11.24,2.8,14.38-7.62,10.2-25.32,11.29-37.82,13.68a143.2,143.2,0,0,1-38.88,2c-9.45-.79-12.24.5-22,.27"/><path class="cls-6" d="M135.48,84.49C129.64,83,123.8,81.53,118,80c-5-1.3-10.49-2.8-14.44-6.42-3.37-3.09-5.82-7.88-4.53-12.51,1-3.66,4.27-6.67,7.15-8.94A39.93,39.93,0,0,1,116.84,46,88,88,0,0,1,132,42.26c10.54-1.86,21.26-2.24,31.94-2.63a128.54,128.54,0,0,1,33.2,2.74A121.35,121.35,0,0,1,212.82,47q4.08,1.53,8,3.34a36.94,36.94,0,0,1,6.71,3.51,11.22,11.22,0,0,1,3.26,4.84,24.58,24.58,0,0,1,1.75,5.82c.26,1.64.33,3.46-.71,4.85a17.72,17.72,0,0,1-4.16,3.9C220.88,78.06,212,79.38,204,80.71c-4.52.74-9,1.62-13.54,2.31a144.51,144.51,0,0,1-17.75,1.6c-6,.16-11.83-.28-17.76-.61a111.65,111.65,0,0,0-12.54.3c-2.42.14-4.83.17-7.26.12-.64,0-1.59.19-1.89.84s.24,1,.84,1.06c4.69.1,9.33-.3,14-.48,5.65-.22,11.28.56,16.92.68a145.31,145.31,0,0,0,18.66-.79c5.48-.58,10.86-1.65,16.29-2.54,8.84-1.46,18.2-2.59,26.26-6.79a27.63,27.63,0,0,0,5.09-3.35,13.28,13.28,0,0,0,3.83-4.38c1.51-3.51-.27-8.22-1.75-11.45A11.89,11.89,0,0,0,230,52.45a37.55,37.55,0,0,0-7.27-3.81,122.82,122.82,0,0,0-50.79-11.09c-5.88,0-11.77.31-17.64.59-5.53.27-11.05.66-16.54,1.39A126.34,126.34,0,0,0,121,42.86a46.17,46.17,0,0,0-12.67,5.32,35.72,35.72,0,0,0-10,8.78,11.87,11.87,0,0,0-1.66,11.91c4.42,10.79,18.09,12.56,28,15.08l9.1,2.32a2.19,2.19,0,0,0,2-.55.69.69,0,0,0-.33-1.23Z"/></g><g id="face-2" data-name="face"><path class="cls-7" d="M166.53,70.62a156,156,0,0,1,1.88,30.83c-.27,6.5,12.34,1.64,14.42-.9,4.59-5.62,6.27-12.54,6-19.7a54.85,54.85,0,0,0-2.12-12.06c-.82-3-1.34-7.7-4.12-9.54-2.59-1.7-6.23-1.07-9.12-.74-4.21.49-8.4,1.17-12.57,1.92-7.9,1.44-16.47,2.72-23.42,7-14.89,9.2-10.54,26.68-7.51,41,1.43,6.75,2.57,15.83,6.87,21.48,4.8,6.28,14.12,3.69,19.83.21a91.88,91.88,0,0,0,19.15-16C181.52,108,188,100.88,188,92.05c0-3.71-9.21-1.5-10.41-.91-10.42,5.08-18.59,13.47-27.19,21.09l12.92,1.2a24.48,24.48,0,0,1,5.26-6.62l-12.92-1.19-9.86,10.78,13.9.16,11.78-13.23-13.9-.15a146.6,146.6,0,0,1-10.47,15.1l13.9.15L174,98.23c1.88-2.94-1.63-4.09-4-4.19-3.45-.14-7.66,1.31-9.9,4L143.8,117.94c-2.28,2.79,1.95,4.1,4,4.18,3.47.14,7.63-1.31,9.9-4A164.7,164.7,0,0,0,175.52,92c3.49-6.36-10.63-3.47-12.92-1.2L144.26,109l12.92,1.19,15-21.65c2-2.9-1.73-4.09-4-4.18-3.44-.14-7.68,1.29-9.9,4a154.71,154.71,0,0,1-13,14.18l12.92,1.19L170.83,85c1.72-2.55-1-3.86-3.17-4.11a13.65,13.65,0,0,0-9.75,2.91L141,98.14l12.92,1.19L169.6,80.27c2-2.45-1.21-3.89-3.16-4.11a13.57,13.57,0,0,0-9.76,2.91L143.94,90.2l12.92,1.2,14.3-18.09c2-2.47-1.16-3.88-3.17-4.11-3.16-.36-7.39.71-9.75,2.92l-14.94,14,11.94,2.23a196.92,196.92,0,0,0,15-17.65c1.58-2.11-.39-3.58-2.33-4-3-.7-6.58.43-9.23,1.87a115.83,115.83,0,0,0-16.6,11.12L154,81.88l12.84-11.65c1.67-1.52,2.21-3.44,0-4.66-2.53-1.41-6.42-.31-8.89.62a32.74,32.74,0,0,1-10.12,2.1c-3.13.13-9.4,1.27-10.43,5.09a83.34,83.34,0,0,0,2.6,51.34,3.44,3.44,0,0,0,2.87,1.94c5.62.58,14.65-1.06,15.92-7.79,1-5.46-14-3-14.95,2l-.19.55,5-2.46-1.05.32,5.57-.37-1.08-.11,2.87,1.95a79.39,79.39,0,0,1-2.62-49.3L142,76.5A69.3,69.3,0,0,0,163.8,72l-8.89-4L142.08,79.65c-2.34,2.12-1.63,4.35,1.35,5.07,3.45.83,7.89-.68,10.59-2.84A95.54,95.54,0,0,1,167.9,72.7l-11.56-2.16a173.07,173.07,0,0,1-13,15.57c-2.11,2.21-1.8,4.3,1.36,5.06a13.24,13.24,0,0,0,10.58-2.83l14.94-14-12.92-1.19L143,91.24c-2,2.47,1.15,3.88,3.17,4.11a13.56,13.56,0,0,0,9.75-2.91l12.75-11.13-12.93-1.2L140,99.18c-2,2.44,1.21,3.88,3.17,4.1a13.6,13.6,0,0,0,9.75-2.91l16.91-14.32-12.92-1.2L144.27,103.6c-1.72,2.55.95,3.85,3.17,4.1,3.13.36,7.42-.68,9.75-2.91a176,176,0,0,0,15-16.26l-13.9-.15-15,21.65c-1.75,2.53,1,3.85,3.17,4.1,3.09.36,7.49-.66,9.75-2.91L174.54,93l-12.92-1.19a164.79,164.79,0,0,1-17.82,26.15l13.9.15L174,98.23l-13.9-.16-12.92,20.21c-1.88,2.93,1.63,4.08,4,4.18,3.4.14,7.72-1.28,9.9-4a146.6,146.6,0,0,0,10.47-15.1c1.79-3-1.56-4.08-4-4.18a13.07,13.07,0,0,0-9.9,4L145.82,116.4c-2.42,2.73,2.07,4.11,4,4.19a13.14,13.14,0,0,0,9.9-4l9.86-10.79c2.17-2.38-1.35-3.9-3.17-4.11a13.51,13.51,0,0,0-9.75,2.92,33.11,33.11,0,0,0-7.21,8.69c-1.48,2.61.74,3.83,3.16,4.11a13.47,13.47,0,0,0,9.76-2.92c6.45-5.72,13.25-13.66,21.08-17.48l-10.4-.92c-.06,6.48-6.52,13-10.69,17.39a83.09,83.09,0,0,1-6.83,6.44c-1.29,1.09-2.6,2.15-3.95,3.16-.63.47-3.84,2.21-4.16,2.88q5.79.76,3.72-1.32a5.55,5.55,0,0,1-1.18-2,35.31,35.31,0,0,1-1.66-4.76c-1-3.24-1.84-6.52-2.6-9.83-1.54-6.7-3.24-13.64-3.85-20.51-.51-5.6.18-13.69,6-16.49s13.65-3.15,19.89-4l1.8-.25c2.05-.16,2.4-.25,1.05-.25-1.2-.28-1.26.32-.18,1.78q.42,1.36.81,2.73a70.22,70.22,0,0,1,2.3,10.12c.91,6.9-.06,13.79-4.55,19.29l14.42-.9a165.94,165.94,0,0,0-1.85-32.88c-.76-4.83-15.82-1.36-15,4Z"/><path class="cls-2" d="M125.14,84.16a4.63,4.63,0,0,0-6.24.71,6.22,6.22,0,0,0-.68,6.56,9.7,9.7,0,0,0,5,4.59c1.79.78,4,1.38,4.72,3.19"/><path class="cls-2" d="M189.18,74.61a2.93,2.93,0,0,1,3.48-1.94,4.28,4.28,0,0,1,2.93,3,8.12,8.12,0,0,1-.16,4.37A8.54,8.54,0,0,1,193,84.34c-1.18,1-2.71,1.56-4,2.45a8.13,8.13,0,0,0-3,3.84c-.06.15.15.32.28.23a.19.19,0,0,0-.1-.34"/><path class="cls-8" d="M180.76,109.67a42.23,42.23,0,0,0,3.79-38,39.78,39.78,0,0,0-11.3-15.94c-2.62-2.22-5.83-4.69-9.27-5.37-3.85-.77-8.23.89-11.82,2.14-7.47,2.6-14.68,6.81-19.73,13-4.66,5.72-6.78,12.87-7.14,20.16-.37,7.66,1,15.3,2.66,22.73,1.76,7.77,3.48,16.48,9.45,22.23a16.28,16.28,0,0,0,9.89,4.74,17.77,17.77,0,0,0,10.39-2.88,64.63,64.63,0,0,0,9.64-7.76,96.11,96.11,0,0,0,9.51-9.74,63.23,63.23,0,0,0,3.93-5.27c.3-.46-1.11-.27-1.33,0-4.62,7-10.76,12.8-17.07,18.24-3,2.62-6.4,5.34-10.37,6.35a13.54,13.54,0,0,1-11.3-2.62c-6.55-4.81-8.75-13-10.54-20.52a111.59,111.59,0,0,1-3.41-20.76c-.31-6.94.58-14,3.87-20.26,3.65-6.87,10-11.91,17-15.19a50.62,50.62,0,0,1,11.5-3.89,10,10,0,0,1,7.05,1.11,32.34,32.34,0,0,1,4.2,2.76A39,39,0,0,1,182,69.47a42.15,42.15,0,0,1-.16,36,39.39,39.39,0,0,1-2.43,4.29C179.13,110.19,180.54,110,180.76,109.67Z"/><path class="cls-9" d="M151,92.67a7.26,7.26,0,0,1-2.2,3.17c-.86.69-2,1.14-2.62,2.08a1.86,1.86,0,0,0,.58,2.65c1.16.8,2.64.47,3.91.13.45-.12.32-.61-.13-.49-1.16.31-2.63.67-3.56-.34s-.27-1.87.54-2.49a20.59,20.59,0,0,0,2.43-1.83,7.85,7.85,0,0,0,1.74-2.8c.14-.39-.58-.38-.69-.08Z"/><path class="cls-9" d="M139.8,114.23a13.43,13.43,0,0,0,14.48,4.54,13.76,13.76,0,0,0,6.3-4.19c.65-.77,1.77-2,1.87-3,.08-.77-.46-1.11-1.09-.75-.42.24.19.45.47.29a9.55,9.55,0,0,0-.37,1.14c-.09.19-.2.37-.31.56a13.08,13.08,0,0,1-1,1.38,12.84,12.84,0,0,1-2.24,2.18,12.4,12.4,0,0,1-6,2.48,12.86,12.86,0,0,1-11.45-4.89c-.18-.23-.88,0-.66.31Z"/><path class="cls-9" d="M159.85,86.07a5.12,5.12,0,0,1,3.8-3.54,8.48,8.48,0,0,1,6,.8,42.29,42.29,0,0,1,5.5,3.55c.42.29,1,.64,1.48.24a.41.41,0,0,0-.24-.77c-.3,0-.76.41-.27.45-.34,0-1-.75-1.33-1L173.6,85A28,28,0,0,0,171,83.34a10.88,10.88,0,0,0-5.17-1.51c-2.8,0-5.91,1.41-6.67,4.32-.08.29.66.18.73-.08Z"/><path class="cls-9" d="M164.85,82.36A2.35,2.35,0,0,0,163.53,85a2,2,0,0,0,2.53,1.31A1.93,1.93,0,0,0,167.65,84a2.15,2.15,0,0,0-2.75-1.23,1.75,1.75,0,0,0-.8,2.44,1.57,1.57,0,0,0,1,.9,2.21,2.21,0,0,0,2-.53,2,2,0,0,0,.1-3.12,1.83,1.83,0,0,0-2.86.82,1.57,1.57,0,0,0,.3,1.42.82.82,0,0,0,.81.33,1.56,1.56,0,0,0,.67-.33,1.85,1.85,0,0,0,.27-2.47,1.44,1.44,0,0,0-.57-.4.51.51,0,0,0-.51.14,2.74,2.74,0,0,0-.57,1.81,2.18,2.18,0,0,0,.24.94.8.8,0,0,0,.66.35,1.49,1.49,0,0,0,1.36-.75.92.92,0,0,0-.46-1.22,1.6,1.6,0,0,0-1.57.1,1.26,1.26,0,0,0-.47,1.4,1.43,1.43,0,0,0,1.18,1,1.88,1.88,0,0,0,1.59-.63,1.23,1.23,0,0,0,.18-1.46,1.57,1.57,0,0,0-1.27-.71A1.3,1.3,0,0,0,165,84.92a1.23,1.23,0,0,0,1.33.43,1.45,1.45,0,0,0,1-1.07,1,1,0,0,0-.53-1.16,1.6,1.6,0,0,0-1.63.27,1.3,1.3,0,0,0-.41,1.52,1.77,1.77,0,0,0,.53.71,1.25,1.25,0,0,0,.93.32,1.7,1.7,0,0,0,1-1.21,2,2,0,0,0-.17-1.45,1.47,1.47,0,0,0-.48-.54.49.49,0,0,0-.52.05,2,2,0,0,0-.88,1.95c0,.13.22.15.33.15.64,0,1.37-.7,1.11-1.4a1.19,1.19,0,0,0-1.66-.52c-.12.07-.28.21-.18.36s.37.1.49,0,.52.07.62.31,0,.69-.31.71l.32.15a1.49,1.49,0,0,1,.63-1.45l-.51,0a1.45,1.45,0,0,1,.54,1.23,1.35,1.35,0,0,1-.56,1.14l.37,0c-.65-.17-1.28-1-.84-1.65.27-.41.91-.48,1.06.09a1,1,0,0,1-.13.75.84.84,0,0,1-.19.19.21.21,0,0,1-.21,0,1,1,0,0,1-.51-1.24.48.48,0,0,1,.18-.24.32.32,0,0,1,.26-.08,1,1,0,0,1,.68.33.89.89,0,0,1-.34,1.42c-.57.24-1.11-.36-1.13-.94a.71.71,0,0,1,.29-.64.62.62,0,0,1,.25,0,.77.77,0,0,1,.36.12.55.55,0,0,1,.21.73.56.56,0,0,1-.28.25.19.19,0,0,1-.22,0c-.17-.07-.21-.31-.25-.47a2.22,2.22,0,0,1-.07-.63,2.3,2.3,0,0,1,.44-1.29l-.51.13a1.2,1.2,0,0,1,.6,1.24,1.41,1.41,0,0,1-.24.72.86.86,0,0,1-.2.22l-.11.06c-.1,0,.06,0-.05,0l-.11,0h.27a1.19,1.19,0,0,1-.38-1.63c.35-.59,1.15-.4,1.59,0a1.61,1.61,0,0,1,0,2.15,1.12,1.12,0,0,1-1.73.22,1.66,1.66,0,0,1-.33-1.65.89.89,0,0,1,.56-.53,1.29,1.29,0,0,1,.82.13A1.49,1.49,0,0,1,167,85a1.33,1.33,0,0,1-.56.7,1.41,1.41,0,0,1-2.18-1.1,1.8,1.8,0,0,1,.95-1.84c.13,0,.28-.21.18-.35s-.36-.09-.49,0Z"/><path class="cls-9" d="M148.48,85.17c-3.33-1.72-7.07-3.33-10.9-2.72-2.88.46-5.69,2.12-6.76,5-.07.19.64.11.72-.11a7.61,7.61,0,0,1,6.79-4.59c3.38-.21,6.63,1.27,9.56,2.79.18.1.85-.18.59-.32Z"/><path class="cls-9" d="M140.2,82.62A1.57,1.57,0,0,0,138.58,84a.89.89,0,0,0,.39.9,1.16,1.16,0,0,0,1.17-.21.87.87,0,0,0,.36-1,1,1,0,0,0-.86-.58,1.29,1.29,0,0,0-1.5,1.42c.06.36.35,1,.79.93a1.27,1.27,0,0,0,.88-.54,1.51,1.51,0,0,0,0-1.67,1.3,1.3,0,0,0-1.79-.2,1.57,1.57,0,0,0-.61,1.63,1,1,0,0,0,.25.44.57.57,0,0,0,.7.15,1.6,1.6,0,0,0,.78-.84,1.62,1.62,0,0,0-.6-2,.52.52,0,0,0-.63.17,3.07,3.07,0,0,0-.23,2.61c0,.12.2.15.32.14a1.57,1.57,0,0,0,1.31-1.11,1.3,1.3,0,0,0-.43-1.44.51.51,0,0,0-.58.11,1.7,1.7,0,0,0-.09,2.22.36.36,0,0,0,.3.08,1.33,1.33,0,0,0,1.1-1,1,1,0,0,0,0-.67.87.87,0,0,0-.16-.26c-.14-.13-.38-.08-.55,0a1.51,1.51,0,0,0-1.2,1.16,1.2,1.2,0,0,0,.74,1.24,1.51,1.51,0,0,0,1.6-.25,1.48,1.48,0,0,0,.44-1.23c-.13-1.17-1.55-1.34-2.41-.87a1.64,1.64,0,0,0-.9,1.43,2,2,0,0,0,.82,1.58.52.52,0,0,0,.58-.11,1.59,1.59,0,0,0,0-2.18c-.3-.34-.91-.66-1.32-.35a1.76,1.76,0,0,0-.67,1.19,1.87,1.87,0,0,0,.29,1.28,1.66,1.66,0,0,0,1.17.67,2.12,2.12,0,0,0,2.32-1.34c.35-1.16-.61-2.32-1.57-2.83l-.14.37a.58.58,0,0,1,.33,0,1.27,1.27,0,0,1,.41.15,1.84,1.84,0,0,1,.68.73,1.43,1.43,0,0,1-.23,1.8,1.37,1.37,0,0,1-.8.32,2.14,2.14,0,0,1-1-.14A2,2,0,0,1,136.78,84a1.21,1.21,0,0,1,.57-1.09.79.79,0,0,1,.91.16c.2.2.89-.08.67-.31a1.79,1.79,0,0,0-2.69.54,2.21,2.21,0,0,0,.95,2.77,2.92,2.92,0,0,0,2.74.07,2,2,0,0,0,.95-1,1.74,1.74,0,0,0,0-1.29,2.18,2.18,0,0,0-.94-1.11,1.81,1.81,0,0,0-1.59-.08c-.12,0-.34.26-.13.37a2.89,2.89,0,0,1,1.27,1.27,1.56,1.56,0,0,1,0,1.6,1.15,1.15,0,0,1-1.1.46,1.23,1.23,0,0,1-1-.92,1.46,1.46,0,0,1,.39-1.52l-.37.1a1.27,1.27,0,0,1,.58,2l.58-.1a1.63,1.63,0,0,1-.6-1.69.92.92,0,1,1,1.76.5.85.85,0,0,1-.31.52.61.61,0,0,1-.63-.13.83.83,0,0,1-.33-.87.69.69,0,0,1,.62-.57l-.29-.09a.73.73,0,0,1,.14.71.71.71,0,0,1-.14.29.43.43,0,0,1-.12.11s-.09,0,0,0l.29.09a1.36,1.36,0,0,1,0-1.76l-.58.11a1,1,0,0,1,.29,1,1.23,1.23,0,0,1-.22.48,1.29,1.29,0,0,1-.18.16s-.08,0-.09,0,0,0,0,0h0l.32.14a2.78,2.78,0,0,1,.2-2.37l-.63.17a1.29,1.29,0,0,1,0,2.12h.44a.79.79,0,0,1-.35-.79,1.25,1.25,0,0,1,.14-.49,1.07,1.07,0,0,1,.26-.32l.06,0s.09,0,0,0a.24.24,0,0,1,.13,0,.64.64,0,0,1,.33.18,1.17,1.17,0,0,1,.28.88,1.22,1.22,0,0,1-.15.49A.64.64,0,0,1,139,85l0,0s0,0,0,0L139,85c.07,0,0,0,0,0l.34,0a1,1,0,0,1-.32-1.18.41.41,0,0,1,.14-.2.25.25,0,0,1,.16-.08h.14a.85.85,0,0,1,.22.09.48.48,0,0,1,0,.8l-.06,0s0,0,0,0a.3.3,0,0,1-.13-.14.92.92,0,0,1-.07-.54,1.18,1.18,0,0,1,.26-.54,1.4,1.4,0,0,1,.2-.16.31.31,0,0,1,.15,0,.52.52,0,0,0,.48-.21c.07-.15-.07-.25-.21-.26Z"/><g id="blick"><path class="cls-10" d="M139.61,84.88c.57,0,1.63-.2,1.92-.78s-.25-.79-.77-.79-1.63.2-1.92.77.24.8.77.8Z"/><path class="cls-10" d="M167,84.64c.66,0,1.59-.17,1.89-.85a.82.82,0,0,0-.85-1.12c-.66,0-1.59.18-1.9.86s.24,1.11.86,1.11Z"/></g></g><path class="cls-11" d="M160.07,77.86c2.93.09,5.86.11,8.79.28a23.61,23.61,0,0,1,7.88,1.61,3.53,3.53,0,0,0,3.42-.91c.8-.86.41-1.65-.55-2.06-5.52-2.32-11.91-1.92-17.78-2.08a3.47,3.47,0,0,0-3.16,1.41c-.53,1,.46,1.73,1.4,1.75Z"/><path class="cls-11" d="M149.47,77.63a61.61,61.61,0,0,0-12.41-1.24,15.81,15.81,0,0,0-5.79.85c-1.48.58-3.11,1.49-3.16,3.26,0,.94,4.78.26,4.83-1.3,0-.17.21-.83.35-.74s-.77.3-.39.18c.17,0,.14,0-.12,0,.27,0,.29,0,.05,0a27.4,27.4,0,0,1,3.95,0,55,55,0,0,1,8.76,1,5.29,5.29,0,0,0,3.39-.57c.4-.21,1.67-1.21.54-1.44Z"/><path class="cls-11" d="M148.56,107.09c-2.95-.16-5.5-2-8.44-2.27-3.43-.32-7.23,1.19-8.59,4.52-2.58,6.34,2.43,13,6.16,17.6.87,1.09,5.5-.54,4.51-1.77-3.27-4.09-7.28-9.27-6.34-14.87a5.6,5.6,0,0,1,1.39-3.12,1.13,1.13,0,0,1,.27-.22s0,0,0,0c.16.15-1.17,0-.39.13.3.07.77.1,1.13.19,2.46.64,4.7,1.94,7.3,2.09a5.17,5.17,0,0,0,3.41-.92c.7-.55.66-1.34-.37-1.4Z"/><path class="cls-11" d="M151.7,109.75c3.69,1.11,7.17-.81,10.46-2.21a2.59,2.59,0,0,1,3.07.43,5.93,5.93,0,0,1,2,4.5c.07,3.9-2.87,7.66-5.49,10.28a22.82,22.82,0,0,1-8.93,5.62,11,11,0,0,1-6.22.55,5.41,5.41,0,0,1-4-4.25c-.2-1.17-5.07-.08-4.83,1.3.89,5.21,7.18,5.75,11.36,5.11a31.22,31.22,0,0,0,13.16-5.32,25.92,25.92,0,0,0,8.76-10.08c1.68-3.71,1.32-9.23-3.36-10.47-2.36-.62-5,.06-7.2,1-1.51.62-3.31,2-4.85,1.57a5,5,0,0,0-3.39.57c-.48.25-1.62,1.11-.55,1.43Z"/><g id="hair"><path class="cls-11" d="M125.12,75.17a5.61,5.61,0,0,0,.42,3l2.79-1a6.3,6.3,0,0,1-1.69-3.59c-.14-1.05-2.88-.39-2.9.55a52.16,52.16,0,0,0,1.42,13.52c.26,1,2.88.4,2.91-.55a101.1,101.1,0,0,0-.94-16.59l-2.59,1.13,4.17,1.94c.78.36,2.7,0,2.6-1.13l-.24-2.67-2.79,1,1.66,3,2.48-1.33-2.74-1.11c-.78-.32-2.35-.08-2.59.9a7.82,7.82,0,0,0-.18,2.81l2.79-1-1.41-1.21c-.68-.59-3-.22-2.78,1l.37,2.15c.19,1.09,2.48.29,2.81-.32.81-1.51-.74-2.59-2.15-2.43a2.74,2.74,0,0,0-2.64,3l2.59-1.13c-1.88-1.2-.4-4.32.34-5.76a23.7,23.7,0,0,1,4.23-5.82,39.73,39.73,0,0,1,12-8c9.38-4.3,21.24-6.41,31.14-2.54,5.13,2,9.49,6.31,9.76,12.06l1.24-1.19a15,15,0,0,0-8.81,5.83l2.81-.32a43.34,43.34,0,0,0-4.2-8.43c-.45-.7-2.11-.21-2.52.29L168,66.68l2.52-.3c-.86-1.46-1.71-2.93-2.57-4.4-.71-1.21-1.5-2-3-1.79a4,4,0,0,0-2.83,2.12c-.46.72-.9,1.45-1.35,2.17l-.62,1-.37.59c1.17.3,1.58.26,1.25-.11a5.69,5.69,0,0,0-.68-1.15,2.71,2.71,0,0,0-.82-1,3.3,3.3,0,0,0-3.54.26c-1.2.8-1.37,2-2,3.15-.1.21-.43.49-.26.48s-.57-.4-.69-.5a7.17,7.17,0,0,1-1.39-1.88c-.49-.81-2.34-.11-2.7.52l-1,1.71c-.15.27-.48,1.16-.77,1.26l1.14-.21c-1,0-1.38-1.69-1.91-2.29a2.89,2.89,0,0,0-1.93-1,5.26,5.26,0,0,0-4.62,2.11c-1.18,1.53-1.75,3.3-3.64,4.14a5.33,5.33,0,0,1-4.64-.23l.22.82a44.53,44.53,0,0,1,4.05-5.6l-2.63-.14-1.32,3.49c-.22.58.77.73,1.09.73a2.26,2.26,0,0,0,1.73-.82L136.16,68l-2.72-.14-1.06,2.35c-.51,1.13,1.37,1,2,.74a13,13,0,0,0,2.83-1.87l-2.54-.37-.9,1.85c-.62,1.28,1.74,1,2.28.57a13.67,13.67,0,0,0,3-3l-2.82.09a2.73,2.73,0,0,1-1.8,2,4.29,4.29,0,0,0-2.11.82c-.45.44-.58,1-.07,1.4a2.27,2.27,0,0,0,2.19,0c.45-.19.9-.54.86-1.06v-.14c0-.51-1-.51-1.28-.49l-1.14.06-.35,1.76c3.51-.28,6.83-2.81,7.34-6.42l-2.91.33a5.43,5.43,0,0,1-2.79,4.28L135.59,72a9.09,9.09,0,0,0,3.14-2.77,9.44,9.44,0,0,0,.91-1.72,8.77,8.77,0,0,1,.44-1l.17-.28c.39-.4.23-.4-.48,0l-.82-1A17.46,17.46,0,0,0,136.34,71c-.29,1.16,2.64.75,2.91-.32a15.94,15.94,0,0,1,2.42-5.3c.4-.56-.34-1-.81-1a3.81,3.81,0,0,0-3.72,2.41c-.82,1.8-1.57,3.18-3.38,4.17-.46.25-.72.76-.33,1.16s1.4.23,1.84,0a7.8,7.8,0,0,0,4.51-6c.16-1.24-2.76-.75-2.91.33a4.77,4.77,0,0,1-4.08,4.33c-1.49.11-2.36,1.86-.35,1.76l1.14-.06-1.27-.49v.13l.85-1.06-.12.06,1.13-.22c-.48.81-.48,1.14,0,1l.56-.1a6,6,0,0,0,.72-.23,6.21,6.21,0,0,0,1.68-.91,5.3,5.3,0,0,0,1.93-2.84c.17-.59-.73-.73-1.09-.72a2.17,2.17,0,0,0-1.72.81,9.77,9.77,0,0,1-2.08,2.13l2.28.57.9-1.86c.69-1.42-2-.8-2.54-.36a7.8,7.8,0,0,1-1.66,1.12l1.95.74L136.16,68c.67-1.47-2.18-.82-2.72-.14L132,69.7l2.81-.09,1.32-3.49c.42-1.13-2.26-.58-2.63-.13a49.2,49.2,0,0,0-4.42,6,.55.55,0,0,0,.22.82,9.5,9.5,0,0,0,12-3.28,16,16,0,0,1,1.17-1.85c.52-.63.78-.78,1.34-.07.75,1,1,2.09,2.27,2.57,3,1.14,4.38-2.19,5.56-4.22l-2.7.51a5.56,5.56,0,0,0,2.77,2.72,4.39,4.39,0,0,0,3.75-.44,5.05,5.05,0,0,0,1.73-2.72s.44-1,.53-.94c-.54,0-.7.09-.48.29a2.27,2.27,0,0,1,.22.32c.26.39.41.86.71,1.23a2.21,2.21,0,0,0,2.48.61c1.44-.44,2-1.77,2.77-3,.4-.66.81-1.31,1.22-2l.43-.68-.52.18.65,1c.86,1.46,1.71,2.93,2.57,4.4.42.72,2.12.19,2.51-.29l4.47-5.47-2.51.29a40.93,40.93,0,0,1,4,8c.4,1.09,2.35.31,2.81-.32a11.09,11.09,0,0,1,6.52-4.36c.57-.13,1.26-.54,1.23-1.19-.26-5.56-4.36-10-9.21-12.27-5.37-2.49-11.61-3-17.45-2.62a52.73,52.73,0,0,0-17.32,4.34,44.51,44.51,0,0,0-14,9.11,25.4,25.4,0,0,0-5.07,7.09c-1,2.1-2,5.17.44,6.7.71.45,2.74-.07,2.59-1.13a1,1,0,0,1,.06-.65c-.65,0-1,.22-.89.7l2.81-.32-.38-2.14-2.79,1L127,75.26c.72.62,2.91.21,2.79-1a6.65,6.65,0,0,1,.19-2.35l-2.6.9L130.13,74c.73.29,3.16-.12,2.49-1.33l-1.66-3c-.51-.92-2.88,0-2.79,1l.24,2.67L131,72.16l-4.17-1.94c-.74-.34-2.75,0-2.59,1.13a100.13,100.13,0,0,1,.92,16.14l2.9-.55a49.92,49.92,0,0,1-1.41-13.06l-2.91.55a7.19,7.19,0,0,0,1.91,4c.59.63,3.25.06,2.79-1a4.62,4.62,0,0,1-.41-2.59c.15-1.25-2.78-.76-2.91.32Z"/><path class="cls-11" d="M151.49,53.28c-9.55,3.13-19.32,6.8-25.75,14.93-4.26,5.4,5.83,5.77,8.8,2.79a70.25,70.25,0,0,1,15.62-11.86c3.27-1.8,4.42-6.06-.39-6.54-3.44-.34-5.56.7-8.06,2.94-4.4,3.93,4,5.66,6.69,4.28A25.88,25.88,0,0,1,162.07,57c1.44.09,15.32,2.3,12.34,5.81l9.76.93A7.94,7.94,0,0,0,176.7,55a13.21,13.21,0,0,0-6.7,1.2,12.35,12.35,0,0,0-3.19,2.2c-.57.55-2.9,2.41-.79,1l6.58-1.19c1.9.63-.8-2.47-1.44-3a8.39,8.39,0,0,0-5.93-1.4A10.79,10.79,0,0,0,159.49,56c-1.61,1.29-1.94,3.46-3.33,4.7l6.3-2.25-1.18-.09,3,1.38a4.52,4.52,0,0,1-1.69-2.12c-1.81-3.12-7.45-.86-9.28.89L151,60.7l9.71,0-.91-3.43c-1-3.74-8-2.35-9.71,0-.46.65-2.43,3.88-1.53,3.23l4-1.43c-3.78.33-7.72,1.52-9.3,5.3l9.93-1.8c-3.29-3.29-8.54-3.07-12.05-.08-5.48,4.68,3,7.61,6.93,4.42l-.42-1.18c-.18,5.25,10.58,3.53,10.73-.94.3-8.89-13.12-5.68-17.24-2.3l6.93,4.42-.66.29h-4l0-.09c2.43,2.44,8.51,1.58,9.92-1.79-.44,1.07-3.16,1.79.27.53a8.66,8.66,0,0,0,2.6-1.46c1.55-1.28,1.61-2.86,2.67-4.34l-9.71,0,.91,3.42c1.09,4.13,7.72,1.87,9.71,0l2.28-2.17-9.28.88c1.83,3.16,5.1,4.3,8.65,3.32a8.09,8.09,0,0,0,3.49-2,4.91,4.91,0,0,0,1.43-1.61q1.73-3.06-3.31.15c-.37,2.53,4.34,3.33,5.87,3.21a8.36,8.36,0,0,0,4.51-1.77A5,5,0,0,0,175,61.76q-2.91.45-1.6,2.94c-.32,4.91,7.83,3.21,9.77.92,7-8.28-4.26-13.5-11.11-15A42.7,42.7,0,0,0,143.82,54l6.69,4.29.86-.77-6.3,2.26.9.09-.39-6.54a87.55,87.55,0,0,0-19.84,14.85l8.8,2.79c4.77-6,11.67-8.6,18.76-10.93,1.93-.63,5.09-2.27,4.41-4.82s-4.35-2.58-6.22-2Z"/><path class="cls-11" d="M184.69,65.54l.93-.74-3.26-.06-2.82,3,3.53-.17a3.2,3.2,0,0,1,1.35-1.1L182,66l-2.06,2.88c-.93,1.29,2.5.5,2.9.28a9,9,0,0,0,3.48-3.2l-3.82.62-1,3.7c-.28,1,3.48.41,3.83-.61l1.21-3.52-3.83.61-.26,2.73,3.83-.61.18-2.06-3.85.83c.2,2.29,1.9,4.16,2.35,6.42a21.94,21.94,0,0,1-.17,7.45l3.84-.82c.3-5.61-1.3-11.07-1.34-16.66l-3.75,1.21a3.53,3.53,0,0,1,.62,1.57c.11.6,1.55.32,1.87.26a3,3,0,0,0,2-1.09,6.06,6.06,0,0,0,.58-1.42l-3.85.83q0,.85,0,1.71a8.3,8.3,0,0,0-.06,1.72l0,.34,1.65-.34c-.06-.1-.5-.24-.6-.3a10.6,10.6,0,0,0-1.38-.81,5,5,0,0,0-5.42,1.22c-.27.35-.18.55.2.73,2.37,1.13,3.09,3.42,3.64,5.8q1,4.07,1.9,8.13c.24,1,3.89.06,3.87-1l-.3-12.83c-.07-2.88.57-7.25-2.09-9.24-.64-.48-1.85-.12-2.51.13-.27.11-1.72.79-1.11,1.25a5,5,0,0,1,1.68,3.68c.19,1.87.13,3.78.18,5.65l.28,12.39,3.87-1c-.7-3-1.37-5.94-2.08-8.9A7.69,7.69,0,0,0,182.13,68l.19.73-1.63.42a1.34,1.34,0,0,1,.5.23c.22.11.41.26.62.39a5.31,5.31,0,0,0,1.3.66,5.62,5.62,0,0,0,3.59-.38,2.48,2.48,0,0,0,1.72-1.91,34.74,34.74,0,0,0,.12-3.82c0-.92-3.61,0-3.85.83a6.06,6.06,0,0,1-.58,1.42l3.85-.83a4.4,4.4,0,0,0-.86-1.92c-.59-.79-3.76.2-3.75,1.21.05,5.59,1.65,11.06,1.35,16.66,0,.81,3.7.16,3.84-.82a24,24,0,0,0,.28-7.51,12,12,0,0,0-1.17-3.44,8.83,8.83,0,0,1-1.24-3.35c-.08-.92-3.77-.09-3.85.83l-.18,2c-.1,1.18,3.73.41,3.83-.61l.26-2.73c.12-1.23-3.51-.32-3.83.61l-1.21,3.52,3.83-.61,1-3.71c.21-.73-1.22-.58-1.58-.52a3.17,3.17,0,0,0-2.24,1.14,5.29,5.29,0,0,1-1.94,1.85l2.91.28,2.06-2.87c.86-1.21-2.07-.63-2.47-.48a8,8,0,0,0-3.48,2.39c-.54.67.48.81,1,.8a3.89,3.89,0,0,0,2.57-1l2.82-3c.53-.57-.32-.79-.75-.8a4.23,4.23,0,0,0-2.52.73l-.93.74c-.59.47-.48.91.27,1a4,4,0,0,0,2.73-.73Z"/></g><path class="cls-12" d="M32.58,100c3,9,9.3,16.48,12.68,25.36.37,1,3.24.12,2.9-.78-3.39-8.87-9.67-16.32-12.68-25.35-.33-1-3.21-.16-2.9.77Z"/><path class="cls-12" d="M37,132.89,59.66,122c.5-.24,1.11-.84.7-1.42s-1.44-.43-2-.18L35.77,131.29c-.51.25-1.12.84-.71,1.42s1.44.43,2,.18Z"/><path class="cls-13" d="M3,65.26A36.13,36.13,0,0,1,9.61,80.4l2.9-.78A114.13,114.13,0,0,0,5.8,66.21c-.4-.68-3.14.06-2.89.78q2.18,6.51,5,12.78c.32.74,2.92,0,2.89-.78a25.52,25.52,0,0,0-1.94-9.08c-.32-.76-3.15.1-2.9.77a41.11,41.11,0,0,0,4.83,9.39c.45.65,3.18-.09,2.9-.78l-2.91-7.1L7.86,73l4.48,6.8c.42.65,3.15-.06,2.89-.78a26.92,26.92,0,0,0-3.48-6.63l-2.8.9,4,5.11c.42.54,3.1-.33,2.81-.9l-1.37-2.64-2.63,1,7,3.13c.48.22,3.14-.47,2.54-1.11A11.14,11.14,0,0,0,16.88,75a2.88,2.88,0,0,0-1.87.27c-.14.07-1.14.61-.68.84,4.14,2,8.21,3.43,12.72,1.62,1.57-.63,4-2.59,5.79-1.78,1.21.55,1,2.1.9,3.2a22,22,0,0,1-.62,4.12L36,82.79a20.87,20.87,0,0,0-.13-5.8c-.11-.69-3,0-2.9.77l.56,4.63c.08.68,2.82,0,2.88-.62L37,75.91l-2.88.63,1,6.81c.3,2,.86,4.35-.4,6.13a8.78,8.78,0,0,1-3.59,2.41,14.75,14.75,0,0,0-3.67,2.36l2.77-.46c0-5.32,3.15-10.24,2.21-15.62-.12-.71-2.89,0-2.89.78l0,10.69c0,.61,2.8.07,2.88-.63l1.06-8.7-2.88.62a35.24,35.24,0,0,1,.91,9.92c0,.58,2.77.1,2.88-.62l.74-5-2.87.48q-.33,2.79-.93,5.54c-.17.77,2.66.3,2.86-.47l.68-2.54L32,88.9l.61,2.65c.2.87,2.61-.18,2.88-.63a20.22,20.22,0,0,0,1.64-17.49c-.25-.68-1.91-.05-2.3.14q-7.25,3.57-14.25,7.63l2,.35q4.22-3.42,8.69-6.5l-2.57.29a5.64,5.64,0,0,1-.6,3c-.32.67,2.41.14,2.76-.31l1.52-2-2.68.59a1.05,1.05,0,0,1-.52,1.8,32,32,0,0,1-3.4.71l-7,1.47c-1.12.23-2.25.56-3.38.7A2.74,2.74,0,0,1,12.72,80c-1.47-1.82-2.74-3.84-4.1-5.75-.47-.66-3.2.15-2.9.78L8.5,80.76,11.4,80l-1.15-2.13c-.38-.69-3,0-2.9.77a15.32,15.32,0,0,0,3,6.79c.4.52,3-.16,2.81-.9a11.42,11.42,0,0,0-3-5.67c-.44-.46-2.7.08-2.79.75A6,6,0,0,0,8.83,84.5c.5.59,2.51-.17,2.79-.74a6.27,6.27,0,0,0,.15-5.27L9,79.4A17,17,0,0,0,12.39,83c.5.39,2.69,0,2.79-.75a8.87,8.87,0,0,0-.08-3l-2.81.9,3.41,2.08c.45.27,3.1-.1,2.81-.9a10.11,10.11,0,0,0-2.4-3.7l-2.54,1.11,4.15,1.63A2.83,2.83,0,0,0,19.59,80c.13-.07,1.13-.61.67-.84a16,16,0,0,1-3.37-2.23l-1.61,1.12a26.73,26.73,0,0,1,6.25-.47l-.2-.73a16,16,0,0,1-8.92,2.7c-.38,0-2.52.51-2,1.16a14.82,14.82,0,0,1,2.79,4.84c.53,1.53.81,3.06,2.2,4.07,2.77,2,6.77,2.23,10,1.73.44-.07,2.64-1,1.17-1.24a38.67,38.67,0,0,0-8-.45c-.31,0-2.88.81-1.79,1.24a26.82,26.82,0,0,0,9.18,1.89c.42,0,2.6-.26,2.38-1a1.32,1.32,0,0,0-1.43-1c-.32,0-2.94.47-2.28,1.16,2.11,2.2,5.72-.08,7.35-1.73l-2.77.46c.63,2.52,5.26,1.52,6.06-.38L32.48,91l0,1.12c0,.76,2.64-.16,2.88-.63a8.57,8.57,0,0,0,.87-5.6c-.39-2-1.71-3.44-2.71-5.17A5.16,5.16,0,0,1,32.67,78c0-1.1.76-1.64,1.24-2.52a5.51,5.51,0,0,0,.48-2.34,5.33,5.33,0,0,1,.23-1.64,1.82,1.82,0,0,1,.37-.61c-.77-.13-1-.06-.54.22l.24-.6a17.35,17.35,0,0,1-20.16.18c-.46-.31-3.09.12-2.81.9l.41,1.15c.27.77,3.14-.09,2.9-.77l-.41-1.16-2.81.91c7.43,5.06,18,4.37,25.13-1,.17-.13.48-.38.23-.6-1.38-1.22-4-.09-5,1.19a4.86,4.86,0,0,0-.67,2.83A4.18,4.18,0,0,1,31.05,76,13.19,13.19,0,0,0,30,77.52c-1,2.52,1.27,4.67,2.39,6.65a8,8,0,0,1,.07,7.76l2.89-.63,0-1.12c0-.71-2.66.09-2.89.63s0,.42.69.06a1.2,1.2,0,0,1-.45-.15,1.38,1.38,0,0,1-.53-.79c-.21-.82-2.45.14-2.77.46s-.74.93-1.15,1-.51-.13-.84-.48l-2.29,1.16c.25,0,.37.12.38.44l2.38-1a25.59,25.59,0,0,1-8.68-1.8L17.44,91a35.37,35.37,0,0,1,7.34.44L26,90.15c-2.79.43-7.49,0-9-2.88-.66-1.25-.86-2.72-1.47-4a16.51,16.51,0,0,0-2.35-3.56l-2,1.16A22.72,22.72,0,0,0,23.58,77c.44-.29.38-.7-.2-.73a32.71,32.71,0,0,0-7.59.54c-.22,0-2.21.6-1.62,1.11a15.64,15.64,0,0,0,3.37,2.23l2.54-1.11-4.15-1.63c-.47-.18-3.17.49-2.54,1.11A9.26,9.26,0,0,1,15.61,82l2.81-.91L15,79c-.5-.29-3,0-2.81.91a7.88,7.88,0,0,1,.11,2.74l2.8-.75a17.28,17.28,0,0,1-3.43-3.56c-.39-.54-3.08.27-2.81.9a5.79,5.79,0,0,1-.12,5l2.8-.75a5.49,5.49,0,0,1-1.29-4.36l-2.8.75a10.68,10.68,0,0,1,2.77,5.42l2.81-.9a14.85,14.85,0,0,1-2.79-6.54l-2.9.77L8.5,80.76c.41.75,3.19-.19,2.9-.78L8.62,74.26,5.72,75,8.52,79a12.23,12.23,0,0,0,2.53,3.09,4.41,4.41,0,0,0,3.35.58c1.68-.26,3.36-.69,5-1,3.2-.66,6.41-1.29,9.6-2,1.42-.32,5.51-1.94,3.36-4-.53-.49-2.29.07-2.68.59l-1.52,2,2.75-.31a6.25,6.25,0,0,0,.63-3.35c-.06-.75-2.29.1-2.58.3Q24.52,78,20.3,81.36c-1.19,1,1.53.61,2,.35q7-4.06,14.25-7.64l-2.3.14A19.77,19.77,0,0,1,32.61,91.4l2.88-.63-.61-2.64c-.17-.76-2.72,0-2.88.62l-.67,2.54,2.86-.47a54.48,54.48,0,0,0,.94-5.55c.09-.83-2.76-.28-2.87.48l-.74,5,2.89-.62a35.58,35.58,0,0,0-.91-9.92c-.17-.72-2.81,0-2.89.62l-1.06,8.7,2.89-.62V78.17L29.56,79c.92,5.34-2.23,10.31-2.22,15.62,0,.81,2.52-.23,2.77-.46,2.25-2.11,5.83-2.43,7.55-5.19,1.11-1.77.73-3.92.44-5.86L37,75.76c-.1-.69-2.81,0-2.88.62l-.58,5.86,2.88-.63L35.86,77l-2.9.77a19.5,19.5,0,0,1,.16,5.5c-.1.84,2.69.26,2.87-.47a24.31,24.31,0,0,0,.6-3.71c.09-1.08.37-2.68-.32-3.6C35.17,74,32.54,74.4,31,74.8c-2.08.55-3.87,2-6,2.44-2.67.61-5.7-1-8-2.16l-2.54,1.11a10,10,0,0,1,4.08,2.67l2.54-1.11-7-3.13c-.4-.18-3,.32-2.63,1l1.37,2.64,2.81-.9-4-5.12c-.48-.6-3.11.49-2.81.91a27.61,27.61,0,0,1,3.48,6.63L15.23,79l-4.47-6.79c-.44-.67-3.18.1-2.9.77l2.91,7.11,2.9-.78a40.84,40.84,0,0,1-4.83-9.38l-2.9.77a25.8,25.8,0,0,1,1.95,9.09L10.78,79Q8,72.72,5.8,66.21L2.91,67A115.64,115.64,0,0,1,9.61,80.4c.3.72,3,0,2.9-.78A36.69,36.69,0,0,0,5.68,64.23c-.45-.6-3.23.35-2.72,1Z"/><path class="cls-13" d="M30.21,79.69a1.63,1.63,0,0,0,1.53,1.53c.63.1,1.91-.06,2.24-.76a10.15,10.15,0,0,0,1-4.57c0-1-2.28-.18-2.61.14a5.36,5.36,0,0,0-1.59,2.67c-.26,1.1,2,.52,2.36.28A1.65,1.65,0,0,0,34,76.89c-.45-1-1.82-1.31-2.76-1.63a48.89,48.89,0,0,0-7.82-2,2.33,2.33,0,0,0-2.23.76l-2,3.42c-.53.91-1.59,2.18-1.31,3.32.23,1,1.32,1.34,2.07,1.82a15.51,15.51,0,0,1,2.79,2.26,17.22,17.22,0,0,1,2.09,2.58c.57.88.88,2,2.07,2s2.63-.69,3.79-1.16l3.89-1.59-1.93-.66L27.43,93c-.56.75.76.91,1.16.87a10.68,10.68,0,0,0,7.09-3.79L33,90l-.9,1.71c-.51.95,1,.93,1.55.79a4.06,4.06,0,0,0,3.23-3.15c.18-1.21-2.64-.59-2.9.35-.79,2.85-3.55,5.18-6.61,4.62l-.3,1.42a12.54,12.54,0,0,1,4.54-.78l.75-1.66-4.7.47v1.57a13.09,13.09,0,0,1,2.7-.56,6.4,6.4,0,0,0,2.35-.82,25.07,25.07,0,0,0,4.24-2.76c.51-.4.25-.9-.28-1a2.47,2.47,0,0,0-2,.55A16.84,16.84,0,0,1,31.05,93c-1,.45-2.59.48-3.81.87-.43.13-1.27.44-1.24,1s.85.59,1.25.55L32,94.92c.5,0,1.42-.34,1.59-.89s-.36-.77-.84-.78a18.46,18.46,0,0,0-6.82,1.23c-.62.23-1.4,1.22-.3,1.42,4.66.85,10-1.87,11.27-6.58l-2.9.35c-.06.43-.23,1.17-.73,1.3l1.55.79.9-1.7c.32-.6-.27-.85-.79-.89A2.4,2.4,0,0,0,33,90a6.08,6.08,0,0,1-4,2.23l1.16.87,5.19-6.89c.78-1-1.55-.82-1.93-.66-2.07.84-4.12,1.79-6.22,2.52l1.13-.23s-.84-1.53-.91-1.63a17,17,0,0,0-1.31-1.72A17.8,17.8,0,0,0,23,81.72c-.56-.4-1.19-.7-1.75-1.1-.84-.59-.42-1.29,0-2,.85-1.49,1.72-3,2.58-4.45l-2.23.76a49.59,49.59,0,0,1,5.5,1.23q1.36.39,2.7.87a2.89,2.89,0,0,1,1.09.52.64.64,0,0,1,.27.47c-.08.28,0,.31.13.09l2.35.27a3.53,3.53,0,0,1,1-1.81l-2.62.13a8.63,8.63,0,0,1-.8,3.71l2.24-.76c-.37-.06-.4-.41-.4-.71,0-.93-2.91-.37-2.9.78Z"/><path class="cls-13" d="M32.32,68.08a7.78,7.78,0,0,1,2.91,5.58l2.93-.48a14.77,14.77,0,0,0-5.13-8c-1.08-.86-3.53.61-2.21,1.75,0,0,.12.14,0,0a2.07,2.07,0,0,1,.17.24c.09.16,0-.13,0,0a1.42,1.42,0,0,1,.07.22,2.5,2.5,0,0,1,.05.29c0-.13,0,0,0,.06a3.93,3.93,0,0,1-.06.48,3.63,3.63,0,0,1-.33.85c-.05.08-.05.08,0,0l-.07.11-.16.21-.16.2c-.16.19.05,0-.07.07-1.33,1.18-3,1.89-4.13,3.28a.94.94,0,0,0,.12,1.36,1.75,1.75,0,0,0,1.77,0,10.35,10.35,0,0,0,5-10.91c-.15-.71-1.16-.85-1.73-.68a1.42,1.42,0,0,0-1.17,1.46,6.89,6.89,0,0,0,1.51,2.91c.07.12.15.24.22.37s0-.06.08.16a1.83,1.83,0,0,1,.11.33s.06.35,0,.17a2.36,2.36,0,0,1,0,.37l0,.14c0-.12,0-.14,0-.06s-.09.21-.13.32.13-.16,0,.06a5.58,5.58,0,0,1-.38.47c-.09.1-.22.22-.05.06l-.28.26c-.33.31-.67.6-1,.92a4.35,4.35,0,0,0-1.57,2.8c-.1,1.58,2.85,1.23,2.94-.18a2.11,2.11,0,0,1,.05-.35c0-.08,0-.07,0,.06a1,1,0,0,1,.07-.18l.13-.27c-.14.27,0,0,.05,0a5.11,5.11,0,0,1,.48-.55c-.16.17,0,0,.06-.05l.24-.22a8.71,8.71,0,0,0,2.11-2.38,3.31,3.31,0,0,0-.28-3.26c-.27-.46-.62-.89-.91-1.34a2.3,2.3,0,0,1-.5-1.29l-2.9.78a7.91,7.91,0,0,1-.5,4.8,7.39,7.39,0,0,1-1.24,2c-.14.15-.27.31-.41.45-.3.31.09-.08-.09.09l-.25.23c-.18.15-.35.29-.54.42l-.22.16c-.36.25.24-.14-.14.09L28.63,74a4.85,4.85,0,0,1,.93-.85c.39-.3.81-.56,1.22-.84A8.83,8.83,0,0,0,33,70.44c1.17-1.55,1.6-3.81,0-5.21L30.82,67a12.91,12.91,0,0,1,4.44,7c.16.65,1,.81,1.53.72s1.42-.53,1.39-1.19a9.67,9.67,0,0,0-3.65-7.15,1.81,1.81,0,0,0-2.09.15,1,1,0,0,0-.12,1.6Z"/><path class="cls-13" d="M26.66,80.9l-2.79-4.05L21.72,78.5a6.3,6.3,0,0,0,3.81.37c.87-.15,1.64-1.2.84-1.89l-1.06-.9L24.47,78c.12,0-.07,0-.07,0s.15.1.2.16a4.13,4.13,0,0,1,.54.9,5.46,5.46,0,0,1,.21,2.13c0,1.58.08,3,1.28,4.15a1.75,1.75,0,0,0,2.58-1,11.23,11.23,0,0,0-.08-3.17c-.09-.56-.88-.74-1.33-.71a1.84,1.84,0,0,0-1.51.92l-.95,1.77,2.5-.67A2.63,2.63,0,0,0,26,81.88l1.35,1,.51-2.08L25,81.55c1.27,1.83,3.81.67,5.33-.12l7-3.65-2.1-.5a26.55,26.55,0,0,0,.36,2.66c.14.71.2,1.69.82,2.17,1.16.91,3.55-.21,2.73-1.75-.21-.4-.82-.45-1.2-.45h-.09c-.62,0-1.88.66-1.57,1.48,2.13,5.62-2.1,10.64-6.7,13.3-.49.28-1,.79-.73,1.4a1.4,1.4,0,0,0,1.66.52,11.26,11.26,0,0,0,6.52-5.38c.72-1.35-1.7-1.46-2.36-.88L30,94.45c-1,.86-.27,1.78.85,1.79a5.92,5.92,0,0,0,4.87-2.44c1.09-1.55-1.57-1.9-2.44-.91l-1.6,1.83,2.67.07c-.21-1.19-.39-2.39-.63-3.58A3.32,3.32,0,0,0,32.49,89c-1.42-1-3.84-.24-4.19,1.51l2.59-1A12.56,12.56,0,0,1,28,86.84a1.64,1.64,0,0,0-2.77,1A4.19,4.19,0,0,0,27.21,91c.94.61,2.68,0,2.56-1.24a19,19,0,0,0-1.45-5.74L26,85.44A2.63,2.63,0,0,0,29,84.51c.69-1,.2-2-.49-2.84a1.76,1.76,0,0,0-2.3,0l-.91.63,2.08-.16a2.55,2.55,0,0,1-.91-1.21c-.49-1.36-3.38-.55-2.9.77a4.48,4.48,0,0,0,1.59,2.15,1.88,1.88,0,0,0,2.08-.17l.91-.62-2.29,0a4.45,4.45,0,0,1,.38.48c.21.61.71.61,1.5,0-.69-.18-2.77.23-2.28,1.39a19,19,0,0,1,1.46,5.73l2.56-1.24a2.75,2.75,0,0,1-1.27-2.22l-2.78,1a15,15,0,0,0,3.27,3.15,1.77,1.77,0,0,0,2.59-1,6.4,6.4,0,0,1-.9.46s.23.34.26.4a5.4,5.4,0,0,1,.29,1.25c.19,1,.37,2.08.55,3.12.21,1.2,2.15.66,2.67.07l1.6-1.83-2.44-.91a2.4,2.4,0,0,1-2.19,1.16l.85,1.79,4.7-4.1-2.36-.88A7.63,7.63,0,0,1,30,94.55l.93,1.92A19.65,19.65,0,0,0,38,90a10.85,10.85,0,0,0,1.18-9.41L37.65,82.1h.09l-1.2-.45,0,.09-.15-.55,0-.07,1.12-.84-.11,0,1.11,0-.18-.08.49.35a6.09,6.09,0,0,1-.44-1.94c-.12-.72-.21-1.44-.27-2.17-.09-.9-1.61-.75-2.11-.5L31,78.63l-2.45,1.28a2.59,2.59,0,0,1-.81.37c-.2,0,.05.17-.09,0-.71-1-2.54-.28-2.79.74l-.51,2.08c-.18.75.85,1,1.35,1q-.51-.19-.09.09c.73.66,2.1.08,2.5-.67l.95-1.76-2.84.2a9,9,0,0,1,0,2.59l2.59-1a3.33,3.33,0,0,1-.57-2.5,8.35,8.35,0,0,0-.21-2.73,3.34,3.34,0,0,0-4.16-2.45c-.81.24-1.69,1.15-.83,1.89l1.05.9L25,76.81a2.71,2.71,0,0,1-1.6-.32c-.87-.39-2.94.52-2.15,1.65l2.78,4c.77,1.12,3.52,0,2.65-1.29Z"/><path class="cls-13" d="M11.33,71.74l-.15-.06.27.1a3.66,3.66,0,0,1-1-.54l.19.15a4,4,0,0,1-1.07-1.25l.11.2a3.61,3.61,0,0,1-.37-.94C9.27,69.15,9,69,8.75,69a2.37,2.37,0,0,0-1.09,0,2.18,2.18,0,0,0-1,.51.73.73,0,0,0-.27.67,4.33,4.33,0,0,0,1.05,1.94,4.78,4.78,0,0,0,2.1,1.29,2.12,2.12,0,0,0,1.09,0,2.18,2.18,0,0,0,1-.51c.16-.16.37-.42.28-.67a.8.8,0,0,0-.58-.44Z"/><path class="cls-13" d="M10.47,86,26.16,78.4,34,74.58l1.79-.88a7.81,7.81,0,0,0,1.13-.54l.22-.11q.59-.24-.3-.06a12.36,12.36,0,0,0,.52,1.56c.2.71.37,1.43.52,2.15A24.9,24.9,0,0,1,36.13,92c-1,2.07-2.53,4.15-4.81,4.86-2.45.76-5-.8-7.08-1.88a68.43,68.43,0,0,1-7.8-4.67c-2.14-1.47-4.74-3.09-5.2-5.86l-2.78,1a25.17,25.17,0,0,0,17.2,10.65c7,1,15.53-2.07,16.65-10a28.18,28.18,0,0,0,0-6,20.06,20.06,0,0,0-1-5.43c-.56-1.52-1.4-3.35-3.24-3.47s-4.16,1.38-5.89,2.18l-12,5.51c-1.87.85-3.75,1.67-5.55,2.66-1.44.78-3.58,1.75-4.28,3.35-.84,1.92.88,3.46,2.29,4.5a46.92,46.92,0,0,0,5.71,3.5c2,1,4,2,6,2.9a20.4,20.4,0,0,0,6.47,2.11L30,96.36l-.12.16.95-.58-.2,0,1.39.18.13.19-.23.85L32,97l-.94.59.19-.06-1.67-1.23c-.5,1-2.84.36-3.68.2a23.46,23.46,0,0,1-4.79-1.46,24.35,24.35,0,0,1-8.23-5.7c-.95-1-3.68.21-2.65,1.3A27.08,27.08,0,0,0,21.35,97.8c3.09,1,9.16,2.8,11-1.09.5-1-.94-1.44-1.68-1.24-.9.25-2.06,1.26-1.2,2.23s2.34.42,2.92-.41a1,1,0,0,0-.73-1.56c-3.16-.31-6.18-2.09-9-3.45a42.46,42.46,0,0,1-8.44-5c-.6-.48-1.61-1.29-1.09-2.15a5.48,5.48,0,0,1,1.73-1.22,43.7,43.7,0,0,1,4.37-2.22c3.24-1.5,6.49-3,9.73-4.45L33.92,75l2.24-1c.42-.19.89-.6,1.36-.26a4,4,0,0,1,.65,1.17c1.25,2.81,1.35,6.26,1.33,9.29s-.9,5.83-3.41,7.76A12.25,12.25,0,0,1,27.29,94a22.7,22.7,0,0,1-16.18-9.83c-.72-1-3-.26-2.77,1,.45,2.7,2.65,4.5,4.76,6a72.64,72.64,0,0,0,8.19,5.09c2.51,1.34,5.28,3,8.22,3a10,10,0,0,0,7.29-3.61c3.79-4.34,4.86-11.11,4.4-16.67a26.72,26.72,0,0,0-.71-4.37c-.28-1.13-.53-2.87-1.6-3.57s-2.59,0-3.72.51L30.23,74,9.16,84.23C7.39,85.1,9,86.78,10.47,86Z"/><path class="cls-13" d="M27.37,73.51C22.63,70.6,20,65.79,19.18,60.4L5.66,64c1.25,6.54,2.65,13.34,5.06,19.57.68,1.74,1.35,3.16,3,4.16,2.15,1.32,4.75.75,6.87,1.88l2.85-5.54,1.2-.33c-3.17-.31-7.1.36-9.56,2.57-1.92,1.72-1.79,3.94,1.15,4.29a28.26,28.26,0,0,0,13.73-1.81c1.57-.59,6.72-4,2.84-5.54L25,80.21c-2.07-.82-14.33.92-12.19,4.91A27.52,27.52,0,0,0,23.85,96.41c3.49,2,16-3.24,10.86-6.2a21.73,21.73,0,0,1-8.39-8.72L14.13,86.4l7.8,3.07,2.84-5.54-.15-.16-8.41,6.86A27.9,27.9,0,0,0,28.58,89c2-.7,6.33-3.69,2.85-5.54-1.65-.88-3.76-.56-5.28-1.33-2-1-2.35-3.43-3-5.65A152.45,152.45,0,0,1,19.18,60.4C18.39,56.25,5,59.48,5.66,64c1,7,5,12.06,10.86,15.67,3.41,2.1,16-3,10.85-6.19Z"/><path class="cls-12" d="M.75,64.09c.49,8.07,4,15.85,7.41,23.06a23.57,23.57,0,0,0,6.1,8.22,22.21,22.21,0,0,0,8.56,4.38,21.19,21.19,0,0,0,10,.26c3.74-.85,6.11-3.57,8.27-6.55A17.53,17.53,0,0,0,44.8,83.17,23.53,23.53,0,0,0,41.88,72.5c-4-7.72-10.48-13.8-14.39-21.56-.57-1.14-3.42-.26-2.9.78C27.76,58,32.48,63.23,36.41,69s7.28,13.13,4.41,20a22.59,22.59,0,0,1-2.36,4.1,17.23,17.23,0,0,1-3.81,4.22c-2.52,1.72-6.35,1.48-9.2.88A20.51,20.51,0,0,1,11.24,86.76,119.19,119.19,0,0,1,6.4,75.42a42.78,42.78,0,0,1-2.75-12.1c-.07-1.16-3-.51-2.9.77Z"/><path class="cls-12" d="M2.6,63.4c3.37-2.53,7.51-4,11.3-5.77L26,52.09c.4-.19,1.17-.65.77-1.17s-1.48-.23-1.92,0l-13,5.95c-4,1.81-8.1,3.45-11.61,6.08-.52.39-.25.89.28,1a2.52,2.52,0,0,0,2-.55Z"/><g class="cls-14"><path class="cls-15" d="M118.49,69.88c-3.51-3.78-2.85-9.57.71-13.15,3.9-3.93,10.29-5.19,15.5-6.3a122,122,0,0,1,34.86-1.78,228.54,228.54,0,0,1,33.11,5.21c4.7,1.06,10.64,2.71,11.73,8.2,1.3,6.5-9.21,8-13.69,9.32-4.64,1.34-3.51,5.79,1.18,4.44,5.9-1.7,14.51-3.34,18.59-8.38,3.47-4.28,1.73-10.27-2.21-13.58-5.1-4.27-12.74-5-19-6.28a241.5,241.5,0,0,0-24.95-3.65c-15.87-1.4-32.4-.83-47.73,3.84-6,1.82-12.55,4.63-16,10.15-3,4.76-3.14,10.91.79,15.14,2,2.19,9.41-.73,7.13-3.18Z"/></g><path class="cls-7" d="M48.11,114.08c-1.92.81-3.82,1.68-5.68,2.63-.93.47-1.84,1-2.75,1.47A27.29,27.29,0,0,0,37,119.75c-.59.42-1.31,1.06-1.24,1.87s1,1.18,1.67,1.24c2.38.19,4-1.51,5.61-3l5.39-5c.5-.46-.43-.59-.71-.57a3.22,3.22,0,0,0-1.93.71l-8.54,7.74,2.76-.31a4.26,4.26,0,0,0,.55-3c0-.2-.39-.24-.52-.26L37.68,119l-.08.9L48.4,115l-2.17-.18a9,9,0,0,1-3.43,3c-.33.15-.92.62-.33.85a3,3,0,0,0,2-.35,11.23,11.23,0,0,0,4.37-3.6c.26-.36,0-.53-.4-.56a3.53,3.53,0,0,0-1.77.39l-10.8,4.82c-.56.25-.89.8-.08.89l2.39.29-.53-.26a3.74,3.74,0,0,1-.52,2.69c-.27.45.89.4,1,.38a3.2,3.2,0,0,0,1.76-.69l8.53-7.74-2.64.14L41,119.47c-.75.7-1.48,1.45-2.28,2.1-.56.44.26-.22.54,0-.11-.09-.26-.09-.37-.2a.77.77,0,0,1-.1-1c.4-.68,1.43-1.07,2.09-1.44.9-.52,1.81-1,2.74-1.49q2.7-1.41,5.51-2.6c.28-.12,1.2-.48.84-.91s-1.54,0-1.88.12Z"/><path class="cls-7" d="M42.51,119a1.43,1.43,0,0,0-.72-.4,2.57,2.57,0,0,0-.55-.06,5,5,0,0,0-1.33.19l.62.77,1.55-.49a2,2,0,0,0,.47-.21,1.33,1.33,0,0,0,.34-.22c.1-.1.22-.27.06-.38l-.18-.07a2.09,2.09,0,0,0-.56,0,5.45,5.45,0,0,0-1.13.26l-1.55.48a4,4,0,0,0-.47.21,1.56,1.56,0,0,0-.34.23l-.12.14c0,.08,0,.14,0,.18a.18.18,0,0,0,.13.09.66.66,0,0,0,.34.06,3.47,3.47,0,0,0,1.06-.14l.09,0-.39.09h.06l-.35,0h-.2a.75.75,0,0,1,.15,0l-.25,0a1.34,1.34,0,0,1,.27.07l-.18-.07a1,1,0,0,1,.42.29.56.56,0,0,0,.3.08,1.3,1.3,0,0,0,.44,0,4.85,4.85,0,0,0,.55-.09,3.86,3.86,0,0,0,.58-.17l.33-.13a2,2,0,0,0,.48-.3l.12-.14a.17.17,0,0,0-.06-.24Z"/><path class="cls-7" d="M38.48,126.51a43.58,43.58,0,0,1,11-2.07c1.18-.07,3.66-.9,3.84-2.31s-1.93-1.55-2.93-1.49a51.18,51.18,0,0,0-12.8,2.43c-1,.32-3.31,1.18-2.92,2.63s2.92,1.12,3.84.81Z"/><path class="cls-7" d="M34.49,129c1.57-.16,2.46.65,3.69,1.46a5.56,5.56,0,0,0,3.39.58c1.78,0,8-.92,6.84-3.87-.72-1.8-7.36.3-6.76,1.81l.75-.15L45,128a3.37,3.37,0,0,1-.55,0c-.61,0-.67,0-.2,0s.4,0,.14-.14c-.2-.51-1.51-1-2-1.23a9.84,9.84,0,0,0-5.06-.7c-1.39.13-3.61.45-4.51,1.67s.75,1.42,1.66,1.34Z"/><path class="cls-7" d="M33.66,130.39A197.64,197.64,0,0,1,44.71,157c.43,1.31,3.91.26,4.58,0a70.62,70.62,0,0,0,11.43-6c.4-.26,1.13-.89.56-1.38-3.82-3.23-4.87-5.86-4.35-10.73.41-3.83,1.91-7.62,1.06-11.45-.39-1.79-5.8.27-6.45,1.09-2.39,3-5.35,5.73-5.53,9.74-.2,4.75,1,10.07,2.25,14.62L55,151c-3.12-4.47-3-9.56-5.47-14.16-.79-1.48-2.24-2.17-1.34-3.63.71-1.16,3.54-2.41,4.51-3.67,1.43-1.83-5.09-1-6.15.38-2,2.63-7.36,2.94-5.09,7,2.87,5.11,3.35,11,6.78,15.9,1,1.41,7.25,0,6.76-1.81a70,70,0,0,1-2-11.22c-.59-5.38,1.51-7.73,4.67-11.71l-6.46,1.1c1,4.42-1.18,9.15-1.27,13.66-.07,4.17,1.92,6.5,5,9.08l.56-1.37a53.42,53.42,0,0,1-8.61,4.59l4.59,0a197.64,197.64,0,0,0-11-26.57c-.9-1.78-7.39.55-6.76,1.81Z"/><path class="cls-7" d="M48.54,112.66l2.27,4a28,28,0,0,1,2.15,4c.88,2.47-1.25,4.83-1.66,7.2-.15.83,1.24.63,1.61.35,1.05-.8,1.83.08,2.84.43a2.69,2.69,0,0,0,2.52-.43c1.73-1.33,1-3.93.57-5.73a9.3,9.3,0,0,0-2.58-5.12c-1.45-1.32-3.46-2-4.53-3.73l-1.63,1A10.13,10.13,0,0,1,54.21,126l1.94-.34a10.48,10.48,0,0,1-.17-5l-1.95.16A47.28,47.28,0,0,1,53,127l2-.15a14.39,14.39,0,0,1,.33-3.82l-1.95.16a10.59,10.59,0,0,0,.25,3c.18.81,1.63.38,1.88-.16l1.3-2.77-1.9,0,0,3.34c0,1,1.59.66,1.9,0l.61-1.29-1.89.15a2,2,0,0,1,.14.84c0,1,1.61.67,1.9,0a3.7,3.7,0,0,0,.32-1.88c-.06-.85-1.85-.36-1.94.34l-.32,2.27c-.12.84,1.23.63,1.61.35l.93-.68-1.62-.35A14.46,14.46,0,0,1,55.9,130l2-.16c.16-1.54-.11-3.28-1.67-4a4.61,4.61,0,0,0-4.61,1c-1.42,1.19-2.31,2.86-4,3.7a6.64,6.64,0,0,1-5.35.16c-.79-.31-2.25.84-1.12,1.28a9.27,9.27,0,0,0,8.74-1.2c1.31-1,2.12-2.58,3.5-3.45a1.54,1.54,0,0,1,2.21.26,3.56,3.56,0,0,1,.38,2.4c-.11,1,1.73.58,2-.16a14.85,14.85,0,0,0,.63-3.62c0-.83-1.19-.67-1.61-.35l-.93.68,1.61.34.32-2.27-1.94.34a2.29,2.29,0,0,1-.24,1.15l1.9,0a3.74,3.74,0,0,0-.16-1.2c-.23-.79-1.61-.42-1.88.15l-.62,1.29,1.9,0,0-3.34c0-1-1.6-.67-1.9,0l-1.3,2.78,1.89-.16a9.16,9.16,0,0,1-.23-2.66c.06-1-1.78-.63-1.95.16A14,14,0,0,0,53,127c.05,1,1.76.64,2-.15a47.13,47.13,0,0,0,1-6.25c.11-1-1.78-.65-1.95.16a11.22,11.22,0,0,0,.19,5.4c.26.91,1.74.3,1.94-.34a11,11,0,0,0-4.57-12.32c-.56-.37-2.16.12-1.63,1,.9,1.44,2.4,2.21,3.76,3.15a7.58,7.58,0,0,1,3,4.51c.22.85.38,1.73.52,2.6.11.68.5,3.1-.78,2.41a4.2,4.2,0,0,0-4.81.21l1.61.34c.44-2.53,2.62-4.87,1.64-7.55a27.21,27.21,0,0,0-2-3.8l-2.54-4.49c-.42-.73-2.26,0-1.77.84Z"/><path class="cls-8" d="M59.63,151.25a103.62,103.62,0,0,1-16.29,7.44l1,.13c.8-7.68-3.77-14.21-7.06-20.74-1.63-3.23-3.25-6.88-3.34-10.56,0-1.38,1.33-1,2.34-1l3.16.08c2.12.07,4.32,0,6.42.31.58.07.87.1.92.75a2.81,2.81,0,0,1-.47,1.71,4.38,4.38,0,0,1-3.63,1.69,9.64,9.64,0,0,1-6.26-2c-.37-.27-1.67.3-1.36.53a10.91,10.91,0,0,0,8.61,2c2.37-.45,5.44-2.3,4.34-5.15a.29.29,0,0,0-.27-.15c-2.32-.15-4.65-.27-7-.36a44.28,44.28,0,0,0-6.41-.11c-1.78.2-2,1.37-1.79,2.94a23.48,23.48,0,0,0,1.53,5.88c3.12,8,9.75,15.29,8.8,24.38,0,.42.8.19,1,.12a105.72,105.72,0,0,0,16.63-7.6c.84-.48-.46-.55-.87-.31Z"/><path class="cls-8" d="M42.67,126.71q5-1.71,10-3.52a.57.57,0,0,0,.42-.53c-.07-2.07-2.95-1.52-4.22-1.34l-7.11,1a26.31,26.31,0,0,0-6.23,1.2,2.52,2.52,0,0,0-1.53,1.4,1.34,1.34,0,0,0,.61,1.64c.47.25,1.78-.4,1.15-.75s-.32-1.28.25-1.55a9,9,0,0,1,2.24-.53c1.55-.29,3.12-.49,4.69-.71l4.74-.66c1-.14,3.9-1,4,.69l.43-.53q-4.79,1.74-9.61,3.38c-.85.28-.65,1.11.22.82Z"/><path class="cls-8" d="M37.48,122.8a3,3,0,0,1-1.1-3.19c.37-1.29,1.4-1.78,2.57-2.21l8.19-3,2.08-.75c.27-.1.23-.18.38.13a1,1,0,0,1,0,.86c-.45,1.1-1.91,1.83-2.83,2.46a14.59,14.59,0,0,0-4.64,5.05c-.11.21,1.22.12,1.43-.25a14.36,14.36,0,0,1,4.74-5,9.54,9.54,0,0,0,2.48-2.08c.43-.59.6-1.61-.33-1.82s-2.24.51-3.13.83l-3.89,1.41-3.88,1.41a15.85,15.85,0,0,0-3.07,1.26,3.26,3.26,0,0,0-.37,5.39c.31.25,1.59-.31,1.36-.5Z"/><path class="cls-8" d="M49.4,115.36c-.23,1.86,1.31,3,2.36,4.33,2,2.51.1,4.74-1.37,7-2.87,4.32-5,9.41-4.09,14.68.11.6,1.56.24,1.45-.39-1-5.57,1.66-10.78,4.74-15.23C53.66,124,54.83,122,53.74,120c-.86-1.56-3.12-2.82-2.88-4.8.09-.68-1.38-.46-1.46.14Z"/><path class="cls-8" d="M60.76,151c-1.18-2-2.4-4-3.55-6.1A7.31,7.31,0,0,1,56,141.48a10.25,10.25,0,0,1,.71-3.27,81,81,0,0,0,3.35-12.51c.57-3.59,0-7-2.77-9.48-2.46-2.24-5.63-3.52-8-5.9-.34-.34-1.36-.2-1.4.37a10,10,0,0,0,2.54,7.38c.42.46,1.8-.11,1.34-.62a9.3,9.3,0,0,1-2.42-6.89l-1.39.38c2.3,2.34,5.36,3.64,7.82,5.78,3.3,2.86,3.33,6.77,2.46,10.78-.48,2.22-1.06,4.43-1.69,6.61s-1.49,4.1-1.91,6.2a7.35,7.35,0,0,0,1.19,5.22c1.16,2.05,2.37,4.07,3.55,6.11.31.52,1.7,0,1.33-.63Z"/></g><g id="jacket"><g id="shirt"><path class="cls-16" d="M153,156.07c-3.54-1.54-7.8-.65-11,1.54s-5.41,5.5-7.15,8.94c-4,8-5.7,16.94-6.61,25.83a165.13,165.13,0,0,0,.1,34.79c.4,3.7,1,7.51,3,10.66s5.45,5.47,8.73,7.53c2.76,1.74,5.71,3.51,9,3.56,5.18.07,9.36-4.19,12.14-8.57,9.95-15.7,10.12-35.47,10-54.06-.05-6.12-.15-12.46-2.77-18a21.59,21.59,0,0,0-16.42-12"/><path class="cls-17" d="M153.28,155.92c-6.45-2.66-13,1.6-16.54,6.83-4.48,6.58-6.64,14.7-7.91,22.46A151.63,151.63,0,0,0,127,211.1q.06,6.75.69,13.48c.36,4,.67,8.19,2.41,11.85,1.56,3.31,4.38,5.66,7.37,7.65s6.09,4.18,9.61,4.84c6.6,1.23,11.72-4.23,14.84-9.33,8-13.17,9.37-29,9.54-44.1,0-4,0-8,0-11.93a46,46,0,0,0-1.38-11.7,21.54,21.54,0,0,0-17.91-15.68c-.19,0-.84.29-.45.34a21.52,21.52,0,0,1,15.59,10.56c3.63,6.38,3.42,14.09,3.47,21.2.09,14-.07,28.57-5,41.91a53.31,53.31,0,0,1-4.55,9.48,21.9,21.9,0,0,1-6.9,7.54c-3.92,2.41-8,1.51-11.76-.64a43.91,43.91,0,0,1-8.38-5.83c-5.63-5.31-5.66-13.8-6.12-21a166.52,166.52,0,0,1,.29-25c.68-7.67,1.81-15.38,4.44-22.65,2.39-6.6,6.38-14.82,14-16.41a10,10,0,0,1,5.93.52c.18.08.84-.21.58-.31Z"/><path class="cls-16" d="M137.85,143.88l-4.22,2.6a2.18,2.18,0,0,0-1,1c-.25.71.27,1.44.73,2,4.17,5.31,6.14,12,8,18.45a7,7,0,0,1,7.19,1.57c.81-1.48.4-3.28.34-5a11.32,11.32,0,0,1,3.79-8.76,31.47,31.47,0,0,1-13.18-10"/><path class="cls-17" d="M137.62,143.78c-1.26.78-2.53,1.55-3.79,2.34-.67.41-1.58.86-1.64,1.75s.85,1.77,1.34,2.44a30.1,30.1,0,0,1,2.2,3.49c2.43,4.47,3.86,9.38,5.28,14.23,0,.14.31.11.41.08a6.74,6.74,0,0,1,6.81,1.54.53.53,0,0,0,.69-.19c1.05-2.22.1-4.77.49-7.12a11.3,11.3,0,0,1,3.57-6.49c.07-.07.12-.18,0-.23a32,32,0,0,1-13.14-10c-.14-.19-.84.06-.67.28a31.84,31.84,0,0,0,5.76,5.78,47.38,47.38,0,0,0,6.72,4c.68.37.32.46-.14,1a11.37,11.37,0,0,0-1.19,1.57,11.8,11.8,0,0,0-1.38,3.1,11.65,11.65,0,0,0-.39,3.57c.07,1.61.36,3.19-.35,4.7l.7-.18a7.53,7.53,0,0,0-7.58-1.61l.41.08a80.28,80.28,0,0,0-4.5-12.74,33.46,33.46,0,0,0-3.28-5.41c-.35-.46-.94-1-1-1.61-.11-1.16,1-1.55,1.74-2l3.37-2.07c.42-.26-.22-.35-.45-.21Z"/><path class="cls-16" d="M170.69,145.06a40.33,40.33,0,0,1,4.62,3.5,1.44,1.44,0,0,1,.64,1c0,.45-.42.76-.78,1A25.79,25.79,0,0,0,165.46,165a2.94,2.94,0,0,1-.56,1.32,2.79,2.79,0,0,1-1.23.67l-7.45,2.55a15.45,15.45,0,0,0-2.38-12.22c-.33-.47-.7-1.12-.34-1.58a1.3,1.3,0,0,1,.78-.37c3-.64,6.22-.8,9.06-2.06s5.32-4.08,4.91-7.15"/><path class="cls-17" d="M170.35,145.19a45.33,45.33,0,0,1,4,2.93c.74.63,1.64,1.21.85,2.25a11.45,11.45,0,0,1-1.63,1.27,26,26,0,0,0-8.32,13,2.87,2.87,0,0,1-1.89,2.25l-2.41.82-4.82,1.65.5.09a15.67,15.67,0,0,0-.48-8.53,18.41,18.41,0,0,0-1.92-3.78c-.36-.57-.53-.71-.15-1.28s.93-.49,1.51-.59c.88-.16,1.76-.28,2.64-.43,4.52-.77,11-3.05,10.43-8.82,0-.22-.75-.07-.73.2.31,3.18-2.12,5.8-4.89,7a22.13,22.13,0,0,1-5.15,1.31,18.47,18.47,0,0,0-4,.73,1.07,1.07,0,0,0-.65,1.65c.6,1.25,1.46,2.32,2,3.64a15.63,15.63,0,0,1,.69,9c-.06.23.41.12.5.09l5.48-1.88c1.1-.37,2.76-.61,3.5-1.62a5.91,5.91,0,0,0,.68-2c.22-.74.46-1.47.74-2.18a25.6,25.6,0,0,1,2.23-4.4,28.25,28.25,0,0,1,6.47-6.93c.92-.75,1.08-1.39.19-2.26a32.06,32.06,0,0,0-4.62-3.5c-.21-.14-.86.15-.68.27Z"/><path class="cls-18" d="M150.05,172.75v.39a1.17,1.17,0,0,0,.13.58,1.14,1.14,0,0,0,.31.48,1.24,1.24,0,0,0,.48.31,1.27,1.27,0,0,0,.58.13l.4-.06a1.57,1.57,0,0,0,.66-.38l.24-.31a1.5,1.5,0,0,0,.2-.75v-.39a1.06,1.06,0,0,0-.13-.58,1.36,1.36,0,0,0-.79-.79,1.06,1.06,0,0,0-.58-.13l-.4.05a1.49,1.49,0,0,0-.66.39l-.23.3a1.45,1.45,0,0,0-.21.76Z"/><path class="cls-18" d="M150.77,182.06a1.5,1.5,0,0,0,0-3,1.5,1.5,0,0,0,0,3Z"/><path class="cls-18" d="M150.77,190.26a1.5,1.5,0,0,0,0-3,1.5,1.5,0,0,0,0,3Z"/><path class="cls-18" d="M149.6,198.07a1.5,1.5,0,0,0,0-3,1.5,1.5,0,0,0,0,3Z"/><path class="cls-18" d="M148.43,206.66h.39a1.17,1.17,0,0,0,.58-.12,1.37,1.37,0,0,0,.48-.31,1.21,1.21,0,0,0,.31-.49,1.15,1.15,0,0,0,.13-.58l-.06-.39a1.54,1.54,0,0,0-.38-.67l-.31-.23a1.51,1.51,0,0,0-.75-.21h-.39a1.27,1.27,0,0,0-.58.13,1.34,1.34,0,0,0-.79.8,1,1,0,0,0-.13.57l0,.4a1.47,1.47,0,0,0,.39.67l.3.23a1.44,1.44,0,0,0,.76.2Z"/><path class="cls-18" d="M148.43,214.48h.39a1.29,1.29,0,0,0,.58-.13,1.24,1.24,0,0,0,.48-.31,1.21,1.21,0,0,0,.31-.49,1.11,1.11,0,0,0,.13-.57l-.06-.4a1.45,1.45,0,0,0-.38-.66l-.31-.24a1.5,1.5,0,0,0-.75-.2h-.39a1.06,1.06,0,0,0-.58.13,1.36,1.36,0,0,0-.79.79,1.06,1.06,0,0,0-.13.58l0,.4a1.49,1.49,0,0,0,.39.66l.3.23a1.45,1.45,0,0,0,.76.21Z"/><path class="cls-18" d="M148.43,224.24a1.5,1.5,0,0,0,0-3,1.5,1.5,0,0,0,0,3Z"/></g><path class="cls-19" d="M191.14,258.22c7.07,6.78,12.17,15.06,17.85,23,5.31,7.38,11.16,15.11,21.17,14.55,3.05-.17,7.8-1,9.61-3.81s-1.47-3.81-3.78-3.68c-6.49.36-13.28-12.15-16.37-16.61-4.59-6.63-9.11-13.24-15-18.85-3.36-3.22-16.94,2.17-13.52,5.44Z"/><path class="cls-19" d="M219.81,296.9a13,13,0,0,0,3.26,4.94c1.24,1.17,5.05.53,4.63-1.68a19,19,0,0,1-.21-5.73L223.17,296a77.88,77.88,0,0,0,9.51,6.94c1.31.81,5.49-.38,4.1-2.38a9.39,9.39,0,0,1-1.84-3.56,2.93,2.93,0,0,1,0-1.38c.11-.36.68-1,.15-.71s.2.38.6.66a12,12,0,0,1,1.52,1.34,26.25,26.25,0,0,1,2.72,3.32l4.09-2.38-3.38-2.79c-1.11-.92-2.18-2-3.67-2.26a4.22,4.22,0,0,0-4,1.47,2,2,0,0,0,.21,2.76,2.8,2.8,0,0,0,1.67.47,3.71,3.71,0,0,0,1.28-.23c.11,0,1.36-.61,1.27-.8,0,0,0,0,0,0-.44.93-.57-.19-.29.11.1.1.49.15.64.27.68.56.87,1.72,1.26,2.47a3.24,3.24,0,0,0,2.26,1.84c1.48.31,4-.28,3.83-2.19a18,18,0,0,0-1.53-6l-3.83,2.2a12.22,12.22,0,0,1,5.22,3.27,2.9,2.9,0,0,0,3.26.29c.71-.34,2-1.48,1.18-2.36a16.2,16.2,0,0,0-6.83-4.3,3.46,3.46,0,0,0-2.72.38c-.51.31-1.43,1.09-1.11,1.81a18,18,0,0,1,1.53,6l3.83-2.2c-.6-.12,0,.17-.18,0a2.26,2.26,0,0,1-.31-.45c-.24-.44-.38-.95-.59-1.41a4.51,4.51,0,0,0-2.15-2.34,6.68,6.68,0,0,0-7.47,1.38l3.42-.91.57.6L234.75,296c.07.14.54.38.68.48.57.45,1.12.94,1.69,1.4l3.19,2.64c1.29,1.07,5.4-.49,4.09-2.37-2.42-3.5-6.44-8.12-11.19-5.92A5.48,5.48,0,0,0,230,296.8c-.13,2.19,1.13,4.1,2.34,5.82l4.09-2.37a77.88,77.88,0,0,1-9.51-6.94c-1.13-1-4.14,0-4.31,1.55a22.08,22.08,0,0,0,.26,6.59l4.63-1.68a11.08,11.08,0,0,1-2.86-4.16c-.78-2.06-5.58-.69-4.83,1.29Z"/><path class="cls-19" d="M123.93,241.73l-.11-4.45c-.17-7.16-11.62-2.91-14.1.33a25.7,25.7,0,0,0-3.24,5.46c-3.14,7.07,11.12,5.4,13.64.86a52,52,0,0,0,3.78-8.73l-14.56,1.53a32.73,32.73,0,0,1-2.65,6.76l13.64.86c2.38-4.87,1.12-9.67-3.54-12.56l-8.38,8.37c14.61.58,29.24,1.1,43.85.24,3.49-.21,7-.5,10.44-.9a21.43,21.43,0,0,0,4.73-.6q3.85-.15-.15-1l.06,1.79c-.78,6.62,1.83,14.58,4.16,20.66,2.22,5.78,13.07,1.8,14.53-2.71a43.27,43.27,0,0,0,1.58-19.51c-.78-5.68-13.84-1.88-14.53,2.7l-1.63,10.88-.81,5.44-.28,1.82c-.78,2.16-.35,2.42,1.28.76q3.26-1.75-.29-.66c-.88.19-1.77.36-2.66.51-1.46.27-2.93.5-4.4.71-3.47.5-7,.88-10.46,1.08a85.36,85.36,0,0,1-18.69-.95,95,95,0,0,1-10.41-2.36c-2.8-.8-6.88-1.49-9.18-3.26l1.55,1.84c-.39-1.9,1.24-4.91,1.77-6.78.26-.94,1.06-2.52,1-3.48q1.17-3-3.13,1.29l1.66-.33c5.54-.11,11.18-1,16.75-1.19l34.46-1.45L163.16,241c.2-1,2.43-.72.58-.84a16.45,16.45,0,0,0-2.89.53,60.71,60.71,0,0,1-6.61.53c-4.68.15-9.37-.1-14.06-.06-9.36.08-18.54,1.08-27.09,5.14-4.88,2.31-5.8,7.21.31,8.1,17.43,2.53,35.38-1.41,52.6,2.84l-2.49-4.76c.55-.74-1.11,0-1.73,0-1.72.06-3.49-.08-5.2-.14q-6.87-.23-13.72-.57-13.73-.69-27.41-1.83l.32,8.09,3.88-1.74c2.3-1,5.7-3.74,3.68-6.49s-7.27-1.62-9.69-.53L109.76,251c-4.69,2.11-6,7.58.31,8.1,13,1.07,26.09,1.87,39.17,2.33,10.08.36,21.22.83,27.91-8.1,1.56-2.09-.5-4.27-2.49-4.76-18.43-4.54-37.28-.66-55.88-3.36l.31,8.09c9.77-4.63,21.32-2.69,31.79-3,7.94-.21,24.87-.7,26.84-10.88.68-3.48-4.25-3.87-6.43-3.78l-26.81,1.13c-8.72.37-17.6.31-26.22,1.83-3.61.64-7.64,1.42-10.36,4.11-2.43,2.4-3,6.43-3.84,9.57-.75,2.65-2.82,6.68-.89,9.31,1.71,2.34,6.89,3.28,9.36,4.07a110.61,110.61,0,0,0,48.3,4c6.46-.85,18.65-1.09,22.65-7.18,1.75-2.67,1.67-6.48,2.13-9.53l2-13.6L173.12,242a37.87,37.87,0,0,1-1.66,17.16L186,256.49a61.1,61.1,0,0,1-3.41-12.24c-.53-3.32-.06-7-.81-10.2-1.69-7.2-12.57-4.18-17.37-3.63-16.82,1.93-33.75,1.24-50.61.57-3.06-.12-14.74,4.43-8.38,8.37a3.18,3.18,0,0,1,1.28,4.13c-3.33,6.78,11.15,5.59,13.64.86a44.65,44.65,0,0,0,3.57-9.15c.91-3.36-4.33-4-6.43-3.78-3.28.29-7,2-8.13,5.31a38,38,0,0,1-2.86,6.34l13.64.86a26,26,0,0,1,3.24-5.46l-14.1.33.1,4.45c.16,6.71,14.69,3.91,14.57-1.52Z"/><path class="cls-20" d="M105.26,231.55q-2,17-2.92,34.09a.69.69,0,0,0,.47.41,143.13,143.13,0,0,0,36.13,6.34A156.12,156.12,0,0,0,174,269.64c3.15-.58,6.27-1,9.44-1.37a26.44,26.44,0,0,0,9.62-2.77c.31-.17,1.16-.67,1-1.17a80.59,80.59,0,0,1-5.13-35.52c.07-.75-.83-.83-1.4-.82l-61.16,1.78-17.4.51c-1,0-2.6.34-3.21,1.23s.53,1.14,1.23,1.12l61.15-1.78,17.4-.5-1.4-.82a81.48,81.48,0,0,0,5.09,36.09l1-1.17a18.38,18.38,0,0,1-7,1.7c-2.6.28-5.14.63-7.71,1.12-5.41,1-10.87,1.84-16.36,2.33a133.37,133.37,0,0,1-32.86-1.07,143.24,143.24,0,0,1-19.51-4.6l.46.41q.93-16.78,2.89-33.51c.18-1.58-4.64-.66-4.8.72Z"/><path class="cls-20" d="M186.72,253.88c3.15,1.82,5.5,4.65,7.6,7.57,2.32,3.24,4.49,6.58,6.62,9.94q6.6,10.47,12.21,21.51l2.79-.95-1.14-.85a2,2,0,0,0-1.92,0c-.25.11-1.31.76-.77,1.15l1.14.85c.53.39,3.3,0,2.8-1q-5.7-11.21-12.42-21.86c-2.2-3.47-4.44-6.94-6.86-10.27a25.74,25.74,0,0,0-7.74-7.5c-.81-.47-3.48.72-2.31,1.39Z"/><path class="cls-20" d="M185.94,245.38a46.93,46.93,0,0,1,25.21,13.86c7.09,7.56,10.95,17.67,18.77,24.59a23.81,23.81,0,0,0,14.05,6.4l-.37-1.4a41.1,41.1,0,0,1-16.49,5.4c-4.38.45-10.33.62-12.83-3.79l-2.68,1.18a49.54,49.54,0,0,0,13.85,13.75,2,2,0,0,0,2.6-.9,10.17,10.17,0,0,0-1.27-7.7L224.1,298a77.25,77.25,0,0,0,10.32,7.78c.67.43,2.45,0,2.59-.9l1-6.69-2.8.75,7.38,5.77a2,2,0,0,0,2.79-.75l2-6.19-2.59.91,4.14,2.49c.66.4,2.5,0,2.59-.9a9.37,9.37,0,0,0-4.48-9.05c-.89-.54-3.53.73-2.28,1.49a8.26,8.26,0,0,1,3.86,7.87l2.59-.9-4.14-2.49a2,2,0,0,0-2.6.9l-2,6.19,2.8-.75-7.38-5.77c-.69-.54-2.63-.32-2.79.75l-1,6.68,2.6-.9a74.2,74.2,0,0,1-9.92-7.47c-.73-.65-3.4,0-2.68,1.18a9,9,0,0,1,1,6.83l2.59-.9a48.21,48.21,0,0,1-13.45-13.44c-.59-.88-3.32.05-2.68,1.18,2.81,4.95,9.81,4.88,14.71,4.42a46.44,46.44,0,0,0,19.12-6.2c.87-.51.55-1.34-.37-1.4-10.3-.72-17-10.05-22.16-17.95-2.8-4.3-5.55-8.67-9.07-12.43a48.59,48.59,0,0,0-26.15-14.37,2.32,2.32,0,0,0-2.05.55c-.4.42-.35,1,.31,1.14Z"/><path class="cls-21" d="M108.07,241.74c23.74,4.2,52.79,10.56,75.62-.5,3.29-1.6.33-4-2.26-2.79-11,5.35-24.06,5.41-36.06,4.64s-23.66-2.83-35.38-4.9c-2.41-.43-5.47,2.92-1.92,3.55Z"/><path class="cls-21" d="M104.05,251c9.32,9.25,25.78,11.46,38.32,12.16a104.6,104.6,0,0,0,42.19-6.48c3.45-1.27.37-3.62-2.22-2.66a94.51,94.51,0,0,1-38,5.7c-11.3-.64-26.94-2.56-35.37-10.93-1.51-1.49-6.55.58-4.9,2.21Z"/><path class="cls-21" d="M201,259.23a43.14,43.14,0,0,1,13.37,12.88c3.3,5,4.76,11,8.92,15.45,1.36,1.45,6.42-.54,4.92-2.14-4.45-4.74-6-11.44-9.79-16.72a45.44,45.44,0,0,0-13.23-12.16c-1.59-1-6.45,1.29-4.19,2.69Z"/><path class="cls-2" d="M168,260.47a4.42,4.42,0,0,0-3.44.86,13.18,13.18,0,0,1-1.3,1.07,7.11,7.11,0,0,1-2,.64,6.09,6.09,0,0,0-3.41,2,3.31,3.31,0,0,0-.26,3.77c-1.65.76-1.78,3.27-.65,4.69a5,5,0,0,1,1.16,1.63,5.77,5.77,0,0,1-.26,2.27,3.73,3.73,0,0,0,4.59,3.86,2.52,2.52,0,0,0,1.39,2.8,5.22,5.22,0,0,0,3.32.3c5.44-1,9.37-5.61,12.82-9.94a2.08,2.08,0,0,0,.56-1.09,2,2,0,0,0-.38-1.09l-4.34-7.51a12.71,12.71,0,0,0-2.91-3.81,4.32,4.32,0,0,0-4.51-.73"/><path class="cls-3" d="M168.24,260a5.57,5.57,0,0,0-3.87.84,9.86,9.86,0,0,1-2.11,1.47c-.77.28-1.59.39-2.36.7-2.41,1-4.52,3.6-3,6.19l.35-.74a3.35,3.35,0,0,0-1.79,3.31,4,4,0,0,0,.63,1.9c.65,1,1.43,1.38,1.25,2.72a5.6,5.6,0,0,0-.14,2.54,4.18,4.18,0,0,0,1.14,1.83,4.38,4.38,0,0,0,4.2,1.07l-.87-.43c-.67,3.24,3.26,4,5.58,3.53a16.54,16.54,0,0,0,7.92-4.25,36.79,36.79,0,0,0,3.24-3.37c.86-1,2.27-2.25,2.72-3.52a2,2,0,0,0-.25-1.62c-.51-1-1.11-1.92-1.66-2.88-1-1.77-2-3.55-3.08-5.32-1.7-2.87-4.52-5.71-8.1-4.12-.91.4-.11,1.17.63.84,3.67-1.62,6.15,3.93,7.53,6.32l2.77,4.79a5,5,0,0,1,.76,1.42c.08.59-.3.95-.62,1.36-.46.58-.94,1.16-1.42,1.74a27.24,27.24,0,0,1-6.38,5.93,11.89,11.89,0,0,1-4.5,1.72c-1.73.25-4.13-.48-3.67-2.69.09-.45-.6-.5-.87-.43A3.12,3.12,0,0,1,158.9,279c-.66-1.31.14-2.35,0-3.68-.12-1.17-1.2-1.73-1.66-2.74s-.45-2.71.69-3.33c.27-.15.53-.42.34-.74-1.58-2.64,1.36-4.53,3.54-5.08a6,6,0,0,0,2.46-1.11c1.09-.91,2-1.53,3.47-1.33.7.09,1.48-.92.5-1.05Z"/><path class="cls-16" d="M176.36,255.5a31.5,31.5,0,0,0-4.7,2.31,3.15,3.15,0,0,0-1.25,1.09,3.19,3.19,0,0,0,0,2.24,20,20,0,0,0,10,12.69,3,3,0,0,0,1.34.43c1.11,0,1.9-1,2.65-1.81a10.35,10.35,0,0,1,4.7-2.88q-6-6.94-12.55-13.36"/><path class="cls-17" d="M176.22,255.36a34.27,34.27,0,0,0-3.88,1.82c-.91.51-2.13,1.06-2.44,2.16a6.18,6.18,0,0,0,.54,3.38,19.7,19.7,0,0,0,1.5,3.35,20.27,20.27,0,0,0,7.42,7.53,4,4,0,0,0,2.82.8,5,5,0,0,0,2.38-1.75,10.15,10.15,0,0,1,4.58-2.91c.09,0,.42-.16.29-.31q-6-6.93-12.55-13.36c-.18-.17-.86.1-.68.28q6.56,6.42,12.55,13.36l.29-.31a11.28,11.28,0,0,0-3.3,1.58,11,11,0,0,0-1.63,1.42,8.35,8.35,0,0,1-1.3,1.29c-1.44.95-3.57-.8-4.7-1.65a18.82,18.82,0,0,1-3-2.77,19.64,19.64,0,0,1-4-7,11,11,0,0,1-.5-1.93,2.17,2.17,0,0,1,1.18-2.35,29,29,0,0,1,4.74-2.34c.47-.19,0-.41-.28-.28Z"/><path class="cls-18" d="M175.77,269.38l7-5.36a.48.48,0,0,0,.07-.79.92.92,0,0,0-1,.07l-7,5.36a.48.48,0,0,0-.07.79.92.92,0,0,0,1-.07Z"/><path class="cls-18" d="M179.79,270.48a1.08,1.08,0,0,0,.24.14,1.85,1.85,0,0,0,.63.09,3.59,3.59,0,0,0,.8-.11,3.12,3.12,0,0,0,.43-.15,2.86,2.86,0,0,0,.64-.36l0,0,.21-.21,0,0a1.55,1.55,0,0,0,.12-.22s0,0,0,0v0a1.48,1.48,0,0,0,0-.21.13.13,0,0,0,0-.06.88.88,0,0,0-.12-.19l0,0a.83.83,0,0,0-.22-.14l-.05,0a1.93,1.93,0,0,0-.68-.1,3.69,3.69,0,0,0-.8.12,3.08,3.08,0,0,0-.76.3,1.54,1.54,0,0,0-.31.21l-.21.2v0a.32.32,0,0,0-.11.28.25.25,0,0,0,.09.25.55.55,0,0,0,.32.14,1.12,1.12,0,0,0,.45.06l.36,0a3.37,3.37,0,0,0,.77-.21l.33-.15a1.67,1.67,0,0,0,.46-.37l0,0-.19.19,0,0-.27.18h0l-.33.15h0l-.37.13h0l-.39.08h0l-.36,0h0l-.32,0h0l-.26-.06a.09.09,0,0,1,.07,0l-.18-.12s0,0,.06.07L180,270a.22.22,0,0,1,0,.11v-.19a.2.2,0,0,1,0,.09l.1-.19a.15.15,0,0,1,0,.06l.19-.18-.05,0,.27-.18,0,0,.33-.16,0,0,.37-.13h0l.39-.08h0l.37,0h0l.32,0h0l.26.07-.05,0,.19.11h0a.64.64,0,0,0-.31-.15,1.17,1.17,0,0,0-.45-.06,2.6,2.6,0,0,0-.56.07,3,3,0,0,0-.58.17l-.33.16a1.6,1.6,0,0,0-.46.36l-.1.19a.31.31,0,0,0,.09.34Z"/><path d="M43.61,158.93c4.16-5.06,15.77-7.32,22.32-7.6.25,10.62,6.9,30.19,14.93,37.16,1.63,1.41,3.43,2.89,5.58,3,2,.09,3.82-1,5.46-2.17,11-7.67,8.23-15.37,14.52-27.25,1.21-2.27,14.34-7.28,16.15-9.1,4.52-4.55,11.79-4.46,18.2-4.06,2.82,14.55,5.19,29.41,3.7,44.16s4.2,37.6-6.95,47.37c-6.49,5.69-25.9,1.38-33.73,5L103,212.91a22.08,22.08,0,0,1-14.8,6.28c-7.35.19-14.35-3.36-20.09-8a56.82,56.82,0,0,1-20.8-39.48"/><path d="M181.89,148.59c-16.19-.84-22.51,14.15-25.16,24.48s-6.27,40.54-5.3,51.16c1.42,15.55,9.17,13.22,21.91,22.26,10.17-2.51,13.8-9.68,15.72-16,4.14-13.67.82-29.06,4.41-42.88a12.25,12.25,0,0,0,.59-4.56c-.36-2.95,3.67-8.94,1.61-11.09-7.84-8.14-12.38-12.13-13.78-23.35"/><path d="M176,149.44c4,2.35,13,1.84,17,4.19l11.31,6.64a12,12,0,0,1,5.32,6.95c5.27,17.59,24.26,29.32,30.85,47a5.93,5.93,0,0,1,.47,3.55,7.63,7.63,0,0,1-1.4,2.28c-14.35,20.42-19.49,30.76-46.57,49-1,.65-1.75,1.61-2.87,1.92-2.32.65-4.62-1.05-6.28-2.79A36.79,36.79,0,0,1,176,255.75a104,104,0,0,0,32.29-38.66,9.12,9.12,0,0,0,1.14-3.63,9.46,9.46,0,0,0-1.6-4.73,245.08,245.08,0,0,0-14.52-23"/><path class="cls-22" d="M52,164.25v-.52a.31.31,0,0,0-.19-.21.7.7,0,0,0-.35-.12,1.4,1.4,0,0,0-.5,0,1.79,1.79,0,0,0-.57.09l-.38.13a2.19,2.19,0,0,0-.6.33l-.19.19a.4.4,0,0,0-.11.37V165a.31.31,0,0,0,.19.21.55.55,0,0,0,.35.12,1.68,1.68,0,0,0,.5,0,2.13,2.13,0,0,0,.57-.1l.38-.12a2.49,2.49,0,0,0,.6-.33l.19-.19a.4.4,0,0,0,.11-.37Z"/><path class="cls-22" d="M54.06,169.88v-.51a.19.19,0,0,0-.17-.13.72.72,0,0,0-.33-.05,2,2,0,0,0-.49,0,3.82,3.82,0,0,0-.57.11l-.38.12a2.8,2.8,0,0,0-.61.28l-.2.14a.3.3,0,0,0-.15.26v.52a.21.21,0,0,0,.17.12.66.66,0,0,0,.34.06,2.7,2.7,0,0,0,.49,0,2.9,2.9,0,0,0,.57-.12l.38-.11a4.78,4.78,0,0,0,.61-.28l.2-.15a.28.28,0,0,0,.14-.26Z"/><path class="cls-22" d="M53,178.08c.51,0,1.66-.22,1.94-.72s-.26-.56-.71-.56-1.65.22-1.93.72.26.56.7.56Z"/><path class="cls-22" d="M57.65,185.76v-.51a.33.33,0,0,0-.2-.24.58.58,0,0,0-.36-.15,1.46,1.46,0,0,0-.51,0,2.24,2.24,0,0,0-.57.08l-.38.13a2.22,2.22,0,0,0-.59.36l-.19.2a.5.5,0,0,0-.1.41v.52a.37.37,0,0,0,.2.24.73.73,0,0,0,.36.15,1.75,1.75,0,0,0,.51,0,2.26,2.26,0,0,0,.57-.09l.38-.13a2.36,2.36,0,0,0,.59-.35l.19-.21a.5.5,0,0,0,.1-.41Z"/><path class="cls-22" d="M194.44,262.38v-.51a.67.67,0,0,0-.09-.44.68.68,0,0,0-.28-.35,1,1,0,0,0-.45-.19,1.25,1.25,0,0,0-.54-.06l-.4.06a1.94,1.94,0,0,0-.69.34l-.25.25a1.13,1.13,0,0,0-.25.57v.51a.64.64,0,0,0,.09.43.61.61,0,0,0,.28.35,1,1,0,0,0,.45.2,1.28,1.28,0,0,0,.55.06l.39-.06a2,2,0,0,0,.69-.35l.25-.24a1.13,1.13,0,0,0,.25-.57Z"/><path class="cls-22" d="M201.51,256.87l-.52-.51a.59.59,0,0,0-.29-.07,2.16,2.16,0,0,0-.44,0,3.53,3.53,0,0,0-.55.1,4,4,0,0,0-.57.16l-.34.13a2.87,2.87,0,0,0-.48.28l-.12.14a.13.13,0,0,0,.06.2l.51.52a.72.72,0,0,0,.29.06,1.62,1.62,0,0,0,.44,0,3.53,3.53,0,0,0,.55-.1,4,4,0,0,0,.57-.16l.34-.13a2.31,2.31,0,0,0,.48-.28l.12-.13a.14.14,0,0,0-.05-.21Z"/><path class="cls-22" d="M207.74,252.6v-.51a.41.41,0,0,0-.07-.36.49.49,0,0,0-.26-.29,1.1,1.1,0,0,0-.44-.15,1.35,1.35,0,0,0-.53,0l-.39.07a2.13,2.13,0,0,0-.7.32l-.26.21a1,1,0,0,0-.27.49v.52a.46.46,0,0,0,.07.36.55.55,0,0,0,.26.28,1.15,1.15,0,0,0,.44.15,1.4,1.4,0,0,0,.54,0l.39-.07a2.31,2.31,0,0,0,.7-.31l.26-.22a1,1,0,0,0,.26-.49Z"/><path class="cls-22" d="M210.8,247.25c.53,0,1.64-.21,1.93-.72s-.26-.6-.72-.6-1.64.22-1.93.72.27.6.72.6Z"/><path class="cls-22" d="M160.14,216.69c.58,0,1.62-.19,1.91-.79s-.24-.88-.8-.88-1.62.19-1.91.8.24.87.8.87Z"/><path class="cls-22" d="M163.24,224.49c.64,0,1.59-.19,1.9-.85s-.24-1-.84-1-1.59.18-1.9.84.24,1.05.84,1.05Z"/><path class="cls-22" d="M167.84,232.14c.62,0,1.61-.19,1.9-.83s-.23-1-.82-1-1.62.18-1.91.83.23,1,.83,1Z"/><path class="cls-22" d="M175.46,236v-.51a.24.24,0,0,0-.18-.17.67.67,0,0,0-.34-.09,2.09,2.09,0,0,0-.5,0,2.87,2.87,0,0,0-.57.11l-.38.12a2.85,2.85,0,0,0-.6.31l-.2.16a.37.37,0,0,0-.13.32v.51a.27.27,0,0,0,.18.17.7.7,0,0,0,.35.09,2,2,0,0,0,.49,0,2.62,2.62,0,0,0,.57-.11l.38-.12a2.69,2.69,0,0,0,.61-.31l.2-.16a.36.36,0,0,0,.12-.32Z"/><path class="cls-22" d="M135.66,213.91v.51a.62.62,0,0,0,.09.42.69.69,0,0,0,.27.34,1.11,1.11,0,0,0,.45.19,1.42,1.42,0,0,0,.54,0l.4-.06a2,2,0,0,0,.69-.34l.25-.24a1.06,1.06,0,0,0,.25-.56v-.51a.57.57,0,0,0-.08-.42.62.62,0,0,0-.28-.34,1,1,0,0,0-.45-.19,1.22,1.22,0,0,0-.54,0l-.4.06a2,2,0,0,0-.69.34l-.25.24a1.06,1.06,0,0,0-.25.56Z"/><path class="cls-22" d="M134.49,225.8c.55,0,1.64-.21,1.93-.75s-.26-.7-.75-.7-1.63.21-1.92.75.25.7.74.7Z"/><path class="cls-22" d="M129.89,234c.56,0,1.63-.21,1.92-.77s-.25-.74-.75-.74-1.64.2-1.93.76.25.75.76.75Z"/><path class="cls-22" d="M120.82,237.43a3.59,3.59,0,0,0,2.05-.54c.38-.3.47-.61-.16-.61a3.6,3.6,0,0,0-2,.55c-.38.3-.47.6.16.6Z"/><path class="cls-23" d="M166.55,157.69c.85.71-.33,2.39-1.29,1.83s-.08-2.41,1-2c-1.8.62-2.75,2.56-3.45,4.34-5.37,13.59-7.53,28.2-9.66,42.66a31.27,31.27,0,0,0,12.19-21.75,10,10,0,0,1,.5-2.83c.58-1.45,1.88-2.45,3-3.53a19.52,19.52,0,0,0,5.75-11.29,5.19,5.19,0,0,0-.33-3.17c-1.22-2.22-4.64-2.06-6.34-3.93"/><path class="cls-21" d="M165.64,158.05c.23.26.14.44.19.73a.66.66,0,0,1-.12.27c-.18.24-.09.23.26,0,0-.16-.16-.43-.13-.64A.88.88,0,0,1,166,158c.2-.26.07-.26-.37,0l.24-.81c-3.43,1.37-4.41,5.58-5.51,8.74a126.7,126.7,0,0,0-3.58,12.52c-2,8.64-3.33,17.43-4.62,26.21-.11.72,1.49.15,1.72,0a31.91,31.91,0,0,0,11.93-18.93c.39-1.89.23-4.11,1-5.9s2.74-3.08,4.05-4.57a19.49,19.49,0,0,0,4.76-10.66,4.15,4.15,0,0,0-2-4.45c-1.57-.9-3.45-1.13-4.75-2.46-.43-.43-2.25.27-1.81.72,2.1,2.14,6.6,1.81,6.69,5.57s-1.94,8.09-4.39,11c-1.18,1.4-2.77,2.49-3.82,4s-1,3.34-1.26,5.13a31,31,0,0,1-3.43,10.47,30.68,30.68,0,0,1-8.43,9.87l1.72,0c1.2-8.16,2.41-16.33,4.2-24.39.88-3.94,1.9-7.84,3.12-11.69.62-1.92,1.28-3.83,2-5.71.65-1.68,1.37-4,3.2-4.74.39-.16.94-.65.24-.8a2.65,2.65,0,0,0-2.53.83,1.35,1.35,0,0,0,.18,2.1c1.41.77,4.37-1.08,3-2.63-.4-.44-2.24.24-1.81.72Z"/><path class="cls-23" d="M139.82,157.4c1.63,3.53,2.12,7.47,2.59,11.32,1.49,12.29,3,24.79.79,37-1.1-5.2-7.35-7.42-10.3-11.84-3.08-4.6-2.1-10.73-.62-16.07a6.66,6.66,0,0,1-5-3.59,14.42,14.42,0,0,1-1.49-6.22,9.08,9.08,0,0,1,1-5.43c1-1.58,2.75-2.49,4.42-3.32l4.87-2.44"/><path class="cls-21" d="M138.85,157.66a38.08,38.08,0,0,1,2.56,11.1c.5,4.07,1,8.15,1.36,12.24a94.3,94.3,0,0,1-.54,24.78l1.94-.35c-1.16-5-6.28-7.15-9.38-10.69-4.19-4.77-3.07-11.45-1.54-17.05.1-.36-.37-.51-.61-.54-4.95-.58-6.09-6.87-5.94-10.89a6.34,6.34,0,0,1,3.1-5.6c2.1-1.3,4.44-2.29,6.64-3.4,1.19-.59.12-1.44-.81-1-2.6,1.3-5.5,2.42-7.84,4.16a7.59,7.59,0,0,0-3,6.41c0,4.82,1.54,10.89,7.18,11.55l-.62-.53c-1.5,5.47-2.61,12,1.08,16.91,3,3.92,8.65,6,9.84,11.16.19.78,1.83.27,1.94-.36a94.46,94.46,0,0,0,.58-24.63c-.37-4.17-.87-8.33-1.38-12.49-.47-3.87-1-7.74-2.59-11.32-.34-.77-2.25-.2-1.93.51Z"/></g></g></g></g></g></svg>