<svg xmlns="http://www.w3.org/2000/svg" xmlns:xlink="http://www.w3.org/1999/xlink" viewBox="0 0 282.9 301.93"><defs><style>.cls-1{fill:url(#linear-gradient);}.cls-2{fill:#ffcdab;}.cls-3{fill:#dd9666;}.cls-4{fill:#c18b42;}.cls-5{fill:#f50;}.cls-6{fill:#a56921;}.cls-7{fill:#eed275;}.cls-8{fill:#f4c540;}.cls-9{fill:#fff;}.cls-10{fill:#6b8faa;}.cls-11{fill:#e8e8e8;}.cls-12{fill:#9b9a9a;}.cls-13{fill:#d6d8d8;}.cls-14{fill:#b70f53;}.cls-15{fill:#001028;}.cls-16{fill:#ff4848;}</style><linearGradient id="linear-gradient" x1="216.86" y1="156.48" x2="-73.54" y2="156.48" gradientTransform="matrix(-1, 0, 0, 1, 232.94, 0)" gradientUnits="userSpaceOnUse"><stop offset="0" stop-color="#be1e2d"/><stop offset="0.49" stop-color="#fff"/><stop offset="0.88" stop-color="#be1e2d"/></linearGradient></defs><title>Swiss</title><g id="Layer_2" data-name="Layer 2"><g id="infographic"><g id="Swiss"><path class="cls-1" d="M138.45,62.36c14.11-10.64,28.74-8.43,39.09-15.5C187,40.39,192.72,30,201.24,22.43s23-11.73,31.29-3.94c6.75,6.34,5.75,16.73,6.95,25.71,2.07,15.5,11.81,28.88,19,42.9,12.33,24.08,17.39,50.88,22.31,77.28,1.53,8.21,3.06,16.64,1.38,24.82-2.14,10.33-9.11,19-14.31,28.27-6.05,10.78-9.89,22.75-17.42,32.63-14.51,19-39.73,26.83-63.27,33.55-27.48,7.85-55.55,15.78-84.22,14.94s-58.56-12-74.25-35c-10.21-15-13.48-33.44-13.44-51.34,0-12.95,2.56-27.46,13.5-35.06,12-8.3,29.81-5.3,41.26-14.23,8.46-6.59,11-18.33,8.92-28.59-.92-4.47-2.61-8.86-2.59-13.42.06-14.81,16.78-23.65,31.08-29.27s26.65-17,31-29.3"/><g id="face"><path class="cls-2" d="M152.31,91.16A23.34,23.34,0,0,1,155.56,103a32,32,0,0,0,18.36-8.07,8.7,8.7,0,0,0,2.45-3.18,10,10,0,0,0,.25-4.36c-.71-7.69-1.56-15.78-6-22.09a33.59,33.59,0,0,1-17.89,26.33"/><path class="cls-3" d="M151.64,91.44a23.75,23.75,0,0,1,3.19,11.74c0,.24.5.24.63.22a33.42,33.42,0,0,0,18.73-8.07A9.92,9.92,0,0,0,177,91.84c.69-1.67.44-3.53.28-5.28a86.45,86.45,0,0,0-1.51-10.74A30.31,30.31,0,0,0,171.27,65c-.25-.36-1.35-.06-1.4.37a33.14,33.14,0,0,1-17.46,25.93c-.88.46-.07,1,.59.62a34.24,34.24,0,0,0,18.32-26.72l-1.39.37a30.42,30.42,0,0,1,4.54,11.24A66.22,66.22,0,0,1,176,89.29c0,2.53-1.14,4.17-3,5.78a31.69,31.69,0,0,1-5.12,3.64,31,31,0,0,1-12.26,3.86l.63.22A24,24,0,0,0,153,90.87c-.24-.43-1.65,0-1.34.57Z"/><path class="cls-4" d="M120.84,17a6.4,6.4,0,0,0,4.57-4,19.49,19.49,0,0,0,1.12-6.22,3.05,3.05,0,0,1,.83-2.27A3.09,3.09,0,0,1,128.58,4a162.29,162.29,0,0,1,37.08-4c2.58,0,5.47.25,7.15,2.19,1.18,1.36,1.47,3.25,2,5A16.29,16.29,0,0,0,179.1,14q-7.77,1.23-15.55,2.35c-13.38,1.92-27.19,3.57-40.25.1-.74-.2-1.89-.11-1.84.66"/><path class="cls-5" d="M169.87,14.23c.17.38-.61.28-.79-.09-1.12-2.38,1.21-5,3.61-6.07,3.14-1.39,6.64-1.61,10-2.24s6.88-1.81,9-4.53L187.1,12.48a13.18,13.18,0,0,1-2.9,4.88,8.38,8.38,0,0,1-7,1.69,18.86,18.86,0,0,1-6.78-3"/><path class="cls-6" d="M116.21,47.27a35.46,35.46,0,0,1-18.12-9.41c-1.68-1.64-3.28-3.69-3.23-6,.06-2.55,2.06-4.63,4.12-6.13,4-2.94,8.79-4.74,13.54-6.29A168.87,168.87,0,0,1,181.9,12c7.8.79,16.9,3.19,19.6,10.56,2.17,5.92-1.15,12.76-6.22,16.52s-11.49,5.1-17.72,6.1a248.12,248.12,0,0,1-66.5,1.64"/><path class="cls-7" d="M123.89,56.54a23.57,23.57,0,0,1,4.87-27.22,39.24,39.24,0,0,1,3.66-2.91c4.75-3.44,10-6.66,15.8-7.22A24.22,24.22,0,0,1,161,21.83c8.09,4,14.67,12.07,14.48,21.07,0,2.33-.48,4.89.85,6.8,1,1.48,2.83,2.15,4.34,3.12s2.89,2.73,2.29,4.43a3.92,3.92,0,0,0-.44,1.37c0,.65.6,1.12.95,1.67a5.07,5.07,0,0,1,.51,2.62c0,2.5,0,5.13-1.19,7.32s-4.11,3.65-6.31,2.44c-2.45-1.35-2.67-5-5-6.59-1.4-.93-3.24-.88-4.73-1.66s-2.38-2.2-3.6-3.28c-2.57-2.32-6.23-2.9-9.68-3.18a86,86,0,0,0-19.7.67,16,16,0,0,1-5.42.24,4.84,4.84,0,0,1-3.94-3.34"/><path class="cls-2" d="M173,51.6a7.57,7.57,0,0,1,1.5-3.63A2.82,2.82,0,0,1,178,47.3a4.12,4.12,0,0,1,1.22,1.85,7.34,7.34,0,0,1,.86,4.22,7.23,7.23,0,0,1-1.68,2.92l-4,5"/><path class="cls-3" d="M173.69,51.56c.31-1.49.8-3.61,2.52-4s2.5,2.12,2.9,3.38a4.45,4.45,0,0,1,.12,2.88,8,8,0,0,1-1.43,2.25l-4,5c-.58.72.78,1,1.23.48l2.63-3.26a38.14,38.14,0,0,0,2.35-3,4.92,4.92,0,0,0,.9-3.19,10.69,10.69,0,0,0-1-3.39,3.77,3.77,0,0,0-1.73-2.07,3.5,3.5,0,0,0-2.73,0c-2.06.84-2.74,3-3.16,5-.15.75,1.33.6,1.48-.09Z"/><path class="cls-2" d="M134,44.32c-5.72.69-9.89,6.4-10.34,12.14s2.08,11.33,5.38,16.05c4.11,5.89,9.42,10.82,14.69,15.69,2.53,2.35,5.23,4.78,8.6,5.57,4.95,1.14,10.14-1.71,13.23-5.75s4.53-9.06,5.9-14l1.5-5.37c1.76-6.3,3.17-14-1.54-18.56a18.23,18.23,0,0,0-5.88-3.35L150.9,40.73a20.25,20.25,0,0,0-6.37-1.85c-4.35-.27-8.34,2.24-11.84,4.85"/><path class="cls-3" d="M134.06,43.88a13.07,13.07,0,0,0-10.14,8.4c-2,5.11-.89,10.78,1.47,15.57,2.7,5.49,6.82,10.17,11.12,14.46,2.22,2.21,4.52,4.35,6.82,6.47a24.39,24.39,0,0,0,6.45,4.7c4.68,2,9.85.59,13.66-2.55,4.36-3.57,6.41-9,8-14.28s3.48-10.8,3.86-16.34c.33-4.91-1-9.58-5.51-12.17-3.13-1.82-6.72-3-10.06-4.37s-6.64-2.84-10-4.13a14,14,0,0,0-9-.76,25.83,25.83,0,0,0-8.5,4.6c-.78.58.43.86.92.5a27.13,27.13,0,0,1,6.79-4,12.17,12.17,0,0,1,8.8.46c5.58,2.15,11.08,4.56,16.59,6.87,2.36,1,4.72,2.08,6.32,4.14a11.24,11.24,0,0,1,2.13,5.89c.44,4.64-1,9.25-2.21,13.66-1.42,5.1-2.63,10.48-5.41,15-2.58,4.23-7.22,8.06-12.47,7.44-2.73-.32-5.1-1.92-7.14-3.65s-3.9-3.52-5.8-5.32a83.31,83.31,0,0,1-10.81-12c-3.44-4.84-6.3-10.82-5.51-16.91.65-5,4.19-10.19,9.45-10.92.73-.1,1.18-1,.18-.88Z"/><path class="cls-8" d="M135.25,43.88a34.79,34.79,0,0,1,10.94-23.62c.48-.45-.43-.51-.69-.49a3.29,3.29,0,0,0-1.94.69,35.55,35.55,0,0,0-11.21,24.19c0,.44,2.86.09,2.9-.77Z"/><path class="cls-8" d="M132.88,42.86c0,.23-.65,1.21-.06.75q.57,0,.15-.36a.47.47,0,0,1,.06-.53l-2.68.58c.9.62-.85,1.49-1.3,1.81a24.6,24.6,0,0,0-2.1,1.72,16.71,16.71,0,0,0-3.58,4.32,9,9,0,0,0-.76,2.69,19.72,19.72,0,0,1-.8,2.58,15.89,15.89,0,0,0-.25,6.07c0,.65,3,.1,2.89-.78a14.29,14.29,0,0,1,.44-6.37c.71-1.91.72-3.9,2-5.61a19.67,19.67,0,0,1,4.07-4.13c.71-.54,3.82-2.19,2.15-3.33a2.65,2.65,0,0,0-2.68.59c-1.13,1.34.57,2.13,1.77,2,1.5-.12,3.22-.91,3.6-2.5.18-.76-2.68-.32-2.87.47Z"/><path class="cls-8" d="M134.29,42.65c-2.19.58-5.53,1.82-5.15,4.68l2.34-1.17c-2.21-.68-4.35,1.57-5.81,2.92a14.77,14.77,0,0,0-3.54,4.62c-.27.6,1,.63,1.25.6a2,2,0,0,0,1.65-1A11.5,11.5,0,0,1,127.47,50c.51-.49,1-1,1.58-1.42l.82-.69c.11-.09.24-.18.34-.28l.17-.11c-.89,0-1.11.09-.68.19.64.2,2.46-.25,2.34-1.16a1.93,1.93,0,0,1,.78-1.78,4.94,4.94,0,0,1,1.85-.7c.43-.11,1.4-.5,1.26-1.1s-1.27-.41-1.64-.32Z"/><path class="cls-8" d="M138.41,42c1-2.8,4.66-.29,7-.44.67,0,1.36-.39,2-.39,1.21,0,2.55.77,3.8,1.22,3.31,1.19,6.61,2.39,9.89,3.65,3.13,1.2,7.63,2.15,8,6.1.12,1.13,6,0,5.8-1.56-.49-4.59-6.39-5.79-10-7.15-4.36-1.65-10.23-5.09-15-4.75-2.08.15-2.08.3-4-.26a13.17,13.17,0,0,0-5-.58c-3.41.31-7,1.75-8.22,5.17-.39,1.09,5.18.5,5.72-1Z"/><path class="cls-8" d="M179.47,54.79a34.34,34.34,0,0,1,1.78,6.85c.46,2.31,1.14,4.89.66,7.24a3.62,3.62,0,0,1-1.58,2.43A8.71,8.71,0,0,1,179,72a3.74,3.74,0,0,0-.63.26c.6,0,.77,0,.52-.1a.31.31,0,0,1-.15-.08c-.2-.26-.52-.46-.73-.73s-.4-.54-.62-.8a2.69,2.69,0,0,0-1.8-1,3,3,0,0,0-2,.55c-.43.35-.39.74.21.81S175,72,175.46,72.52a2.64,2.64,0,0,0,2.12,1,9.12,9.12,0,0,0,3.77-1.23,6.94,6.94,0,0,0,2.72-2.16c1.48-2.18.83-5.35.38-7.75A40,40,0,0,0,182.37,54c-.35-.83-3.19.08-2.9.78Z"/><path class="cls-8" d="M133.13,36.45a13.77,13.77,0,0,1-4.72,5.9c-2.19,1.53-4.84,2.34-6.69,4.35s-1.79,4.17-1.44,6.78a22.8,22.8,0,0,1-.66,9l2.9-.36a94.66,94.66,0,0,1,1.32-9.91c.23-1.25.39-2.33,1.59-3,.85-.45,1.87-.95,2.16-1.95.18-.6-.15-1.27.11-1.81s1.18-.84,1.74-1.15a6.4,6.4,0,0,0,2.78-2.57,2.94,2.94,0,0,0,.36-1.45c0-.57-.24-1.08,0-1.61.5-.87,1.51-1.27,1.52-2.41s-2.89-.61-2.9.36-1.11,1.48-1.5,2.32c-.54,1.12.24,2.23-.61,3.34s-2.3,1.43-3.39,2.18a2.47,2.47,0,0,0-1,1.08c-.26.65.2,1.5-.1,2.08s-1.77,1-2.38,1.62a5.8,5.8,0,0,0-1.36,3.29,94.66,94.66,0,0,0-1.32,9.91c-.1,1.23,2.65.55,2.9-.36a23.7,23.7,0,0,0,.78-8.3c-.13-1.5-.63-3.11-.31-4.62a5.33,5.33,0,0,1,2.22-3.1c2.14-1.57,4.66-2.42,6.67-4.2A16.13,16.13,0,0,0,136,36.09c.27-.62-.95-.67-1.25-.64a2,2,0,0,0-1.65,1Z"/><path class="cls-8" d="M122.77,48.89c1.26-11.18,7.84-22.39,18.78-26.41,10.58-3.89,23.09-.13,28.3,10.21a20.24,20.24,0,0,1,1,16.7c-.58,1.4,2.32,1.18,2.73.17,4.45-10.75-1.37-23.65-11.87-28.26-11.78-5.17-26-.88-34,8.87a36.51,36.51,0,0,0-7.93,19c-.14,1.3,2.79.82,2.92-.3Z"/><path class="cls-6" d="M130,27.79c13.26-4.34,27.06-6.05,39.52,1.49L177,23.77c-10.83-2.48-22-2.71-33-2.57-9.35.11-18.88,1.08-26.76,6.58-5.64,3.93,2.13,5,5.41,3.83,7.44-2.71,15.59-3.9,23.41-4.9s15.38-1,22.4,3l7.47-5.51c-21.49-3.5-44.48-5.65-62.71,8.68-4.12,3.24,3,4,5,3.59,17-3.35,34.46-7.55,51.84-4.76,2.38.38,5.81-.13,7.51-2,1.38-1.51,1.44-3.42-1-3.81-20.16-3.24-40,1.3-59.77,5.2l5,3.6C135.22,24.1,153.86,27.5,169.43,30c2.13.35,12.25-2.8,7.47-5.5-8.5-4.8-18.3-5.06-27.78-4-10.34,1.15-20.9,3-30.69,6.61L123.84,31c6.25-4.36,14.16-3.75,21.45-3.72,8.51,0,16.91.41,25.23,2.32,2.33.54,12.06-2.72,7.46-5.5-15.07-9.12-33.39-7-49.4-1.71-1.55.51-5.2,1.85-4.59,4.12s4.58,1.75,6,1.28Z"/><path d="M145.75,84.6c3.14,1,6.83,1.9,9.74-.22,2.48-1.81,2.47-5.1,3.87-7.59.18-.32-.16-.57-.44-.61a1,1,0,0,0-.94.45c-1.19,2.09-1.23,4.94-3,6.7-2.23,2.22-5.82,1.1-8.41.3a1,1,0,0,0-1,.27.41.41,0,0,0,.19.7Z"/><path d="M145.6,53.27a13.53,13.53,0,0,1,6.8-3.75,12.9,12.9,0,0,1,4-.19,44.31,44.31,0,0,0,4.75.58,2.63,2.63,0,0,0,1.93-.74c.37-.53-.33-.63-.73-.63-1.86,0-3.67-.6-5.53-.65a19.15,19.15,0,0,0-5.11.59,18.67,18.67,0,0,0-8.74,4.88c-.48.49.42.65.73.64a2.91,2.91,0,0,0,1.93-.73Z"/><path d="M137.67,57.83a13.41,13.41,0,0,0-14.22.77c-.46.32-.79,1-.2,1.35a2.06,2.06,0,0,0,2.07-.22,8.8,8.8,0,0,1,4.9-1.66,9.63,9.63,0,0,1,5.18,1.32,2.06,2.06,0,0,0,2.07-.21c.44-.31.81-1,.2-1.35Z"/><path d="M142,68.82a12,12,0,0,1-.22,9.16c0,.09,0,.15.13.17,2.15.48,4.42.88,6.54,0,1.58-.62,3.06-1.94,3-3.77,0-.27-1.46,0-1.45.39a3.3,3.3,0,0,1-2.1,3c-1.47.6-3.34.06-4.82-.27l.13.16a12.28,12.28,0,0,0,.23-9.3c-.14-.36-1.57.08-1.45.39Z"/><path d="M149.23,61.4c1-3.69,4.45-5.78,8.05-6.2,1.94-.22,3.84.1,5.76,0,1.18-.07,3.13-.63,2.89-2.17,0-.26-1.5.05-1.45.39.22,1.44-1.26,1.21-2.2,1.17a27.27,27.27,0,0,0-2.86,0,18.13,18.13,0,0,0-5.26.94c-2.89,1-5.56,3.11-6.36,6.18-.06.26,1.34.08,1.43-.27Z"/><path d="M139.94,65.42a6.06,6.06,0,0,0-4.07-2.08,5.18,5.18,0,0,0-3.5,1.34c-.9.76-1.64,1.68-2.46,2.51a3.13,3.13,0,0,1-2.48,1.27,1,1,0,0,0-.94.43c-.15.33.13.53.42.56,2.35.25,3.9-1.56,5.34-3.11a6.49,6.49,0,0,1,2.35-1.88c1.48-.53,3,.56,4,1.58.42.44,1.8-.13,1.33-.62Z"/><path d="M152.88,56.14a9.25,9.25,0,0,0-2.26,2.9.36.36,0,0,0,0,.4,2.39,2.39,0,0,0,2,.74,2.54,2.54,0,0,0,2-1.18,2,2,0,0,0,.17-1.77.64.64,0,0,0-.22-.32l-.14-.09a1.54,1.54,0,0,0-.42-.17,2.36,2.36,0,0,0-1.12,0,2.71,2.71,0,0,0-1.52,1,1.75,1.75,0,0,0-.33,1.58.57.57,0,0,0,.2.32.82.82,0,0,0,.26.1,1.56,1.56,0,0,0,.68,0,1.87,1.87,0,0,0,1-.55,1.28,1.28,0,0,0,.22-1.58c-.65-.88-2.44.16-1.86,1.15.28.48,1,.45,1.45.25a1,1,0,0,0,.69-1.1c-.09-.34-.59-.37-.86-.29s-.68.33-.59.68c0,.1,0-.1,0,0s0-.12,0,0,.08-.1,0,0l.08-.07s0,0,0,0,.06,0,0,0c.13,0,.17,0,.11,0s.2,0,.09,0a.48.48,0,0,1,.31.06c-.09-.06.07.1,0,0s0,.11,0,0,0-.11,0,0,0,0,0,0-.06.1,0,0,0,0,0,0l0,0s0,0-.07.06l0,0a.66.66,0,0,1-.24.11l-.14,0h-.09l-.31-.11c-.13-.11,0,0,0,0s0-.08,0,0l0,.11c0,.09,0,0,0,0s0,.09,0,.12,0,.08,0,.12,0-.1,0,0l0,.06-.05.1,0,0c0,.05,0,0,0,0a.34.34,0,0,0-.08.09c-.12.12.1-.07,0,0s-.15.1,0,0l0,0,.1,0c-.16,0,.18,0,.06,0h0c.12,0,.14,0,.08,0l-.06,0,.3.29a1.42,1.42,0,0,1-.07-.22s0-.06,0-.09,0,0,0,0a1.64,1.64,0,0,0,0-.22.44.44,0,0,1,0-.1c0-.11-.05.12,0,0a1.08,1.08,0,0,1,.08-.19l.06-.1c.05-.09-.09.11,0,0l.14-.17a.3.3,0,0,0,.08-.08c0,.05-.12.1,0,0l.17-.12c.13-.09-.08,0,0,0l.11-.06.09,0c.12-.05-.19.06-.07,0l.11,0c.15,0-.19,0-.06,0s.28,0,0,0h.09c.07,0,.17.06,0,0a1,1,0,0,0,.18.06c-.13,0-.09,0,0,0l.12.08-.17-.22a1.77,1.77,0,0,1,.15.51v0a.41.41,0,0,1,0,.11,1.26,1.26,0,0,1,0,.28v0c0,.05,0,.05,0,0s0,.1,0,.11a1.92,1.92,0,0,1-.12.25c-.06.1.08-.09,0,0l-.08.09-.05.06s0,0,0,0-.06,0-.09.07l-.1.07c.16-.12.06,0,0,0s-.2,0,0,0l-.11,0-.08,0,.12,0a.45.45,0,0,1-.16,0c-.06,0-.18,0,0,0h-.12l-.14,0h.07l-.08,0s-.21-.05-.22-.08.09,0,0,0l-.07,0-.1-.07-.09-.07c.06,0,.06.06,0,0L152,58.8l0,.4a6.3,6.3,0,0,1,.4-.72l.1-.17s.07-.1,0,0,0,0,0,0,.17-.23.25-.34.34-.41.52-.61l.29-.3.08-.07,0,0,0,0,.1-.08a.66.66,0,0,0,.25-.38.4.4,0,0,0-.17-.36,1,1,0,0,0-1,.09Z"/><path d="M130.67,66.7a2.1,2.1,0,0,0-.81,1.23,2.05,2.05,0,0,0,.09,1.25,1.8,1.8,0,0,0,.89,1,2.39,2.39,0,0,0,2,0A2.49,2.49,0,0,0,134,69a1.55,1.55,0,0,0,.09-1.36,2.19,2.19,0,0,0-2.5-1,2.14,2.14,0,0,0-1.34.86,1.41,1.41,0,0,0-.14,1.29,1.94,1.94,0,0,0,.87,1,2.07,2.07,0,0,0,1.83.08,1.7,1.7,0,0,0,1-1.08,1.81,1.81,0,0,0,0-1.08,1.73,1.73,0,0,0-.73-.91,2,2,0,0,0-1.73,0,2,2,0,0,0-1.09,1.2,1.19,1.19,0,0,0,.28,1.22,1.62,1.62,0,0,0,1.78.14,1.59,1.59,0,0,0,1-1.12.84.84,0,0,0-.16-.63c-.15-.22-.57-.21-.79-.14a1.73,1.73,0,0,0-.88.5c-.21.26-.29.63,0,.83a1.23,1.23,0,0,0,1.09,0c.29-.14.66-.48.39-.81s-.7-.21-1-.08-.59.41-.36.69c0,0,0,0,0-.07a.4.4,0,0,1,.22-.4l.3-.14.13,0a.38.38,0,0,1,.21,0h0a.33.33,0,0,1,.22.17s0,0,0,.06,0,0,0,0l-.05.07c.05,0,0,0-.05,0,.11-.08-.15.06,0,0s-.14,0,0,0l-.79-.14,0,0s0-.11,0,0l0,.09c0,.11,0,0,0,0s0,.1,0,.11,0,0,0,0,0,.07-.05.09-.08.12,0,0,0,0-.05,0l0,0s.12-.1.07-.07l-.08.06c-.13.09.14-.06,0,0l-.06,0c-.08,0,.11,0,.11,0l-.11,0,.12,0h0c-.08,0,.18,0,.1,0h-.06c-.06,0,.12,0,.1,0l-.06,0c-.11,0,.1.07,0,0l0,0c-.07,0,0,0,0,0l-.15-.19s0,.11,0,0a.17.17,0,0,0,0,0,.36.36,0,0,1,0-.1s0-.07,0-.1,0,0,0,0,0-.06,0-.07a1.85,1.85,0,0,1,0-.23s0,0,0,0-.05.1,0,0a.75.75,0,0,0,.06-.13l.06-.1c.07-.11-.07.08,0,0l.09-.1,0,0-.05.05s.09-.08.1-.07-.18.08-.08,0l0,0c.14-.07-.19.06,0,0s-.19,0,0,0-.19,0-.05,0h.1s-.18,0-.09,0h.08l-.05,0a1.4,1.4,0,0,1,.17.09l.07.06c-.1,0-.07-.07,0,0l0,0,.13.15.05.08,0,0s-.05-.12,0,0a1.82,1.82,0,0,1,.14.39c0,.07,0,.13,0,.2s0-.1,0,0v.16l0,.19,0,.09c0,.06.05-.1,0,0a.14.14,0,0,0,0,.06l0,.08s-.08.13,0,0,0,0,0,0l0,0c-.07.07.12-.09.05,0l-.07.06c-.09.06.18-.1,0,0s.2-.05,0,0,.21,0,0,0h0c-.08,0,.17,0,.09,0h-.1c-.1,0,.07,0,.07,0l-.06,0-.11,0,.05,0-.06,0-.09,0L132,69l-.05,0c-.07-.05.06.06,0,0a2,2,0,0,1-.32-.39l0,0s0,.09,0,0a.61.61,0,0,0,0-.12.84.84,0,0,1-.06-.24s0-.1,0-.1,0,.12,0,0v-.06a1,1,0,0,1,0-.24c0-.08-.05.1,0,0a.47.47,0,0,0,.05-.1c0-.06.11-.1,0,0l.07-.08s.14-.09,0,0l.08,0c.11-.09-.15.07-.06,0l.12,0s-.22.07-.07,0l.11,0c.11,0-.21,0-.08,0l.13,0c.11,0-.19,0,0,0h.1l.12,0-.08,0,.05,0a1.66,1.66,0,0,1,.21.06c.12,0-.12-.06,0,0l.11.06s.11.09.17.12-.1-.09,0,0a.08.08,0,0,1,0,0,.6.6,0,0,1,.08.08l.12.17,0,0a.17.17,0,0,0,0,.06s0,.08,0,.12a.43.43,0,0,1,0,.11s0,.17,0,0a.83.83,0,0,1,0,.27.43.43,0,0,1,0,.11c0,.12,0-.06,0,0s-.08.16-.13.24,0,0,0,.06l0,0-.08.09-.09.09c-.07.07,0,0,.05,0s0,0-.07,0l-.1.08c-.15.09.12-.06,0,0l-.11,0-.06,0c-.09,0,.19-.06.07,0l-.12,0c-.08,0,.19,0,.1,0h-.12c-.11,0,.09,0,.08,0a.76.76,0,0,1-.15,0h0l-.13-.05s.1.06.06,0l-.06,0-.12-.07-.09-.07s.08.08,0,0l0,0a1.39,1.39,0,0,1-.15-.19.61.61,0,0,1-.07-.1l0,0s0,.09,0,0a2.18,2.18,0,0,1-.09-.23l-.06-.23s0-.07,0-.11,0,0,0-.06,0,0,0,0,0-.44,0-.48l0-.11s0,0,0,0a.14.14,0,0,1,0-.06,2.26,2.26,0,0,1,.11-.22l0,0,0,0,.09-.09c.06-.06-.14.11,0,0a.58.58,0,0,0,.26-.35.34.34,0,0,0-.16-.33,1.05,1.05,0,0,0-1,.11Z"/><path class="cls-9" d="M153.88,58.5c1.28,0,1.63-1.7.16-1.7-1.28,0-1.63,1.7-.16,1.7Z"/><path class="cls-9" d="M133.36,68.79c.46,0,1.24-.13,1.43-.63s-.15-.81-.64-.81-1.23.13-1.42.64.15.8.63.8Z"/></g><path class="cls-2" d="M257.48,277.6a3.05,3.05,0,0,0-2.24.7c-.7.4-1.67.68-2.25.12a1.41,1.41,0,0,1-.16-1.62,4,4,0,0,1,1.16-1.28l3.08-2.55c1.94-1.62,4-3.46,4.41-6"/><path class="cls-3" d="M257.72,277a3.36,3.36,0,0,0-2.32.51c-.44.24-1.39,1-1.85.42s.2-1.46.66-1.86c.73-.64,1.49-1.24,2.23-1.86,2.38-2,5.22-4,5.78-7.28.13-.77-1.35-.6-1.47.09a7.92,7.92,0,0,1-2.68,4.26c-1.43,1.32-3,2.52-4.48,3.77A4.24,4.24,0,0,0,252,277a1.74,1.74,0,0,0,.54,2,2.46,2.46,0,0,0,2.21.15c.77-.26,1.63-1.13,2.47-.95s1.44-.92.48-1.12Z"/><path class="cls-2" d="M238.8,192.57a338.86,338.86,0,0,0,10,33.66c.94,2.64,1.91,5.26,2.88,7.88l2.72,7.36a30.67,30.67,0,0,0,2.37,5.33c2,3.31,5.23,5.78,7.11,9.17s2.28,7.65,2.57,11.65a5.34,5.34,0,0,1-1.67,5.07c-2.35,2.73-4.82,5.55-8.15,6.93-.52-1.4.68-2.8,1.63-4a13.94,13.94,0,0,0,3.27-9.14,10.5,10.5,0,0,0-4.56-8.39l.08,13.66c0,1.43-.58,3.41-2,3.15a2.09,2.09,0,0,1-1.24-.95c-2.75-3.85-1.18-9.34-2.94-13.73a43.32,43.32,0,0,0-2.24-4.13c-2.33-4.39-2.59-9.54-4.06-14.28a10.57,10.57,0,0,0-.94-2.31,14.8,14.8,0,0,0-1.88-2.32,77.13,77.13,0,0,1-18.59-36.35c-.62-3-1.06-6.12-1.83-9.12a14.41,14.41,0,0,1-.79-5.22,7.68,7.68,0,0,1,5.07-5.93,13.7,13.7,0,0,1,8.07-.13,8.7,8.7,0,0,1,4.56,2.39c2.25,2.57,1.57,6.49.76,9.81"/><path class="cls-3" d="M238.08,192.77a353.19,353.19,0,0,0,11.72,38.3q1.74,4.73,3.49,9.44a31.29,31.29,0,0,0,3.75,8c1.67,2.26,3.77,4.17,5.37,6.48a18.51,18.51,0,0,1,2.9,8.14,48.44,48.44,0,0,1,.49,5.38,5.8,5.8,0,0,1-1.86,4.29c-2.18,2.54-4.47,5.05-7.6,6.41l1.06.27c-.35-1.28.52-2.29,1.27-3.24a19.68,19.68,0,0,0,1.74-2.48,14.11,14.11,0,0,0,1.88-6,11.16,11.16,0,0,0-4.73-10c-.37-.25-1.29-.09-1.29.49l.05,8,0,3.66a12.4,12.4,0,0,1-.18,3.39c-.18.62-.5,1.33-1.27.82a3.7,3.7,0,0,1-.88-1.23,10.21,10.21,0,0,1-1-3.23c-.34-2.05-.3-4.14-.56-6.2a14.88,14.88,0,0,0-2-5.78,26.27,26.27,0,0,1-2.9-6.81c-1.11-4.24-1.22-9.53-4.19-13a106.87,106.87,0,0,1-8.41-10.67,76.28,76.28,0,0,1-10.66-25.08c-.54-2.37-.93-4.76-1.39-7.14s-1.55-5.06-1.58-7.59A6.68,6.68,0,0,1,225,181.5c2.45-1.3,5.42-1.18,8.06-.57s5.15,1.91,5.81,4.78c.53,2.3,0,4.76-.56,7-.18.74,1.3.59,1.47-.09,1-4.2,1.59-9.32-2.92-11.67-4-2.06-9.67-2.37-13.45.19a8.05,8.05,0,0,0-3.44,4.74c-.61,2.63.54,5.33,1.1,7.88,1.16,5.3,2,10.59,3.67,15.77a77.51,77.51,0,0,0,15,26.46c.83,1,1.74,1.86,2.53,2.84a10.44,10.44,0,0,1,1.81,3.84c.74,2.61,1.16,5.29,1.81,7.93a26.94,26.94,0,0,0,3,7.34,15.94,15.94,0,0,1,2.27,7.28c.2,2.57.17,5.27,1.25,7.66.7,1.57,2.3,3.59,4.16,2.21s1.27-4.8,1.26-6.76l-.06-10.24-1.29.48a10.46,10.46,0,0,1,4.13,10.86,14.26,14.26,0,0,1-2.91,6c-1,1.28-2.21,2.65-1.73,4.4.12.45.73.41,1.05.27a20.12,20.12,0,0,0,6.57-5c1.88-2,3.84-3.91,3.7-6.87a40,40,0,0,0-1.19-8.85,19.47,19.47,0,0,0-4.34-7.54c-2-2.26-4-4.4-5.24-7.16-1.45-3.16-2.51-6.52-3.72-9.78-2.42-6.54-4.79-13.1-6.9-19.75q-3.57-11.24-6.35-22.71c-.18-.71-1.63-.33-1.45.39Z"/><path class="cls-10" d="M100.69,201.08C86.3,219.51,71.88,238,59.07,257.54c-6.38,9.74-12.85,20.22-23.21,25.55,3.8,4.55,9.26,7.42,14.78,9.6,17.26,6.81,36.15,8,54.69,8.69,19.27.76,38.67,1.12,57.77-1.58s38-8.59,54-19.47C208,273.05,203,262,197.69,251.65c-6.45-12.7-13.7-25-20.94-37.22-2.82-4.77-5.66-9.57-9.41-13.65-8.41-9.18-21.14-14-33.58-13.49s-24.47,6.19-33.34,14.93"/><path class="cls-11" d="M152.79,195.11a171.61,171.61,0,0,0,7.64,74.37c-5-4.72-13.28.29-20.08-1-4.54-.83-8.13-4.47-12.62-5.54-3.87-.93-7.9.15-11.88.37-12.74.68-24.37-7.53-37.08-8.65-4.51-.4-10.37-.78-11.59-5.14,5.66-2.85,9.09-8.68,12.29-14.15a289.13,289.13,0,0,1,20.11-30.72,14.69,14.69,0,0,1,2.53-2.75,14.27,14.27,0,0,1,4-2,111.86,111.86,0,0,1,45-6.31,2.9,2.9,0,0,1-.34,2.48"/><path class="cls-12" d="M151.32,195.22a173.13,173.13,0,0,0,3.12,58.43q1.86,8.22,4.54,16.22l2.56-1.23c-4.68-4.19-11.42-1.52-16.89-1.07a15,15,0,0,1-9-2.28c-2.93-1.64-5.81-3.34-9.23-3.67-3.65-.35-7.24.54-10.87.68a35.39,35.39,0,0,1-10.38-1.37c-6.69-1.78-13-4.65-19.77-6.25-3.32-.79-6.65-1-10-1.45-2.68-.38-5.87-1.15-6.77-4.06l-.81,1.26c5.56-2.88,9.05-8.09,12.15-13.34,3.76-6.36,7.51-12.73,11.57-18.9,2-3,4-6,6.16-8.91,2-2.75,4-6.26,7.17-7.7a65.91,65.91,0,0,1,10-3.27,109,109,0,0,1,11-2.39,110.17,110.17,0,0,1,24.74-1.2l-1-.68a2.32,2.32,0,0,1-.28,1.92c-.38.64.33,1.15.89,1.24a1.91,1.91,0,0,0,1.88-.89,3.93,3.93,0,0,0,.41-3.05,1,1,0,0,0-.95-.67,114.14,114.14,0,0,0-44.42,5.9c-3.3,1.14-6.08,2.32-8.31,5.11s-4.49,6-6.61,9c-4.25,6.16-8.22,12.51-12,19-3.64,6.13-7.06,13.68-13.7,17.12-.42.21-1,.7-.8,1.25,1.7,5.46,8.76,5.38,13.38,5.9,7.07.79,13.66,3.67,20.37,5.85a58.12,58.12,0,0,0,10.06,2.45,43.3,43.3,0,0,0,10.79-.2,23,23,0,0,1,5.56-.15,14.75,14.75,0,0,1,5.1,1.81c2.87,1.53,5.6,3.37,8.86,4,3.44.63,6.94-.18,10.34-.7,3.2-.5,6.53-.87,9.12,1.45.72.64,2.95-.08,2.56-1.23a171.84,171.84,0,0,1-8.76-57.52c.11-5.54.5-11.07,1.14-16.57.18-1.49-2.78-1.11-2.93.21Z"/><path class="cls-13" d="M23.31,59.37c3.57,6.34,4.57,13.71,7.86,20.18.49,1,3.3,0,2.89-.78-3.28-6.47-4.28-13.84-7.85-20.18-.54-.94-3.33,0-2.9.78Z"/><path class="cls-13" d="M41.29,76.15,23.53,83.39c-.53.22-1.1.86-.7,1.43s1.42.39,2,.17l17.77-7.24c.52-.21,1.09-.86.7-1.42s-1.42-.4-2-.18Z"/><path class="cls-14" d="M18.77,24.66a28.24,28.24,0,0,0,5.29,11.77c.4.53,3.09-.3,2.8-.9a89.19,89.19,0,0,1-4.15-10.67l-2.9.77q2.57,4.57,4.68,9.37l2.81-.9a19.5,19.5,0,0,1-4.06-5.63l-2.89.77a31.83,31.83,0,0,1,2.83,7.55l2.9-.78-2.53-5.29c-.34-.71-3.09,0-2.9.78l1.56,6,2.9-.78a21,21,0,0,1-2-5.37c-.16-.71-3,0-2.9.78L21.08,37l2.9-.77-.8-2.13c-.28-.76-2.68,0-2.88.63l-1.82,5.57,2.89-.63A8,8,0,0,1,22,36l-2.87.48a13.38,13.38,0,0,1-2.34,5.28c-1.18,1.36-3,1.69-4.5,2.48-1.13.58-2.94,1.74-2.83,3.24.06.78.83,1.33,1.37,1.79a17.8,17.8,0,0,0,2.92,2,2.42,2.42,0,0,0,1.88-.11c.19-.07,1.3-.58.84-.91a15.51,15.51,0,0,1-3.13-3l-2.72,1L12.93,51l2.72-1L12,47.29c-.55-.41-3.29.33-2.72,1l3.36,4.12a8.47,8.47,0,0,0,3,2.79,6.22,6.22,0,0,0,3.77.07c1.41-.36,2.8-1.29,4.25-1.43.29,0,2.61-.59,2-1.16-3-2.72-7.41-3.48-10-6.75L13,47l6.06,5.46,2.72-1-5.47-3.86c-.48-.34-3.19.34-2.81.9a27.39,27.39,0,0,0,5.24,5.72l2.72-1L18.29,51c-.69-.46-3.26.64-2.72,1a40.41,40.41,0,0,0,3.62,2.32l2.72-1-1.79-.92c-.43-.22-3.24.28-2.81.9L18.5,55l2.63-1a14.93,14.93,0,0,1-10.39-7.76l-.93.78c3.71-1.46,7.45-2.82,11.25-4,.31-.09,1.33-.36,1.3-.83s-.91-.33-1.19-.29q-4.29.67-8.53,1.67c-.23.06-1.68.55-1.22,1A4.92,4.92,0,0,0,13.72,46l2.11-1.23-1.9-.16c-.54,0-2.43.22-2.38,1,.14,2,3.23,1.19,4.3.64A50.46,50.46,0,0,0,21.93,42l3.12-2.27a4.72,4.72,0,0,0,1.86-1.9,5.81,5.81,0,0,0-.2-3.22l-.89-4-2.9.77,1.82,4.51c.3.76,3.13-.1,2.89-.78L27,33.33l-2.81.9a11.42,11.42,0,0,1,2.21,4.93l2.8-.9a8.39,8.39,0,0,1-1.58-4.34l-2.81.9a4.27,4.27,0,0,1,1.84,3l2.63-1a4.24,4.24,0,0,1-2.7-2.33c-.33-.71-3.05,0-2.89.77A13.64,13.64,0,0,1,24,39.07l2.81-.9a6.6,6.6,0,0,1-1.58-1.54c-.4-.53-2.68.13-2.8.75l-.57,3,2.88-.62a7.61,7.61,0,0,1-.84-3.14c0-.74-2.68.08-2.88.63l-1.2,3.18L22.64,40a12.91,12.91,0,0,0,.48-3.2c0-.72-2.32.1-2.57.29a24.35,24.35,0,0,0-4,3.83c-.63.76,1.2.51,1.46.45a17.2,17.2,0,0,0,8.49-5l-2.77.46a11.87,11.87,0,0,0,1,3.5c.5,1.06,1.4,2,1.51,3.26.19,2.23-1.72,4.73-3.33,6l2.56-.14A27.32,27.32,0,0,1,29,45.08l-2.76.31a19.41,19.41,0,0,1-3.42,5.84l2.77-.46a.42.42,0,0,1-.06-.56l-2.77.47c0,.79-.29,1-1,1-.24,0-2.4.47-2.06,1a1.94,1.94,0,0,1,.19.65.67.67,0,0,1-.07.31c-.22.42.12.41,1,0-.43-.13-3.21.53-2.54,1.11l.65.55,2.54-1.11a6,6,0,0,1-4.25-4.12c-.52-1.75-.69-4.06-2.76-4.69-.49-.14-1-.1-1.47-.25a4.21,4.21,0,0,1-1.32-.85,3.38,3.38,0,0,0-2.11-.87C8.3,43.41,6,43.92,6,45.51c0,.37,1.06.24,1.2.21,6.75-1.27,12.64-6.35,13.63-13.35L17.91,33l.44.83c.42.78,3.19-.24,2.9-.78l-.44-.82c-.35-.66-2.79-.08-2.89.62-.75,5.33-4.77,10.64-10.26,11.67l1.2.22c-.72-.07-.89,0-.5.17a2.56,2.56,0,0,1,.48.33c.29.22.56.47.86.68a3.6,3.6,0,0,0,1.58.61,2.43,2.43,0,0,1,1.86.84,5.67,5.67,0,0,1,.91,2.28c.68,2.83,2.14,5,5.09,5.79.42.11,3.23-.52,2.54-1.11L21,53.76l-2.54,1.11c1.44.43,5.4-.78,4.12-2.91l-2.06,1c1.86-.09,5.19-.62,5.1-3.09,0-.79-2.51.17-2.77.46a.89.89,0,0,0-.19,1.18c.44.72,2.35,0,2.77-.46a20.84,20.84,0,0,0,3.64-6.16c.32-.86-2.46,0-2.75.31A29.7,29.7,0,0,0,22.56,50c-.26.39.71.41.82.41a3.12,3.12,0,0,0,1.73-.55,10.39,10.39,0,0,0,3.94-6.07c.21-1.36-.43-2.3-1.07-3.43A11.9,11.9,0,0,1,26.6,36c-.11-.81-2.5.16-2.78.46a12.5,12.5,0,0,1-6.12,3.78l1.46.44a22.2,22.2,0,0,1,3.63-3.49l-2.57.29a12.33,12.33,0,0,1-.44,2.9c-.21.74,2.59.26,2.86-.47l1.21-3.19L21,37.39a7.55,7.55,0,0,0,.85,3.14c.34.67,2.75.06,2.88-.63l.57-3-2.79.74a6.25,6.25,0,0,0,1.58,1.54c.6.42,2.75,0,2.81-.9a13.57,13.57,0,0,0-.26-3.76l-2.89.77a5,5,0,0,0,3.23,2.76c.52.15,2.74-.14,2.63-1a4.7,4.7,0,0,0-2-3.27c-.53-.37-2.88,0-2.81.9a8.92,8.92,0,0,0,1.76,4.59c.39.52,2.95-.17,2.81-.9a11.87,11.87,0,0,0-2.38-5.18c-.4-.51-3.05.22-2.81.9l.62,1.75,2.89-.78-1.81-4.5c-.29-.73-3.07,0-2.9.77.38,1.69.82,3.38,1.13,5.09a2.55,2.55,0,0,1-.42,2.42,16,16,0,0,1-2,1.48l-4.29,3.12-2,1.42a4.81,4.81,0,0,1-1.07.78c.59-.08.15-.42.12-.8l-2.37,1,1.9.16a3.28,3.28,0,0,0,1.91-.47c.26-.17.77-.6.2-.77a4.24,4.24,0,0,1-1.95-1.21l-1.22,1c2.57-.6,5.15-1.09,7.75-1.5L20.78,42c-4.05,1.29-8,2.7-12,4.27-.16.06-1.1.45-.93.79a15.69,15.69,0,0,0,10.93,8.17c.32.06,3.07-.34,2.63-1l-1.19-1.71-2.81.9,1.79.93a2.47,2.47,0,0,0,1.88-.12c.15-.06,1.33-.63.84-.91A42.66,42.66,0,0,1,18.29,51l-2.72,1,3.18,2.12c.64.43,3.3-.55,2.72-1a26.34,26.34,0,0,1-5.06-5.48l-2.81.9,5.47,3.86c.61.43,3.3-.5,2.72-1L15.73,46c-.54-.48-3.25.35-2.72,1,2.57,3.27,7,4,10,6.75l2-1.16a13.29,13.29,0,0,0-3.66.92c-1.29.49-2.37,1.12-3.66.27a12.77,12.77,0,0,1-2.53-2.71L12,47.29l-2.72,1L12.93,51c.56.42,3.29-.36,2.72-1l-2.34-2.69c-.5-.57-3.24.38-2.72,1a15.47,15.47,0,0,0,3.13,3l2.72-1c-1.16-.64-4.68-2.38-4-4.08.63-1.47,2.71-1.88,4-2.48C19.78,42.2,21,39.34,22,36c.21-.74-2.58-.23-2.87.48a8.56,8.56,0,0,0-.63,4c.05.73,2.69,0,2.88-.62l1.82-5.58-2.89.63.8,2.12c.27.73,3,0,2.9-.77l-.85-4.89-2.9.78a21.54,21.54,0,0,0,2,5.37c.36.69,3.09,0,2.9-.78l-1.56-6-2.9.78,2.53,5.29c.34.71,3.08,0,2.9-.78a31.36,31.36,0,0,0-2.84-7.54c-.4-.76-3.18.18-2.89.77a20.35,20.35,0,0,0,4.23,5.89c.44.42,3.1-.24,2.81-.9q-2.12-4.8-4.68-9.37c-.39-.69-3.13.05-2.9.77A86.34,86.34,0,0,0,24,36.3l2.81-.9a27.69,27.69,0,0,1-5.11-11.51c-.13-.71-3.05,0-2.9.77Z"/><path class="cls-14" d="M13.11,47.79c.16.14.27.3.13.5l2.24-.76a6.14,6.14,0,0,1-2.35-1.38l-1.53,1.4a1.82,1.82,0,0,1,1,.3l.95-1.46-.19,0,1.08,0c-.57-.08,1-3.19,1.14-3.49a38.59,38.59,0,0,1,2-3.48l-2.23.76,3.54.75c.31.07,1,.1,1.19.39s-.15,1.4-.21,1.78a13.82,13.82,0,0,0-.06,3.34,12.16,12.16,0,0,0,.28,1.69c.11.45.52,1.23.41,1.68l.28-.43a3.41,3.41,0,0,1-.89.46l-1.1.53-2.2,1c-.34.17-.89.46-.87.9s.53.53.89.56l6.56.59-.61-1.09a3.86,3.86,0,0,1-2.82,1,2.36,2.36,0,0,0-1.82.69c-.35.43-.15.82.38,1l1.43.36,0-1.25h.11c.23,0,.28,0,.13,0l-.46-.24-2.3,1.42a8.28,8.28,0,0,0,10.26-2.86c.66-1.06-1.47-.89-1.93-.66a13.61,13.61,0,0,0-4.07,3.07c-.39.45-.34.9.29,1.06a2.51,2.51,0,0,0,2.05-.55l2.67-2.43c.4-.36.37-.81-.15-1a2.41,2.41,0,0,0-1.92.31,13.16,13.16,0,0,0-1.4.94c-.18.14-.36.28-.53.43l-.3.27c.17-.07.16-.08,0,0a11.08,11.08,0,0,1-3,.83c-.53.09-1.54.35-1.65,1s.85.72,1.26.65a21.66,21.66,0,0,0,4.13-1.09,5.15,5.15,0,0,0,1.79-1.06,8.79,8.79,0,0,1,1.51-1.07l-2.07-.7-2.68,2.42,2.34.51A9.77,9.77,0,0,1,26.64,53l-1.93-.66a3.92,3.92,0,0,1-5.26,1.52,2.27,2.27,0,0,0-2.05.26c-.47.29-.8.79-.25,1.16A4.09,4.09,0,0,0,21.48,55c.59-.38.82-1,0-1.25L20,53.42l-1.44,1.64a8.93,8.93,0,0,0,6.27-2.19c.69-.6,0-1-.6-1.09l-6.57-.59,0,1.46,2.75-1.32a8.48,8.48,0,0,0,2.62-1.45c.63-.7.16-1.48,0-2.26a12.8,12.8,0,0,1-.41-2.82A12.22,12.22,0,0,1,22.86,42c.17-.82.33-1.61-.46-2.15a6.59,6.59,0,0,0-2.36-.7l-3-.62a2.33,2.33,0,0,0-2.23.76A37.61,37.61,0,0,0,12,44.64c-.34.77-.94,1.78-.49,2.61s1.59.83,2.42.63c.49-.12,1.9-.94,1-1.46A5.09,5.09,0,0,0,12,45.9c-.38,0-2.26.72-1.53,1.39a8.21,8.21,0,0,0,3.26,1.85,2.33,2.33,0,0,0,2.23-.76,1.27,1.27,0,0,0-.14-1.74,2,2,0,0,0-1.93,0c-.31.13-1.27.74-.76,1.19Z"/><path class="cls-14" d="M5.23,42.1A7.59,7.59,0,0,0,7.51,48a1.54,1.54,0,0,0,1,.26A2.14,2.14,0,0,0,9.44,48a1.08,1.08,0,0,0,.5-1.49,9.7,9.7,0,0,1-1.62-6l-2.94.18c0,1.67,1.45,2.65,3,2.9a6.43,6.43,0,0,0,2.58-.19c.4-.09.8-.2,1.2-.3l.34-.07c-.15,0-.14,0,0,0l.27,0s.45,0,.17,0l.2-2.18-.48.13a1,1,0,0,0-.27,0s.29,0,.06,0a8.1,8.1,0,0,1-1,.05c.11,0,.22,0,.05,0l-.28,0-.49-.07-.22,0-.15,0-.1,0L10,40.74a7.12,7.12,0,0,1-.86-.36c-.09-.05-.22-.12-.06,0l-.19-.11L8.43,40a6.51,6.51,0,0,1-.76-.63c-.14-.14.17.2,0-.07l-.15-.16c-.12-.14-.23-.29-.34-.44L4.49,40a1.3,1.3,0,0,1,.18.23s.17.31.06.08a3.56,3.56,0,0,1,.18.52c.1.37.16.75.26,1.11A3,3,0,0,0,6.9,44a5.63,5.63,0,0,0,2.61.18c.2,0,.4-.05.61-.06s.44-.06.48,0h0l.14,0-.12,0s.24.1.25.1c-.18-.08-.09,0,0,0A1.78,1.78,0,0,0,13,44.1c.5-.43.72-1.13.13-1.6a4,4,0,0,0-2.68-.66c-.37,0-.73.07-1.1.1-.18,0-.36,0-.54,0h0l-.27,0c-.25,0,.19,0,0,0s-.14-.06,0,0l-.23-.17c.18.14,0,0,0-.07l-.12-.21c-.06-.1,0,.16,0,0s-.13-.39-.17-.58a4.87,4.87,0,0,0-.88-2.24,1.66,1.66,0,0,0-2-.27c-.54.3-1.11,1-.66,1.59a8.46,8.46,0,0,0,9.18,3c.52-.16,1.13-.55,1.19-1.15a1,1,0,0,0-1-1,9.11,9.11,0,0,0-2.65.3l-.94.23c-.06,0-.61.11-.28.07l-.47,0h.08l-.2,0c-.09,0-.49-.13-.17,0L9,41.25l-.19-.08c.14.08.15.08,0,0a3.65,3.65,0,0,1-.31-.24c.22.19,0-.07-.08-.13s-.07-.1,0,0a.7.7,0,0,1-.06-.17,1.16,1.16,0,0,1,0-.18c0,.14,0,.14,0,0,0-1.59-2.86-1.22-2.94.18a11.46,11.46,0,0,0,1.92,7.1l2.43-1.53c.11.11-.14-.16-.13-.15l-.16-.19a5.81,5.81,0,0,1-.4-.57,4.74,4.74,0,0,1-.31-.54c0-.07,0-.07,0,0l-.05-.12c-.05-.11-.09-.23-.14-.35a5.65,5.65,0,0,1-.36-2.41c.11-1.58-2.85-1.23-2.94.18Z"/><path class="cls-14" d="M20.41,44.39l-.86-3.65C19.27,39.55,17,40,16.71,41a2.3,2.3,0,0,1-.77,1.2l2.44.59,0-1.07c0-1-1.41-1.21-2.12-.78a2.59,2.59,0,0,0-.92,3.8,5.82,5.82,0,0,0,1.44,1.53c.43.38,1.07.88,1.09,1.51l2.58-1a6.86,6.86,0,0,1-1.39-1.3l-2.15,1.65,1.49.36c.74.19,2.29,0,2.3-1.1,0-.21,0-.25,0-.13a.87.87,0,0,0-.1-1.31l-1.44-.77c-.86-.47-2.84-.09-2.56,1.24,0,0-.47.2-.65.26l-1.92.71-3.85,1.43c-.51.19-1.72.95-1.05,1.68.38.41.74.83,1.09,1.27A4.4,4.4,0,0,1,11.09,52l.06-.58-.05.15.74-.71-.09,0,1.48-.11-.1-.05.49.36,0-.08-.11,1.1,0-.07L11,52.19c2.54,5,9.05,5.1,13.69,3.61l-.92-1.92a5.48,5.48,0,0,1-4.19.54l-.61,2.18L23.66,56l-1.1-1.55a1.17,1.17,0,0,1-1.11.44l-.62,2.19,1.86,0c.73,0,2.1-.89,1.44-1.74l-1.4-1.8a4.38,4.38,0,0,1-.59-.82c-.19-.42,0-.25-.25-.14l-.77.2h0l-.62-.23.15.09c.83.47,2.44.18,2.58-1a11.3,11.3,0,0,0-.12-3.53l-2.77,1A1.94,1.94,0,0,1,20.85,51l2.79-.75a13.67,13.67,0,0,1-2.37-3.5c-.53-1.15-2.33-.79-2.84.2l-.07.14.42-.51,0,0,.77-.2.46.14a1.21,1.21,0,0,1,0-.18,2.64,2.64,0,0,0-.08-.49l-1.18,1.42.82-.19c.51-.13,1.15-.56,1.2-1.13a3.65,3.65,0,0,0-.46-2.12c-.62-1.18-3.37-.08-2.64,1.3a1.87,1.87,0,0,1,.16,1L19,45l-.82.19A1.38,1.38,0,0,0,17,46.59a2,2,0,0,0,1.46,1.88,2.41,2.41,0,0,0,2.72-1.15l-2.84.21a15.5,15.5,0,0,0,2.63,4,1.72,1.72,0,0,0,2.79-.75A3.39,3.39,0,0,0,23,48c-.8-.85-3-.35-2.78,1a9.14,9.14,0,0,1,.08,3l2.59-1c-1.35-.76-3.57-.08-3.74,1.65a2.84,2.84,0,0,0,.74,1.93c.53.72,1.09,1.42,1.64,2.12L22.92,55l-1.85,0A1.68,1.68,0,0,0,19.52,56c-.16.61.35,1.05.94,1.12A5.16,5.16,0,0,0,25,55.4c.73-.82-.23-1.65-1.1-1.55l-4.73.56a1.72,1.72,0,0,0-1.55,1.06c-.17.66.37,1,.93,1.12A9,9,0,0,0,25,55.66c.49-.28,1-.79.73-1.41a1.42,1.42,0,0,0-1.66-.51,11,11,0,0,1-6.38.47,6.55,6.55,0,0,1-4.11-3.31c-.43-.85-2.12-.43-2.54.19l-.05.07a.91.91,0,0,0-.1,1.1c.79,1.2,3.33.41,3.07-1.09a3.82,3.82,0,0,0-.85-1.4,19.72,19.72,0,0,0-1.32-1.58l-1.05,1.68,5.5-2c1.39-.51,3.67-1.28,3.27-3.19L17,45.88l1.43.77-.1-1.31a1.83,1.83,0,0,0-.52,1.24l2.3-1.1-1.49-.37a2.06,2.06,0,0,0-1.8.31c-.38.3-.71.9-.36,1.34a8.93,8.93,0,0,0,1.81,1.72c.71.5,2.61.15,2.59-.95A4.2,4.2,0,0,0,19,44.44a3.38,3.38,0,0,1-.93-1c-.11-.22-.11-.47-.2-.68s.18-.31-.23-.06l-2.12-.79,0,1.06c0,1.25,1.75,1.13,2.44.59a4.62,4.62,0,0,0,1.61-2.21l-2.84.2.87,3.65c.32,1.38,3.23.62,2.89-.78Z"/><path class="cls-14" d="M22.87,31.82a3.46,3.46,0,0,0,.31-.94,3.42,3.42,0,0,0,0-1,3.37,3.37,0,0,0-.61-1.63,1.12,1.12,0,0,0-.8-.3,2.59,2.59,0,0,0-1.13.22,1.58,1.58,0,0,0-.77.6.54.54,0,0,0,0,.64c0,.08.09.16.14.23L20,29.49a2.91,2.91,0,0,1,.37,1.38v-.22a3,3,0,0,1-.23,1.19l.1-.23a.36.36,0,0,1,0,.09.54.54,0,0,0,0,.64,1.15,1.15,0,0,0,.79.3,2.61,2.61,0,0,0,1.14-.22l.32-.17a1.42,1.42,0,0,0,.45-.43Z"/><path class="cls-14" d="M28.3,36.93,12.93,43.1,9.26,44.58c-1,.4-2.58.73-3.26,1.66-1.16,1.58,1.24,4.17,2.21,5.33a20.29,20.29,0,0,0,10.93,6.89,9.22,9.22,0,0,0,6.44-.82c2.07-1.17,3-3.06,3.62-5.26A56.27,56.27,0,0,0,31,43.87c.3-2.31.62-4.9-.9-6.87-.74-1-3.09-.3-2.77,1a17.47,17.47,0,0,1-2.11,13.22c-2.42,3.84-7,6.61-11.09,3.36a21.15,21.15,0,0,1-4.55-4.89,7.28,7.28,0,0,1-.71-1.39,2.38,2.38,0,0,1-.22-.84c0,.08.22-.07.26-.1a7.71,7.71,0,0,1,1.69-.73l2.11-.91,7.39-3.18c1.18-.5,2.35-1,3.54-1.51.56-.23,1.13-.45,1.71-.64.3-.1,1.6-.66,1.88-.51.7.4.07,2.93,0,3.45a36.79,36.79,0,0,1-1,4.31c-.7,2.55-1.3,5.64-2.89,7.8a1,1,0,0,0,.73,1.57,2,2,0,0,0,2.28-1.42.85.85,0,0,0-.36-.76l-.17-.15a1.83,1.83,0,0,0-1.77,0l-.21.08a1,1,0,0,0,.17,2c3.38.82,5.53-3.41,6.62-5.91a20.47,20.47,0,0,0,1.61-9.62c-.11-1.56-3-1.16-2.94.2a19.12,19.12,0,0,1-.78,7.21,19.35,19.35,0,0,1-1.35,3.23c-.31.57-1.41,2.88-2.18,2.69l.16,2,.21-.08-1.76,0,.17.14-.36-.76,0,.14.5-.8-.13.09,1.46-.39-.15,0,.73,1.56c1.84-2.5,2.55-5.83,3.36-8.78a41.38,41.38,0,0,0,1-4.67,7,7,0,0,0-.06-3.86c-1.31-2.88-5.83-.65-7.81.16-3.1,1.27-6.16,2.64-9.24,4l-4.64,2c-1.32.57-2.8,1.17-2.72,2.86.13,2.6,2.71,5,4.42,6.66,2.11,2.1,4.44,3.66,7.53,3.62a11.41,11.41,0,0,0,7.62-3.31C30,50.57,31.7,43.5,30.23,37.27l-2.77,1c1.14,1.46.89,3.37.69,5.09a57.25,57.25,0,0,1-1.08,6.1c-.43,1.82-.79,4.4-2.14,5.8s-3.17,1.34-4.81,1A17.85,17.85,0,0,1,11,50.41a21.83,21.83,0,0,1-1.53-2c-.2-.3-.36-.66-.58-.94s-.17-.54-.46-.16c.12-.16.68-.27.87-.35l6.27-2.52,14.07-5.65c.58-.23,1.06-1,.67-1.56s-1.39-.49-2-.25Z"/><path class="cls-14" d="M24.65,39.39A17.18,17.18,0,0,0,20.94,25c-2.59-3.26-15.57,1.16-12.6,5.11a103.41,103.41,0,0,1,7.17,10.66c.79,1.39,1.73,2.44,1.28,4.09-.35,1.27-1.67,2.4-2.07,3.79-1.32,4.63,9.41,1.61,10.85.77a17.87,17.87,0,0,0,5.37-4.56l-12.5.06a3.16,3.16,0,0,1-1.89,1.76l10.85.77,2.26-6-13.5,2.75A17.4,17.4,0,0,1,16.87,54c-1,4.57,12.59,2.38,13.47-1.88a21.16,21.16,0,0,0-.65-11.51c-1.56-4.52-12.29-.45-13.5,2.75l-2.26,6c-1.73,4.57,9.63,1.4,10.85.77a16.78,16.78,0,0,0,6.16-5.24c1.82-2.56-1.57-3.46-3.54-3.51-2.95-.07-7.06,1.13-9,3.57L17.34,46l10.85.77c.46-1.6,1.94-2.69,2.32-4.33C31,40.4,30,38.91,29,37.16A116,116,0,0,0,20.94,25L8.34,30.12a13.49,13.49,0,0,1,2.83,11.15c-.81,4.69,12.74,2.37,13.48-1.88Z"/><path class="cls-13" d="M19.39,23.15c3.77,3.86,6,8.77,8.21,13.64a24.18,24.18,0,0,1,2.34,7.35,15.35,15.35,0,0,1-1,7.06,14.26,14.26,0,0,1-4.23,5.85c-2.18,1.7-5.43,1.22-8,.61-5-1.21-7.75-5.55-9.28-10.13-2-6-2.23-12.34-4.49-18.22C2.49,28.13-.39,29,0,30.08,3.69,39.6,2.33,56.16,14.78,59.4c2.78.72,6.23,1.14,9,.25a12.6,12.6,0,0,0,6-4.94,16.74,16.74,0,0,0,2-15.47A80,80,0,0,0,27.63,30a33.2,33.2,0,0,0-5.57-8c-.83-.85-3.58.28-2.67,1.22Z"/><path class="cls-13" d="M21,21c-3.42.66-6.57,2.18-9.75,3.55L1.32,28.83C.92,29,.16,29.48.55,30s1.48.22,1.92,0l9.25-4c2.86-1.23,5.8-2.83,8.88-3.42.51-.1,1.57-.34,1.65-1S21.42,20.94,21,21Z"/><path class="cls-2" d="M22.24,59.59A80.78,80.78,0,0,1,22,69.43a63.42,63.42,0,0,0-.46,7.9A46.32,46.32,0,0,0,23,85.75c3.37,14.41,6.74,28.82,10.9,43,3.71,12.69,8.19,25.46,16.36,35.85,1.45,1.84,3.6,3.78,5.83,3.07A16.23,16.23,0,0,0,58,166.48c6.89-3.38,13.49-7.06,17.14-13,.78-1.27-.56-.61.14-1.93a11.24,11.24,0,0,0,.91-4.75c.07-1.5,0-3.23-1.11-4.18s-3-.62-4.59-.16l-10,3a9.74,9.74,0,0,0,1.17,4.45L46.53,121.48a92.94,92.94,0,0,0-6.72-11.28c-1.85-2.53-4-5-4.91-8a21.46,21.46,0,0,1-.5-7l.26-6.77a8.72,8.72,0,0,1,.79-4c1.13-2,3.58-2.76,5.8-3.35C40,79.21,37,79.6,35.12,81s-3.11,3.42-5,4.65c-.66-2.52,1.67-4.74,3.76-6.3l5.9-4.41a12.46,12.46,0,0,0-12.29,6.86c-1.38-2.55-.81-5.78.59-8.33s3.51-4.6,5.41-6.8c.76-.89,1.53-2.15.9-3.13A46.77,46.77,0,0,0,23.13,77.65c.53-6.17,1-12.79-2.11-18.18L22,76.92"/><path class="cls-3" d="M21.52,59.78A83.33,83.33,0,0,1,21.26,70a46.88,46.88,0,0,0-.26,9.4,79.34,79.34,0,0,0,1.83,8.9c.74,3.17,1.48,6.33,2.24,9.5,2.92,12.27,6,24.55,9.75,36.58,3.38,10.71,7.64,21.43,14.63,30.33,1.37,1.74,3.23,3.61,5.62,3.51a4.65,4.65,0,0,0,2.57-1,28.89,28.89,0,0,1,3.8-2.05c4.4-2.29,8.78-4.92,12.12-8.65A13.44,13.44,0,0,0,76,153.25c.29-.68-.2-.85-.1-1.46s.63-1.45.78-2.2a15.38,15.38,0,0,0,.23-2,9.7,9.7,0,0,0-.24-3.87c-.9-2.43-3.63-2.25-5.7-1.7-3.53.94-7,2.09-10.52,3.14-.25.08-.64.23-.63.55A10.71,10.71,0,0,0,61,150.14l1.45-.39L47,120.88a92,92,0,0,0-7.79-12.6,21.44,21.44,0,0,1-3.5-5.84c-.85-2.51-.71-5.18-.61-7.79a68.21,68.21,0,0,1,.41-8.34c.51-3.1,3.07-4.1,5.8-4.84.21-.06.82-.31.58-.64-1.32-1.77-3.82-1.66-5.69-.92C33.46,81,32,83.8,29.62,85.41H30.8C30.29,83,32.22,81.14,34,79.78,36,78.14,38.19,76.6,40.31,75c.38-.28,0-.49-.3-.52a13.6,13.6,0,0,0-13.24,7.26l1.4-.18c-1.72-3.44-.31-7.24,1.83-10.13,1.08-1.46,2.33-2.78,3.54-4.14,1-1.08,2.24-2.47,1.53-4-.21-.44-1-.15-1.31.08A48.26,48.26,0,0,0,22.45,77.64l1.4-.08c.52-6.13,1-12.7-2.1-18.28-.25-.46-1.48-.15-1.45.39l.94,17.45c0,.45,1.48.16,1.45-.39l-.94-17.45-1.45.39c3.06,5.53,2.62,12,2.1,18.08,0,.59,1.23.24,1.4-.08A47.43,47.43,0,0,1,34.92,63.62l-1.3.08c.84,1.81-1.52,3.68-2.6,4.88a30,30,0,0,0-3.34,4.28C26,75.59,25.24,79,26.72,82c.21.42,1.22.18,1.4-.19a11.53,11.53,0,0,1,11.33-6.47l-.3-.52c-2.41,1.8-5,3.49-7.24,5.5-1.59,1.43-3,3.27-2.56,5.52.08.42,1,.15,1.17,0,2.36-1.59,7-8.57,10.06-4.43l.58-.64a12.37,12.37,0,0,0-5.41,2.49c-1.71,1.6-1.76,3.84-1.84,6-.11,2.75-.28,5.5-.3,8.26a14.89,14.89,0,0,0,1.41,7,41.27,41.27,0,0,0,3.88,5.65,67.71,67.71,0,0,1,4.67,7.4c2.77,5,5.39,10,8.07,15.07L61,150.14c.26.47,1.66,0,1.45-.39a10.67,10.67,0,0,1-1.17-4.46l-.63.55,8.55-2.56c1.29-.38,2.84-1.06,4.2-.81s1.95,1.52,2.09,2.79a15.89,15.89,0,0,1-.13,3.71,8.62,8.62,0,0,1-.32,1.59,9.13,9.13,0,0,0-.64,1.64c-.05.49.32.64.2,1.11a9.24,9.24,0,0,1-2.11,2.92c-3.24,3.72-7.6,6.29-11.92,8.54-1,.54-2.14,1-3.15,1.6-.67.4-1.25,1.06-2.12,1.06a4.22,4.22,0,0,1-2.36-1.06c-2-1.53-3.41-3.85-4.78-5.9-5.86-8.74-9.53-18.74-12.57-28.75-3.35-11-6.14-22.17-8.82-33.34-.75-3.17-1.5-6.33-2.24-9.5s-1.57-6.21-2-9.38c-.46-3.49,0-6.93.26-10.41a84.79,84.79,0,0,0,.2-9.7c0-.45-1.47-.16-1.45.39Z"/><path class="cls-11" d="M150,99.9l-12.44,6.78c-3.65,2-7.66,4.42-8.7,8.45-1.48,5.75,3.88,10.93,9.09,13.81a60.28,60.28,0,0,0,24.21,7.29c6.61.53,13.95-.33,18.58-5.09a26.63,26.63,0,0,0,4-5.89q4.5-8.23,8.35-16.82c1-2.2,1.77-5.17-.09-6.68a5,5,0,0,0-2.73-.88,22.79,22.79,0,0,0-10.31,1.39c-3.24,1.25-6.22,3.24-9.62,3.9-4.15.81-8.4-.46-12.44-1.71l-12.89-4"/><path class="cls-11" d="M153.16,94.17a12,12,0,0,0,4.51,9.2l-11.47,2.41c-2.64.56-5.43,1.19-7.38,3a50.25,50.25,0,0,0-2.73-13.93l15.14-.79"/><path class="cls-12" d="M151.71,94.56a12.42,12.42,0,0,0,4.6,9.35l1.18-1.18-11.25,2.37c-3,.64-6.21,1.4-8.57,3.55l2.6-.21a51.82,51.82,0,0,0-2.73-13.94l-2,1.14,15.14-.79c.57,0,1.62-.18,1.92-.76s-.24-.76-.75-.73l-15.15.78c-.41,0-2.3.36-2,1.14a51.36,51.36,0,0,1,2.73,13.93c0,.88,2.28.07,2.59-.21,2.14-1.94,5.13-2.31,7.85-2.88l10-2.11c.22-.05,1.78-.69,1.18-1.18a11.85,11.85,0,0,1-4.41-9c0-.78-2.92-.25-2.9.78Z"/><path class="cls-11" d="M156.61,103.57a35.83,35.83,0,0,1,10.08,12.07,2.33,2.33,0,0,0,1,1.21,2.18,2.18,0,0,0,1.52-.14c4.93-1.69,9.85-3.64,14.07-6.71s7.73-7.37,8.93-12.45a1.33,1.33,0,0,0-.1-1.14,1.5,1.5,0,0,0-1.07-.37,11.21,11.21,0,0,1-9.56-7.61c-1,.78-1.4,2.17-2.06,3.31a11.25,11.25,0,0,1-3.69,3.47A50.13,50.13,0,0,1,155.68,103"/><path class="cls-12" d="M155.49,104.37a35.7,35.7,0,0,1,9.38,11,5.32,5.32,0,0,0,1.59,2.24,3.83,3.83,0,0,0,3.24,0c2.46-.83,4.9-1.74,7.27-2.81a34.88,34.88,0,0,0,11.64-8,22.85,22.85,0,0,0,3.7-5.39c.61-1.26,2.2-4.23,1.17-5.55-.68-.86-2-.7-3-.9a9.51,9.51,0,0,1-3-1.22A10.48,10.48,0,0,1,183,88c-.31-.91-1.82-.71-2.4-.22-1.7,1.43-2.06,3.69-3.66,5.2a28.31,28.31,0,0,1-6.44,4.14A48.26,48.26,0,0,1,155.82,102c-.59.09-1.54.4-1.61,1.13s.77,1,1.32.88a53.44,53.44,0,0,0,15.79-5,41,41,0,0,0,6.83-4.16,11,11,0,0,0,2.47-2.58c.63-1,.93-2.4,1.84-3.17l-2.4-.22a12.24,12.24,0,0,0,7.2,7.47,12.09,12.09,0,0,0,2.58.67c.38.06.89,0,1,.27s-.27,1.24-.37,1.57a18.44,18.44,0,0,1-2.76,5.34,27.75,27.75,0,0,1-10,8.06,58.67,58.67,0,0,1-6.16,2.66l-1.52.55c-.27.1-1.19.56-1.47.47-.52-.18-1.09-1.87-1.35-2.33a37,37,0,0,0-9.49-10.79c-1-.74-3.53.62-2.25,1.61Z"/><path class="cls-11" d="M76.51,131.73A44.83,44.83,0,0,0,63,136.31a2.11,2.11,0,0,0-.8.61c-.49.74.1,1.71.67,2.39Q70.2,148,77.8,156.48a21.46,21.46,0,0,1,7.64-8.61,2.72,2.72,0,0,0,1-.87c.54-.91-.13-2-.77-2.87L77.2,133.07"/><path class="cls-12" d="M76.72,131a49.29,49.29,0,0,0-10.2,2.89,30.67,30.67,0,0,0-4.67,2.21,2.1,2.1,0,0,0-.64,3.31,53.75,53.75,0,0,0,3.63,4.36q1.88,2.2,3.77,4.4,3.89,4.48,7.84,8.89c.65.72,2.44,0,2.8-.75a20.33,20.33,0,0,1,4.29-5.82,21.16,21.16,0,0,1,2.79-2.21c.84-.56,1.72-1.16,1.75-2.27s-.85-2.14-1.5-3L84,139.57l-5.4-7.06c-.56-.74-3.36.24-2.69,1.11l5,6.48,2.48,3.25c.65.85,2.42,2.55,1.7,3.71-.5.79-1.87,1.38-2.6,2a24,24,0,0,0-2.32,2.19,23.11,23.11,0,0,0-3.73,5.45l2.8-.74q-6.56-7.29-12.87-14.77c-.52-.61-1-1.23-1.55-1.85s-1.25-1.26-1.18-2c.11-1,3-1.88,3.88-2.26a42.86,42.86,0,0,1,8.87-2.56c.48-.08,1.57-.33,1.65-1s-.84-.63-1.23-.56Z"/><path class="cls-11" d="M237.69,179.92a68.61,68.61,0,0,1,3,12.06l-26.27,4.58a27.68,27.68,0,0,0-1.19-10,115.27,115.27,0,0,0,22.48-6.76"/><path class="cls-12" d="M236.24,180.3a71.71,71.71,0,0,1,3,12.07l1.62-1.29-26.27,4.58,1.28.74a29.38,29.38,0,0,0-1.19-10.21l-1.23,1.21a119.76,119.76,0,0,0,22.86-6.9c.47-.19,1.14-.75.74-1.29s-1.45-.3-1.93-.1A116.28,116.28,0,0,1,213,185.75c-.46.09-1.41.6-1.23,1.21a28,28,0,0,1,1.18,9.75c0,.65.76.84,1.28.75l26.27-4.58c.6-.1,1.75-.46,1.62-1.29a70.63,70.63,0,0,0-3-12.06c-.39-1.13-3.27-.32-2.9.77Z"/><path class="cls-11" d="M193.62,115.58c1.36,10.13-4.12,19.85-5.55,30-.82,5.75-.31,11.59.19,17.38l2.13,24.38a5.09,5.09,0,0,0,.94,3,4.91,4.91,0,0,0,3.28,1.23,74,74,0,0,0,54.84-16.9c4.88-4.13,9.52-9.79,8.79-16.14-.45-4-3-7.38-5.38-10.57-8.14-10.73-16.56-21.72-28.07-28.72-6.1-3.7-8.61-9.36-15.67-10.41-4.21-.62-10.37-4.64-13.88-2.21"/><path class="cls-12" d="M192.17,116c1.1,8.88-2.91,17.32-4.85,25.79-2.12,9.32-.74,18.88.08,28.27L188.7,185c.16,1.81,0,4.18,1.09,5.75s3,1.82,4.73,2a75,75,0,0,0,24.36-1.63,76,76,0,0,0,22.44-9.16c6.53-4,13.86-9.16,17.12-16.35a13.57,13.57,0,0,0,.3-11c-1.59-3.82-4.37-7.06-6.86-10.31-5.09-6.66-10.38-13.25-16.63-18.88a76.8,76.8,0,0,0-9.85-7.34c-3-1.9-5.27-4.54-8-6.74a17.49,17.49,0,0,0-4.18-2.59,36.29,36.29,0,0,0-4.92-1.28c-3.19-.88-6.24-2.55-9.61-2.71a7.34,7.34,0,0,0-4.44,1.17,1,1,0,0,0-.14,1.56,1.86,1.86,0,0,0,2.09-.15c1.05-.68,2.6-.33,3.72-.06,1.59.39,3.12,1,4.66,1.54,3,1,6.2,1.23,8.89,3s4.75,4.13,7.17,6.13c2.83,2.35,6.13,4.08,9,6.37,6.2,4.92,11.42,10.92,16.31,17.11,2.44,3.08,4.89,6.19,7.16,9.39s4.07,6.58,3.62,10.5c-.85,7.46-8.11,12.94-13.82,16.89a72.35,72.35,0,0,1-43.14,12.61,39.19,39.19,0,0,1-5.62-.45c-2.2-.4-2.25-2.28-2.41-4.16l-1.22-13.94c-.41-4.66-.87-9.33-1.2-14a58.57,58.57,0,0,1,.28-13.43c1.27-8,4.91-15.57,5.57-23.72a29.09,29.09,0,0,0-.14-5.9c-.18-1.4-3.08-.67-2.9.78Z"/><path class="cls-11" d="M135.49,97.9c-4.29-2.49-9.59-2.13-14.54-1.71-17.14,1.49-35.5,3.46-48.62,14.59A10.37,10.37,0,0,0,69,115c-.78,2.23-.15,4.68.62,6.91,5.26,15.35,16.74,27.75,29,38.35,2.6,2.24,5.41,4.51,8.79,5.13,6.65,1.23,12.86-4.51,15.09-10.89s1.7-13.35,2.19-20.09a65.08,65.08,0,0,1,10.4-30.71"/><path class="cls-12" d="M136.86,97.4c-6.14-3.42-13.85-2-20.5-1.34a151.54,151.54,0,0,0-21,3.23,64.74,64.74,0,0,0-18.9,7.58c-2.74,1.71-5.77,3.73-7.76,6.31-2.45,3.18-1.45,6.88-.18,10.33,4.93,13.41,14.55,24.5,25,34,5,4.5,10.34,9.92,17.62,8.42,6.24-1.29,11.09-6.32,13-12.29,2.45-7.66,1.32-15.92,2.44-23.78a65,65,0,0,1,7-21.48c.89-1.67,1.86-3.29,2.89-4.88.3-.47-1-.34-1.17-.32a2.54,2.54,0,0,0-1.69.81,65.11,65.11,0,0,0-10.26,29.1c-.37,3.66-.36,7.34-.55,11-.34,6.73-1.6,13.79-7,18.38-2.33,2-5,3-8.06,2.2-3.28-.87-5.94-3.24-8.44-5.41-10-8.69-19.4-18.53-25.31-30.51a46.64,46.64,0,0,1-3.59-9.11,8.22,8.22,0,0,1,.09-5.21,10.48,10.48,0,0,1,3.1-3.74,48.77,48.77,0,0,1,16.82-9,107.58,107.58,0,0,1,21.43-4.09c3.64-.4,7.29-.76,10.94-1,3.86-.25,7.84-.14,11.3,1.79a2.49,2.49,0,0,0,1.87-.14c.15-.05,1.32-.6.86-.86Z"/><path class="cls-15" d="M134.73,99.13,118.9,125c-2.12,3.47-4.29,7.07-4.78,11.11a47.59,47.59,0,0,0,.1,7.16c.57,19.42-14.87,36.4-15.21,55.83a4,4,0,0,0,.34,2.06,4.32,4.32,0,0,0,2.35,1.65c4.77,1.94,9.87,3.91,14.93,2.95,3-.58,5.78-2.19,8.49-3.68,5.77-3.18,11.84-6,18.32-7.16s13.47-.53,19.13,2.85c-2-7.26-3.82-15.75.76-21.73,6.13-8,20.55-7,24.86-16.09,1.19-2.52,1.32-5.4,1.57-8.18,1.4-15.52,7.13-30.25,13.1-44.68a3.83,3.83,0,0,0-1.73-4.83l-6-3.19a2.86,2.86,0,0,0-4,1.39,84.74,84.74,0,0,1-17.73,26c-3.34,3.34-7.4,6.57-12.12,6.57-2.89,0-5.63-1.23-8.24-2.49a238.59,238.59,0,0,1-21.87-12c.8-3.77,3.67-6.71,5.37-10.16s1.68-8.54-1.78-10.21"/><path class="cls-16" d="M114.9,195.09a52.26,52.26,0,0,0,14.66-2.73c.18-.06.81-.32.57-.58a70.79,70.79,0,0,1-11.62-18.15l-1.38.67a121.09,121.09,0,0,0,22.14-3.66c.11,0,1.15-.37.82-.66l-11.21-9.68c-3-2.58-6.31-5.37-6.9-9.51l-1.76.65a88.53,88.53,0,0,0,28.37,0c.06,0,1.34-.35,1.14-.64-5.91-8.11-20-12.2-20.08-23.84l-1.87.6A74.83,74.83,0,0,0,160.48,141l1.2-.79a143.56,143.56,0,0,1-35.63-.92c-.26,0-2.1.23-1.7.72,3.11,3.72,7,6.89,10.49,10.21L146,160.72l.83-.66a72.56,72.56,0,0,1-28.87,1c-.24,0-2.14.35-1.69.72a100.32,100.32,0,0,1,17.8,19.35l.88-.58a71,71,0,0,1-23.36,2.89c-.21,0-1.94.32-1.53.74a13.46,13.46,0,0,1,2.5,14.9c-.21.45,1.19.12,1.29.08,1.82-.64,3.16-2.47,2.26-4.39-.05-.12-.22-.14-.34-.15-1.51-.13-3.74.81-3.3,2.66.09.37,1.15,0,1.3,0a2.64,2.64,0,0,0,1.92-1.85c.12-.45-1.78-.18-1.9.33s-.24.88-.7,1l1.31,0a3.84,3.84,0,0,1,.13-1.32l-.35-.15c.51,1.08.32,2.92-1,3.39l1.3.07a13.76,13.76,0,0,0-2.59-15.24l-1.53.75a75.46,75.46,0,0,0,24.77-3.07c.1,0,1.05-.34.88-.58a100.54,100.54,0,0,0-17.92-19.5l-1.7.72A76.5,76.5,0,0,0,147,160.7c.12,0,1.13-.36.82-.65l-11.2-10.54c-3.53-3.32-7.39-6.49-10.49-10.21l-1.7.72a146.22,146.22,0,0,0,36.38,1c.19,0,1.89-.69,1.21-.79A74.15,74.15,0,0,1,129.6,126.9c-.35-.26-1.88.06-1.88.59,0,5.29,3.59,9.64,7.45,12.89,4.27,3.59,9.29,6.36,12.63,11l1.14-.64a84.92,84.92,0,0,1-27.14,0c-.33-.06-1.83.08-1.75.64.57,4,3.73,6.83,6.64,9.34l11.59,10,.82-.65A114.72,114.72,0,0,1,118,173.48c-.18,0-1.55.28-1.38.67a71.33,71.33,0,0,0,11.74,18.3l.56-.58a46.69,46.69,0,0,1-13.15,2.41c-.54,0-2.1.86-.83.81Z"/><path class="cls-16" d="M109.27,199.93a19,19,0,0,1-7.58,7.61c-1.14.62-2.62,2.17-.86,3s4.55-.06,6.13-.91a26.94,26.94,0,0,0,11-10.95c.91-1.67-3-1.61-3.66-1.52-1.87.27-4.05,1-5,2.76Z"/><path class="cls-16" d="M112.74,199.26a31.15,31.15,0,0,0,4.11,23c.78,1.24,4.51-.08,3.56-1.6a29.63,29.63,0,0,1-3.78-21.84c.35-1.65-3.56-1.09-3.89.4Z"/><path class="cls-16" d="M114.51,198.73a7.42,7.42,0,0,1,3.32,8.72l3.72-1a11.26,11.26,0,0,1-3.73-7.75c0-.35-.53-.65-.8-.74a22.49,22.49,0,0,0-7.33-1c-2.08.06-5.19.34-6.17,2.54a2.37,2.37,0,0,0,.67,2.79,4.84,4.84,0,0,0,3.56,1c2.46-.12,5-.6,7.4-.91.82-.1,2-.55,2.14-1.51s-1.05-1.27-1.76-1.18l-5.35.67-1.39.18a2.67,2.67,0,0,1-1.09,0,.8.8,0,0,1-.31-.25s-.28-.53-.16-.5-.49.28-.08.09c-.26.12,0,0,.14,0,.33-.09-.43,0,.14,0a16.48,16.48,0,0,1,2.33-.15,17,17,0,0,1,5,.84l-.8-.74a12.43,12.43,0,0,0,4.05,8.38,2.41,2.41,0,0,0,3.72-1,9.18,9.18,0,0,0-4.23-10.54,2.65,2.65,0,0,0-2.76.25c-.58.43-1.08,1.43-.23,1.9Z"/><path class="cls-16" d="M164.13,148.44c5.8,0,5.8-9,0-9s-5.8,9,0,9Z"/><path class="cls-16" d="M153.13,158c5.79,0,5.8-9,0-9s-5.8,9,0,9Z"/><path class="cls-16" d="M150.38,162.13v-.48a2.17,2.17,0,0,0-.26-1.15,2.13,2.13,0,0,0-.62-1,2.25,2.25,0,0,0-1-.62,2.3,2.3,0,0,0-1.16-.26l-.79.11a3,3,0,0,0-1.33.77l-.47.61a3,3,0,0,0-.41,1.51v.48a2.32,2.32,0,0,0,.26,1.16,2.25,2.25,0,0,0,.62,1,2.22,2.22,0,0,0,1,.62,2.17,2.17,0,0,0,1.15.26l.8-.11a2.94,2.94,0,0,0,1.32-.77l.47-.61a3,3,0,0,0,.41-1.51Z"/><path class="cls-16" d="M141.16,175.18c3.86,0,3.87-6,0-6s-3.87,6,0,6Z"/><path class="cls-16" d="M133.85,182.23v.48a2.32,2.32,0,0,0,.26,1.16,2.25,2.25,0,0,0,.62,1,2.28,2.28,0,0,0,1,.62,2.17,2.17,0,0,0,1.15.26l.8-.11a2.94,2.94,0,0,0,1.32-.77l.47-.6a2.92,2.92,0,0,0,.41-1.52v-.48a2.17,2.17,0,0,0-.26-1.15,2.13,2.13,0,0,0-.62-1,2.25,2.25,0,0,0-1-.62,2.3,2.3,0,0,0-1.16-.26l-.79.11a3,3,0,0,0-1.33.77l-.47.61a3,3,0,0,0-.41,1.51Z"/><path class="cls-16" d="M131.11,196.24c3.86,0,3.87-6,0-6s-3.87,6,0,6Z"/><path class="cls-16" d="M112.09,184.15v-.48a2.32,2.32,0,0,0-.25-1.16,2.34,2.34,0,0,0-.62-1,2.24,2.24,0,0,0-1-.62,2.2,2.2,0,0,0-1.16-.26l-.79.11a3,3,0,0,0-1.33.77l-.47.6a3.12,3.12,0,0,0-.41,1.52v.48a2.89,2.89,0,0,0,1.85,2.74,2.29,2.29,0,0,0,1.15.26l.8-.11a3,3,0,0,0,1.33-.77l.46-.61a2.88,2.88,0,0,0,.41-1.51Z"/><path class="cls-16" d="M118.32,172.66v-.48a2.26,2.26,0,0,0-.26-1.15,2.22,2.22,0,0,0-.62-1,3.38,3.38,0,0,0-2.12-.88l-.8.11a3,3,0,0,0-1.33.77l-.46.61a2.88,2.88,0,0,0-.41,1.51v.48a2.32,2.32,0,0,0,.25,1.16,2.7,2.7,0,0,0,1.59,1.58,2.2,2.2,0,0,0,1.16.26l.79-.11a3,3,0,0,0,1.33-.77l.47-.61a3.05,3.05,0,0,0,.41-1.51Z"/><path class="cls-16" d="M115.19,158.51l0,0,.72-.31h0l.8-.11h0l.8.11h0l.72.3h0l.61.47,0,0,.47.61s0,0,0,0l.3.71a.14.14,0,0,1,0-.07l.11.8a.17.17,0,0,1,0-.1l-.11.8a.24.24,0,0,1,0-.08l-.3.72,0,0-.47.61,0,0-.61.47h0l-.72.3h0l-.79.1h0l-.8-.1h0l-.72-.31,0,0a2.11,2.11,0,0,0,1.11.35,2.23,2.23,0,0,0,1.2,0,2.2,2.2,0,0,0,1-.54,2.31,2.31,0,0,0,.77-.84l.3-.71a2.9,2.9,0,0,0,0-1.6l-.3-.72a2.92,2.92,0,0,0-1.08-1.07,3.07,3.07,0,0,0-1.59-.44l-.8.11h0a2.37,2.37,0,0,0-.73.31c-.12.08-.09.07-.32.24a3.12,3.12,0,0,0-.31.25h0l-.47.61v0a2.61,2.61,0,0,0-.32.75,3.43,3.43,0,0,0-.13.9,3.82,3.82,0,0,0,.12.89,0,0,0,0,1,0,0l.31.72h0a2.79,2.79,0,0,0,.49.64,3.79,3.79,0,0,0,.63.49,3.09,3.09,0,0,0,1.54.41h0l.79-.1h0a3.86,3.86,0,0,0,.37-.15,3.31,3.31,0,0,0,.39-.17,2.23,2.23,0,0,0,.84-.77,2.2,2.2,0,0,0,.54-1,2.33,2.33,0,0,0,.05-1.2,2.2,2.2,0,0,0-.35-1.11l-.47-.61a3,3,0,0,0-1.33-.77l-.79-.11a3,3,0,0,0-1.52.41Z"/><path class="cls-16" d="M120.1,147.14h0l.8.1h-.05l.71.3-.07,0,.61.47-.06-.06.47.61-.06-.1.31.72a.23.23,0,0,1,0-.11l.1.79v-.14l-.11.79a.74.74,0,0,1,0-.14l-.3.72a.31.31,0,0,1,0-.1l-.47.61.06-.06-.6.47.07,0-.72.3h.06l-.8.11h0a2.22,2.22,0,0,0,1.16-.26,2.16,2.16,0,0,0,1-.62,2.25,2.25,0,0,0,.62-1,2.3,2.3,0,0,0,.26-1.16l-.11-.79a3,3,0,0,0-.77-1.33l-.61-.47a3,3,0,0,0-1.51-.41,3.4,3.4,0,0,0-1.65.45,3.36,3.36,0,0,0-1.16,1.15,3,3,0,0,0-.37.86.3.3,0,0,0,0,.1l-.11.8v.06a3.53,3.53,0,0,0,.5,1.81l.47.61,0,0a7.51,7.51,0,0,0,.65.5l0,0,.72.3a4.35,4.35,0,0,0,.88.13,2.2,2.2,0,0,0,1.16-.26,2.24,2.24,0,0,0,1-.62,2.34,2.34,0,0,0,.62-1,2.32,2.32,0,0,0,.25-1.16l-.1-.8a3.09,3.09,0,0,0-.77-1.32l-.61-.47a3,3,0,0,0-1.52-.41Z"/><path class="cls-16" d="M123,144.11h.48a2.91,2.91,0,0,0,1.54-.34,3.64,3.64,0,0,0,2.12-2.11,3,3,0,0,0,.34-1.55l-.14-1.06a3.93,3.93,0,0,0-1-1.76l-.81-.63a4.08,4.08,0,0,0-2-.55H123a3,3,0,0,0-1.54.35,3.66,3.66,0,0,0-2.11,2.11,3,3,0,0,0-.35,1.54l.15,1.07a3.93,3.93,0,0,0,1,1.76l.8.63a4,4,0,0,0,2,.54Z"/><path class="cls-16" d="M125.37,129.28c5.14,0,5.15-8,0-8s-5.16,8,0,8Z"/></g></g></g></svg>